<svg xmlns="http://www.w3.org/2000/svg" xmlns:xlink="http://www.w3.org/1999/xlink" viewBox="0 0 163.58 129.94"><defs><style>.cls-1{isolation:isolate;}.cls-2{fill:#bf9a60;}.cls-3{fill:#774d26;}.cls-4{fill:#ffebcc;}.cls-5{fill:#fffce3;}.cls-6{fill:#f7d9b2;}.cls-7{fill:#ffb13b;}.cls-46,.cls-48,.cls-7{opacity:0.3;}.cls-41,.cls-46,.cls-47,.cls-48,.cls-49,.cls-7{mix-blend-mode:multiply;}.cls-8{fill:#ddb678;}.cls-9{fill:#cca369;}.cls-10{fill:#ffdaa9;}.cls-11{fill:#775d3c;}.cls-12{fill:#fffee1;}.cls-13{fill:#4c3721;}.cls-14{fill:#c6974a;}.cls-15{fill:#dd99ad;}.cls-16{fill:#efabc1;}.cls-17{fill:#f4b8ce;}.cls-18{fill:#af6e86;}.cls-19{fill:#f7bacd;}.cls-20{fill:#ffcfd5;}.cls-21{fill:#ffeb99;}.cls-22{fill:#f9c467;}.cls-23{fill:#f2c88b;}.cls-24{fill:#6b3e1f;}.cls-25{fill:#cfe0ff;}.cls-26{fill:#9cb8e2;}.cls-27{fill:#afcaef;}.cls-28{fill:#d2f2ff;}.cls-29{fill:#4c2a13;}.cls-30{fill:#b77548;}.cls-31{fill:#ffe49f;}.cls-32{fill:#fff8cc;}.cls-33{fill:#ffebbd;}.cls-34{fill:#ffd95f;}.cls-35{fill:#ff5c36;}.cls-36{fill:#ff9d5a;}.cls-37{fill:#ffd67b;}.cls-38,.cls-41{fill:#769cb2;}.cls-39{fill:#b1d0e5;}.cls-40{fill:#aaf7db;}.cls-41,.cls-43,.cls-44{opacity:0.4;}.cls-42{fill:#588399;}.cls-43{fill:#ffd430;}.cls-43,.cls-44,.cls-45{mix-blend-mode:overlay;}.cls-44{fill:#ff9525;}.cls-45,.cls-49{opacity:0.6;}.cls-45{fill:url(#linear-gradient);}.cls-46{fill:#9e4c69;}.cls-47{fill:#a26500;opacity:0.2;}.cls-48,.cls-49{fill:#7b2070;}</style><linearGradient id="linear-gradient" x1="8241.97" y1="-13.08" x2="8226.21" y2="163.32" gradientTransform="matrix(-1, 0, 0, 1, 8312.32, 0)" gradientUnits="userSpaceOnUse"><stop offset="0" stop-color="#ffc459"/><stop offset="0.99" stop-color="#610074"/></linearGradient></defs><title>vectorsAsset 9</title><g class="cls-1"><g id="Layer_2" data-name="Layer 2"><g id="ev_pages" data-name="ev pages"><path class="cls-2" d="M55.18,104.45c-5.92-30.08-27.83-68.2-47.86-75,17.4,17.76,22.9,26.06,41.44,57.64Z"/><path class="cls-3" d="M47.29,82.56C39.27,61,26.52,40.42,10.41,30.7c19.14,9.43,39.15,45.21,44.77,73.75l-6.42-17.4C48.06,85.85,48,83.7,47.29,82.56Z"/><path class="cls-4" d="M6.64,28.54S11.4,47,14.1,55.09L20.91,55l-5.39,2.92s1.73,2.67,4.82,6.54a28.16,28.16,0,0,1,4.06-.3c-.68,1.11-1.34,2-1.78,2.67,5.67,6.39,17.07,16,26.7,21.06C49.32,87.91,27.27,35.59,6.64,28.54Z"/><path class="cls-5" d="M14.26,51.29l-5.56-19s11.35,9.08,16.75,18Z"/><path class="cls-5" d="M27.68,70.37,45.1,83S39.23,74.1,33.47,63Z"/><polygon class="cls-5" points="22.11 62.95 18.99 58.97 27.18 52.54 32.57 61.38 22.11 62.95"/><path class="cls-6" d="M23.54,44.34c-.27-.11-9.16,1.84-9.16,1.84l8.12-3.1Z"/><path class="cls-6" d="M24.53,68.46c.19,0,6.21-5.8,6.21-5.8l-5.15,6.86Z"/><path class="cls-7" d="M12.81,32.61C30.45,49.7,46.53,84.78,46.53,84.78c-6-3.42-14.06-9.83-19.59-14.6C26.67,58.82,20.42,44.06,12.81,32.61Z"/><path class="cls-8" d="M2.57,123.58,0,122.91l3.7-7.13c-.44-14.47.84-52.54,44.14-23.07,13.41,9.13,13.59,32.52-17.17,29.93-9.33-.79-10.06-3.92-14.35,4.7L9.8,125.48c1-3.41.66-5.69-2.54-.67L5,124.23C6.17,121.22,4.56,121.21,2.57,123.58Z"/><path class="cls-9" d="M21.34,119.4c.79-.07,9-24.55,12.75-25-3.42,22.82,6,24.48,12.19,26.42-.21,2.78-24.76,1.85-27.44,2.4Z"/><path class="cls-10" d="M25.45,113.85c4.95,4.05-8.38,12.32-14.09.29C11.36,114.14,14.71,105.07,25.45,113.85Z"/><path class="cls-10" d="M3.28,107.81C-1.4,110.66,2,118.41,11,112.34,11,112.34,12.77,102,3.28,107.81Z"/><path class="cls-10" d="M22.11,116.5c10.36-3.77,23.46-28.95-2.53-27.9,0,0-15.83-10.41-15.7,20.88l-.18,6.3L0,122.91l1.43.32s3.23-7.16,3.61,1l1.19.25s2.4-7.39,3.57,1l2,.38S12.93,111.63,22.11,116.5Z"/><path class="cls-9" d="M10.83,112.66c2.93-.74,8.58-6.12,8.6-8.42,0-1.43-3.7-3.08-7.73.37Z"/><path class="cls-11" d="M17.06,101.27c.6-4.45,3.54-8.45,6.83-8.72,3.69-.3,6.05,4.09,4.92,9.51-1.06,5.08-4.68,8.39-7.83,7.74C18.14,109.2,16.48,105.5,17.06,101.27Z"/><path class="cls-12" d="M16,100.07c.6-4.45,3.54-8.45,6.83-8.72a4.16,4.16,0,0,1,3.75,1.79,4,4,0,0,0-2.73-.77c-3.29.27-6.23,4.26-6.84,8.72a9.41,9.41,0,0,0,1.41,6.83C16.48,106.54,15.49,103.48,16,100.07Z"/><path class="cls-11" d="M11.62,99.2c1.22-2.69,1.32-5.83,0-7-1.43-1.3-3.86.45-5.18,3.84-1.24,3.19-.83,6.15.69,6.74S10.46,101.75,11.62,99.2Z"/><path class="cls-12" d="M5.74,95.41c1.32-3.4,3.75-5.15,5.18-3.85a1.85,1.85,0,0,1,.31.37c-1.45-.67-3.56,1-4.75,4.12-1,2.51-.92,4.88-.12,6.06C4.9,101.45,4.52,98.54,5.74,95.41Z"/><path class="cls-11" d="M10.83,112.66c2-7.84,1.56-16.18-3.63-.83Z"/><path class="cls-13" d="M22.6,101.38c.07-3.47,1.39-6.87,3.11-7.48,1.93-.69,3.42,2.37,3.13,6.65-.27,4-2,7-3.69,6.85C23.62,107.3,22.54,104.67,22.6,101.38Z"/><path class="cls-13" d="M10.1,96.27c.08-1.75.61-3.47,1.24-3.78s1.2,1.17,1,3.32-.83,3.52-1.44,3.47S10,97.92,10.1,96.27Z"/><path class="cls-13" d="M11.27,110.8s-2-6.56.09-7.62C11.36,103.18,12.84,103.27,11.27,110.8Z"/><path class="cls-10" d="M11.42,85.33c2.75-2.85,8.14-4.24,13.67-3.44s7.44,4.59,7.21,6.21S25.57,90.59,20,89.79,1.38,95.74,11.42,85.33Z"/><path class="cls-12" d="M20.08,114.33c.31-.86,1.73-1.14,3.17-.63s2.36,1.64,2.05,2.51-1.73,1.14-3.17.62S19.77,115.2,20.08,114.33Z"/><path class="cls-14" d="M91.37,8.77,93,8.49c7.12,26.92,6.41,43.32,2.58,72.07l-2.64.29C97.07,50,98,34.39,91.37,8.77Z"/><polygon class="cls-15" points="103.26 20.66 138.78 29.2 103.74 95.2 81.51 84.41 103.26 20.66"/><polygon class="cls-16" points="102.97 22.3 134.77 29.09 103.71 87.6 84.01 78.04 102.97 22.3"/><polygon class="cls-17" points="102.99 29.13 113.79 27.68 103.93 70.24 88.66 70.12 102.99 29.13"/><polygon class="cls-15" points="125.92 40.62 106.27 34.27 84.72 75.05 100.73 83.18 125.92 40.62"/><polygon class="cls-18" points="123.27 33.41 138.61 29.35 105.4 98.16 91.31 90.51 123.27 33.41"/><polygon class="cls-19" points="123.12 33.01 148.66 52.73 105.31 103.43 89.44 91.33 123.12 33.01"/><polygon class="cls-20" points="123.4 33.16 145.97 53.45 125.25 76.47 105.17 63.47 123.4 33.16"/><polygon class="cls-19" points="135.59 61.87 117.3 47.82 107.69 62.79 126.54 71.11 135.59 61.87"/><path class="cls-21" d="M29.63,35.26c2.66,13,28.2,4.14,31.91-8a4.14,4.14,0,0,1,5.66-2.32c10.24,5.86,35.7-7.7,27.52-18.61C88.12-2.49,63.11-4.66,61.15,17c0,.42,0,.82,0,1.21a13.74,13.74,0,0,0-1.68-1.48C42.13,4,27.41,24.43,29.63,35.26ZM68.7,16.66c2-9.73,9.39-12.13,19.24-7.78C83.63,15.67,77.24,17.63,68.7,16.66ZM37.34,32.92c.78-9.15,6.11-15.28,17.44-12.07C51.92,28.41,45.86,32.09,37.34,32.92Z"/><path class="cls-22" d="M31.32,33.2C33.61,44.91,57.48,36.94,61.1,26a3.94,3.94,0,0,1,5.29-2.1c9.45,5.29,33.3-6.95,25.85-16.79-6-7.95-29.25-9.9-31.36,9.6,0,.38-.06.74-.07,1.1a11.48,11.48,0,0,0-1.54-1.34C43.37,5,29.41,23.43,31.32,33.2Zm38.17-17C72,8.28,76.8,5.48,85.9,9.4,81.8,15.53,77.41,17.08,69.49,16.19Zm-31,14.91c.85-8.27,6-11.94,15.7-10C51.45,28,46.46,30.34,38.52,31.1Z"/><path class="cls-23" d="M32.49,91.68c1.81,5.67,23.09,22.49,13.11,6.5C39.58,88.52,31.5,88.6,32.49,91.68Z"/><path class="cls-10" d="M2.78,113.05c.23-2.49-.83-4-1.57-.32S2.78,113.05,2.78,113.05Z"/><path class="cls-15" d="M124.76,41.18l-3,4.55.81.5,1.31-2.07S130.56,45,124.76,41.18Z"/><path class="cls-15" d="M124.89,44.94l-1.33,1.81.72.38.74-1s.84-.39,1.12.16l.73-.49s-.79-.92-1.56-.56Z"/><path class="cls-15" d="M131.53,49.29l-1.31,2.08.86.46.73-1.1s.9-.45,1.27.2l.78-.55s-1-1.09-1.82-.68Z"/><path class="cls-15" d="M137,52.8l-1.27,2.32,1,.52.71-1.22s1-.49,1.41.25l1.08-.26s-1.45-1.59-2.31-1.14Z"/><path class="cls-15" d="M138.87,53.82l-1.25,2.38,1,.55.71-1.26s1.49.13.23,1.69l1,.57s1.65-3.7-1.08-3.45Z"/><path class="cls-15" d="M126.83,46.65c-1.26,1.18-1.34,3.9,1,2C130.51,46.46,127.46,46.07,126.83,46.65Z"/><path class="cls-15" d="M134.25,51.35c-1.39.72-2.09,3.24.35,2.2C137.59,52.29,135,51,134.25,51.35Z"/><path class="cls-15" d="M130.85,48.69c-.47-.73-2.76-1.27-2.23,1.69,0,0-.14,3.6-1.46.47l-.55.38s1.62,4.6,2.81-.48A6.26,6.26,0,0,0,130.85,48.69Z"/><polygon class="cls-15" points="135.38 52.34 134.19 54.16 135.05 54.58 135.71 52.51 135.38 52.34"/><path class="cls-24" d="M96.31,95c19.87,23.58,35.41,42.5,61.46,32,12.55-22,1.84-39.52-24.74-65.42C118.89,68.24,107,79,96.31,95Zm61.24,5.52c-8-1.13-25.77,12.44-24.23,22.41C127.19,114.53,129.54,89.27,157.55,100.48Zm-27.4-12.12c2.47-10.32,6.15-11.64,15.14-5.85C141.25,90.35,138,90.05,130.15,88.36Zm-15.7,19.57c-4-9.83-1.85-16,8.45-14.21C124.35,102.51,121.34,104.52,114.45,107.93Z"/><path class="cls-25" d="M96.89,94c19.86,23.58,35.4,42.5,61.45,32,12.55-22,1.84-39.52-24.73-65.42C119.46,67.26,107.52,78,96.89,94Zm61.23,5.52c-8-1.13-25.77,12.44-24.22,22.41C127.77,113.55,130.11,88.29,158.12,99.5Zm-27.4-12.12c2.47-10.32,6.16-11.64,15.14-5.85C141.82,89.37,138.53,89.06,130.72,87.38ZM115,107c-4-9.83-1.85-16,8.45-14.21C124.92,101.53,121.91,103.54,115,107Z"/><path class="cls-26" d="M96.89,94c11.25,13.36,21.11,25.22,32.28,31.09,2.37,1.24-3.45-34.65-9.56-56C111.32,75.38,103.82,83.55,96.89,94ZM115,107c-4-9.83-1.85-16,8.45-14.21C124.92,101.53,121.91,103.54,115,107Z"/><path class="cls-27" d="M106.42,83.53c2.53,8.86,5,23.76,4,23.24-4.64-2.43-8.74-7.36-13.41-12.9A41.54,41.54,0,0,1,106.42,83.53Z"/><path class="cls-28" d="M147.61,102.8c3.88-2.34,7.78-3.69,10.51-3.3-5.45-2.18-9.92-3-13.56-2.79l-4.42-8.83c2.11-.8,3.83-2.68,5.72-6.35-4.73-3-8-4.12-10.37-3l-7.53-15q2.78-1.59,5.65-3c26.23,25.57,37,43,25.19,64.59Z"/><path class="cls-28" d="M155.4,115.12c-2.15,5.16-6.41,10.09-17.93,10.12,0,0,15.89,8.2,22.95-7.47Z"/><path class="cls-29" d="M74.43,114.35C53,105.26,58.5,94,58.91,91.25l-2.5-3.14C52.49,103.64,58.59,112,74.43,114.35Z"/><path class="cls-29" d="M58.29,76.25c5.32-4.19,10-11,18.4.83l3.79-2.7s-9.62-20.61-24.14-.7C57.14,74.87,58.29,76.25,58.29,76.25Z"/><path class="cls-24" d="M101.41,83.39c-3.24-4.71-5.14-12.1-17.8-3.17l-3.17-3.48S98.08,59,104,81.64C102.89,82.47,101.41,83.39,101.41,83.39Z"/><path class="cls-30" d="M68.09,126.29c26.88-2.68,38-23.5,44.13-62.58C97.68,55.54,79.41,52.35,58.94,53,50.71,84.8,42.9,110.12,68.09,126.29Zm34.48-42.87c-9,4.76-12.43,3.8-18.72-3C93,72.31,97.88,72,102.57,83.42ZM57.62,90.2c8.74,13.43,32.69,10.24,38.5,8.06C87.16,123.74,52,117.7,57.62,90.2Zm.61-15.4c8.38-8.94,13.28-7.25,19,3.7C68.67,84.06,65.1,81,58.23,74.8Z"/><path class="cls-31" d="M67.09,125c26.88-2.69,37.07-22.54,43.18-61.62C95.73,55.24,79,51.49,58.57,52.12,50.34,83.93,41.9,108.85,67.09,125ZM102.2,82.55c-9,4.77-13.29,3.62-19.58-3.13C91.77,71.27,97.51,71.14,102.2,82.55ZM57.06,87.84c8.88,14.67,32.88,11.73,38.69,9.56C86.69,123.16,50.87,116.45,57.06,87.84ZM56.83,73.4c8.38-9,14.31-6.71,20,4.23C68.3,83.19,63.7,79.55,56.83,73.4Z"/><path class="cls-32" d="M67.09,125c.4,0,.79-.1,1.18-.15l1.79-10.29C47.72,108.71,56,86.38,56.14,85.64c3.67,6.08,11.24,9.75,17.74,11.09l8.43-43.1a117.1,117.1,0,0,0-23.74-1.51C50.34,83.93,41.9,108.85,67.09,125ZM56.83,73.4c8.38-9,14.31-6.71,20,4.23C68.3,83.19,63.7,79.55,56.83,73.4Z"/><path class="cls-12" d="M64.91,56.05c-2,7-10.9,19.68-5.17-.37Z"/><path class="cls-33" d="M85.17,111.05c8.54-4.1,7.41-4.63,10.58-13.65a32.15,32.15,0,0,1-6.7,1.42L93.3,85.44c2.51,0,5.33-1,8.9-2.89-1.66-4-3.44-6.61-5.46-7.92l4.9-15.43a82.88,82.88,0,0,1,8.63,4.21C105.45,94.24,98.09,113.09,82,121Z"/><path class="cls-12" d="M74.61,93.65l-.73,3.08S61.8,94.76,56.26,86C61.51,90.11,65.88,92.89,74.61,93.65Z"/><path class="cls-34" d="M92.24,7.09c3.46,4.57.17,9.66-5.29,13.26a17.65,17.65,0,0,1-9.16-4.49C81,15,83.51,13,85.9,9.4c-5.77-2.49-9.81-2.26-12.63.25a21.17,21.17,0,0,1-1.9-7.15C79.05-.23,88.67,2.38,92.24,7.09Z"/><path class="cls-34" d="M31.32,33.2C33.61,44.91,57.48,36.94,61.1,26a4,4,0,0,1,3.54-2.47,21.94,21.94,0,0,1-4.79-6.6c-.19-.15-.37-.31-.58-.46C43.37,5,29.41,23.43,31.32,33.2Zm7.2-2.1c.85-8.27,6-11.94,15.7-10C51.45,28,46.46,30.34,38.52,31.1Z"/><path class="cls-21" d="M40.86,24.37a13.39,13.39,0,0,0-2.34,6.73c1.11-.11,2.16-.25,3.16-.43,0,4.56-1,16.14-9.93-.58,1.21-6.65,5-8.59,7.88-9.74A26.81,26.81,0,0,1,40.86,24.37Z"/><path class="cls-21" d="M63.9,23.06c-2.5-.74-5.73-2.77-6.65-5.63l3.57.4Z"/><path class="cls-35" d="M58.08,18.26a1,1,0,1,1,1,.92A1,1,0,0,1,58.08,18.26Z"/><path class="cls-35" d="M62.23,16.13a1,1,0,1,1,1,.93A1,1,0,0,1,62.23,16.13Z"/><path class="cls-35" d="M63.44,12.16a1,1,0,0,1,2,0,1,1,0,0,1-2,0Z"/><path class="cls-35" d="M64.82,8.65a1,1,0,0,1,2,0,1,1,0,0,1-2,0Z"/><path class="cls-35" d="M68,5.42a1,1,0,0,1,2,0,1,1,0,0,1-2,0Z"/><path class="cls-35" d="M71.84,3.57a1,1,0,0,1,2,0,1,1,0,0,1-2,0Z"/><path class="cls-35" d="M76.83,2.83a1,1,0,0,1,2,0,1,1,0,0,1-2,0Z"/><path class="cls-35" d="M81.91,3.11a1,1,0,0,1,2,0,1,1,0,0,1-2,0Z"/><path class="cls-35" d="M86.26,4.49a1,1,0,0,1,2,0,1,1,0,0,1-2,0Z"/><path class="cls-35" d="M89.67,7.08a1,1,0,0,1,2,0,1,1,0,0,1-2,0Z"/><path class="cls-35" d="M91.06,10.31a1,1,0,1,1,1,.93A1,1,0,0,1,91.06,10.31Z"/><path class="cls-35" d="M53.83,15.86a1,1,0,1,1,1,.92A1,1,0,0,1,53.83,15.86Z"/><path class="cls-35" d="M49,14.75a1,1,0,1,1,1,.92A1,1,0,0,1,49,14.75Z"/><path class="cls-35" d="M44.22,15a1,1,0,0,1,2,0,1,1,0,0,1-2,0Z"/><path class="cls-35" d="M40.43,16.78a1,1,0,1,1,1,.92A1,1,0,0,1,40.43,16.78Z"/><ellipse class="cls-35" cx="37.84" cy="19.46" rx="1.02" ry="0.92"/><path class="cls-35" d="M34.24,22.69a1,1,0,1,1,1,.93A1,1,0,0,1,34.24,22.69Z"/><path class="cls-35" d="M32.67,26.57a1,1,0,1,1,1,.93A1,1,0,0,1,32.67,26.57Z"/><path class="cls-35" d="M31.93,31a1,1,0,1,1,1,.92A1,1,0,0,1,31.93,31Z"/><path class="cls-35" d="M32.58,34.8a1,1,0,1,1,1,.92A1,1,0,0,1,32.58,34.8Z"/><path class="cls-35" d="M35.72,37.11a1,1,0,0,1,2,0,1,1,0,0,1-2,0Z"/><path class="cls-36" d="M38.71,32c.18-3.57,2.34-12.62,15.64-10.53l.19-1.6S36,14.13,35.63,31.38Z"/><path class="cls-37" d="M39.88,27.24l-3.49-.84A9.81,9.81,0,0,1,42.23,20l1.17,3.1A10,10,0,0,0,39.88,27.24Z"/><path class="cls-36" d="M87,10.47C84,8.5,75.37,4.9,69.11,17l-1.4-.79S74.16-2.31,88.29,7.59Z"/><path class="cls-37" d="M82.41,8.61l1.41-3.33a9.87,9.87,0,0,0-8.68.94L77,9A10,10,0,0,1,82.41,8.61Z"/><path class="cls-38" d="M108.69,5.79V5.68l5.76.64A2.57,2.57,0,0,0,116.74,9l-1.45,13.11a2.79,2.79,0,0,0-3.06,2.39l-5.59-.62a2.49,2.49,0,0,0-2.09-2.67L106,8.05A2.56,2.56,0,0,0,108.69,5.79Z"/><path class="cls-39" d="M108.82,6.39a.27.27,0,0,1,0-.09l5.38.59a2.41,2.41,0,0,0,2.14,2.54L115,21.69a2.59,2.59,0,0,0-2.86,2.23l-5.23-.58a2.34,2.34,0,0,0-2-2.5l1.36-12.33A2.39,2.39,0,0,0,108.82,6.39Z"/><path class="cls-40" d="M106.08,10.53l.23-2a2.37,2.37,0,0,0,2.5-2.11s0-.07,0-.1l5.38.6a2.43,2.43,0,0,0,2.15,2.54l-.29,2.6Z"/><rect class="cls-38" x="108.58" y="9.57" width="0.35" height="0.99" transform="translate(78.21 114.93) rotate(-79.05)"/><polygon class="cls-38" points="110.1 10.12 111.07 10.31 111.01 10.65 110.03 10.46 110.1 10.12"/><rect class="cls-38" x="112.08" y="10.26" width="0.35" height="0.99" transform="translate(80.31 118.91) rotate(-79.02)"/><rect class="cls-38" x="113.87" y="10.59" width="0.35" height="0.99" transform="translate(81.52 120.95) rotate(-79.06)"/><path class="cls-41" d="M106.89,8.76l-1,11.38,8.38,1.17,1.39-11.64Zm.28.42,8.11.87L114,20.84l-7.73-1.08Z"/><path class="cls-42" d="M113.45,18.48l-.1-.13-.56.24c-.17.08-.35.15-.52.21a1,1,0,0,1-.14-.22l-.06-.1s0-.08,0-.12l-.34.11-.37.14c.11.22.23.44.35.65l.39.64a4.13,4.13,0,0,0,.6-.35l-.12-.18-.12-.2.56-.27.56-.28Z"/><path class="cls-42" d="M112.93,17.52a.52.52,0,0,0-.1-.11l-.85.31-.87.33a1.66,1.66,0,0,0,.17.45l.85-.44.89-.42Z"/><path class="cls-42" d="M111.72,16.23l.07,0,.07.13c0,.05,0,.09.07.14s.09.17.14.26l.13.27-.36.2a3.54,3.54,0,0,1-.39.19c-.07-.14-.15-.29-.22-.44s-.13-.3-.19-.46a.25.25,0,0,1,0-.08.46.46,0,0,1,.07-.07l-.32,0h-.32a.34.34,0,0,0-.14.21.45.45,0,0,0,0,.29l0,.06a.25.25,0,0,1,0,.07c0,.05.05.1.08.16l.09.15.08.14.05.08a.49.49,0,0,0,.33.27.68.68,0,0,0,.43-.06l.19-.09.19-.09.18-.09.16-.08a.78.78,0,0,0,.32-.3.38.38,0,0,0,0-.37l-.07-.13s-.07-.11-.11-.17l-.12-.17-.11-.16a.68.68,0,0,0-.19-.19.41.41,0,0,0-.22,0,1.5,1.5,0,0,0-.08.39Z"/><path class="cls-42" d="M111.1,14.09c-.09.17-.18.34-.28.5s-.19.33-.3.5l-.59-.16-.59-.13a2,2,0,0,0,.1.26,2.06,2.06,0,0,0,.12.26c.18,0,.37,0,.54.06l.53.09-.18.09-.19.09-.19.09-.2.08,0,0,0,.06.13.24.16.23.82-.47.8-.49-.06-.13a.45.45,0,0,0-.06-.12l-.15.09-.2.11-.23-.09-.2-.1a2.69,2.69,0,0,0,.27-.32,3.92,3.92,0,0,0,.25-.32A4.47,4.47,0,0,0,111.1,14.09Z"/><path class="cls-42" d="M110.73,13.41l-.11-.23c0-.07-.07-.15-.1-.23a2.12,2.12,0,0,1-.11-.21l-.22.07-.21.09.11.18.12.2a2,2,0,0,1,.11.2l.09.15a.09.09,0,0,1,0,.12.32.32,0,0,1-.14.1.66.66,0,0,1,0-.11l-.06-.12s0-.1-.07-.14l-.06-.13a.54.54,0,0,0-.8-.24.75.75,0,0,0-.4.32.5.5,0,0,0,0,.44,4.37,4.37,0,0,0,.25.41,1.06,1.06,0,0,0,.22.27.55.55,0,0,0,.25.11.52.52,0,0,0,.29-.06l.13-.06.16-.09.17-.09.17-.1.18-.13a.53.53,0,0,0,.12-.14.47.47,0,0,0,0-.16.36.36,0,0,0,0-.2C110.79,13.56,110.76,13.49,110.73,13.41Zm-.63.77,0,0a.4.4,0,0,1-.15,0,.15.15,0,0,1-.1-.08l-.07-.14a.8.8,0,0,1-.08-.16l-.08-.15s0-.08,0-.1a.09.09,0,0,1,0-.07.13.13,0,0,1,.07,0,.18.18,0,0,1,.09,0l.06,0,.08.13.09.17.1.18.09.18Z"/><path class="cls-42" d="M110,11.84a1.47,1.47,0,0,0-.1-.13l-.56.24-.52.2a1.13,1.13,0,0,1-.15-.21,1139937929904,1139937929904,0,0,1-.1-.22l-.34.1-.36.15.35.65.39.64a5.31,5.31,0,0,0,.6-.35l-.12-.18-.12-.2.56-.27L110,12Z"/><path class="cls-43" d="M106,8.05a2.56,2.56,0,0,0,2.68-2.26V5.68l4.49.5L107,24l-.39,0a2.49,2.49,0,0,0-2.09-2.67Z"/><path class="cls-38" d="M121.05,14.92l0-.09,4.8,3.23a2.59,2.59,0,0,0,.77,3.47l-7.36,10.94a2.78,2.78,0,0,0-3.81.7L110.83,30a2.51,2.51,0,0,0-.61-3.34l7.41-11A2.55,2.55,0,0,0,121.05,14.92Z"/><path class="cls-39" d="M120.88,15.52l.05-.09,4.49,3a2.42,2.42,0,0,0,.72,3.24l-6.89,10.23a2.59,2.59,0,0,0-3.56.65l-4.37-2.93a2.33,2.33,0,0,0-.57-3.12l6.93-10.3A2.38,2.38,0,0,0,120.88,15.52Z"/><path class="cls-40" d="M116.54,17.92l1.14-1.7a2.38,2.38,0,0,0,3.2-.71s0-.06.05-.08l4.49,3a2.43,2.43,0,0,0,.72,3.25l-1.46,2.17Z"/><rect class="cls-38" x="118.95" y="18.25" width="0.35" height="0.99" transform="matrix(0.62, -0.78, 0.78, 0.62, 30.14, 100.13)"/><rect class="cls-38" x="120.39" y="19.37" width="0.35" height="0.99" transform="translate(29.82 101.69) rotate(-51.4)"/><polygon class="cls-38" points="121.62 20.53 122.39 21.15 122.18 21.43 121.4 20.81 121.62 20.53"/><rect class="cls-38" x="123.17" y="21.6" width="0.35" height="0.99" transform="translate(29.18 104.77) rotate(-51.44)"/><path class="cls-41" d="M118.07,16.72l-6.17,9.61,6.89,4.93,6.62-9.67Zm.05.51,6.79,4.53-6.15,9-6.35-4.55Z"/><path class="cls-42" d="M118.07,28.41c0-.06,0-.11,0-.16l-.53-.14-.49-.16c0-.08,0-.16,0-.25l0-.11,0-.11a1.48,1.48,0,0,0-.29-.12l-.34-.12c-.06.24-.11.48-.16.72s-.09.48-.13.72a3.82,3.82,0,0,0,.63.09,1.8,1.8,0,0,1,0-.22,1.43,1.43,0,0,0,0-.22l.55.13.56.11A.88.88,0,0,0,118.07,28.41Z"/><path class="cls-42" d="M118.31,27.36a.33.33,0,0,0,0-.14l-.76-.26-.81-.27a2.18,2.18,0,0,0-.16.45l.85.17.87.2A.76.76,0,0,0,118.31,27.36Z"/><path class="cls-42" d="M118.29,25.65l0,.06,0,.14a.83.83,0,0,1,0,.15c0,.09,0,.18-.07.28s0,.19-.07.29l-.37-.06-.39-.08c0-.16.09-.32.13-.47a4.42,4.42,0,0,1,.15-.48l.08,0h.09a1,1,0,0,0-.19-.21,2.08,2.08,0,0,0-.21-.21.35.35,0,0,0-.22.08.41.41,0,0,0-.15.25s0,0,0,.06a.24.24,0,0,1,0,.08,1,1,0,0,1,0,.17.85.85,0,0,1,0,.17q0,.09,0,.15a.56.56,0,0,1,0,.1.52.52,0,0,0,.06.4.63.63,0,0,0,.33.21l.19,0,.19.05.18,0,.15,0a.67.67,0,0,0,.41,0,.48.48,0,0,0,.21-.31s0-.08,0-.14a1.23,1.23,0,0,0,0-.2.64.64,0,0,0,0-.2l0-.19a.65.65,0,0,0,0-.25.25.25,0,0,0-.12-.16,2,2,0,0,0-.3.24Z"/><path class="cls-42" d="M119.19,23.63l-.5.23-.51.2c-.1-.16-.2-.32-.31-.47l-.32-.46-.09.27a2.76,2.76,0,0,0-.08.27c.11.12.23.24.33.37s.21.25.31.38l-.18,0-.19,0-.18-.05-.19-.05s0,0,0,.06,0,0,0,.05a2.56,2.56,0,0,0,0,.27c0,.09,0,.18,0,.27L118,25l.84.1a1.12,1.12,0,0,0,.05-.13l0-.13-.16,0-.2,0c0-.07-.07-.13-.1-.2a1.67,1.67,0,0,1-.08-.2l.39-.08.36-.1A3.9,3.9,0,0,0,119.19,23.63Z"/><path class="cls-42" d="M119.36,22.89c0-.08,0-.16.07-.24l.06-.24.06-.22-.19-.08-.2-.06,0,.2a1.85,1.85,0,0,0,0,.23c0,.08,0,.15,0,.22s0,.12,0,.17a.1.1,0,0,1-.08.09.27.27,0,0,1-.15,0l0-.11,0-.13a.83.83,0,0,0,0-.15.74.74,0,0,0,0-.14.48.48,0,0,0-.39-.65.64.64,0,0,0-.48,0,.53.53,0,0,0-.25.36c0,.17-.07.32-.09.46a1.32,1.32,0,0,0,0,.34.54.54,0,0,0,.1.23.5.5,0,0,0,.24.13l.13,0,.15,0,.18,0,.18,0a1.33,1.33,0,0,0,.2,0,.33.33,0,0,0,.17,0,.38.38,0,0,0,.13-.09.69.69,0,0,0,.1-.17C119.31,23,119.33,23,119.36,22.89Zm-.91.22h0a.35.35,0,0,1-.12-.07.16.16,0,0,1,0-.12s0-.09,0-.15,0-.11,0-.17,0-.11,0-.16l0-.11a.08.08,0,0,1,0,0h.08a.07.07,0,0,1,.07,0,.08.08,0,0,1,0,.07.89.89,0,0,1,0,.14l0,.19c0,.06,0,.13,0,.2s0,.13,0,.19Z"/><path class="cls-42" d="M119.8,21.21a.81.81,0,0,0,0-.16l-.52-.14-.49-.15a.73.73,0,0,1,0-.25.27.27,0,0,1,0-.12l0-.11-.29-.12-.34-.11c-.06.24-.11.48-.16.71s-.1.48-.13.73a5,5,0,0,0,.62.08l0-.21a1.43,1.43,0,0,1,0-.22l.55.12.56.12C119.79,21.32,119.79,21.27,119.8,21.21Z"/><path class="cls-44" d="M117.63,15.68a2.55,2.55,0,0,0,3.42-.76l0-.09,3.74,2.52-13.69,12.9-.32-.22a2.51,2.51,0,0,0-.61-3.34Z"/><path class="cls-45" d="M0,122.91l2.57.67a4.38,4.38,0,0,1,2.22-1.69A14.78,14.78,0,0,1,5,124.23l2.22.58a14.16,14.16,0,0,1,1.82-2.43,12.89,12.89,0,0,1,.72,3.1l6.52,1.86a20.45,20.45,0,0,1,2.73-4.47l-.21.31c1.36-.28,8.29-.18,14.85-.37a39.8,39.8,0,0,0,8.17-.51,10.09,10.09,0,0,0,4.12-1c4.77-1.65,7.76-4.45,9.27-7.73a33.08,33.08,0,0,0,2.07,2.92,39.24,39.24,0,0,0,10.77,9.85c16.22-1.62,26.71-9.85,33.82-24.71,17.34,20.31,32.3,34.88,55.86,25.4.18-.32.35-.64.52-1l.05,0c7.52-13.18,6.68-24.75-.9-37.47v0c-.38-.65-.79-1.3-1.21-2l0,0c-.41-.64-.85-1.29-1.3-2l0-.08c-.45-.64-.9-1.28-1.38-1.93l-.09-.12c-.47-.64-1-1.28-1.45-1.92l-.14-.18c-.48-.63-1-1.26-1.49-1.89l-.21-.25-1.53-1.85-.29-.33c-.51-.6-1-1.2-1.55-1.8l-.38-.42L144.77,72c-.17-.19-.36-.38-.53-.58l-1.51-1.62-.72-.77-1.41-1.48-1-1-1.27-1.3-.24-.24,10.54-12.33-15.54-12,4.6-9.53,1.06-2-14.86-3.57,2.75-4.1a2.59,2.59,0,0,1-.77-3.47l-4.8-3.23,0,.09a2.55,2.55,0,0,1-3.42.76l-1.95,2.89L116.74,9a2.57,2.57,0,0,1-2.29-2.71l-5.76-.64v.11A2.56,2.56,0,0,1,106,8.05L104.58,21l-1.32-.32L98,36.13a144.86,144.86,0,0,0-3.24-20.49c1.92-3,2.27-6.26,0-9.32C89.11-1.17,70.24-3.84,63.47,8.75a18.65,18.65,0,0,0-2.59,7.94c0,.38-.06.74-.07,1.1a10.34,10.34,0,0,0-1-.88h0c-.19-.15-.37-.31-.58-.46a19.15,19.15,0,0,0-6.74-3.22c-14.1-3.87-24.81,12.67-22.9,22,2.66,13,28.2,4.14,31.91-8a4.14,4.14,0,0,1,5.66-2.32c6.79,3.88,20.27-.77,26.2-7.53a126.46,126.46,0,0,1,2.77,24L91.33,55.64a99.29,99.29,0,0,0-19.71-3.28l-1.1-.08-1.89-.1-1.57-.06-1.64,0-2.07,0H62.06c-1.15,0-2.31,0-3.49.07C55.16,65.3,51.72,77.3,50.64,88l-.12-.35c-.29-.82-.58-1.64-.88-2.45,0-.13-.09-.25-.14-.37-.31-.83-.63-1.67-1-2.5a1.88,1.88,0,0,0-.12-.3c-.33-.85-.68-1.71-1-2.56l-.07-.18c-.37-.87-.74-1.74-1.12-2.61l0-.08c-.38-.87-.78-1.74-1.18-2.61a2.14,2.14,0,0,0-.1-.22c-.39-.84-.78-1.67-1.18-2.5L43.54,71c-.4-.82-.8-1.62-1.21-2.42-.06-.12-.11-.23-.17-.34-.41-.8-.82-1.58-1.24-2.37l-.19-.34c-.42-.78-.84-1.56-1.28-2.32l-.18-.34c-.44-.77-.88-1.54-1.33-2.29-.06-.1-.11-.2-.17-.29-.46-.77-.92-1.54-1.39-2.29l-.14-.23c-.48-.77-1-1.54-1.46-2.3l-.08-.11q-2.36-3.62-4.84-6.89l0,0c-.54-.71-1.09-1.41-1.63-2.09l-.09-.1c-.53-.67-1.08-1.32-1.62-2l-.11-.13c-.54-.63-1.08-1.25-1.63-1.85l-.11-.13c-.55-.6-1.1-1.19-1.65-1.76l-.11-.1Q22,39.4,21.2,38.59l-.07-.07C20.55,38,20,37.44,19.4,36.93l0,0a46.2,46.2,0,0,0-5.62-4.3,24.9,24.9,0,0,0-7.11-4.07S11.4,47,14.1,55.09L20.91,55l-5.39,2.92s1.73,2.67,4.82,6.54a28.16,28.16,0,0,1,4.06-.3c-.68,1.11-1.34,2-1.78,2.67C28.23,73.17,39.45,82.63,49,87.74l1.37,3.7c-.06,1.1-.08,2.18-.08,3.24a20.61,20.61,0,0,0-2.46-2c-7.79-5.3-14.22-8.41-19.53-9.87a11,11,0,0,0-3.22-1c-5.53-.8-10.92.59-13.67,3.44-2.55,2.65-3.6,4.18-3.66,5-1.88,2.6-3.34,7-3.76,14.3-.09,1-.17,1.93-.22,2.87-.17.09-.33.18-.5.29a3.89,3.89,0,0,0-2,4.41c0,.16-.07.32-.11.51-.51,2.56.44,1.72,1.07,1a3.6,3.6,0,0,0,1.39.72c0,.47,0,.93,0,1.36ZM69.53,16.2C71.85,12.05,74.45,9.93,77,9h0a10,10,0,0,1,5.46-.4h0a12.7,12.7,0,0,1,3.26,1.12c-.21.3-.41.59-.62.86l-.24.31c-.21.27-.42.53-.63.77l-.27.3c-.21.24-.43.47-.65.68l-.25.24c-.24.23-.48.44-.73.65l-.18.15a11.85,11.85,0,0,1-4.31,2.17h0A21.94,21.94,0,0,1,69.53,16.2ZM40.14,30.91l-1.35.16a12.91,12.91,0,0,1,1.09-3.83h0a10,10,0,0,1,3.52-4.17c2.3-1.53,5.7-2.38,10.7-1.64-2.4,5.67-6.39,8.18-12.42,9.24h0c-.49.09-1,.17-1.52.24Zm93.12,90a19.33,19.33,0,0,1-.18-17.32c3.32-5.18,10.19-8.14,22.18-4-.2,0-.39.07-.59.12l-.24.06c-.31.08-.63.16-1,.26l-.37.13c-.33.1-.65.22-1,.35l-.25.1c-.41.17-.83.35-1.25.55l-.34.16-1,.5-.37.2c-5.22,2.85-10.63,7.65-13.34,12.59A14.3,14.3,0,0,0,133.26,120.93Zm-.57-39.29c2.49-3.76,6.2-3.25,12.6.87l-.43.8-.33.55-.1.15c-.2.3-.4.58-.59.84l-.11.15c-.2.26-.4.49-.59.71l-.12.13q-.3.33-.6.6a.94.94,0,0,1-.1.1c-.21.18-.42.35-.63.5l-.09.06a5.32,5.32,0,0,1-.67.42l-.06,0a6.43,6.43,0,0,1-.71.32c-2.39.91-5.27.41-9.44-.49A25.64,25.64,0,0,1,132.69,81.64ZM72,113.24c-17.48-8.36-14-18.16-13.2-21.45,9.14,11.08,29.91,8.78,36.53,6.74C90.78,110,80.75,114.54,72,113.24Zm4.77-35.56c-7.47,4.83-11.92,2.6-17.55-2.19,4.71-4,9.1-9,16.39.15C76,76.27,76.38,77,76.77,77.68Zm45.6,24.18c-1.43,2-3.9,3.38-7.34,5.09-2-4.73-2.45-8.61-1.29-11.17,1.51-2,4.51-2.86,9.16-2.06C123.51,97.45,123.32,100,122.37,101.86Z"/><path class="cls-46" d="M106.58,61.13l16.82-28,15.38-4-14.92-3.64-4.55,6.91a3.08,3.08,0,0,0-3.81.7L110.83,30s1.18-2.11-.61-3.34l2-2.16-5.59-.62A3.18,3.18,0,0,0,104.58,21c-2.06-.69-1.32-.32-1.32-.32l-11.93,35Z"/><polygon class="cls-46" points="123.4 33.16 138.78 29.2 133.12 40.73 123.4 33.16"/><path class="cls-46" d="M47.84,92.71c-.2,3-5,18.49-21.64,21.64,0,0,2.4,5-6.09,6.46l-1.27,2.37s30.65,3.18,36.56-9c0,0-5.91-9.24-5-20.14C48.93,93.28,47.84,92.71,47.84,92.71Z"/><path class="cls-47" d="M76.09,26.14s-11.45-6.77-15.27-8.62c-.58.68,4.37,6.9,4.37,6.9s.41-.5,2.22.61C70.3,26.82,76.09,26.14,76.09,26.14Z"/><path class="cls-48" d="M116,112.46l-.38-4.25c3.62-2.6,10.29-3.57,8-14.47C123.63,93.74,129.94,105.07,116,112.46Z"/><path class="cls-48" d="M150.89,83.41l-4.13-1.24c-3.13,3.8-3.73,9-15.46,5.55C131.3,87.72,140.82,95.54,150.89,83.41Z"/><path class="cls-49" d="M123.77,111.42c2.06,1.31,2.24,5.43-.85.72S123.77,111.42,123.77,111.42Z"/><path class="cls-48" d="M104.27,81.82c-3.14-7.29-7.85-14.41-14.87-10.44,0,0,9.7-8.31,15.89,9Z"/><path class="cls-48" d="M56.64,70.64c6.32-4.75,13.84-8.57,17.67-1.71,0,0-3.85-11.92-17.76-.06Z"/><path class="cls-48" d="M73.23,116.84l-6.65-1.29S68.52,122.38,73.23,116.84Z"/><path class="cls-48" d="M149.88,108.09l-5.31,4.17S143.4,106,149.88,108.09Z"/></g></g></g></svg>