<svg xmlns="http://www.w3.org/2000/svg" viewBox="0 0 42.01 35.75"><defs><style>.cls-1{fill:#f72585;}</style></defs><title>vectorsAsset 21</title><g id="Layer_2" data-name="Layer 2"><g id="ev_pages" data-name="ev pages"><path class="cls-1" d="M6.12,17.12l15-14.9a1,1,0,0,0,0-1.5h0a3.51,3.51,0,0,0-4.26,0L.35,17.12a1,1,0,0,0,0,1.5L16.84,35a3.54,3.54,0,0,0,4.26,0h0a1,1,0,0,0,0-1.5l-15-14.91A1,1,0,0,1,6.12,17.12Z"/><path class="cls-1" d="M16.4,17.12l15-14.9a1,1,0,0,0,0-1.5h0a3.51,3.51,0,0,0-4.26,0L10.63,17.12a1,1,0,0,0,0,1.5L27.12,35a3.54,3.54,0,0,0,4.26,0h0a1,1,0,0,0,0-1.5l-15-14.91A1,1,0,0,1,16.4,17.12Z"/><path class="cls-1" d="M26.68,17.12l15-14.9a1,1,0,0,0,0-1.5h0a3.51,3.51,0,0,0-4.26,0L20.91,17.12a1,1,0,0,0,0,1.5L37.4,35a3.54,3.54,0,0,0,4.26,0h0a1,1,0,0,0,0-1.5l-15-14.91A1,1,0,0,1,26.68,17.12Z"/></g></g></svg>