<svg xmlns="http://www.w3.org/2000/svg" viewBox="0 0 113.33 186.73"><defs><style>.cls-1{isolation:isolate;}.cls-2{fill:#650032;}.cls-3{fill:#993f50;}.cls-4{fill:#d3b894;}.cls-5{fill:#305057;}.cls-6,.cls-9{fill:#eed4ad;}.cls-7{fill:#cbccca;}.cls-7,.cls-9{mix-blend-mode:multiply;}.cls-8{fill:#9b7977;}.cls-9{opacity:0.5;}.cls-10{fill:#c34c5d;}</style></defs><title>vectorsAsset 13</title><g class="cls-1"><g id="Layer_2" data-name="Layer 2"><g id="ev_pages" data-name="ev pages"><path class="cls-2" d="M113.33,181c0,3-24.57,5.51-54.88,5.51s-54.88,1.07-54.88-2,24.57-9.05,54.88-9.05S113.33,178,113.33,181Z"/><path class="cls-3" d="M70.92,103.82c-.63,2.25-1.26,4.49-1.88,6.74a26.46,26.46,0,0,1-3,7.59c-.9,1.36-2.05,2.54-2.84,4-1.41,2.51-1.61,5.58-3.13,8A27.56,27.56,0,0,0,58,133.25c-1.16,2.6-.14,5.84-1.56,8.31a3.1,3.1,0,0,1-3-.73,1.16,1.16,0,0,0,.43-1.58,1.78,1.78,0,0,0-1.55-.81,3.73,3.73,0,0,1-1.25,0c-1-.35-1.12-1.92-2.12-2.11-3-.54-6.14-1.16-9.13-1.49a14.8,14.8,0,0,0-3.12-.13c-1.78.18-3.55,1-5.29.62A60.39,60.39,0,0,1,39,125.13a21.69,21.69,0,0,1,3.51-3.2c2-1.4,4.49-2.24,6.21-4,1.4-1.44,2.2-3.41,3.68-4.77,1.09-1,2.47-1.61,3.66-2.5,4-3,5.61-9.08,10.39-10.63,1.38-.44,3.26-.19,3.75,1.17C70.52,102.16,69.89,103.75,70.92,103.82Z"/><path class="cls-4" d="M61.82,118.21C59.39,126,56.94,134,56.38,142.12c-.36,5.25,0,10.72-2,15.59a86.27,86.27,0,0,1,1.63,17,18.21,18.21,0,0,0,5-12.41c0-1.11-.09-2.23-.07-3.34a21.72,21.72,0,0,1,.32-3.11,33.48,33.48,0,0,1,2.14-7.33c3.08-7.31,3.39-15.39,3-23.31a11.88,11.88,0,0,0-.83-4.31A5.29,5.29,0,0,0,61.82,118.21Z"/><path class="cls-5" d="M54.77,156.75a3.94,3.94,0,0,1-2.25,1.08,3.26,3.26,0,0,0-2.35,2.35,4.5,4.5,0,0,0,.55,3.37c.55.94,1.37,1.71,1.87,2.69a7.48,7.48,0,0,1,0,5.6,36.84,36.84,0,0,0-1.74,5.46c-.16,1,.13,2.4,1.16,2.49.8.67,2.06.22,2.82-.5a4.92,4.92,0,0,0,1.29-2.81,26.78,26.78,0,0,0,.22-5.87c0-1.58-.1-3.15-.16-4.72A37.15,37.15,0,0,0,54.77,156.75Z"/><path class="cls-5" d="M55.37,161a10.93,10.93,0,0,0,5.72-1.15,18.12,18.12,0,0,1,.44,3.2,11,11,0,0,1-5.54.76.44.44,0,0,1-.22-.1.42.42,0,0,1-.06-.25C55.72,162.65,55.37,161.73,55.37,161Z"/><path class="cls-6" d="M59.93,111.62c.43,2.33.87,4.66,1.3,7a26.88,26.88,0,0,1,.67,7.88c-.26,2.23-1.07,4.36-1.48,6.57-1.27,6.89,1.48,13.81,3.87,20.41,1.13,3.12,2.2,6.47,1.45,9.71-.23,1-.62,1.89-.86,2.85a20.78,20.78,0,0,0-.36,6.05c0,1.39.36,3.13,1.71,3.5,1.11.31,2.75.34,3.46-.56,3-3.86,3.16-10.34,1.14-14.82-2.45-5.43-.22-12.33.22-18.28a35.21,35.21,0,0,0,.11-7c-.31-2.6-1.27-5.09-1.62-7.69-.58-4.3.51-8.63,1.6-12.84a8.17,8.17,0,0,0,.32-2.35c0-1.08-.1-2.16-.14-3.25a10,10,0,0,0-.68-3.81,3.34,3.34,0,0,0-3-2.06,4.83,4.83,0,0,0-1.81.63,10.53,10.53,0,0,0-3.41,2.34,10.31,10.31,0,0,0-1.44,2.47C60.47,109.38,59.73,110.56,59.93,111.62Z"/><path class="cls-5" d="M63.74,166.68c-.77,1.61-.06,3.59-.6,5.29-.2.61-.54,1.16-.8,1.75a12.5,12.5,0,0,0-.7,4.95A1.71,1.71,0,0,0,62,180a1.65,1.65,0,0,0,.87.33c1.4.24,3,.43,4.08-.51a4.68,4.68,0,0,0,.89-1.21q.87-1.49,1.71-3a.8.8,0,0,0,.15-.53.71.71,0,0,0-.38-.45c-1.13-.68-2.72-.51-3.62-1.46a3.76,3.76,0,0,1-.7-2.74c0-1.91.7-4.23.4-6.07A14.54,14.54,0,0,0,63.74,166.68Z"/><path class="cls-5" d="M65.14,164.49a9.2,9.2,0,0,1,5-1.55,2.33,2.33,0,0,1,1,.18c.33.16.54.24.69.57a5.39,5.39,0,0,1,.27,2.44c-2.51.24-4.92.29-7.22,1.34A6.84,6.84,0,0,0,65.14,164.49Z"/><path class="cls-7" d="M64.17,126.43a2.19,2.19,0,0,0,1.5,2c.11,0,.2-.14.08-.2a2.25,2.25,0,0,1-1.36-1.79c0-.14-.23-.15-.22,0Z"/><path class="cls-7" d="M68,125.11a4.26,4.26,0,0,1,.26,2,5.72,5.72,0,0,1-.71,2c0,.08.07.18.13.1a4.18,4.18,0,0,0,.43-4.18c0-.07-.14,0-.11,0Z"/><path class="cls-7" d="M68,142c.17-1.81.38-3.62.48-5.43,0-.06-.09-.06-.1,0-.22,1.8-.33,3.62-.48,5.43,0,.06.1.06.1,0Z"/><path class="cls-8" d="M60.3,67.64a1.25,1.25,0,0,0,1.18.19,2.62,2.62,0,0,1-1.8.58,1.22,1.22,0,0,0-.63,0c-.1,0-.18.12-.28.17a1.14,1.14,0,0,1-.45.06l-.89,0c-.51,0-1.11-.09-1.32-.55a1.3,1.3,0,0,0,0,.78,2.39,2.39,0,0,1-1-.76c.07.12.08.35.15.47a4.55,4.55,0,0,1-5-1.37A2.83,2.83,0,0,1,50,68a6.93,6.93,0,0,0-.83-.71.63.63,0,0,0,0,.47A4.3,4.3,0,0,1,47,64.94a6.81,6.81,0,0,1,.18-3.2,1.92,1.92,0,0,1-.85.93c.14-.58.27-1.16.41-1.75-.11.1-.19.09-.24.22a5.65,5.65,0,0,1-4.77,3.67,2.7,2.7,0,0,1-2-.54c-.25-.22-.44-.52-.75-.63a2.89,2.89,0,0,0,2-.71,6.24,6.24,0,0,0,1.37-1.69,1.87,1.87,0,0,1-1.84.65,6.88,6.88,0,0,0,3-4.23,18.57,18.57,0,0,0,.52-5,7.83,7.83,0,0,1-5.42,4.57,15.53,15.53,0,0,1-2.05.27,5.77,5.77,0,0,0,1.85-4.73l-.58.6a1.33,1.33,0,0,0,.16-.75,1,1,0,0,1-.74.34l.16-.44c0-.08-.19-.37-.24-.45a.9.9,0,0,1-.75.49c-.32,0-.46.05-.64-.21A9.13,9.13,0,0,0,38,47c.23-1.92.13-3.87.25-5.81a11.18,11.18,0,0,1,1.59-5.53,5.36,5.36,0,0,1,4.93-2.49,9.64,9.64,0,0,1,9.9,0c1.83,1.17,3.38,3,5.53,3.32a17.22,17.22,0,0,1-3-.25,2,2,0,0,1,1.22.62,2.68,2.68,0,0,1-1.08-.22,10.37,10.37,0,0,0,6.73,6.23l-2.28-.18a10.24,10.24,0,0,1,6.12,9.1c-.09-.43-.17-.85-.25-1.28-.16.7-.32,1.4-.47,2.09a.5.5,0,0,1-.38-.56,11.15,11.15,0,0,0,.43,9.71,2.25,2.25,0,0,1-1.45-.92,8.13,8.13,0,0,1-.06,2c-.07-.28-.13-.55-.2-.82a8.52,8.52,0,0,1-2.44,6.15,1.42,1.42,0,0,0,.14-.67,3.45,3.45,0,0,1-1.44.87l-.06-.76C61.21,67.34,60.82,67.84,60.3,67.64Z"/><path class="cls-7" d="M42.52,35.08a1.24,1.24,0,0,0-1.31.69,11.14,11.14,0,0,0-1,2,11.31,11.31,0,0,0-1,4.24c0,.11.15.1.16,0a17,17,0,0,1,.8-3.6A12.92,12.92,0,0,1,41,36.63c.3-.56.73-1.57,1.53-1.41.09,0,.13-.12,0-.14Z"/><path class="cls-7" d="M40.18,42.83A38.86,38.86,0,0,1,40.75,47a15.74,15.74,0,0,1-.3,4.11.08.08,0,0,0,.16,0c.87-2.67.19-5.68-.32-8.35a.06.06,0,0,0-.11,0Z"/><path class="cls-7" d="M42.23,47.75a7,7,0,0,1-.15,2.74c0,.08.1.11.12,0a6,6,0,0,0,.12-2.8c0-.06-.1,0-.09,0Z"/><path class="cls-7" d="M45.05,48.45a8.27,8.27,0,0,1,.29,1.31.09.09,0,0,0,.17,0,4,4,0,0,0-.3-1.33c0-.1-.2-.06-.16,0Z"/><path class="cls-7" d="M46.12,49a23.6,23.6,0,0,1,.72,5.35,10.88,10.88,0,0,1-.29,2.41,11.81,11.81,0,0,1-.91,2.31c0,.09.07.19.13.11a7.93,7.93,0,0,0,1.36-4.62,21,21,0,0,0-.83-5.61.09.09,0,0,0-.18,0Z"/><path class="cls-7" d="M49.16,51.84a12.05,12.05,0,0,1,.17,2.25c0,.71-.13,1.4-.19,2.11,0,.09.14.11.17,0a9.7,9.7,0,0,0,0-4.42c0-.1-.15-.06-.14,0Z"/><path class="cls-7" d="M50.74,51c.38.17.49.77.62,1.12s.24.76.34,1.15a14.08,14.08,0,0,1,.4,2.48,16.36,16.36,0,0,1-.48,4.88c0,.15.18.2.23.06a12.61,12.61,0,0,0,.5-5.46,13.78,13.78,0,0,0-.55-2.61c-.13-.39-.27-.77-.43-1.15a1,1,0,0,0-.54-.66c-.11,0-.2.15-.09.19Z"/><path class="cls-6" d="M52,48.27a2.9,2.9,0,0,1,1.28.76A5.36,5.36,0,0,1,55,51.84a3.12,3.12,0,0,1-1,3,13.39,13.39,0,0,1,2.48,5.77,6.54,6.54,0,0,0,.77,2.07,6.21,6.21,0,0,0,2,1.67.9.9,0,0,0,.49.19,1,1,0,0,0,.41-.16,7.89,7.89,0,0,1,2.33-.86c3-.6,6.08.53,9.06,0a.48.48,0,0,0,.3-.13.59.59,0,0,0,.09-.35,6.89,6.89,0,0,1,.86-2.18c1.33-2.79.92-6.08.1-9a5.78,5.78,0,0,0-1.07-2.33,6.07,6.07,0,0,0-1-.92l-4-3c-1,.43-2,.82-3,1.19a4.34,4.34,0,0,1-2.58-.81,10.52,10.52,0,0,1-1.45-1.3c-1.71-1.73-3.46-3.54-4.3-5.82-.21.31-.74.29-1,.5-.59.41-.57,1.26-.6,2C53.64,43.68,52.5,45.93,52,48.27Z"/><path class="cls-7" d="M56.36,43.37a31.4,31.4,0,0,0,5.36,7l.09-.23c-.24,0-.48,0-.71,0a.1.1,0,0,0,0,.2,5.53,5.53,0,0,0,.71,0,.13.13,0,0,0,.1-.23,39.94,39.94,0,0,1-5.4-6.88c-.06-.09-.21,0-.15.09Z"/><path class="cls-7" d="M59.81,50.37a3.77,3.77,0,0,0-1.4.59c-.41.31-.62.79-1.06,1.06-.07,0,0,.17,0,.14.41-.14.61-.51.89-.81a3.53,3.53,0,0,1,1.57-.81.09.09,0,1,0,0-.17Z"/><path class="cls-7" d="M67.69,53.59A12.38,12.38,0,0,1,68.76,55c.3.47.52,1,.82,1.46.06.1.23,0,.19-.08a8.05,8.05,0,0,0-2-2.94.09.09,0,0,0-.13.13Z"/><path class="cls-6" d="M52.56,36.87a1.73,1.73,0,0,1,.8-1.31,1.49,1.49,0,0,1,1.51,0,1.77,1.77,0,0,1,.43.39,2.61,2.61,0,0,1-.68,3.91l.66,1.31c.26.52.63,1,.37,1.57a23,23,0,0,1-2.92,4.46,7.57,7.57,0,0,1-2.29,2,2.25,2.25,0,0,1-1.1.28,3,3,0,0,1-1.74-.87C46,47.26,44.41,46,42.83,44.66a6.94,6.94,0,0,1-2.07-2.32,4.65,4.65,0,0,1-.19-3,13.5,13.5,0,0,1,1.11-2.8,1.88,1.88,0,0,1,1-1,4.15,4.15,0,0,1,.78-.16,6.41,6.41,0,0,1,2.39,0,15.78,15.78,0,0,1,2.09.85,2.43,2.43,0,0,0,2.17,0C50.7,37.07,51.55,37.08,52.56,36.87Z"/><path class="cls-7" d="M45.08,40.42a2.72,2.72,0,0,0,.82.9.09.09,0,0,0,.11-.15c-.11-.14-.27-.26-.39-.39a4.19,4.19,0,0,1-.39-.45c-.07-.09-.22,0-.15.09Z"/><path class="cls-7" d="M45.81,41.53a2.6,2.6,0,0,0,1.53-2.27.1.1,0,0,0-.18,0,8,8,0,0,1-.43,1.15,3,3,0,0,1-1,1,.09.09,0,0,0,.09.15Z"/><path class="cls-7" d="M43.46,43.83s0,0,0,0,0,0,0,0Z"/><path class="cls-7" d="M42.76,44.53a1.71,1.71,0,0,0,.87.74c.09,0,.18-.11.1-.17a3.63,3.63,0,0,1-.78-.68.11.11,0,0,0-.19.11Z"/><path class="cls-7" d="M43.11,45.58a1.56,1.56,0,0,0,1-.52c.21-.24.48-.69.35-1a.09.09,0,0,0-.17,0,1.76,1.76,0,0,0-.12.39,1.22,1.22,0,0,1-.24.43,1.42,1.42,0,0,1-.84.53c-.11,0-.09.22,0,.2Z"/><path class="cls-7" d="M43.92,42.2a7,7,0,0,0,.93,2.57.94.94,0,0,0,1.54,0,.12.12,0,0,0-.15-.19c-.34.15-.73.44-1.06.1a3.37,3.37,0,0,1-.42-.74,14.08,14.08,0,0,1-.66-1.78.09.09,0,0,0-.18.05Z"/><path class="cls-7" d="M47.2,46.76c.67,0,1.14-.6,1.47-1.12a2.45,2.45,0,0,0,.44-2c0-.09-.19-.08-.19,0a3.8,3.8,0,0,1-.38,1.69c-.27.49-.72,1.2-1.34,1.26a.1.1,0,0,0,0,.19Z"/><circle class="cls-9" cx="50.86" cy="40.63" r="1.81"/><path class="cls-7" d="M54.4,36.24a4.81,4.81,0,0,0-.56,1.69c0,.11.14.11.18,0,.22-.53.32-1.1.55-1.62.06-.12-.11-.22-.17-.1Z"/><path class="cls-7" d="M54.22,37a7.8,7.8,0,0,1,.39,1.08c0,.08.17.08.16,0a2.72,2.72,0,0,0-.42-1.13c-.05-.09-.17,0-.13.07Z"/><path class="cls-6" d="M54.35,54.78A41.64,41.64,0,0,1,43.9,51.27,46.17,46.17,0,0,1,38.33,48c-1.17-.79-2.3-1.62-3.4-2.5A36.36,36.36,0,0,0,32,43.32c-.86-.55-1.78-1-2.68-1.48s-2.06-1.17-3.08-1.77L16,34c-5.57.26-11.46,4.15-16,7.33,0,.14.1.06.23.13a1.86,1.86,0,0,0,1.43.11A8.85,8.85,0,0,0,3,41c1.11-.5,2.31-4.31,3.52-4.34-1.2,1.05-2.08,5.72-3,7a2.32,2.32,0,0,0-.64,1.93c.52.07.94-.4,1.29-.8.65-.75,1.42-4.94,2.26-5.46a15.71,15.71,0,0,0-1.54,3.1,1.3,1.3,0,0,0-.12.57.48.48,0,0,0,.32.44c.24.07.46-.12.62-.31C6.64,42,7,40.46,8.22,39.65a21.11,21.11,0,0,0-1.37,3.07c-.06.15-.09.38.06.43a.29.29,0,0,0,.16,0,2.61,2.61,0,0,0,1.46-1.32,4.4,4.4,0,0,1,1.25-1.57c.77-.49,1.77-.35,2.66-.55a3.6,3.6,0,0,0,2.14-1.42,2.64,2.64,0,0,1,2.09.87c2,1.65,3.88,3.38,5.71,5.19a19.91,19.91,0,0,0,2.16,1.95A9,9,0,0,0,28.83,48c1.92,1.73,4,3.45,6,5.1a32,32,0,0,0,9,5.8c1.11.42,2.27.72,3.36,1.18,1.26.53,2.43,1.27,3.67,1.85,2.41,1.11,5.27,1.74,6.81,3.89A3.45,3.45,0,0,0,59,62.63a10.58,10.58,0,0,0-2.41-6.52A3.46,3.46,0,0,0,54.35,54.78Z"/><path class="cls-7" d="M10.09,35a5.7,5.7,0,0,1-3,2c-.44.12-1,.09-1.4.42a.65.65,0,0,0-.13.88,1.59,1.59,0,0,0,1.22.42,5.51,5.51,0,0,0,1.78-.38,4.42,4.42,0,0,1,2-.32,7.67,7.67,0,0,0,1.78.27,3.52,3.52,0,0,0,2.45-1.95c.06-.12-.09-.24-.18-.14a15.07,15.07,0,0,1-1.14,1.26,2.21,2.21,0,0,1-2,.47,5.32,5.32,0,0,0-1.69-.19,12.16,12.16,0,0,0-1.85.53,4,4,0,0,1-1.07.2c-.31,0-1.38-.08-1.12-.72.15-.38.77-.38,1.1-.44a5,5,0,0,0,.78-.2,5.48,5.48,0,0,0,2.62-1.95c.06-.09-.09-.21-.16-.12Z"/><path class="cls-7" d="M15.84,36.05c1.55.37,1.54,2.31,2.39,3.36.07.08.19,0,.14-.12-.64-1.16-.95-3.08-2.49-3.38-.09,0-.13.12,0,.14Z"/><path class="cls-7" d="M29.89,46.15a2.29,2.29,0,0,0,1.34,1.43c.12,0,.19-.14.08-.21a2.64,2.64,0,0,1-1.21-1.28c-.05-.12-.26-.07-.21.06Z"/><path class="cls-7" d="M32.76,46.91l.18.43a.08.08,0,0,0,.15-.06c-.05-.14-.1-.28-.16-.42s-.21-.06-.17,0Z"/><path class="cls-7" d="M55.51,61.39a6.84,6.84,0,0,0-3.81-4.84c-.12,0-.19.14-.09.21a7.72,7.72,0,0,1,3.68,4.69.11.11,0,0,0,.22-.06Z"/><path class="cls-7" d="M42,4,42.24,4c.09,0,.06-.16,0-.13L42,3.88c-.11,0-.06.2,0,.16Z"/><path class="cls-6" d="M77.09,51.58c-1-6.8-2.74-13.69-6.87-19.17-1.5-2-3.28-3.74-4.75-5.74-.76-1-1.43-2.14-2.2-3.18s-1.62-2-2.47-2.95l-8-9.06a15.11,15.11,0,0,0-3.89-3.6A10.7,10.7,0,0,0,48,3.82c-.08-.22-.1-.38-.3-.49a1.94,1.94,0,0,1,0-1.19c.08-.4,0-.91-.34-1.06s-.79.17-.94.54-.12.78-.26,1.16a1,1,0,0,1-.51-.69,5.66,5.66,0,0,0-.07-.72.81.81,0,0,0-.74-.55,1.09,1.09,0,0,0-.94.56,2,2,0,0,0-.57-.69.66.66,0,0,0-.83.05.92.92,0,0,0-.15.59,4.76,4.76,0,0,0,.22,1.73A5.4,5.4,0,0,1,41.3,1.34,2.72,2.72,0,0,0,40.44.11.6.6,0,0,0,40,0a.57.57,0,0,0-.36.55,1.67,1.67,0,0,0,.2.68,20.45,20.45,0,0,1,1.82,4.48,2.22,2.22,0,0,0-1.39-.57A2.17,2.17,0,0,0,39,6a.48.48,0,0,0-.18.35c0,.17.23.26.4.24s.33-.09.5-.11a1.22,1.22,0,0,1,1,.5c.27.3.47.67.76.94a1,1,0,0,0,1.11.25,2.17,2.17,0,0,0,1.2,1.3,3.13,3.13,0,0,0,1.58.15,109,109,0,0,1,7.12,9.48c.74,1.13,1.44,2.29,2.27,3.36a16.94,16.94,0,0,0,3.67,3.45c2,1.36,2.19,4.12,3.3,6.24a12,12,0,0,0,1.5,2.35,17.06,17.06,0,0,1,2.25,2.33,6.69,6.69,0,0,1,.74,2.42,55.06,55.06,0,0,1,.82,5.86,3.6,3.6,0,0,0,.14.92,2.86,2.86,0,0,0,.8,1.13,19.29,19.29,0,0,0,3.62,2.57l2.76,1.65A2.88,2.88,0,0,0,77.09,51.58Z"/><path class="cls-7" d="M42.17,5.84a3.37,3.37,0,0,1,2.39.29c.59.28,1.09.77,1.69,1,.1,0,.15-.1.09-.16a5.24,5.24,0,0,0-2-1.22,3.26,3.26,0,0,0-2.26-.1.09.09,0,0,0,.05.17Z"/><path class="cls-7" d="M45.71,6.1A6.51,6.51,0,0,0,45.48,5a.09.09,0,0,0-.18,0,6.93,6.93,0,0,0,.2,1.18c0,.14.24.08.21-.06Z"/><path class="cls-7" d="M43.81,3.53a1.59,1.59,0,0,0,.38,0c.05,0,.05-.09,0-.11a2.38,2.38,0,0,0-.38,0,.07.07,0,0,0,0,.14Z"/><path class="cls-7" d="M45.38,3.47l.36.07c.1,0,.15-.14,0-.16l-.36-.07a.08.08,0,0,0,0,.16Z"/><path class="cls-7" d="M47.31,9.3a2.63,2.63,0,0,0,0-.74.08.08,0,0,0-.15,0,3.06,3.06,0,0,0,0,.74.11.11,0,0,0,.21,0Z"/><path class="cls-7" d="M47.83,8.24a4.77,4.77,0,0,0,.51.13c.07,0,.14-.1.06-.14a5.16,5.16,0,0,0-.52-.16.09.09,0,0,0-.05.17Z"/><path class="cls-7" d="M59.48,22.89a2.62,2.62,0,0,0,.68,1.52.47.47,0,0,0,.74-.15c0-.09-.09-.13-.14-.06-.51.67-1-1.07-1.1-1.36,0-.12-.2-.07-.18.05Z"/><path class="cls-7" d="M68.7,41.61c.63,1,.7,2.24,1.18,3.31a4.93,4.93,0,0,0,2,2.41c.1,0,.19-.06.11-.14-.35-.4-.79-.71-1.13-1.13A6.16,6.16,0,0,1,70,44.52a14.46,14.46,0,0,0-1.13-3,.09.09,0,0,0-.15.09Z"/><path class="cls-7" d="M71.52,44.28a13.77,13.77,0,0,1,.8,1.85.1.1,0,1,0,.2-.06,6.51,6.51,0,0,0-.85-1.88.09.09,0,0,0-.15.09Z"/><path class="cls-10" d="M58.11,88.92a17.18,17.18,0,0,0-3.52,6.74,27.57,27.57,0,0,1-1.13,4.12,14.24,14.24,0,0,1-2.73,3.78c-6.45,6.93-14.19,12.66-20,20.12A4.47,4.47,0,0,1,29.39,125c-.51.26-1.12.31-1.62.58s-.91.93-.61,1.41a2.23,2.23,0,0,0,.73.55,4,4,0,0,1,1.31,2.82c.48-.11.9.45.87.94a3.22,3.22,0,0,1-.56,1.37,4.6,4.6,0,0,0-.48,3.58,3,3,0,0,0,2.75,2.12,25.7,25.7,0,0,1,5.24-10,8.54,8.54,0,0,1,3.72-2.83c.53-.17,1.09-.25,1.61-.47a5.07,5.07,0,0,0,1.44-1,13.31,13.31,0,0,0,2.25-2.6c1.05-1.58,3-2,4.83-2.55a15.4,15.4,0,0,0,9.32-7.09c.5-.91.87-1.89,1.46-2.76a3.93,3.93,0,0,1,2.44-1.79c.42-.07,1-.25,1.46-.28a7.7,7.7,0,0,0,4-1.43,2.63,2.63,0,0,1,.74,1.46,57.06,57.06,0,0,1,.14,13.51,6.74,6.74,0,0,0,2.5-2.73c1.7-2.64,3.42-5.36,4-8.43a22.32,22.32,0,0,1,.59-2.95A13.58,13.58,0,0,1,78.72,104C81.08,99.94,83,95.21,82,90.61c-.37-1.76-1.17-3.45-1.09-5.24.13-3,.49-5.69.79-8.63a56.33,56.33,0,0,0,.4-6.23,14.79,14.79,0,0,0-.27-3c-.27-1.26-.76-2.47-.92-3.75a41.12,41.12,0,0,1,.1-4.57,10.94,10.94,0,0,0-3.75-8c-.77,0-1.52-.81-2.18-1.2-.38-.22-.8-.36-1.18-.58s-.77-.55-1.16-.8a12.79,12.79,0,0,0-1.94-.93,13.42,13.42,0,0,1-3.1-1.93,1.7,1.7,0,0,0-.66-.41.54.54,0,0,0-.65.29c1.81.66,3.13,2.21,4.41,3.65a7.72,7.72,0,0,1,.76.95c.2.29.35.61.55.89a3.73,3.73,0,0,1,.61.93,1.79,1.79,0,0,1-.18,1.37,9.62,9.62,0,0,1-.83,1.15,8.41,8.41,0,0,0-1.45,3,12.73,12.73,0,0,1-2.68-.81C64.1,55.39,60,56.47,56.5,55.13a4,4,0,0,0-2.35-.49,5,5,0,0,1,2.68,2.81,9.57,9.57,0,0,1,.36,3c0,.74,0,1.47,0,2.2a10.55,10.55,0,0,0,0,1.59,4.55,4.55,0,0,0,2.76,3.63,4.06,4.06,0,0,1,1.27.62c.33.31.49.77.82,1.08a2.77,2.77,0,0,0,1.11.52A5.81,5.81,0,0,0,65,72.42a6.7,6.7,0,0,1,.35,2.39,4.32,4.32,0,0,1-.17.94A6.36,6.36,0,0,1,64.45,77c-1.53,2.43-2.88,5-4.23,7.49l-1.36,2.56C58.49,87.78,58.61,88.33,58.11,88.92Z"/><path class="cls-7" d="M70.17,58.1a18.23,18.23,0,0,1,5,1.76,17.58,17.58,0,0,1,2.19,1.38c.75.55,1.4,1.2,2.11,1.78.1.08.21,0,.13-.13a10.67,10.67,0,0,0-2-1.79,17.24,17.24,0,0,0-7.41-3.18c-.11,0-.16.16,0,.18Z"/><path class="cls-7" d="M63.94,71.19A15.87,15.87,0,0,0,65.81,70l1.84-1.22a19,19,0,0,1,3.66-2.21,18.46,18.46,0,0,1,4.22-.9c.72-.09,1.45-.17,2.17-.23s1.46,0,2.18-.14c.14,0,.15-.22,0-.22a15.28,15.28,0,0,0-2.34.11c-.68.06-1.36.13-2,.22a18.68,18.68,0,0,0-4.33.93,19.52,19.52,0,0,0-3.58,2.17c-.64.42-1.27.85-1.9,1.28a18.09,18.09,0,0,0-1.82,1.29.06.06,0,0,0,.07.1Z"/><path class="cls-7" d="M65.24,72A38.75,38.75,0,0,1,70,68.76a15.9,15.9,0,0,1,2.73-1.14c.48-.14,1-.26,1.45-.36s1-.15,1.55-.29c.08,0,.07-.16,0-.16a10.8,10.8,0,0,0-3,.59A15,15,0,0,0,70,68.52a33,33,0,0,0-4.84,3.37s0,.13.07.09Z"/><path class="cls-7" d="M74,61.25a8.48,8.48,0,0,0,3.77,1.43c.08,0,.1-.13,0-.15A12.68,12.68,0,0,1,74,61.13c-.07,0-.14.07-.07.12Z"/><path class="cls-7" d="M74.74,62.71a2.75,2.75,0,0,0,1.92.79.09.09,0,0,0,0-.17,2.94,2.94,0,0,1-1.8-.75.09.09,0,0,0-.12.13Z"/><path class="cls-7" d="M77.81,53.66a15.18,15.18,0,0,1,1.36,3,6.25,6.25,0,0,1,0,3.24.07.07,0,0,0,.13,0,4.64,4.64,0,0,0,.09-3.12,14.44,14.44,0,0,0-1.48-3.25c0-.08-.15,0-.11.06Z"/><path class="cls-7" d="M75.22,72.49c-.61,4.08-3.12,7.45-5.77,10.48-3,3.47-6.13,6.85-9.11,10.35-1.7,2-3.44,4-5,6.05-.07.09.07.2.14.12,1.62-1.84,3.15-3.75,4.74-5.61s3.12-3.63,4.7-5.43c2.81-3.19,5.94-6.25,8.18-9.9a15.34,15.34,0,0,0,2.27-6c0-.07-.11-.08-.12,0Z"/><path class="cls-7" d="M77.17,81.38c-.82,2.29-2.52,4.06-4.14,5.81A35.51,35.51,0,0,0,68.57,93a24.42,24.42,0,0,0-1.87,3.72c0,.12.15.2.21.08a40.66,40.66,0,0,1,3.8-6.54c1.44-1.94,3.2-3.59,4.68-5.5a12.08,12.08,0,0,0,1.9-3.35c0-.08-.09-.11-.12,0Z"/><path class="cls-7" d="M68.82,95.25c1.91-2.29,3.87-4.65,6.47-6.18a11.86,11.86,0,0,1,1.94-.92l.55-.19c.28-.07.42-.12.55.21a4.94,4.94,0,0,1,.19,1.27,10.73,10.73,0,0,1-.7,4.48c0,.11.14.19.19.08a9.15,9.15,0,0,0,.77-3.72,9.69,9.69,0,0,0-.18-1.86c-.07-.4-.11-.82-.6-.77a5.64,5.64,0,0,0-1.54.54,11.85,11.85,0,0,0-1.72.93,17.78,17.78,0,0,0-2.95,2.45c-1.1,1.13-2.09,2.35-3.08,3.57-.07.08,0,.19.11.11Z"/></g></g></g></svg>