<svg xmlns="http://www.w3.org/2000/svg" viewBox="0 0 157.68 138.29"><defs><style>.cls-1{fill:#455a64;}.cls-2{fill:#fafafa;}.cls-3{fill:#e8505b;}.cls-4{opacity:0.3;}.cls-5{fill:#fff;}.cls-6{fill:#263238;}.cls-7{opacity:0.5;}.cls-8{fill:#f5f5f5;}.cls-9{fill:#ffbe9d;}.cls-10{opacity:0.2;}.cls-11{fill:#222221;}.cls-12{opacity:0.7;}</style></defs><title>vectorsAsset 10</title><g id="Layer_2" data-name="Layer 2"><g id="ev_pages" data-name="ev pages"><polygon class="cls-1" points="40.02 89.52 39.62 22.37 142.8 22.37 142.8 90.21 40.02 89.52"/><path class="cls-2" d="M61.31,76.74c4-.21,8,.73,12,1.19l-2.14-.57A12.88,12.88,0,0,1,85.52,63.45c2.84.34,5.63,1.61,8.45,1.14,5.16-.87,7.82-7,12.72-8.87,6.27-2.35,13.58,3.15,19.76.58,2.51-1,4.33-3.26,6.65-4.65,2-1.2,4.88-1.55,6.56-.17V37.05c-1.65,3.2-5.72,4.75-9.38,4.44-3.89-.32-7.43-2.27-10.8-4.21s-6.86-4-10.73-4.45c-5.5-.71-10.84,1.75-16.17,3.25-4.82,1.36-10,2-14.83.55a4.34,4.34,0,0,1-.47-.16,8.09,8.09,0,0,1-2,1.43c-4.09,2-9.56-.68-13.3,1.92-2.24,1.55-3,4.46-4.66,6.63-3,4-10.34,5.17-14.54,2.36V86.28H45A21.3,21.3,0,0,1,61.31,76.74Zm63.2-29.59a2.1,2.1,0,0,1,.84-.4l.12,0,0,0a2.41,2.41,0,0,1,1.67,4.5,2.52,2.52,0,0,1-3.34-1.35,2.54,2.54,0,0,1,1-2.84Z"/><path class="cls-3" d="M139.66,51.48c-1.68-1.38-4.56-1-6.56.17-2.32,1.39-4.14,3.6-6.65,4.65-6.18,2.57-13.49-2.93-19.76-.58-4.9,1.85-7.56,8-12.72,8.87-2.82.47-5.61-.8-8.45-1.14A12.88,12.88,0,0,0,71.21,77.36l2.14.57a20.66,20.66,0,0,0,9.13-.58C91,74.48,95.63,63.64,104.55,62.61c5-.57,9.89,2.18,14.8,1.35,4-.68,7.16-3.57,10.45-5.92s6.47-4.5,10.14-3.15V51.74A3.45,3.45,0,0,0,139.66,51.48Z"/><path class="cls-3" d="M129.8,58c-3.29,2.35-6.47,5.24-10.45,5.92-4.91.83-9.85-1.92-14.8-1.35-8.92,1-13.56,11.87-22.07,14.74a20.66,20.66,0,0,1-9.13.58c-4-.46-8-1.4-12-1.19A21.3,21.3,0,0,0,45,86.28h2.17A16.32,16.32,0,0,1,55,81.88a15.9,15.9,0,0,1,12.8,2.47c.83.6,1.62,1.28,2.41,2H86.45c.71-.4,1.43-.8,2.17-1.18,2.94-1.49,6.3-2.53,9.53-1.84a8.32,8.32,0,0,1,5,3l17.39,0a4.76,4.76,0,0,1,2.81-2.47c1.31-.4,2.82-.25,4-1,1.3-.92,1.55-2.71,2.08-4.21a9.7,9.7,0,0,1,10.59-6.07V54.89C136.27,53.54,133,55.74,129.8,58ZM114.43,82.86A5.47,5.47,0,0,1,109,73.39l-.43.2a5,5,0,0,1,1.61-.84,3.62,3.62,0,0,1,.56-.17l-.09,0a5.49,5.49,0,0,1,3.8,10.24Zm19.29-19.73a1.46,1.46,0,0,1-1.43-2.55l-.15.07a1.47,1.47,0,0,1,.52-.25l.07,0h0a1.47,1.47,0,0,1,1,2.74Z"/><path class="cls-3" d="M129.35,78.64c-.53,1.5-.78,3.29-2.08,4.21-1.13.79-2.64.64-4,1a4.76,4.76,0,0,0-2.81,2.47l19.43,0V72.57A9.7,9.7,0,0,0,129.35,78.64Z"/><path class="cls-3" d="M55,81.88a16.32,16.32,0,0,0-7.84,4.4l23.05,0c-.79-.68-1.58-1.36-2.41-2A15.9,15.9,0,0,0,55,81.88Z"/><path class="cls-3" d="M98.15,83.3c-3.23-.69-6.59.35-9.53,1.84-.74.38-1.46.78-2.17,1.18l16.67,0A8.32,8.32,0,0,0,98.15,83.3Z"/><path class="cls-3" d="M91.41,30c-2.9.22-6-.28-8.58,1.07-2.31,1.2-3.72,3.65-5.61,5.42a4.5,4.5,0,0,0,.48.16c4.81,1.4,10,.81,14.82-.55,5.34-1.5,10.67-4,16.18-3.26,3.87.5,7.34,2.52,10.72,4.46s6.91,3.89,10.8,4.21c3.66.31,7.73-1.25,9.38-4.44V25.17H97.9C97.7,28,94.3,29.79,91.41,30Z"/><path class="cls-3" d="M123.75,49.87a2.42,2.42,0,1,0,4.32-2.12,2.55,2.55,0,0,0-2.65-1l0,0-.12,0a2.1,2.1,0,0,0-.84.4l.24-.12A2.54,2.54,0,0,0,123.75,49.87Z"/><path class="cls-3" d="M110.63,72.62l.09,0a3.62,3.62,0,0,0-.56.17,5,5,0,0,0-1.61.84l.43-.2a5.41,5.41,0,1,0,1.65-.77Z"/><g class="cls-4"><path class="cls-5" d="M110.63,72.62l.09,0a3.62,3.62,0,0,0-.56.17,5,5,0,0,0-1.61.84l.43-.2a5.41,5.41,0,1,0,1.65-.77Z"/></g><path class="cls-3" d="M134.31,61a1.54,1.54,0,0,0-1.61-.62h0l-.07,0a1.47,1.47,0,0,0-.52.25l.15-.07a1.46,1.46,0,1,0,2,.43Z"/><path class="cls-3" d="M57.31,46.45C59,44.28,59.73,41.37,62,39.82c3.74-2.6,9.21.06,13.3-1.92a8.09,8.09,0,0,0,2-1.43c1.89-1.77,3.29-4.22,5.61-5.42,2.58-1.35,5.68-.85,8.58-1.06s6.23-2,6.43-4.83H42.57l.08,23.58.12.07C47,51.62,54.28,50.46,57.31,46.45Z"/><g class="cls-4"><path class="cls-5" d="M139.66,51.48c-1.68-1.38-4.56-1-6.56.17-2.32,1.39-4.14,3.6-6.65,4.65-6.18,2.57-13.49-2.93-19.76-.58-4.9,1.85-7.56,8-12.72,8.87-2.82.47-5.61-.8-8.45-1.14A12.88,12.88,0,0,0,71.21,77.36l2.14.57a20.66,20.66,0,0,0,9.13-.58C91,74.48,95.63,63.64,104.55,62.61c5-.57,9.89,2.18,14.8,1.35,4-.68,7.16-3.57,10.45-5.92s6.47-4.5,10.14-3.15V51.74A3.45,3.45,0,0,0,139.66,51.48Z"/></g><g class="cls-4"><path class="cls-5" d="M82.42,25.16H42.57l.08,23.58.12.07c4.2,2.81,11.51,1.65,14.54-2.36C59,44.28,59.73,41.37,62,39.82c3.74-2.6,9.21.06,13.3-1.92a8.09,8.09,0,0,0,2-1.43c1.89-1.77,3.29-4.22,5.61-5.42,2.58-1.35,5.68-.85,8.58-1.06s6.23-2,6.43-4.83"/></g><path class="cls-6" d="M113,53.74c-.18-.69-1.47-5.71-3.83-14.91l0,0L66.51,49.72h0l0-.07c1.31,5.2,2.59,10.23,3.78,14.92l-.06,0L113,53.74,70.29,64.64h-.05V64.6L66.44,49.68l0-.06h.06l42.69-10.82h0v0C111.53,48,112.79,53.05,113,53.74Z"/><rect class="cls-1" x="112.36" y="53.02" width="1.14" height="1.14" transform="translate(-9.72 29.45) rotate(-14.25)"/><rect class="cls-1" x="69.71" y="64.02" width="1.14" height="1.14" transform="translate(-13.74 19.29) rotate(-14.25)"/><rect class="cls-1" x="108.55" y="38.04" width="1.14" height="1.14" transform="translate(-6.15 28.05) rotate(-14.25)"/><rect class="cls-1" x="87.04" y="43.51" width="1.14" height="1.14" transform="translate(-8.16 22.93) rotate(-14.25)"/><rect class="cls-1" x="90.84" y="58.49" width="1.14" height="1.14" transform="translate(-11.73 24.32) rotate(-14.25)"/><rect class="cls-1" x="67.75" y="56.3" width="1.14" height="1.14" transform="translate(-11.9 18.57) rotate(-14.25)"/><rect class="cls-1" x="110.44" y="45.46" width="1.14" height="1.14" transform="translate(-7.92 28.74) rotate(-14.25)"/><rect class="cls-1" x="65.92" y="49.09" width="1.14" height="1.14" transform="translate(-10.18 17.9) rotate(-14.25)"/><path class="cls-6" d="M77,51l-3.07.78-.37-1.45,7.87-2,.37,1.46-3.07.78,2,7.81L79,58.78Z"/><path class="cls-6" d="M90,52.77l-5.55,1.41a2.23,2.23,0,0,0,2.73,1.11A2.59,2.59,0,0,0,88.92,54l1.15.8a4.11,4.11,0,0,1-7.39-.76,3.64,3.64,0,0,1,2.74-4.55,3.57,3.57,0,0,1,4.51,2.75A5.07,5.07,0,0,1,90,52.77Zm-5.84.31,4-1a2,2,0,0,0-2.44-1.21A2,2,0,0,0,84.18,53.08Z"/><path class="cls-6" d="M96.71,54.27l-2.44-2-1.2,2.91-1.83.47,1.84-4.29-3.52-2.81,1.84-.47L93.73,50l1.14-2.75,1.79-.46-1.77,4.13,3.69,2.91Z"/><path class="cls-6" d="M104,52a2.64,2.64,0,0,1-1.47.88,2.24,2.24,0,0,1-3-1.76l-.86-3.41-1.17.3-.34-1.33,1.17-.29-.41-1.62,1.66-.42L99.9,46l1.89-.48.34,1.32-1.9.48.86,3.36a1,1,0,0,0,1.25.82,1.57,1.57,0,0,0,.85-.53Z"/><path class="cls-6" d="M112.11,50.36s-9.54,2.49-21.33,5.48-21.35,5.4-21.36,5.37S79,58.72,90.75,55.73,112.1,50.33,112.11,50.36Z"/><g class="cls-4"><path d="M129.35,78.64c-.53,1.5-.78,3.29-2.08,4.21-1.13.79-2.64.64-4,1a4.76,4.76,0,0,0-2.81,2.47l19.43,0V72.57A9.7,9.7,0,0,0,129.35,78.64Z"/></g><g class="cls-4"><path d="M134.31,61a1.54,1.54,0,0,0-1.61-.62h0l-.07,0a1.47,1.47,0,0,0-.52.25l.15-.07a1.46,1.46,0,1,0,2,.43Z"/></g><g class="cls-4"><path d="M55,81.88a16.32,16.32,0,0,0-7.84,4.4l23.05,0c-.79-.68-1.58-1.36-2.41-2A15.9,15.9,0,0,0,55,81.88Z"/></g><g class="cls-4"><path d="M98.15,83.3c-3.23-.69-6.59.35-9.53,1.84-.74.38-1.46.78-2.17,1.18l16.67,0A8.32,8.32,0,0,0,98.15,83.3Z"/></g><path class="cls-3" d="M67.8,113c1.5-2.69,5-3.63,8-3.53s6.1,1,9.18.85c7-.33,13.11-5.93,20.14-5.73,4.22.12,8.34,2.36,12.49,1.58,1-.19,2.19-.51,2.93.2a1.86,1.86,0,0,1,.06,2.31,5,5,0,0,1-2,1.5c-10.73,5.42-23.15,6-35.08,7.44-3,.39-6.15.84-9.18.31s-6-2.25-7.26-5.08"/><g class="cls-7"><path d="M67.8,113c1.5-2.69,5-3.63,8-3.53s6.1,1,9.18.85c7-.33,13.11-5.93,20.14-5.73,4.22.12,8.34,2.36,12.49,1.58,1-.19,2.19-.51,2.93.2a1.86,1.86,0,0,1,.06,2.31,5,5,0,0,1-2,1.5c-10.73,5.42-23.15,6-35.08,7.44-3,.39-6.15.84-9.18.31s-6-2.25-7.26-5.08"/></g><rect class="cls-2" x="0.14" y="65.04" width="51" height="19.83"/><path class="cls-6" d="M51.15,84.87s0-.12,0-.35,0-.59,0-1c0-.91,0-2.24,0-3.94,0-3.42,0-8.37-.05-14.51l.09.1-51,0h0L.28,65V84.87l-.14-.13,36.53.06,10.63,0h2.88l-2.82,0-10.59,0L.14,85H0v-.14C0,78.68,0,72,0,65V64.9H.15l51,0h.1V65c0,6.17,0,11.13-.05,14.57,0,1.69,0,3,0,3.91,0,.44,0,.78,0,1S51.15,84.87,51.15,84.87Z"/><rect class="cls-6" x="0.14" y="65.04" width="51" height="4.25"/><rect class="cls-6" x="6.2" y="72.53" width="5.01" height="5.01"/><rect class="cls-6" x="9.24" y="75.57" width="5.01" height="5.01"/><rect class="cls-6" x="18.14" y="72.53" width="5.01" height="5.01"/><rect class="cls-8" x="21.18" y="75.57" width="5.01" height="5.01"/><path class="cls-6" d="M26.18,80.58a3.48,3.48,0,0,1,0-.39l0-1c0-.88-.05-2.12-.06-3.59l.12.12-5,0s.26-.27.14-.14h0v2.62c0,.84,0,1.63,0,2.37l-.12-.13c1.47,0,2.71,0,3.59.07l1,0,.38,0-.33,0-1,0c-.88,0-2.15,0-3.67.06h-.13v-.12c0-.74,0-1.53,0-2.37V75.59h0l.15-.15,5,0h.13v.13c0,1.53,0,2.79-.07,3.67l0,1A1.44,1.44,0,0,1,26.18,80.58Z"/><rect class="cls-8" x="29.28" y="72.53" width="5.01" height="5.01"/><path class="cls-6" d="M34.29,77.54a2.14,2.14,0,0,1,0-.38l0-1c0-.88,0-2.11-.06-3.59l.12.13h-5l.14-.14h0v2.63c0,.84,0,1.63,0,2.36l-.12-.12c1.48,0,2.71,0,3.59.06l1,0,.39,0a1.29,1.29,0,0,1-.33,0l-1,0c-.87,0-2.14.05-3.67.06h-.12v-.13c0-.73,0-1.52,0-2.36V72.55h0l.14-.14,5,0h.12v.12c0,1.53,0,2.8-.06,3.67l0,1A1.29,1.29,0,0,1,34.29,77.54Z"/><rect class="cls-8" x="32.32" y="75.57" width="5.01" height="5.01"/><path class="cls-6" d="M37.32,80.58a3.48,3.48,0,0,1,0-.39c0-.28,0-.62,0-1,0-.88,0-2.12-.06-3.59l.12.12-5,0s.26-.27.14-.14h0v1.33c0,.44,0,.87,0,1.29,0,.84,0,1.63,0,2.37l-.12-.13c1.47,0,2.71,0,3.59.07l1,0,.38,0-.33,0-1,0c-.88,0-2.15,0-3.67.06h-.13v-.12c0-.74,0-1.53,0-2.37V75.59h0l.15-.15,5,0h.13v.13c0,1.53,0,2.79-.07,3.67l0,1A1.44,1.44,0,0,1,37.32,80.58Z"/><rect class="cls-6" x="32.32" y="75.57" width="1.98" height="1.98"/><rect class="cls-6" x="39.52" y="72.53" width="5.01" height="5.01"/><rect class="cls-6" x="42.56" y="75.57" width="5.01" height="5.01"/><rect class="cls-2" x="42.56" y="75.57" width="1.98" height="1.98"/><path class="cls-9" d="M152.66,95.51,133.2,61.2l-1.58-3.06a4.62,4.62,0,0,0-3.72-2.48l-3.14-.26s.23-3.64-1.47-3.35c-1.09.18-5.05,3.59-4.28,4.59s3-1.58,3-1.58l.85,6.36s-6-3.47-6.92-3.27a.9.9,0,0,0-.25,1.71,16.72,16.72,0,0,1,6.85,7.35h0L136.33,98l-4.71,3.76,5.59,14.63L149,108.32A9.14,9.14,0,0,0,152.66,95.51Z"/><rect class="cls-6" x="112.58" y="54.81" width="0.64" height="0.11" transform="translate(38.13 -45.96) rotate(27.52)"/><path class="cls-6" d="M113.15,54.86l2.44.07,13.91,7.65a1,1,0,0,1,.42,1.41h0a1,1,0,0,1-1.42.43l-13.81-7.37L113,55.14A.17.17,0,0,1,113.15,54.86Z"/><polygon class="cls-1" points="128.11 61.81 127.13 63.71 126.56 63.41 127.56 61.51 128.11 61.81"/><path class="cls-9" d="M72.2,62.51c-1-.1-4.67,3.19-4.67,3.19l-1.82-6.57s2.44.22,3.1-.86-6-1-6.12-.25a9.39,9.39,0,0,0,.38,2.72l-2.51.48a4.94,4.94,0,0,0-4,4.27L56.18,69l.07,0L36.81,101.5a12.41,12.41,0,0,0,2.52,15.73L58.8,131.07l7.26-15.84-14.39-9.46L68.16,74s3.71-9.31,4.46-9.77A.9.9,0,0,0,72.2,62.51Z"/><path class="cls-3" d="M140.18,117.27,140,115a9.89,9.89,0,0,0-3.75-6.78h0a9.86,9.86,0,0,1-3.78-8.11l0-.93-9.95,6.11a21.15,21.15,0,0,0-3,2.41l0,0s-21.26.35-52.11,4.86L55.71,108.3l1,.79a9,9,0,0,1-2.67,8.12h0a9.89,9.89,0,0,0-2.74,7.25l.1,2.27s7,4.55,12.06,6.26l.18,0a60.62,60.62,0,0,0,27.12,5.18c19-.77,34.6-10.88,36.65-12.27C132.23,123.46,140.18,117.27,140.18,117.27Z"/><path class="cls-6" d="M67.4,112.52a1.61,1.61,0,0,1,.21.17c.13.11.31.28.55.51a16,16,0,0,1,1.78,2.14,12.63,12.63,0,0,1,1.77,3.72,11.72,11.72,0,0,1,.42,5,9.18,9.18,0,0,1-.76,2.53,16.43,16.43,0,0,1-1.26,2.1,11,11,0,0,1-2.9,2.92,9.55,9.55,0,0,1-2.52,1.19A5.71,5.71,0,0,1,64,133a.74.74,0,0,1-.26,0s.34-.11,1-.34a9.79,9.79,0,0,0,2.44-1.24,11.21,11.21,0,0,0,2.81-2.91,16.58,16.58,0,0,0,1.22-2.07,8.93,8.93,0,0,0,.73-2.45,11.73,11.73,0,0,0-.39-4.92,13.11,13.11,0,0,0-1.69-3.68,17.29,17.29,0,0,0-1.69-2.17A7.43,7.43,0,0,1,67.4,112.52Z"/><g class="cls-10"><path d="M121.67,129.32c1.53-1.1.77-3.34-.94-4.14s-3.73-.32-5.53.26c-5.8,1.9-11.28,4.68-17.08,6.6s-12.13,3-18,1.23c-4.08-1.2-6.83-3.88-11-3.4-1.92.22-2.52,2.66-5.37,3.25a62.41,62.41,0,0,0,12.77,4,59.16,59.16,0,0,0,15.94,1,70.9,70.9,0,0,0,16.1-3.23A80.18,80.18,0,0,0,121.67,129.32Z"/></g><g class="cls-10"><path d="M72,120.52s.5-5.16-2.61-8.28l-2.07.31S70.05,114.52,72,120.52Z"/></g><path class="cls-9" d="M81.88,106.81c-.1.28,1.06,12.22,1.06,12.22s6,8.45,15.57.22l1.15-13Z"/><g class="cls-10"><path d="M82.94,119a35.16,35.16,0,0,1-3.59-8.12l2.31-.28.56.64Z"/></g><path class="cls-6" d="M132.93,122.41s-.07.06-.23.16-.39.24-.7.41a11.3,11.3,0,0,1-2.79,1.07,6.88,6.88,0,0,1-2.07.17,9.78,9.78,0,0,1-2.34-.49,10.31,10.31,0,0,1-4.47-3,9.32,9.32,0,0,1-1.52-2.38,16.3,16.3,0,0,1-.85-2.49,11.08,11.08,0,0,1-.33-4.41,6.67,6.67,0,0,1,1-2.8,6,6,0,0,1,.5-.64,1.37,1.37,0,0,1,.2-.2s0,.09-.15.24a5.12,5.12,0,0,0-.45.66,6.93,6.93,0,0,0-1,2.76,11.61,11.61,0,0,0,.39,4.33,18.2,18.2,0,0,0,.85,2.44,10.05,10.05,0,0,0,1.48,2.31c2.49,2.9,6.23,3.94,8.63,3.36a12.19,12.19,0,0,0,2.78-1C132.58,122.58,132.92,122.39,132.93,122.41Z"/><path class="cls-6" d="M119.37,119.4l-.1.07-.33.18-1.27.69c-.56.29-1.24.65-2,1s-1.71.84-2.76,1.25-2.17.91-3.42,1.33-2.59.88-4,1.31a70.86,70.86,0,0,1-9.44,2,74.39,74.39,0,0,1-9.63.7l-2.17,0c-.71,0-1.39-.06-2-.09-1.32,0-2.54-.17-3.66-.27s-2.12-.26-3-.37-1.64-.24-2.26-.36l-1.42-.26-.36-.07-.13,0h.13l.37,0,1.43.2c.62.1,1.38.22,2.26.31s1.89.25,3,.33,2.34.2,3.65.24c.66,0,1.34.07,2,.07h2.17A77.71,77.71,0,0,0,96,127a74.56,74.56,0,0,0,9.41-2c1.42-.42,2.76-.82,4-1.28s2.38-.88,3.42-1.3,2-.85,2.77-1.2,1.51-.7,2.07-1l1.29-.64.34-.16C119.33,119.41,119.37,119.39,119.37,119.4Z"/><g class="cls-10"><path d="M88.29,122.37a3.89,3.89,0,0,0,.43,3.56,3.85,3.85,0,0,0,3.19,1.62,4.49,4.49,0,0,1,1.68.06c.64.25,1,.91,1.41,1.45a5,5,0,0,0,9-2.87,1.74,1.74,0,0,1,.26-1.11c.54-.63,1.53,0,2.27.37A4.28,4.28,0,0,0,112,123.6a5.87,5.87,0,0,0-.48-6,9.52,9.52,0,0,0-5.15-3.52,9.55,9.55,0,0,1-3.74-1.53c-1.47-1.31-1.61-3.51-1.63-5.47"/></g><path class="cls-6" d="M103.78,85.33A19,19,0,0,1,106,93a23.32,23.32,0,0,1-4,15.09s0,0,0,0c-2.27,3.45-9.06,7.76-11.07,8.34s-10-4.4-11.62-10-3.69-9-.94-18.77c2.82-10,16.33-10.38,16.33-10.38s9.06,0,10.72,5.26S103.78,85.33,103.78,85.33Z"/><path class="cls-6" d="M89.5,96.55a6.47,6.47,0,0,0-4.7,10.11c1.11,1.63,3,2.72,3.83,4.5a8.29,8.29,0,0,1,.25,5.33,24.61,24.61,0,0,0-.94,5.35,5,5,0,0,0,2.46,4.53c1.64.78,4-.31,4-2.12-.55,2.87,2.76,5.69,5.51,4.68s3.46-5.29,1.19-7.13a7.7,7.7,0,0,0,6-.67c1.72-1.14,2.59-3.67,1.42-5.37-1.39-2-4.55-1.82-6.3-3.53-1.45-1.4-1.53-3.65-1.63-5.67a18.25,18.25,0,0,0-2.07-8.37c-1.48-2.5-4.21-4.42-7.11-4.23"/><path class="cls-2" d="M94.71,124.13l-.29-.14a1.81,1.81,0,0,1-.33-.2,3.24,3.24,0,0,1-.43-.31,6.57,6.57,0,0,1-1.92-2.75,8.41,8.41,0,0,1-.54-2.26,10.58,10.58,0,0,1,.08-2.68A27.74,27.74,0,0,1,93,110a26.93,26.93,0,0,0,1.74-5.78,10.5,10.5,0,0,0,.08-2.61,8.85,8.85,0,0,0-.52-2.21,6.61,6.61,0,0,0-1.85-2.7c-.6-.51-1-.69-1-.72a1.86,1.86,0,0,1,.29.13,2.67,2.67,0,0,1,.34.2,2.85,2.85,0,0,1,.43.3,6.51,6.51,0,0,1,2,2.71,8.87,8.87,0,0,1,.58,2.27,11,11,0,0,1-.06,2.67,27,27,0,0,1-1.74,5.85,28.78,28.78,0,0,0-1.76,5.77,11.09,11.09,0,0,0-.11,2.61,8.52,8.52,0,0,0,.5,2.22,6.53,6.53,0,0,0,1.8,2.73C94.32,123.91,94.73,124.1,94.71,124.13Z"/><path class="cls-1" d="M102.9,122a1.14,1.14,0,0,1-.34.07,4.55,4.55,0,0,1-1,0,5.8,5.8,0,0,1-3.38-1.29,5.67,5.67,0,0,1-1.56-2,5.79,5.79,0,0,1-.58-2.85,10.66,10.66,0,0,1,.77-3.11A32,32,0,0,0,98,109.61a14,14,0,0,0,.26-6.46A11.06,11.06,0,0,0,96,98.36,10.43,10.43,0,0,0,93.29,96c-.74-.43-1.19-.6-1.17-.62a1.2,1.2,0,0,1,.32.1,6.72,6.72,0,0,1,.9.43,9.62,9.62,0,0,1,2.79,2.33,11.06,11.06,0,0,1,2.34,4.85,14.17,14.17,0,0,1-.24,6.6,33.69,33.69,0,0,1-1.15,3.22,10.2,10.2,0,0,0-.76,3,5.73,5.73,0,0,0,2,4.68,5.88,5.88,0,0,0,3.27,1.33A9.61,9.61,0,0,0,102.9,122Z"/><path class="cls-3" d="M94.67,94.56a9.42,9.42,0,0,0-1-.74A3.17,3.17,0,0,0,89,95.56a7.52,7.52,0,0,0-.23,1.19s0-.11-.07-.33a3.13,3.13,0,0,1,.11-.92,3.41,3.41,0,0,1,2-2.22,3.36,3.36,0,0,1,3,.37,2.72,2.72,0,0,1,.69.62C94.63,94.44,94.68,94.55,94.67,94.56Z"/><path class="cls-1" d="M89.48,116.79s-.08-.05-.2-.15a5.77,5.77,0,0,1-.5-.5A9.19,9.19,0,0,1,87.29,114a8.87,8.87,0,0,1-1-3.75A5.16,5.16,0,0,1,86.8,108a9.32,9.32,0,0,1,1.48-2,5.6,5.6,0,0,0,1.28-2,3.69,3.69,0,0,0-.07-2.16,26.06,26.06,0,0,1-1.26-3.64,3.47,3.47,0,0,1,.45-2.55,1.62,1.62,0,0,1,.52-.49c.14-.08.22-.12.23-.11a2.7,2.7,0,0,0-.66.66,3.44,3.44,0,0,0-.34,2.46,31.13,31.13,0,0,0,1.31,3.6,4,4,0,0,1,.09,2.31,5.67,5.67,0,0,1-1.34,2.09,9.09,9.09,0,0,0-1.44,1.92,4.79,4.79,0,0,0-.47,2.14,9,9,0,0,0,.89,3.66,10.38,10.38,0,0,0,1.39,2.16C89.25,116.54,89.5,116.77,89.48,116.79Z"/><path class="cls-1" d="M101,111.21a4.56,4.56,0,0,1,0-.78c0-.5.08-1.22.11-2.11a18.69,18.69,0,0,0-1-6.84,10.47,10.47,0,0,0-6.69-6.69s.07,0,.2,0,.32.07.56.15a8.23,8.23,0,0,1,1.93.92,11.17,11.17,0,0,1,4.27,5.5,17.7,17.7,0,0,1,.91,7c0,.89-.13,1.62-.2,2.11A3.41,3.41,0,0,1,101,111.21Z"/><path class="cls-1" d="M96.06,95.85a7.52,7.52,0,0,1,0-1.28,6.72,6.72,0,0,0-.45-3,3.34,3.34,0,0,0-2.17-1.88,7.34,7.34,0,0,0-1.25-.17,2.22,2.22,0,0,1,1.3,0,3.21,3.21,0,0,1,1.29.59,3.41,3.41,0,0,1,1.09,1.37,6,6,0,0,1,.39,3.09A4.62,4.62,0,0,1,96.06,95.85Z"/><path class="cls-8" d="M96.94,85.72a5.09,5.09,0,0,1-.75-.28,4.4,4.4,0,0,0-1.85-.24,4.44,4.44,0,0,0-1.79.56,5.26,5.26,0,0,1-.69.41s.17-.28.59-.58a3.8,3.8,0,0,1,1.86-.68,4,4,0,0,1,2,.35A1.64,1.64,0,0,1,96.94,85.72Z"/><path class="cls-1" d="M103.51,85.7a12.54,12.54,0,0,0-1.39-1.38,6.75,6.75,0,0,0-8.67.11,13.59,13.59,0,0,0-1.36,1.42,1.89,1.89,0,0,1,.26-.47,6.05,6.05,0,0,1,1-1.11,6.7,6.7,0,0,1,8.93-.11,6,6,0,0,1,1,1.08C103.44,85.52,103.53,85.69,103.51,85.7Z"/><path class="cls-8" d="M100.44,78.05s-.7.09-1.78.41a9.53,9.53,0,0,0-6.18,5.74c-.4,1-.49,1.76-.54,1.75a1.29,1.29,0,0,1,0-.5,7.11,7.11,0,0,1,.32-1.31,9,9,0,0,1,6.32-5.87A8.63,8.63,0,0,1,99.94,78,1.4,1.4,0,0,1,100.44,78.05Z"/><path class="cls-1" d="M91.91,78s-.3.39-.67,1.07a5.81,5.81,0,0,0,.05,5.73c.38.67.73,1,.69,1.06a2.87,2.87,0,0,1-.86-.95A5.51,5.51,0,0,1,91.06,79,2.89,2.89,0,0,1,91.91,78Z"/><path class="cls-1" d="M84.39,80a8.32,8.32,0,0,0,.42,1.4A6.07,6.07,0,0,0,87.12,84a13.13,13.13,0,0,0,3.27,1.35,8.72,8.72,0,0,1,1.42.43,7.09,7.09,0,0,1-1.47-.24A11,11,0,0,1,87,84.23a5.89,5.89,0,0,1-2.35-2.73,4.21,4.21,0,0,1-.25-1.08C84.36,80.16,84.37,80,84.39,80Z"/><path class="cls-1" d="M88.54,103.83a.85.85,0,0,1-.27-.06l-.74-.26A9.92,9.92,0,0,1,85.05,102a9.51,9.51,0,0,1-2.64-3.38,8.65,8.65,0,0,1-.63-5.19,8,8,0,0,1,2.54-4.57,7.71,7.71,0,0,1,3.91-1.75,7,7,0,0,1,2.89.2,4.17,4.17,0,0,1,.73.28,1.85,1.85,0,0,1,.25.12s-.36-.13-1-.3a7.37,7.37,0,0,0-2.83-.1,7.59,7.59,0,0,0-3.76,1.75,7.7,7.7,0,0,0-2.44,4.42,8.44,8.44,0,0,0,.59,5,9.72,9.72,0,0,0,2.52,3.34,11.54,11.54,0,0,0,2.4,1.54C88.19,103.69,88.55,103.81,88.54,103.83Z"/><path class="cls-1" d="M87.81,109.58a1.64,1.64,0,0,1-.34-.15c-.22-.11-.54-.28-.93-.52a18.22,18.22,0,0,1-3.13-2.41,19.24,19.24,0,0,1-3.52-4.68,18.92,18.92,0,0,1-1.32-3.21A11.78,11.78,0,0,1,78,94.92,7.88,7.88,0,0,1,79,91.31a9.44,9.44,0,0,1,2.19-2.7,10.81,10.81,0,0,1,5.32-2.38,14.13,14.13,0,0,1,4,0c.46,0,.82.12,1.06.17l.36.1a2.52,2.52,0,0,1-.37,0c-.24,0-.6-.08-1.06-.12a14.45,14.45,0,0,0-3.9.13,10.71,10.71,0,0,0-5.19,2.38,8.35,8.35,0,0,0-3,6.12,11.88,11.88,0,0,0,.54,3.6,18.44,18.44,0,0,0,1.3,3.17,19,19,0,0,0,3.42,4.65,19.63,19.63,0,0,0,3,2.46C87.37,109.32,87.83,109.56,87.81,109.58Z"/><path class="cls-1" d="M101,103.74a14.59,14.59,0,0,0,1.45-3.14,11,11,0,0,0,.44-3.7,10.41,10.41,0,0,0-1.2-4.37,10.52,10.52,0,0,0-6.19-5.21A5.34,5.34,0,0,0,93,87.19c-.58.13-.88.29-.89.27l.21-.13a4.26,4.26,0,0,1,.66-.25,5.27,5.27,0,0,1,2.56,0,9.38,9.38,0,0,1,3.4,1.71,11,11,0,0,1,3,3.57,10.32,10.32,0,0,1,1.21,4.49,10.92,10.92,0,0,1-.51,3.77,10.07,10.07,0,0,1-1.09,2.33c-.16.25-.3.44-.39.57A1.23,1.23,0,0,1,101,103.74Z"/><rect class="cls-2" x="108.59" y="0.07" width="49.02" height="19.05"/><path class="cls-11" d="M157.68,19.19H108.53V0h49.15Zm-49-.13h48.88V.14H108.66Z"/><rect class="cls-6" x="108.59" y="0.07" width="49.02" height="4.08"/><rect class="cls-8" x="111.36" y="9.25" width="4.84" height="4.84"/><path class="cls-6" d="M116.2,14.09a2.08,2.08,0,0,1,0-.37c0-.28,0-.61,0-1,0-.85,0-2.05-.06-3.47l.12.12-4.84,0,.14-.14h0v1.28c0,.43,0,.85,0,1.26,0,.81,0,1.57,0,2.28l-.12-.12c1.42,0,2.62,0,3.47.06l1,0,.37,0a10.46,10.46,0,0,1-1.29.06c-.85,0-2.07,0-3.55.06h-.13v-.12c0-.71,0-1.47,0-2.28V9.27h0c-.12.13.18-.17.15-.14l4.84,0h.12v.12c0,1.48,0,2.7-.06,3.55A10.46,10.46,0,0,1,116.2,14.09Z"/><line class="cls-2" x1="116.2" y1="9.25" x2="111.36" y2="14.09"/><path class="cls-3" d="M111.36,14.09a20.75,20.75,0,0,1,2.32-2.52,19.93,19.93,0,0,1,2.52-2.32,20.75,20.75,0,0,1-2.32,2.52A20.75,20.75,0,0,1,111.36,14.09Z"/><rect class="cls-6" x="117.66" y="9.25" width="4.84" height="4.84"/><rect class="cls-1" x="123.96" y="9.25" width="4.84" height="4.84"/><rect class="cls-3" x="130.26" y="9.25" width="4.84" height="4.84"/><rect class="cls-3" x="136.56" y="9.25" width="4.84" height="4.84"/><g class="cls-7"><rect class="cls-5" x="136.56" y="9.25" width="4.84" height="4.84"/></g><rect class="cls-3" x="142.86" y="9.25" width="4.84" height="4.84"/><g class="cls-4"><rect x="142.86" y="9.25" width="4.84" height="4.84"/></g><rect class="cls-3" x="149.17" y="9.25" width="4.84" height="4.84"/><g class="cls-12"><rect x="149.17" y="9.25" width="4.84" height="4.84"/></g><rect class="cls-2" x="21.44" y="9.74" width="30.17" height="51.74"/><path class="cls-11" d="M51.61,61.48s0-.09,0-.25v-.74c0-.66,0-1.62,0-2.86,0-2.49,0-6.11,0-10.69,0-9.14,0-22.06-.06-37.2l.13.13H21.44l.14-.14c0,19.74,0,37.84,0,51.74l-.11-.11,22,.06,6,0h1.6l-1.56,0-6,0-22.06.06h-.11v-.11c0-13.9,0-32,0-51.74V9.6H51.74v.13c0,15.18-.05,28.13-.06,37.29,0,4.56,0,8.18,0,10.66,0,1.23,0,2.18,0,2.83v.72C51.61,61.4,51.61,61.48,51.61,61.48Z"/><rect class="cls-6" x="21.44" y="9.74" width="30.17" height="4.36"/><polygon class="cls-6" points="28.69 19.54 29.05 24.37 30.41 22.61 32.66 22.52 28.69 19.54"/><path class="cls-6" d="M41.73,19.54l.28.2.83.59c.71.51,1.73,1.24,2.91,2.12l.18.14H45.7l-2.17.09h-.08l.06,0-1.35,1.76-.13.17,0-.21c-.1-1.44-.17-2.66-.21-3.52,0-.38,0-.7-.06-1a2.15,2.15,0,0,1,0-.34s0,.14,0,.38l.1,1c.08.86.19,2.05.3,3.43l-.14,0,1.35-1.76,0,0h.12l2.18-.09-.05.15c-1.13-.86-2.09-1.61-2.79-2.15L42,19.79C41.84,19.63,41.73,19.55,41.73,19.54Z"/><path class="cls-6" d="M27.81,40.56s1.47-1.63,3.36-3.58,3.44-3.49,3.48-3.45-1.47,1.63-3.36,3.57S27.85,40.59,27.81,40.56Z"/><path class="cls-6" d="M48.76,37a10,10,0,0,0-.17-1.07A4.5,4.5,0,0,0,47,33.49a4.22,4.22,0,0,0-6.1.92,4.48,4.48,0,0,0,0,5.17,4.21,4.21,0,0,0,6.1.92,4.5,4.5,0,0,0,1.57-2.43A9.48,9.48,0,0,0,48.76,37a3.65,3.65,0,0,1-.1,1.1,4.46,4.46,0,0,1-3.44,3.39,4.41,4.41,0,0,1-4.44-1.8,4.67,4.67,0,0,1,0-5.37,4.48,4.48,0,0,1,2.07-1.61,4.32,4.32,0,0,1,2.37-.19,4.22,4.22,0,0,1,1.87.88,4.46,4.46,0,0,1,1.57,2.51A3.59,3.59,0,0,1,48.76,37Z"/><path class="cls-6" d="M44.85,48.49s0,0,.11.08l.31.26,1.19,1,0,0,0,0L41.4,55.74l0,0h0l-.61.09-1.1.17-.12,0,0-.12c.14-.69.27-1.36.4-2v0h0c1.38-1.62,2.58-3,3.44-4a9.34,9.34,0,0,1,1.46-1.45l-.1.1-.28.29c-.24.26-.57.64-1,1.13-.85,1-2,2.37-3.39,4l0,0c-.13.63-.26,1.3-.39,2l-.1-.1,1.1-.16.61-.1,0,0,5.12-5.78v.07l-1.14-1L45,48.6Z"/><path class="cls-6" d="M33.81,55.55V55l0-1.49c0-1.31,0-3.11,0-5.25l.07.07H26.74s.16-.16.09-.08h0v1.95c0,.65,0,1.27,0,1.89,0,1.22,0,2.37,0,3.43l-.07-.08,5.11,0,1.44,0h0l-1.43,0-5.15,0h-.07v-.07c0-1.06,0-2.21,0-3.43V48.28h0c-.08.07.1-.11.08-.09h7.15v.08c0,2.16,0,4,0,5.3l0,1.47v.38C33.82,55.51,33.82,55.55,33.81,55.55Z"/><path class="cls-6" d="M27.81,48.27a7.71,7.71,0,0,1-1.53.08,7.71,7.71,0,0,1-1.53-.08,6.53,6.53,0,0,1,1.53-.09A6.53,6.53,0,0,1,27.81,48.27Z"/><path class="cls-6" d="M26.74,49.67a8.89,8.89,0,0,1-.08-1.73,8.89,8.89,0,0,1,.08-1.73,8.41,8.41,0,0,1,.09,1.73A8.41,8.41,0,0,1,26.74,49.67Z"/></g></g></svg>