<svg xmlns="http://www.w3.org/2000/svg" viewBox="0 0 181.5 158.21"><defs><style>.cls-1{isolation:isolate;}.cls-2{fill:#212121;}.cls-3{fill:#e0e0e0;}.cls-4{fill:#424242;}.cls-5{fill:#fff;}.cls-6{fill:#f5f5f5;}.cls-7{opacity:0.5;}.cls-10,.cls-7{mix-blend-mode:multiply;}.cls-8{fill:#bdbdbd;}.cls-9{fill:#757575;}.cls-11,.cls-12{mix-blend-mode:overlay;}.cls-12{opacity:0.8;}.cls-13{fill:#9e9e9e;}.cls-14{fill:#ff9800;}.cls-15{fill:#ffc107;}.cls-16{fill:#00bcd4;}</style></defs><title>vectorsAsset 7</title><g class="cls-1"><g id="Layer_2" data-name="Layer 2"><g id="ev_pages" data-name="ev pages"><rect class="cls-2" x="10.68" y="117.89" width="23.66" height="37.69" transform="translate(-99.92 71.83) rotate(-52.72)"/><polygon class="cls-3" points="37.54 140.41 34.13 137.81 41.08 136 44.48 138.6 37.54 140.41"/><polygon class="cls-3" points="30.11 134.75 26.7 132.16 33.64 130.34 37.05 132.94 30.11 134.75"/><polygon class="cls-3" points="22.68 129.09 19.27 126.5 26.21 124.69 29.62 127.28 22.68 129.09"/><polygon class="cls-3" points="15.24 123.43 11.83 120.84 18.78 119.03 22.19 121.62 15.24 123.43"/><path class="cls-4" d="M-3.34,144.13H34.35a0,0,0,0,1,0,0v2.16a1.47,1.47,0,0,1-1.47,1.47H-1.88a1.47,1.47,0,0,1-1.47-1.47v-2.16a0,0,0,0,1,0,0Z" transform="translate(91.56 20.42) rotate(37.28)"/><polygon class="cls-2" points="50.74 128.57 17.48 110.79 14.79 115.75 48.05 133.54 50.74 128.57"/><polygon class="cls-5" points="46.63 126.38 42.85 124.35 44.06 131.41 47.84 133.43 46.63 126.38"/><polygon class="cls-5" points="38.38 121.97 34.6 119.95 35.82 127 39.6 129.02 38.38 121.97"/><polygon class="cls-5" points="30.14 117.56 26.36 115.54 27.58 122.59 31.36 124.61 30.14 117.56"/><polygon class="cls-5" points="21.9 113.15 18.12 111.13 19.34 118.18 23.12 120.2 21.9 113.15"/><path class="cls-5" d="M37,146.18,9.55,125.29a.41.41,0,0,1-.08-.59.42.42,0,0,1,.59-.09l27.45,20.9a.43.43,0,0,1,.08.59A.42.42,0,0,1,37,146.18Z"/><path class="cls-5" d="M35.3,148.41,7.85,127.52a.44.44,0,0,1-.08-.6.43.43,0,0,1,.6-.08l27.44,20.89a.43.43,0,0,1,.09.6A.44.44,0,0,1,35.3,148.41Z"/><path class="cls-5" d="M33.61,150.63,6.16,129.74a.43.43,0,0,1,.51-.68L34.12,150a.42.42,0,0,1,.08.59A.41.41,0,0,1,33.61,150.63Z"/><rect class="cls-4" x="15.33" y="133.54" width="13" height="8.17" rx="0.89" transform="translate(87.82 14.89) rotate(37.28)"/><path class="cls-6" d="M23.57,144.61l-8.94-6.8a1.3,1.3,0,0,1-.24-1.83l3.87-5.1a1.33,1.33,0,0,1,1.84-.25l8.93,6.8a1.31,1.31,0,0,1,.25,1.84l-3.88,5.09A1.3,1.3,0,0,1,23.57,144.61Zm-4-13.3a.46.46,0,0,0-.64.09l-3.88,5.09a.47.47,0,0,0,.09.65l8.93,6.8a.47.47,0,0,0,.65-.09l3.88-5.09a.47.47,0,0,0-.09-.65Z"/><g class="cls-7"><ellipse class="cls-8" cx="74.1" cy="105.87" rx="23.18" ry="8.03" transform="translate(-34.2 35.37) rotate(-21.95)"/></g><rect class="cls-9" x="25" y="35.72" width="45.02" height="7.77" transform="translate(-11.36 20.63) rotate(-21.95)"/><circle class="cls-2" cx="61.12" cy="17.42" r="17.41" transform="matrix(0.99, -0.14, 0.14, 0.99, -1.84, 8.76)"/><circle class="cls-2" cx="23.14" cy="32.73" r="17.41" transform="translate(-16.04 41.21) rotate(-66.95)"/><g class="cls-10"><path class="cls-8" d="M55,2.37A17.41,17.41,0,1,0,77.67,12,17.4,17.4,0,0,0,55,2.37Zm6.07,15.05A1.18,1.18,0,0,1,62,19.61,1.19,1.19,0,0,1,60.43,19,1.18,1.18,0,0,1,61.09,17.42ZM48.2,13.32a4.54,4.54,0,1,1,4.9,4.14A4.54,4.54,0,0,1,48.2,13.32ZM58.08,25a4.54,4.54,0,1,1-4.91-4.14A4.55,4.55,0,0,1,58.08,25Zm12.07,3a4.54,4.54,0,1,1-4.9-4.14A4.53,4.53,0,0,1,70.15,27.94ZM59.79,8.72a4.54,4.54,0,1,1,4.9,4.14A4.55,4.55,0,0,1,59.79,8.72ZM72.64,22.2a4.54,4.54,0,1,1,4.14-4.91A4.55,4.55,0,0,1,72.64,22.2Z"/></g><g class="cls-10"><path class="cls-8" d="M39.79,27.48A17.41,17.41,0,1,0,29.91,50,17.4,17.4,0,0,0,39.79,27.48Zm-15.11,5.9A1.19,1.19,0,0,1,24,34.91a1.18,1.18,0,1,1,.67-1.53Zm4.23-12.85a4.54,4.54,0,1,1-4.19,4.86A4.55,4.55,0,0,1,28.91,20.53ZM17.18,30.29a4.54,4.54,0,1,1,4.19-4.86A4.54,4.54,0,0,1,17.18,30.29Zm-3.12,12a4.54,4.54,0,1,1,4.19-4.86A4.53,4.53,0,0,1,14.06,42.33ZM33.39,32.17A4.54,4.54,0,1,1,29.2,37,4.55,4.55,0,0,1,33.39,32.17ZM19.77,44.88a4.54,4.54,0,1,1,4.86,4.19A4.54,4.54,0,0,1,19.77,44.88Z"/></g><path class="cls-6" d="M54.58,1.27A17.4,17.4,0,1,0,77.23,10.9,17.4,17.4,0,0,0,54.58,1.27Zm6.06,15.05a1.17,1.17,0,0,1,1.54.65,1.18,1.18,0,1,1-2.19.88A1.18,1.18,0,0,1,60.64,16.32Zm-12.89-4.1a4.54,4.54,0,1,1,4.91,4.14A4.53,4.53,0,0,1,47.75,12.22Zm9.88,11.63a4.54,4.54,0,1,1-4.9-4.14A4.52,4.52,0,0,1,57.63,23.85Zm12.08,3a4.54,4.54,0,1,1-4.9-4.13A4.54,4.54,0,0,1,69.71,26.83ZM59.34,7.62a4.54,4.54,0,1,1,4.91,4.13A4.54,4.54,0,0,1,59.34,7.62ZM72.19,21.09a4.54,4.54,0,1,1,4.14-4.9A4.54,4.54,0,0,1,72.19,21.09Z"/><path class="cls-6" d="M39.34,26.38a17.4,17.4,0,1,0-9.88,22.54A17.4,17.4,0,0,0,39.34,26.38Zm-15.11,5.9a1.18,1.18,0,0,1-.67,1.53A1.19,1.19,0,0,1,22,33.14a1.18,1.18,0,1,1,2.2-.86Zm4.23-12.85a4.54,4.54,0,1,1-4.19,4.86A4.54,4.54,0,0,1,28.46,19.43ZM16.73,29.19a4.54,4.54,0,1,1,4.19-4.86A4.54,4.54,0,0,1,16.73,29.19Zm-3.12,12a4.54,4.54,0,1,1,4.19-4.86A4.54,4.54,0,0,1,13.61,41.23ZM32.94,31.07a4.54,4.54,0,1,1-4.19,4.86A4.54,4.54,0,0,1,32.94,31.07ZM19.33,43.77A4.54,4.54,0,1,1,24.19,48,4.54,4.54,0,0,1,19.33,43.77Z"/><rect class="cls-8" x="80.33" y="40.77" width="7.55" height="8.28" transform="translate(-10.69 34.69) rotate(-21.95)"/><polygon class="cls-2" points="106.43 45.43 89.15 47.34 86.05 39.66 99.83 29.06 106.43 45.43"/><g class="cls-11"><polygon class="cls-8" points="102.64 36.02 87.12 42.3 86.05 39.66 99.83 29.06 102.64 36.02"/></g><rect class="cls-2" x="22.56" y="58.24" width="4.05" height="8.16" transform="translate(70.68 110.94) rotate(158.05)"/><polygon class="cls-8" points="20.14 69.84 24.23 66.87 21.18 59.29 16.16 59.99 20.14 69.84"/><g class="cls-12"><polygon class="cls-8" points="17.78 63.99 22.33 62.16 21.18 59.29 16.16 59.99 17.78 63.99"/></g><path class="cls-9" d="M43.75,87.92l.35.88a3.19,3.19,0,0,0,4.13,1.75L82.12,76.9a3.17,3.17,0,0,0,1.75-4.13l-.35-.88Z"/><path class="cls-2" d="M88.48,101.59l-19-15.32-5.56,2.24-3.23,24.3a1.46,1.46,0,0,0,2.89.37l3-22.83,5.37,13.32a1.19,1.19,0,0,0,2.21-.89L68.77,89.47l17.89,14.39a1.45,1.45,0,0,0,1.45.21,1.39,1.39,0,0,0,.59-.43A1.46,1.46,0,0,0,88.48,101.59Z"/><path class="cls-4" d="M64.16,112.16a2.24,2.24,0,1,1-2.91-1.24A2.23,2.23,0,0,1,64.16,112.16Z"/><path class="cls-4" d="M89.75,101.85a2.36,2.36,0,1,1-3.06-1.31A2.35,2.35,0,0,1,89.75,101.85Z"/><path class="cls-4" d="M74.88,102.48a2,2,0,1,1-2.59-1.1A2,2,0,0,1,74.88,102.48Z"/><g class="cls-10"><path class="cls-8" d="M44.1,88.8h0l39.77-16h0l-.35-.88-39.77,16Z"/></g><path class="cls-4" d="M47,44l-8.68,3.5L25.54,52.65a2.47,2.47,0,0,0-1.37,3.23l5.88,14.6.89,2.21,6.19,15.36a2.5,2.5,0,0,0,3.24,1.38L87,70.63a2.49,2.49,0,0,0,1.37-3.23L82.19,52l-5.72-14.2-1-2.61a2.49,2.49,0,0,0-3.24-1.38Z"/><rect class="cls-9" x="49.57" y="46.17" width="25.57" height="27.55" rx="1.59" transform="translate(-17.89 27.66) rotate(-21.95)"/><path class="cls-3" d="M67.82,43.53a1,1,0,0,1,1.29.55l9.11,22.6a1,1,0,0,1-.55,1.3L56.9,76.35a1,1,0,0,1-1.29-.55L46.5,53.2a1,1,0,0,1,.55-1.3l20.77-8.37Zm-.44-1.1L46.6,50.8a2.19,2.19,0,0,0-1.21,2.84l9.11,22.6a2.19,2.19,0,0,0,2.85,1.21l20.77-8.37a2.19,2.19,0,0,0,1.21-2.84l-9.11-22.6a2.18,2.18,0,0,0-2.84-1.21Z"/><path class="cls-13" d="M74.1,35.9a1.13,1.13,0,1,1-2.1.85,1.13,1.13,0,0,1,2.1-.85Z"/><path class="cls-13" d="M86.86,67.56a1.14,1.14,0,1,1-1.48-.63A1.13,1.13,0,0,1,86.86,67.56Z"/><path class="cls-13" d="M27.8,54.56a1.13,1.13,0,1,1-1.47-.63A1.13,1.13,0,0,1,27.8,54.56Z"/><path class="cls-13" d="M40.56,86.22a1.14,1.14,0,1,1-1.48-.63A1.13,1.13,0,0,1,40.56,86.22Z"/><rect class="cls-2" x="79.87" y="34.96" width="3.31" height="21.98" transform="translate(-11.27 33.81) rotate(-21.95)"/><path class="cls-2" d="M54,83.57H78.12a0,0,0,0,1,0,0V87.1a1.49,1.49,0,0,1-1.49,1.49H55.46A1.49,1.49,0,0,1,54,87.1V83.57a0,0,0,0,1,0,0Z" transform="translate(-27.39 30.93) rotate(-21.95)"/><path class="cls-2" d="M44.72,67.05a3.4,3.4,0,1,1-4.42-1.88A3.4,3.4,0,0,1,44.72,67.05Z"/><path class="cls-6" d="M43.06,72a4,4,0,1,1,2.21-5.19A4,4,0,0,1,43.06,72Zm-2.54-6.3a2.8,2.8,0,1,0,3.65,1.55A2.81,2.81,0,0,0,40.52,65.72Z"/><path class="cls-2" d="M55.91,64.58A1.89,1.89,0,1,1,57,62.12,1.89,1.89,0,0,1,55.91,64.58Z"/><path class="cls-6" d="M54.72,61.62A1.3,1.3,0,1,1,54,63.31a1.3,1.3,0,0,1,.72-1.69Zm-.45-1.1a2.49,2.49,0,1,0,3.24,1.38,2.47,2.47,0,0,0-3.24-1.38Z"/><path class="cls-8" d="M70.23,58.81a1.89,1.89,0,1,1,1-2.46A1.9,1.9,0,0,1,70.23,58.81Z"/><path class="cls-6" d="M69,55.85a1.31,1.31,0,0,1,1.69.72,1.3,1.3,0,0,1-2.41,1A1.31,1.31,0,0,1,69,55.85Zm-.44-1.1a2.49,2.49,0,1,0,3.23,1.38,2.49,2.49,0,0,0-3.23-1.38Z"/><rect class="cls-4" x="60" y="58.05" width="1.77" height="4.97" transform="translate(-18.21 27.15) rotate(-21.95)"/><rect class="cls-4" x="62.94" y="56.86" width="1.77" height="4.97" transform="translate(-17.56 28.16) rotate(-21.95)"/><circle class="cls-4" cx="48.35" cy="53.38" r="0.89"/><circle class="cls-4" cx="67.78" cy="45.54" r="0.89"/><circle class="cls-4" cx="56.86" cy="74.5" r="0.89"/><circle class="cls-4" cx="76.3" cy="66.67" r="0.89"/><path class="cls-4" d="M17.47,22.94a2.33,2.33,0,1,1-3-1.29A2.33,2.33,0,0,1,17.47,22.94Z"/><path class="cls-4" d="M29.8,22.4a2.33,2.33,0,1,1-3-1.29A2.33,2.33,0,0,1,29.8,22.4Z"/><path class="cls-4" d="M53.24,10.44a2.33,2.33,0,1,1-3-1.29A2.32,2.32,0,0,1,53.24,10.44Z"/><path class="cls-4" d="M64.8,5.78a2.33,2.33,0,1,1-3-1.29A2.32,2.32,0,0,1,64.8,5.78Z"/><path class="cls-4" d="M72.77,15.21a2.33,2.33,0,1,1-3-1.29A2.33,2.33,0,0,1,72.77,15.21Z"/><path class="cls-4" d="M66.25,25.9a2.33,2.33,0,1,1-3-1.29A2.33,2.33,0,0,1,66.25,25.9Z"/><path class="cls-4" d="M54,23.09a2.33,2.33,0,1,1-3-1.29A2.33,2.33,0,0,1,54,23.09Z"/><path class="cls-4" d="M34.26,34.38a2.33,2.33,0,1,1-3-1.29A2.33,2.33,0,0,1,34.26,34.38Z"/><path class="cls-4" d="M24.8,42.06a2.33,2.33,0,1,1-3-1.29A2.33,2.33,0,0,1,24.8,42.06Z"/><path class="cls-4" d="M14.3,35.23a2.33,2.33,0,1,1-3-1.29A2.32,2.32,0,0,1,14.3,35.23Z"/><rect class="cls-2" x="100.42" y="52.97" width="41.93" height="15.02"/><path class="cls-5" d="M105.46,63.77V56.62h1.85a1.67,1.67,0,0,1,1.32.46,2,2,0,0,1,.41,1.37v3.23a2.48,2.48,0,0,1-.41,1.59,1.67,1.67,0,0,1-1.36.5Zm1.25-.85h.42a.59.59,0,0,0,.5-.19,1.23,1.23,0,0,0,.16-.72V58.48a1.55,1.55,0,0,0-.15-.79.62.62,0,0,0-.55-.24h-.37Z"/><path class="cls-5" d="M110.22,63.77V56.62h1.26v7.15Z"/><path class="cls-5" d="M114.42,60.41l-.4,0v3.38h-1.26V56.62h2.08a1.72,1.72,0,0,1,1,.22,1.08,1.08,0,0,1,.42.63,4.94,4.94,0,0,1,.1,1.06,2.51,2.51,0,0,1-.16,1,.88.88,0,0,1-.59.46.74.74,0,0,1,.59.5,6.2,6.2,0,0,1,.17,1.81,10.17,10.17,0,0,0,0,1.48h-1.26c0-.05,0-.91,0-2.56a1.07,1.07,0,0,0-.13-.64A.7.7,0,0,0,114.42,60.41Zm-.4-.86h.51a.52.52,0,0,0,.35-.1.49.49,0,0,0,.16-.32,4,4,0,0,0,0-.69v0a1.62,1.62,0,0,0-.11-.76c-.07-.12-.25-.18-.52-.18H114Z"/><path class="cls-5" d="M117.5,63.77V56.62h2.77v.94h-1.51v2.08h1.43v.92h-1.43v2.27h1.56v.94Z"/><path class="cls-5" d="M124.38,63.35a1.64,1.64,0,0,1-1.34.5,1.73,1.73,0,0,1-1.37-.53,2.28,2.28,0,0,1-.45-1.52V58.68c0-1.07.32-1.73,1-2a2.38,2.38,0,0,1,.86-.14c1.16,0,1.74.63,1.74,1.9v1h-1.21v-.91a2.1,2.1,0,0,0-.11-.79.42.42,0,0,0-.42-.24.44.44,0,0,0-.44.25,1.9,1.9,0,0,0-.12.77v3.34a2.31,2.31,0,0,0,.11.83.45.45,0,0,0,.43.25.44.44,0,0,0,.43-.26,2,2,0,0,0,.12-.83v-1h1.23v1A2.27,2.27,0,0,1,124.38,63.35Z"/><path class="cls-5" d="M126.25,63.77V57.56h-1v-.94h3.14v.94h-.92v6.21Z"/><path class="cls-5" d="M132.24,63.34a2.12,2.12,0,0,1-2.77,0,2.31,2.31,0,0,1-.45-1.56V58.5c0-1.31.62-2,1.86-2a1.71,1.71,0,0,1,1.37.5,2.24,2.24,0,0,1,.42,1.47v3.27A2.41,2.41,0,0,1,132.24,63.34Zm-1.84-.68a.43.43,0,0,0,.45.25.44.44,0,0,0,.45-.26,2.24,2.24,0,0,0,.11-.87V58.45a1.88,1.88,0,0,0-.11-.74.42.42,0,0,0-.43-.23.46.46,0,0,0-.45.23,1.53,1.53,0,0,0-.13.74v3.33A2.48,2.48,0,0,0,130.4,62.66Z"/><path class="cls-5" d="M135.47,60.41l-.4,0v3.38h-1.26V56.62h2.08a1.66,1.66,0,0,1,1,.22,1,1,0,0,1,.42.63,4.3,4.3,0,0,1,.11,1.06,2.51,2.51,0,0,1-.16,1,.88.88,0,0,1-.59.46.74.74,0,0,1,.59.5,6.2,6.2,0,0,1,.17,1.81,10.17,10.17,0,0,0,.05,1.48h-1.26c0-.05-.05-.91-.05-2.56a1.07,1.07,0,0,0-.13-.64A.7.7,0,0,0,135.47,60.41Zm-.4-.86h.5a.53.53,0,0,0,.36-.1.49.49,0,0,0,.16-.32,4,4,0,0,0,0-.69v0a1.62,1.62,0,0,0-.11-.76c-.07-.12-.25-.18-.52-.18h-.43Z"/><rect class="cls-14" x="142.35" y="51.1" width="1.64" height="28.11"/><rect class="cls-14" x="113.6" y="91.67" width="15.59" height="1.31"/><polygon class="cls-14" points="139.62 114.11 138.6 115 98.28 80.06 99.3 79.17 139.62 114.11"/><polygon class="cls-14" points="103.16 114.11 104.17 115 144.49 80.06 143.47 79.17 103.16 114.11"/><rect class="cls-15" x="109.2" y="95.38" width="24.37" height="1.31"/><polygon class="cls-15" points="141.77 123.63 140.63 124.61 95.56 85.55 96.69 84.56 141.77 123.63"/><polygon class="cls-15" points="101 123.63 102.14 124.61 147.22 85.55 146.08 84.56 101 123.63"/><rect class="cls-14" x="98.78" y="51.1" width="1.64" height="28.11"/><path class="cls-2" d="M144,79.21a267.66,267.66,0,0,1-45.21,0c-1.71,2.59-2.6,4.19-4.4,6.75a333.67,333.67,0,0,0,54,0C146.59,83.4,145.7,81.8,144,79.21Z"/><polygon class="cls-14" points="100.33 79.21 98.78 79.21 94.17 86 96.1 86 100.33 79.21"/><polygon class="cls-15" points="100.33 70.81 98.78 70.81 94.17 74.82 96.1 74.82 100.33 70.81"/><rect class="cls-15" x="94.17" y="74.82" width="1.93" height="11.18"/><polygon class="cls-14" points="142.45 79.21 144 79.21 148.61 86 146.68 86 142.45 79.21"/><polygon class="cls-15" points="142.35 70.81 143.9 70.81 148.51 74.82 146.58 74.82 142.35 70.81"/><rect class="cls-15" x="146.58" y="74.82" width="1.93" height="11.18" transform="translate(295.09 160.83) rotate(180)"/><rect class="cls-16" x="31" y="96.63" width="100.24" height="31.99"/><path class="cls-2" d="M131.24,128.62H110.42V96.82h20.82V89.24H31v7.58H51.82v31.8H31v7.58H131.24ZM35,95.12V90.94h3.42v4.18Zm8.87,0V90.94h3.42v4.18Zm8.88,0V90.94H56.2v4.18Zm8.88,0V90.94h3.41v4.18Zm8.87,0V90.94H74v4.18Zm8.88,0V90.94h3.42v4.18Zm8.88,0V90.94H91.7v4.18Zm8.87,0V90.94h3.42v4.18Zm8.88,0V90.94h3.41v4.18Zm8.87,0V90.94h3.42v4.18Zm8.88,0V90.94h3.42v4.18Zm-68.68,1.7h52v31.8h-52ZM35,134.5v-4.18h3.42v4.18Zm8.87,0v-4.18h3.42v4.18Zm8.88,0v-4.18H56.2v4.18Zm8.88,0v-4.18h3.41v4.18Zm8.87,0v-4.18H74v4.18Zm8.88,0v-4.18h3.42v4.18Zm8.88,0v-4.18H91.7v4.18Zm8.87,0v-4.18h3.42v4.18Zm8.88,0v-4.18h3.41v4.18Zm8.87,0v-4.18h3.42v4.18Zm8.88,0v-4.18h3.42v4.18Z"/><path class="cls-5" d="M65.94,119a2.59,2.59,0,0,1-2.23,1,2.68,2.68,0,0,1-2.29-1,4.91,4.91,0,0,1-.75-2.94v-6c0-2,.53-3.33,1.61-3.84a3.33,3.33,0,0,1,1.44-.29c1.94,0,2.91,1.23,2.91,3.67v1.89h-2v-1.76a4.53,4.53,0,0,0-.18-1.52.69.69,0,0,0-.71-.46.73.73,0,0,0-.73.49,4.19,4.19,0,0,0-.2,1.48v6.44a4.59,4.59,0,0,0,.2,1.59.76.76,0,0,0,1.42,0,4.66,4.66,0,0,0,.2-1.6v-2h2.06v1.94A4.92,4.92,0,0,1,65.94,119Z"/><path class="cls-5" d="M68.44,119.81V106h2.1v13.78Z"/><path class="cls-5" d="M72.69,119.81V106h1.64l2.92,8.27-.15-3.76V106H79v13.78H77.5l-3-8.56.12,3.62v4.94Z"/><path class="cls-5" d="M81.06,119.81V106h4.62v1.81H83.16v4h2.39v1.77H83.16V118h2.61v1.81Z"/><path class="cls-5" d="M87.45,119.81V106h1.64L92,114.3l-.15-3.76V106h1.88v13.78H92.27l-3-8.56.11,3.62v4.94Z"/><path class="cls-5" d="M95.19,119.81l2-13.78h2.77L102,119.81h-2l-.33-2.46H97.51l-.29,2.46Zm4.33-4.14-.93-6.92h0l-.84,6.92Z"/><circle class="cls-2" cx="141.74" cy="129.42" r="27.34" transform="translate(-24.26 225.76) rotate(-72.53)"/><circle class="cls-2" cx="141.74" cy="129.42" r="22.74" transform="translate(-45.04 173.59) rotate(-55.7)"/><path class="cls-4" d="M141.75,147.74a18.34,18.34,0,1,1,8.41-2.06A18.28,18.28,0,0,1,141.75,147.74Zm0-31.89a13.57,13.57,0,0,0-12,19.8A13.53,13.53,0,0,0,141.75,143a13.57,13.57,0,0,0,12-19.8A13.53,13.53,0,0,0,141.72,115.85Z"/><path class="cls-2" d="M124.55,109.15l.14-.13.46-.41c.39-.34,1-.8,1.74-1.36a30,30,0,0,1,2.87-1.82,31.55,31.55,0,0,1,4-1.88c.76-.27,1.54-.58,2.38-.81.42-.12.84-.26,1.28-.36l1.33-.31c.45-.11.92-.18,1.39-.25s.94-.15,1.42-.21l1.47-.12.75-.06H146c.55,0,1,0,1.51.06,1,.06,2.08.14,3.1.26a58.06,58.06,0,0,1,6.22,1c2.06.45,4.09,1,6,1.57,1,.27,1.94.55,2.86.78.23.06.46.1.69.15l.17,0h.13l.36.07c.24,0,.5.09.71.11l.63.07a13.52,13.52,0,0,0,4.94-.45,7.71,7.71,0,0,0,3.53-2.08,5.42,5.42,0,0,0,.89-1.42l0-.08,0,0h0s0-.09,0,.07v0l.08-.25.16-.48c0-.24.09-.4.1-.66a5.27,5.27,0,0,0-.31-2.46,6.18,6.18,0,0,0-.76-1.48c-.22-.31-.34-.44-.3-.4l2.45-2.25a6.38,6.38,0,0,1,.59.78A9.93,9.93,0,0,1,181,96.59a8.77,8.77,0,0,1,.42,4,9.44,9.44,0,0,1-.26,1.26c0,.15-.1.32-.16.48l-.08.24v0c-.06.17,0,0,0,.1v0l0,.07-.07.15a8.35,8.35,0,0,1-1.5,2.3,10.77,10.77,0,0,1-5,2.91,14.18,14.18,0,0,1-3,.52,17.27,17.27,0,0,1-3.13,0l-.82-.1-.74-.13-.36-.07-.09,0-.14,0-.19,0L165,108c-1-.26-2-.56-2.95-.85-2-.58-3.9-1.15-5.86-1.61a55.76,55.76,0,0,0-5.92-1.07c-.49-.07-1-.13-1.46-.17s-.95-.09-1.46-.12-1-.08-1.45-.08h-2.09l-.69,0-1.34.09-1.31.18c-.43.06-.86.11-1.27.21l-1.23.26c-.41.08-.79.21-1.18.32-.77.19-1.5.47-2.2.71a29.84,29.84,0,0,0-3.68,1.68,28.42,28.42,0,0,0-2.67,1.63c-.7.5-1.24.91-1.58,1.2-.18.15-.29.26-.37.33l-.13.12Z"/><path class="cls-3" d="M164.21,118.15a25.08,25.08,0,1,0-11.11,33.69A25.07,25.07,0,0,0,164.21,118.15Zm-20.88,10.53a1.7,1.7,0,1,1-2.28-.76A1.69,1.69,0,0,1,143.33,128.68Zm4.33-19a6.54,6.54,0,1,1-5.35,7.55A6.54,6.54,0,0,1,147.66,109.67Zm-15.51,15.6a6.54,6.54,0,1,1,5.35-7.55A6.54,6.54,0,0,1,132.15,125.27ZM129.32,143a6.54,6.54,0,1,1,5.35-7.55A6.54,6.54,0,0,1,129.32,143Zm26.35-17.21a6.54,6.54,0,1,1-5.35,7.54A6.54,6.54,0,0,1,155.67,125.76Zm-17.8,20.08a6.54,6.54,0,1,1,7.54,5.35A6.53,6.53,0,0,1,137.87,145.84Z"/><path d="M141.83,154.83h0a25.39,25.39,0,1,1,11.41-2.72A25.27,25.27,0,0,1,141.83,154.83Zm0-50.18A24.79,24.79,0,1,0,164,118.29,24.56,24.56,0,0,0,141.79,104.65Zm2.52,46.93A6.84,6.84,0,0,1,143.17,138a7.43,7.43,0,0,1,1.15-.09,6.83,6.83,0,0,1,1.14,13.57A6.38,6.38,0,0,1,144.31,151.58Zm0-13.08a6.23,6.23,0,1,0,6.15,5.2A6.2,6.2,0,0,0,144.32,138.5Zm-16.1,4.86a6.84,6.84,0,0,1-1.14-13.58,7.44,7.44,0,0,1,1.15-.1,6.84,6.84,0,0,1,1.14,13.58A7.44,7.44,0,0,1,128.22,143.36Zm0-13.08a6.24,6.24,0,1,0,6.15,5.19A6.2,6.2,0,0,0,128.23,130.28ZM156.76,139a6.83,6.83,0,0,1-1.14-13.57,6.38,6.38,0,0,1,1.15-.1A6.84,6.84,0,0,1,157.91,139,7.43,7.43,0,0,1,156.76,139Zm0-13.08a7.44,7.44,0,0,0-1.05.09,6.24,6.24,0,1,0,6.13,9.77,6.24,6.24,0,0,0-5.08-9.86Zm-15,5.48a2,2,0,0,1-1.79-1.1,2,2,0,0,1,1.78-2.89,2,2,0,0,1,.9,3.78A2,2,0,0,1,141.82,131.44Zm0-3.4a1.39,1.39,0,0,0-.63.15,1.43,1.43,0,0,0-.7.81,1.4,1.4,0,0,0,.08,1.08,1.44,1.44,0,0,0,1.89.62,1.41,1.41,0,0,0-.64-2.66Zm-10.76-2.38a6.84,6.84,0,0,1-1.14-13.58,7.46,7.46,0,0,1,1.16-.1,6.84,6.84,0,0,1,1.13,13.58A7.44,7.44,0,0,1,131.05,125.66Zm0-13.08a6.32,6.32,0,0,0-1.06.09,6.24,6.24,0,0,0,1,12.39,6.12,6.12,0,0,0,1-.09,6.24,6.24,0,0,0-1-12.39ZM148.74,123a6.84,6.84,0,0,1-1.13-13.58,7.44,7.44,0,0,1,1.15-.1,6.84,6.84,0,0,1,1.14,13.58A7.46,7.46,0,0,1,148.74,123Zm0-13.08a6.24,6.24,0,1,0,6.15,5.19A6.2,6.2,0,0,0,148.76,109.88Z"/><g class="cls-11"><path class="cls-6" d="M133.34,116.22a4.22,4.22,0,1,1-5.69-1.81A4.22,4.22,0,0,1,133.34,116.22Z"/></g><g class="cls-11"><path class="cls-6" d="M150.54,113.46a4,4,0,1,1-5.37-1.71A4,4,0,0,1,150.54,113.46Z"/></g><g class="cls-11"><path class="cls-6" d="M158.56,130.05a4,4,0,1,1-5.37-1.71A4,4,0,0,1,158.56,130.05Z"/></g><g class="cls-11"><path class="cls-6" d="M146,142.34a4,4,0,1,1-5.37-1.7A4,4,0,0,1,146,142.34Z"/></g><g class="cls-11"><path class="cls-6" d="M130.26,133.87a4.22,4.22,0,1,1-5.69-1.81A4.22,4.22,0,0,1,130.26,133.87Z"/></g></g></g></g></svg>