<svg xmlns="http://www.w3.org/2000/svg" viewBox="0 0 34.2 25.19"><defs><style>.cls-1{fill:#009e3c;}.cls-2{fill:#019f3d;}.cls-3{fill:#009f3c;}.cls-4{fill:#029f3d;}</style></defs><title>vectorsAsset 17</title><g id="Layer_2" data-name="Layer 2"><g id="ev_pages" data-name="ev pages"><path class="cls-1" d="M2.36,8C3.2,8,4,8,4.87,8c.31,0,.46,0,.44.43A11.55,11.55,0,0,0,12,18.94a12.07,12.07,0,0,0,9.14.41,11.39,11.39,0,0,0,7.46-8.18,9.52,9.52,0,0,0,.28-2.66c0-.43.14-.53.53-.5,1.44.13,2.88,0,4.32.06.29,0,.52,0,.45.4s.24.73-.38.78c-1.22.12-2.43.3-3.65.41-.4,0-.5.18-.49.53a3.59,3.59,0,0,1-.05.46c-.12,1-.12,1,.83,1.47S32.15,13,33,13.34c.32.14.39.3.22.61-.27.51-.3,1.29-.76,1.52s-1.06-.2-1.6-.34c-.73-.19-1.46-.4-2.18-.63-.33-.1-.55-.08-.67.28a2.12,2.12,0,0,1-.28.51c-.5.77-.5.77.09,1.44s1.35,1.56,2,2.32c.19.22.22.36,0,.57-.45.4-.84,1.09-1.33,1.16s-.95-.62-1.43-1a20.9,20.9,0,0,1-1.66-1.28.54.54,0,0,0-.87,0,1.15,1.15,0,0,1-.19.14c-.95.66-.95.66-.57,1.78.28.85.54,1.71.85,2.55.14.37.06.54-.32.65a7.88,7.88,0,0,0-1.24.51c-.31.15-.46.11-.62-.21-.54-1-1.14-2-1.67-3.07-.17-.33-.36-.42-.69-.3l-.39.1c-1.14.21-1.14.21-1.23,1.35-.07.91-.17,1.82-.22,2.74,0,.32-.12.44-.45.42a11.85,11.85,0,0,0-1.46,0c-.34,0-.47-.08-.49-.44-.08-1.15-.22-2.29-.29-3.43,0-.41-.16-.56-.54-.55a2.91,2.91,0,0,1-.58-.09c-.91-.16-.91-.16-1.37.68s-1,1.73-1.43,2.61c-.14.27-.28.35-.58.21s-.92-.4-1.4-.58c-.28-.1-.32-.22-.22-.51.4-1.13.76-2.29,1.15-3.42.1-.29.08-.48-.22-.6a1.13,1.13,0,0,1-.2-.13c-.37-.22-.76-.65-1.12-.62s-.71.49-1.07.76c-.69.53-1.39,1.06-2.07,1.61-.23.18-.36.2-.57,0-.4-.44-1.12-.82-1.19-1.29s.67-.92,1-1.38,1-1.15,1.5-1.71a.36.36,0,0,0,0-.55c-.3-.42-.49-1.07-.89-1.24s-.95.19-1.43.32c-.81.22-1.61.43-2.41.68-.31.09-.46,0-.57-.26-.17-.46-.36-.91-.57-1.34s0-.41.21-.53c1.09-.51,2.17-1,3.27-1.54a.5.5,0,0,0,.33-.62C4.52,9.73,4.53,9.73,3,9.56c-.89-.11-1.78-.22-2.67-.31-.26,0-.45-.1-.33-.38s-.2-.78.4-.79H2.36Z"/><path class="cls-1" d="M17.34,18.71a10.56,10.56,0,0,1-10.2-7.25,14.26,14.26,0,0,1-.41-3.05c0-.32.1-.4.4-.4s.41.05.41.38a8.94,8.94,0,0,0,2.51,6.47,9.32,9.32,0,0,0,9.83,2.57,8.9,8.9,0,0,0,6.48-6.77,7.77,7.77,0,0,0,.28-2.2c0-.29,0-.46.39-.46s.41.14.41.45a9.6,9.6,0,0,1-2.66,6.89A10.41,10.41,0,0,1,17.34,18.71Z"/><path class="cls-2" d="M21.39,1.49A1.35,1.35,0,0,1,20,2.88,1.44,1.44,0,0,1,18.54,1.5,1.41,1.41,0,0,1,20,.09,1.33,1.33,0,0,1,21.39,1.49Z"/><path class="cls-3" d="M18.17,1.52a1.3,1.3,0,0,1-1.36,1.36,1.42,1.42,0,0,1-1.48-1.4A1.47,1.47,0,0,1,16.82.08,1.32,1.32,0,0,1,18.17,1.52Z"/><path class="cls-1" d="M27.19,0c-1.26,0-2.53,0-3.79,0-.53,0-1.22-.17-1.53.1s-.1,1-.11,1.55c0,1.12,0,1.14,1.1,1.12.44,0,.51.14.51.53,0,1.62,0,3.23,0,4.85,0,.49.13.67.61.58s.49.14.44.53a7,7,0,0,1-2.79,4.92,7.2,7.2,0,0,1-7.6.86A7,7,0,0,1,9.74,9.25c-.05-.34,0-.54.42-.47s.55-.13.52-.54c0-.61,0-1.23,0-1.84a13.55,13.55,0,0,1,1.13,2,.53.53,0,0,0,.57.36c.78,0,1.56,0,2.34,0,.43,0,.44-.11.28-.46C14.45,7.21,14,6.07,13.4,5a1,1,0,0,1,0-1.12c.71-1.22,1.38-2.47,2.11-3.79-1,0-1.83,0-2.7,0A.72.72,0,0,0,12.1.5c-.42.8-.88,1.58-1.32,2.37l-.11,0c0-.79,0-1.57,0-2.36,0-.32-.07-.45-.42-.44-.64,0-1.28,0-1.92,0C8,0,7.89.12,7.89.47c0,2.64,0,5.29,0,7.94,0,.26.06.43.35.37.65-.15.7.25.76.74a7.83,7.83,0,0,0,4.18,6,7.84,7.84,0,0,0,4.55.94,8,8,0,0,0,6-3.25,7.87,7.87,0,0,0,1.51-4c0-.28,0-.57.45-.49s.48-.12.47-.48c0-1.42,0-2.84,0-4.26,0-1.16,0-1.17,1.16-1.2.32,0,.39-.12.38-.41,0-.64,0-1.29,0-1.93C27.67.14,27.55,0,27.19,0ZM11.91,2.24,12,2.08C12.75.72,12.75.72,14.44.82A19.7,19.7,0,0,1,13.15,3,2.22,2.22,0,0,0,13.06,6a15.62,15.62,0,0,1,1,2.09c-1.56.1-1.56.1-2.21-1.21a.77.77,0,0,1-.07-.16c-.37-.75-1-1.5-1-2.24S11.51,3,11.91,2.24ZM8.7,8c-.16-.25,0-.67,0-1,0-1.89,0-3.78,0-5.66,0-.42.13-.52.53-.51.86,0,.86,0,.86.85v2.8c0,1.07,0,2.14,0,3.21,0,.29,0,.53-.39.39S8.87,8.24,8.7,8ZM26.13,2.05c-.62,0-.77.16-.75.76,0,1.57,0,3.15,0,4.72,0,.37,0,.54-.47.5-.84-.06-.84,0-.84-.87V5.06c0-.84,0-1.67,0-2.51,0-.36-.06-.55-.47-.49-.15,0-.31,0-.47,0-.49.08-.59-.13-.61-.6s.13-.72.7-.7c1.06.06,2.14,0,3.2,0,.38,0,.5.1.49.48C26.89,2.25,27,2.09,26.13,2.05Z"/><path class="cls-4" d="M21.39,5.9c0-.82,0-1.64,0-2.45,0-.29,0-.42-.38-.41q-1.05,0-2.1,0c-.33,0-.39.12-.39.41,0,1.65,0,3.3,0,5,0,.32.13.39.42.38.68,0,1.36,0,2,0,.35,0,.42-.13.41-.44C21.38,7.53,21.39,6.72,21.39,5.9Zm-.72,1.77c0,.29-.07.45-.39.41a2.81,2.81,0,0,0-.58,0c-.28,0-.38-.09-.37-.37,0-.62,0-1.24,0-1.86s0-1.13,0-1.7c0-.35.13-.44.44-.4a1.85,1.85,0,0,0,.47,0c.34,0,.43.1.43.42C20.65,5.34,20.66,6.51,20.67,7.67Z"/><path class="cls-2" d="M18.18,3.46c0-.34-.1-.43-.43-.42q-1,0-2,0c-.31,0-.44.06-.44.41q0,2.47,0,5c0,.31.1.4.4.39.68,0,1.36,0,2,0,.36,0,.42-.13.41-.44,0-.8,0-1.59,0-2.39S18.16,4.29,18.18,3.46Zm-.73,4.28c0,.24-.05.37-.32.34H17c-.87,0-.87,0-.87-.84V5.84c0-.56,0-1.12,0-1.69,0-.28.05-.44.38-.4a2.81,2.81,0,0,0,.58,0c.3,0,.36.11.35.37C17.44,5.33,17.45,6.53,17.45,7.74Z"/></g></g></svg>