<svg xmlns="http://www.w3.org/2000/svg" viewBox="0 0 32.7 24.73"><defs><style>.cls-1{fill:#046236;}.cls-2{fill:#38b148;}.cls-3{fill:#85c442;}.cls-4{fill:#cadc20;}.cls-5{fill:#079045;}.cls-6{fill:#089145;}.cls-7{fill:#eaee38;}.cls-8{fill:#079044;}.cls-9{fill:#cddd2d;}.cls-10{fill:#2fb348;}.cls-11{fill:#0a9045;}.cls-12{fill:#86d250;}.cls-13{fill:#099046;}.cls-14{fill:#03671a;}.cls-15{fill:#0c8e46;}.cls-16{fill:#49a650;}.cls-17{fill:#054a1d;}.cls-18{fill:#069345;}.cls-19{fill:#05642e;}.cls-20{fill:#0a9047;}.cls-21{fill:#076130;}.cls-22{fill:#05612f;}.cls-23{fill:#34b249;}.cls-24{fill:#cbde26;}.cls-25{fill:#41af4f;}.cls-26{fill:#05642f;}.cls-27{fill:#06642e;}.cls-28{fill:#05602f;}.cls-29{fill:#096231;}.cls-30{fill:#0a8f40;}.cls-31{fill:#086230;}.cls-32{fill:#3bb146;}.cls-33{fill:#0c8a43;}.cls-34{fill:#04632d;}.cls-35{fill:#13582d;}.cls-36{fill:#2fb346;}.cls-37{fill:#44aa50;}.cls-38{fill:#cede4c;}.cls-39{fill:#06613c;}.cls-40{fill:#4da658;}.cls-41{fill:#ecee40;}.cls-42{fill:#11592d;}.cls-43{fill:#49a756;}.cls-44{fill:#e7ee47;}.cls-45{fill:#1c874c;}.cls-46{fill:#36b34c;}.cls-47{fill:#04612f;}.cls-48{fill:#145737;}.cls-49{fill:#1a884c;}.cls-50{fill:#4ea659;}.cls-51{fill:#04622f;}.cls-52{fill:#03652a;}.cls-53{fill:#0c5f29;}.cls-54{fill:#e5ed55;}.cls-55{fill:#1b5b36;}.cls-56{fill:#e4ee51;}.cls-57{fill:#1f854f;}.cls-58{fill:#e3ee58;}.cls-59{fill:#056030;}.cls-60{fill:#cee31f;}.cls-61{fill:#0c8f48;}.cls-62{fill:#cee05b;}.cls-63{fill:#0e603e;}.cls-64{fill:#03672d;}.cls-65{fill:#1d854c;}.cls-66{fill:#20864f;}.cls-67{fill:#175833;}.cls-68{fill:#14582e;}.cls-69{fill:#09733d;}.cls-70{fill:#1d894f;}.cls-71{fill:#13532a;}.cls-72{fill:#258b53;}.cls-73{fill:#d3e353;}.cls-74{fill:#e2eb5a;}.cls-75{fill:#155b14;}.cls-76{fill:#217c4c;}.cls-77{fill:#e7ed4f;}.cls-78{fill:#175a2f;}.cls-79{fill:#0d9048;}.cls-80{fill:#0c5e31;}.cls-81{fill:#228d51;}.cls-82{fill:#0e7841;}.cls-83{fill:#cddb43;}.cls-84{fill:#1d8d51;}.cls-85{fill:#91c357;}.cls-86{fill:#07823d;}.cls-87{fill:#cade4d;}.cls-88{fill:#119147;}.cls-89{fill:#185e3e;}.cls-90{fill:#4fa65a;}.cls-91{fill:#57ae62;}.cls-92{fill:#cdde37;}.cls-93{fill:#cae367;}.cls-94{fill:#33ac48;}.cls-95{fill:#92ba5b;}.cls-96{fill:#3bae48;}.cls-97{fill:#0b5226;}.cls-98{fill:#08633d;}.cls-99{fill:#328858;}.cls-100{fill:#0e5828;}.cls-101{fill:#085023;}.cls-102{fill:#367e57;}.cls-103{fill:#cfdf49;}.cls-104{fill:#185936;}.cls-105{fill:#cfde2e;}.cls-106{fill:#185b36;}.cls-107{fill:#24764d;}.cls-108{fill:#36865b;}.cls-109{fill:#418a60;}.cls-110{fill:#13562e;}.cls-111{fill:#50a85b;}.cls-112{fill:#135228;}.cls-113{fill:#045f3d;}.cls-114{fill:#085f3d;}.cls-115{fill:#04683d;}.cls-116{fill:#035f2f;}.cls-117{fill:#04622d;}.cls-118{fill:#066230;}.cls-119{fill:#04632e;}.cls-120{fill:#0b643c;}.cls-121{fill:#045f2c;}.cls-122{fill:#065e2f;}.cls-123{fill:#06683e;}.cls-124{fill:#04673e;}.cls-125{fill:#06673e;}.cls-126{fill:#066b3f;}.cls-127{fill:#066e41;}.cls-128{fill:#45af5e;}.cls-129{fill:#2fb448;}.cls-130{fill:#32b24a;}.cls-131{fill:#2db347;}.cls-132{fill:#29b744;}.cls-133{fill:#34b447;}.cls-134{fill:#28b744;}.cls-135{fill:#2eb248;}.cls-136{fill:#2eb249;}.cls-137{fill:#2ab544;}.cls-138{fill:#2fb546;}.cls-139{fill:#22ba45;}.cls-140{fill:#2fb247;}.cls-141{fill:#44b055;}.cls-142{fill:#2ab84e;}.cls-143{fill:#29b63f;}.cls-144{fill:#21b73c;}.cls-145{fill:#2bb746;}.cls-146{fill:#2cb449;}.cls-147{fill:#2cb447;}.cls-148{fill:#25b640;}.cls-149{fill:#42a748;}.cls-150{fill:#22b745;}.cls-151{fill:#22b948;}.cls-152{fill:#21b43c;}.cls-153{fill:#84cc14;}.cls-154{fill:#cddf1b;}.cls-155{fill:#8bc53d;}.cls-156{fill:#8dc150;}.cls-157{fill:#85c52b;}.cls-158{fill:#8fc62d;}.cls-159{fill:#84c72c;}.cls-160{fill:#7fca40;}.cls-161{fill:#86c732;}.cls-162{fill:#96c82f;}.cls-163{fill:#84c732;}.cls-164{fill:#83ca31;}.cls-165{fill:#8ac52f;}.cls-166{fill:#7eca43;}.cls-167{fill:#c3e240;}.cls-168{fill:#81ca30;}.cls-169{fill:#85c432;}.cls-170{fill:#86c530;}.cls-171{fill:#c5e242;}.cls-172{fill:#8bc534;}.cls-173{fill:#85c532;}.cls-174{fill:#85c930;}.cls-175{fill:#86c431;}.cls-176{fill:#89c534;}.cls-177{fill:#82c730;}.cls-178{fill:#92c42d;}.cls-179{fill:#83c532;}.cls-180{fill:#8dc151;}.cls-181{fill:#85c730;}.cls-182{fill:#89c326;}.cls-183{fill:#90c62c;}.cls-184{fill:#055f41;}.cls-185{fill:#05623b;}.cls-186{fill:#05603d;}.cls-187{fill:#06612c;}.cls-188{fill:#066240;}.cls-189{fill:#066141;}.cls-190{fill:#daf049;}.cls-191{fill:#03622e;}.cls-192{fill:#145d1c;}.cls-193{fill:#d6f056;}.cls-194{fill:#065f3e;}.cls-195{fill:#055f3e;}.cls-196{fill:#075f44;}.cls-197{fill:#04671f;}.cls-198{fill:#155d11;}.cls-199{fill:#036422;}.cls-200{fill:#135e12;}.cls-201{fill:#04602d;}.cls-202{fill:#05613e;}.cls-203{fill:#04642c;}.cls-204{fill:#036425;}.cls-205{fill:#066120;}.cls-206{fill:#066044;}.cls-207{fill:#22650c;}.cls-208{fill:#036527;}.cls-209{fill:#06602b;}.cls-210{fill:#056043;}.cls-211{fill:#055f42;}.cls-212{fill:#066342;}.cls-213{fill:#03681e;}.cls-214{fill:#036424;}.cls-215{fill:#085a47;}.cls-216{fill:#06673d;}.cls-217{fill:#cddd2a;}.cls-218{fill:#cbdf20;}.cls-219{fill:#cde118;}.cls-220{fill:#cfde1f;}.cls-221{fill:#cfdd1a;}.cls-222{fill:#cfde1b;}.cls-223{fill:#cde11a;}.cls-224{fill:#cce21c;}.cls-225{fill:#cde316;}.cls-226{fill:#cbe517;}.cls-227{fill:#c9e224;}.cls-228{fill:#cde315;}.cls-229{fill:#bedd3a;}.cls-230{fill:#cedd28;}.cls-231{fill:#c5e53f;}.cls-232{fill:#cce317;}.cls-233{fill:#cce316;}.cls-234{fill:#bce03d;}.cls-235{fill:#c2e33d;}.cls-236{fill:#cfdf25;}.cls-237{fill:#cbe215;}.cls-238{fill:#cfd93f;}.cls-239{fill:#cae313;}.cls-240{fill:#c7e329;}.cls-241{fill:#d4de15;}.cls-242{fill:#cfdb39;}.cls-243{fill:#cddd3c;}.cls-244{fill:#0d8a46;}.cls-245{fill:#07753d;}.cls-246{fill:#08753d;}.cls-247{fill:#099445;}.cls-248{fill:#0e8943;}.cls-249{fill:#03a144;}.cls-250{fill:#eaee2c;}.cls-251{fill:#eaee22;}.cls-252{fill:#efee2a;}.cls-253{fill:#ecef23;}.cls-254{fill:#ebf31a;}.cls-255{fill:#0f562b;}.cls-256{fill:#ebf022;}.cls-257{fill:#d7e53e;}.cls-258{fill:#ebef27;}.cls-259{fill:#167022;}.cls-260{fill:#044b04;}.cls-261{fill:#edf51a;}.cls-262{fill:#eaec1e;}.cls-263{fill:#0e9349;}.cls-264{fill:#cbe512;}.cls-265{fill:#1ca044;}.cls-266{fill:#1fb73b;}.cls-267{fill:#059a46;}.cls-268{fill:#065a31;}.cls-269{fill:#08621d;}.cls-270{fill:#069446;}.cls-271{fill:#066043;}.cls-272{fill:#106833;}.cls-273{fill:#099346;}.cls-274{fill:#16924f;}.cls-275{fill:#08633e;}.cls-276{fill:#cde214;}.cls-277{fill:#cddd39;}.cls-278{fill:#06673f;}.cls-279{fill:#ecf022;}.cls-280{fill:#e8ef38;}.cls-281{fill:#069c49;}.cls-282{fill:#ebf22d;}.cls-283{fill:#ebf41a;}.cls-284{fill:#ebf123;}.cls-285{fill:#eaf41b;}.cls-286{fill:#056237;}.cls-287{fill:#ccdc3a;}.cls-288{fill:#ecef28;}.cls-289{fill:#e9ee44;}.cls-290{fill:#edf319;}.cls-291{fill:#ecf126;}.cls-292{fill:#ebed3c;}.cls-293{fill:#20b942;}.cls-294{fill:#cfde18;}.cls-295{fill:#c9e417;}.cls-296{fill:#baed1e;}.cls-297{fill:#165c08;}.cls-298{fill:#1f6110;}.cls-299{fill:#0a5a4a;}.cls-300{fill:#246611;}.cls-301{fill:#2d6d0e;}.cls-302{fill:#145d0a;}.cls-303{fill:#03631c;}.cls-304{fill:#ebee39;}.cls-305{fill:#e8ec39;}.cls-306{fill:#f0ee26;}.cls-307{fill:#dde52b;}.cls-308{fill:#e9ed39;}.cls-309{fill:#d9ea55;}.cls-310{fill:#ebef21;}.cls-311{fill:#edf019;}.cls-312{fill:#036924;}.cls-313{fill:#d3ea58;}.cls-314{fill:#cbe65a;}.cls-315{fill:#edee3b;}.cls-316{fill:#ebef23;}.cls-317{fill:#ecee2d;}.cls-318{fill:#e8ef3a;}.cls-319{fill:#eced3b;}.cls-320{fill:#e9ef43;}.cls-321{fill:#eeee39;}.cls-322{fill:#edee3a;}.cls-323{fill:#eaee3c;}.cls-324{fill:#f1ec3e;}.cls-325{fill:#dff626;}.cls-326{fill:#edec3c;}.cls-327{fill:#eced39;}.cls-328{fill:#eaee39;}.cls-329{fill:#f1e923;}.cls-330{fill:#eff21e;}.cls-331{fill:#edf418;}.cls-332{fill:#ecf61d;}.cls-333{fill:#dbf727;}.cls-334{fill:#0e594b;}.cls-335{fill:#dcf53d;}.cls-336{fill:#def63f;}.cls-337{fill:#069548;}</style></defs><title>vectorsAsset 18</title><g id="Layer_2" data-name="Layer 2"><g id="ev_pages" data-name="ev pages"><path class="cls-1" d="M13.12,24.2c-.35-.55-.68-1.12-1-1.7,0-.05,0-.07,0-.08a.33.33,0,0,0,.4-.18.06.06,0,1,0-.11,0c-.05.11-.07.24-.24.2s-.09-.33-.31-.29L11.85,22c-.1-.22,0-.45,0-.68-.08,0-.05.19-.16.16s-.1-.12-.15-.17-.05-.23-.19-.25L11.25,21c0-.06,0-.11,0-.17a1.59,1.59,0,0,0-.18-.27c-.06-.12-.2-.2,0-.36s0-.32,0-.47c-.14.08,0,.38-.33.34h0c0-.07,0-.14-.1-.17s0,0,0,0-.15-.22-.09-.37l0,0,0,0s0,0,0,0a.61.61,0,0,1-.18-.09,4.46,4.46,0,0,1-.31-.52.36.36,0,0,1,0-.49.78.78,0,0,0,0-.34.66.66,0,0,0,0-.28c0-.13,0-.27-.18-.28s-.13-.16-.16-.27c.17-.35.38-.66.57-1a.31.31,0,0,1,.23-.06c.27,0,.34-.11.2-.35a.81.81,0,0,1-.09-.29,8.1,8.1,0,0,1,.55-.95c.2,0,.39.06.58,0a2.1,2.1,0,0,0-.29-.58l.38-.65a.38.38,0,0,1,.21,0l.2-.06c.05-.15.11-.31,0-.44,0-.17.22-.29.23-.49a4.18,4.18,0,0,1,.37-.65c.14,0,.07-.14.15-.17a.72.72,0,0,0,.47-.53,14.42,14.42,0,0,1,2.08-.11c1,0,1.93,0,2.9,0,.51,0,1,0,1.53,0a7.93,7.93,0,0,1,1.09,0c.19,0,.25.08.21.26a9.14,9.14,0,0,1-1.17,0c-.07,0-.13,0-.18,0-.62-.07-1.25,0-1.87-.05a11.93,11.93,0,0,0,1.89,0,9.38,9.38,0,0,0,1.3,0c.09-.08,0-.35.23-.28s.14.23.05.36-.08.11,0,.17a.09.09,0,0,0,.1,0c.09,0,.07-.09.05-.15s.07-.16.17-.18a5.24,5.24,0,0,1,.54.87c0,.07,0,.19.16.19a1.35,1.35,0,0,1,.27.5,5.3,5.3,0,0,1,.18,1c0,.11.08.19.21.12s.11-.12.18,0a.14.14,0,0,1,0,.2.11.11,0,0,0,0,.17c0-.06-.05-.11,0-.16s.13.07.21,0c.22.38.48.74.67,1.14,0,.08,0,.15.1.16l.11.21a1.18,1.18,0,0,0,.16.29,3.08,3.08,0,0,1,.44.77c0,.18-.13.25-.32.26a.35.35,0,0,0,.43-.09,3.81,3.81,0,0,1,.38.65c0,.26,0,.26-.29.22-2.46,0-4.93,0-7.38,0,.27,0,.53,0,.8,0h6.31a1.94,1.94,0,0,0,.68,0c.05.05.09.1,0,.12a1.92,1.92,0,0,1-.24,0H17.52c-.22.09-.22.34-.36.49s-.08,0-.13,0l0,.06s.05.06,0,.09l-.07.12a.1.1,0,0,1-.1,0l-.11,0c-.06,0-.09-.11-.17-.16a.63.63,0,0,0-.06.33c0,.05,0,0,.07,0s.15-.06.23,0a3.41,3.41,0,0,1-.65,1.1c-.16-.08-.05-.2,0-.31s-.18,0-.2.06a2.77,2.77,0,0,0-.22.76c0,.12,0,.2.12.25a11.4,11.4,0,0,1-.71,1.22s-.05,0-.08-.05,0,.1,0,.15a2.91,2.91,0,0,1-.49.76,2.69,2.69,0,0,0-.4.77,1.43,1.43,0,0,1-.26.45c-.06,0-.09,0-.13-.07a.15.15,0,0,1,0-.16c.08-.28.08-.28-.25-.27,0,.12.16.21.12.35s0,0,0,0l0,0c.07,0,.11,0,.15.06s-.08.22-.12.33a.08.08,0,0,1-.07,0h-.16c-.21,0-.23,0-.17-.21l-.09.1a.41.41,0,0,0-.1.22A.16.16,0,0,1,13.12,24.2Z"/><path class="cls-2" d="M25.24,4.21c0,.17-.14.25-.18.38a.16.16,0,0,1-.15,0c-.21,0-.34,0-.38.29a.74.74,0,0,1-.11.41c-.06.09,0,.15.06.21a.12.12,0,0,1,0,.1,2.67,2.67,0,0,1-.39.65.79.79,0,0,1-.17-.44c-.11.06-.19.14-.29.19s0,0,0,0a.12.12,0,0,1,.2,0c.12.1.09.22,0,.33.06,0,.11-.11.2,0a.68.68,0,0,1-.13.27c-.06.06-.07.15-.11.22l-.48.83c-.21.15-.26,0-.33-.18,0,.08,0,.17-.09.18s-.07-.05-.08-.1c0,.14,0,.31.16.39s.09.11,0,.18a.46.46,0,0,0-.12.24c-.06,0-.09.13-.19.13s-.25,0-.29.16a.22.22,0,0,1-.2.2c-.12,0-.12-.13-.16-.21a5.48,5.48,0,0,0,.05.57.63.63,0,0,1,0,.19.15.15,0,0,0,.07.19c0,.16-.12.22-.2.32-.37,0-.25-.33-.35-.52,0,.2-.1.41.05.6,0,0,.05.08,0,.1s-.16.46-.43.52c-2.35,0-4.7,0-7,0l-.13,0c-.11,0-.09-.13-.07-.21s0-.16-.11-.21-.09-.16,0-.24.11-.19.16-.28.07-.1.07-.16a6.41,6.41,0,0,1,.5-.88s.06-.08.12-.08.15.09,0,.19-.19.15-.21.27-.05.08,0,.07c.09-.17.24-.3.26-.5a.38.38,0,0,1,.17-.2c.22-.13.46-.24.52-.53a.38.38,0,0,1,0-.15.3.3,0,0,1,.08-.08c.11-.15-.05-.27-.06-.4s0-.09.07-.12.09-.15.14-.22.05-.16.15-.18.14-.07.16-.15A.23.23,0,0,0,16,6.23a5.19,5.19,0,0,1,.54-.94h0a.18.18,0,0,1,0,.27,4,4,0,0,0-.17.36c.08-.16.12-.36.34-.4a.15.15,0,0,0,.1-.12,1.72,1.72,0,0,1,.23-.52A.26.26,0,0,0,17,4.53a.11.11,0,0,1,0-.11h0a.59.59,0,0,0,.15-.28h0a.17.17,0,0,1,.18,0A.24.24,0,0,0,17.75,4c.12-.36.13-.37.51-.37q3.25,0,6.49,0H25c.31,0,.33.06.22.35C25.15,4.09,25.19,4.14,25.24,4.21Z"/><path class="cls-3" d="M8.35.42l.06.12c.07.08.09.19.17.27.31.53.63,1.06.94,1.6.48.84,1,1.68,1.46,2.52l.67,1.19c0,.12.09.19.15.27l.28.46c.08.2-.06.2-.19.2a2,2,0,0,0-.64,0h-.09L11,7l-.08,0c-1.44,0-2.87,0-4.31,0a.28.28,0,0,0-.13,0L6.43,7a2.12,2.12,0,0,1-.71,0L5.64,7a1.51,1.51,0,0,0-.7,0c-.1,0-.18.11-.29,0s0-.07-.05-.09a.18.18,0,0,0,0,.09s0,0,0,.06a.22.22,0,0,1-.16,0c-.19,0-.2-.18-.21-.34a.83.83,0,0,1,.19-.44,4,4,0,0,1,.45-.7c.07,0,.14,0,.18-.12a1.16,1.16,0,0,1,.2-.38s.12,0,.12,0c0-.39.4-.61.44-1l0-.06a.21.21,0,0,0,.06-.18.33.33,0,0,1,0-.14,3.32,3.32,0,0,1,.45-.75c.26-.08.32-.34.48-.5s.07-.17.18-.2.07-.13.06-.21a.59.59,0,0,1,.13-.36c0-.07,0,0,0-.08a.22.22,0,0,1,0-.21A6.71,6.71,0,0,0,7.75.54,1.19,1.19,0,0,0,7.87.32L7.94.19,8,.11c.11-.06.17,0,.2.09A1.59,1.59,0,0,0,8.35.42Z"/><path class="cls-1" d="M11.76,7.78a.31.31,0,0,1,0,.21c-.28.46-.55.92-.82,1.38-.1,0-.11-.15-.22-.14s.11.16.07.26,0,.13,0,.18l-.06.07c-.08.06-.17.11-.25,0,0,.2-.06.36,0,.53-.35.68-.73,1.34-1.14,2-.15,0-.19-.13-.12-.26a1.53,1.53,0,0,0,.17-.41c-.09,0-.24-.09-.18.15a.63.63,0,0,1-.15.55.37.37,0,0,0-.12.2c.05-.08.07-.17.15-.22a.18.18,0,0,1,.23,0,5.54,5.54,0,0,1-.63,1c-.09,0-.12,0-.14-.1a.16.16,0,0,0-.18-.11c-.09,0-.19,0-.26,0a.19.19,0,0,1-.07-.13c0-.07,0-.14,0-.21s0-.08-.1-.05a.59.59,0,0,1-.22-.12c0-.07.23-.24-.07-.21a1.24,1.24,0,0,1-.27,0c-.09-.05-.1-.17-.2-.21l-.06,0a1.71,1.71,0,0,0,0-.31s0,0,0-.06a.2.2,0,0,0,.08-.21l0-.16c0-.21-.15-.34-.39-.29s-.25,0-.36-.11a.06.06,0,0,1,0-.05v0c0-.07.2-.11,0-.19,0,0,0,.13,0,.19s-.17,0-.19-.14a3.21,3.21,0,0,1,.12-.33c.13-.08,0-.17,0-.25s.05-.06.05-.09,0,0-.06,0,.12.19,0,.3-.2,0-.31,0a.13.13,0,0,1-.1-.13C6,10,6,10,5.89,10a.5.5,0,0,1-.24-.09l0-.07a.65.65,0,0,1,0-.24.48.48,0,0,0,0-.29,1.41,1.41,0,0,1,0-.2V9a.76.76,0,0,0,0-.37c0-.07-.06-.17-.17-.17H5.24c-.14,0-.2.16-.35.13A.93.93,0,0,1,4.52,8a.23.23,0,0,1,0-.11c.11-.09.14.07.23.07s0-.09,0-.14a.54.54,0,0,1,0-.21c.09-.14,0-.21-.09-.31a.11.11,0,0,1,.09-.07A.67.67,0,0,1,5,7.29c.35,0,.71,0,1.06,0H10.7c.14,0,.3,0,.4.1s-.13,0-.19,0h.15a.36.36,0,0,0,.28.12c.09,0,.19,0,.22.12s.14-.09.21,0A.06.06,0,0,1,11.76,7.78Z"/><path class="cls-4" d="M6.44,2.94,6,3.71a.14.14,0,0,1-.16,0,.11.11,0,0,1,0-.11c.09-.15.21-.28.3-.44S6.23,3,6.05,3L5.84,3c-.13,0-.07.12-.08.19a.11.11,0,0,1,0,.08c-.07.13.08.3-.08.4s-.27,0-.39.07c.1,0,.23-.09.31.06A.16.16,0,0,1,5.43,4c-.23,0-.29.22-.3.4a1,1,0,0,1-.17.5.75.75,0,0,0,.3-.47c0-.11.07-.26.25-.21s-.07.35-.11.52a.16.16,0,0,1,0,.07c-.2.16-.24.45-.46.59a.65.65,0,0,0-.79.12c-.09.11-.05.22,0,.33S4.17,6,4,6.1c0,0,0,0,0,0-.14-.2-.28-.12-.43,0a1.14,1.14,0,0,0-.19-.19l-.05-.11a.09.09,0,0,1,0-.11c.08,0,.24,0,.1-.16s0-.23-.1-.32,0,0-.08,0-.15-.07-.2-.15a.22.22,0,0,1,0-.14c.05-.09.08-.18.12-.27s0-.1-.06-.12a.89.89,0,0,0-.23,0H2.67l-.12-.07a3.48,3.48,0,0,1-.44-.77c.15,0,.2.09.26.19s.09.17.21.08c-.1-.07-.25-.1-.21-.26a.1.1,0,0,1,.06-.05c.21-.15,0-.28,0-.42s-.1-.1-.18-.17l.23.46c0,.06-.1.07-.16.09a.33.33,0,0,0-.18.08,2.17,2.17,0,0,1-.33-.55.05.05,0,0,1,0,0s0,0,0,0a.15.15,0,0,0,0-.17s0-.05,0,0,0,0,0,.07-.06-.1-.12-.12l-.09-.17a0,0,0,0,1,0,0s0,0,0,0c.24,0,.25-.07.2-.44s.11-.49-.14-.67c.07.08.19.15.09.28s-.2,0-.26.09C1.21,1.69,1,1.51.87,1.32A3,3,0,0,0,1,.64a.19.19,0,0,1,.1-.1,1.35,1.35,0,0,1,.4,0H6.53a5.3,5.3,0,0,1,.69,0,.07.07,0,0,1,.06,0c0,.16-.09.32,0,.48A1.45,1.45,0,0,0,7.6.41c0-.09.06-.16.17-.1s0,.15,0,.22a4.41,4.41,0,0,1-.52.89s0,.1,0,.15,0,.1-.06.13C7,1.73,7,1.91,7,2.08a.18.18,0,0,1-.09.13.16.16,0,0,1-.15,0,1.8,1.8,0,0,1,.11-.73c-.17,0-.16,0-.17.19a.86.86,0,0,1-.12.62c-.07.09,0,.14.08.18s-.16.26-.13.42Z"/><path class="cls-5" d="M19.19,20.84l.92-.88c.13-.12.34-.14.8-.06l-.33.3c-.27.18-.47.43-.72.62s-.47.47-.71.69-.25.29,0,.6c0,.13.15.31-.08.3.51,0,.66.5,1,.77.09.07.13.19.26.21l.21.22c.07.06.11.14.19.19l.37.35h-.61a2.53,2.53,0,0,1-.59-.54c-.17-.18-.36-.33-.52-.5l-.76-.72v1.48c0,.08,0,.18,0,.26a.23.23,0,0,1-.07-.1.32.32,0,0,1,0-.17c0-.34,0-.69,0-1a.11.11,0,0,1,0-.08c0-.09.08-.17.07-.27,0,.05,0,.1,0,.14a.19.19,0,0,1-.18.07c-.08-.25-.19.06-.28,0,0-.89,0-1.79,0-2.68a.51.51,0,0,1,.4,0,.14.14,0,0,1,.07.11v1.12l0,0h0c0-.44,0-.87,0-1.31a6.79,6.79,0,0,1,0,1.1c0,.1-.05.22.07.3a.56.56,0,0,0,.22-.21h0A2,2,0,0,0,19.19,20.84Z"/><path class="cls-6" d="M23.16,22.11a1.17,1.17,0,0,1,.13,1.79,1.3,1.3,0,0,1-1.9-.11l-.18-.23c-.18-.27-.17-.27.12-.44s.22-.07.3.07a1.54,1.54,0,0,0,.47.51.74.74,0,0,0,.65-.06h0a.47.47,0,0,0,.32-.51,2.44,2.44,0,0,1,0-.27.25.25,0,0,0-.14-.2l-.38-.38a.2.2,0,0,0-.15-.17c-.08,0-.12-.08-.08-.16s.2-.06.1-.2-.08-.13,0-.16l.11,0h0A2.12,2.12,0,0,0,23.16,22.11Z"/><path class="cls-7" d="M8.12,14.09a.6.6,0,0,1-.39.08H.49c-.16,0-.38.11-.46-.05s.14-.29.23-.43.08-.21.22-.22,0,.1.07.16a.35.35,0,0,0-.05-.27.69.69,0,0,1,.16-.29l.06,0c0,.1.15.11.21.17a.36.36,0,0,1,0,.11.89.89,0,0,1,0,.28c.08,0-.18.09,0,.09.64,0,1.28,0,1.91,0H7.37c-.23-.07-.27-.2-.16-.36a1.21,1.21,0,0,0,.12-.35A.13.13,0,0,1,7.39,13l.1.05c0,.07.06.15.12.21l.07.08a.67.67,0,0,1,.11.18c0,.06.07.12,0,.19l0,0h0a.29.29,0,0,1,.16.11.67.67,0,0,1,.09.14S8.15,14,8.12,14.09Z"/><path class="cls-8" d="M32.67,20.69l-.11.15c-.15.16-.26.21-.45,0a1.75,1.75,0,0,0-2.05-.37l-.27.12a1,1,0,0,0-.33.13.24.24,0,0,1-.32,0,.15.15,0,0,1,0-.2l.07-.09a.16.16,0,0,1,.09-.05s.09,0,.11-.07a.13.13,0,0,1,0-.06,2.38,2.38,0,0,1,3.14.24C32.56,20.55,32.63,20.62,32.67,20.69Z"/><path class="cls-9" d="M8,.15,8,.21a1.42,1.42,0,0,1-.29,0H.39a.27.27,0,0,1,.15,0,.19.19,0,0,1,0,.25c-.16.23,0,.38.14.55a.31.31,0,0,1,.05.1.17.17,0,0,1,0,.19C.46,1,.29.56,0,.17-.07,0,.08,0,.17,0H7.78L8,0A.08.08,0,0,1,8,.15Z"/><path class="cls-10" d="M25.24,4.21c-.06,0-.14.08-.17,0a.22.22,0,0,1,0-.23c.18-.18.15-.23-.11-.24-.95,0-1.89,0-2.84,0h-4c-.21,0-.42,0-.35.32,0,.12-.33.37-.47.33s-.07-.13,0-.21A.16.16,0,0,1,17.27,4l.06,0a.22.22,0,0,1,.14,0c.18,0,.1-.18.16-.27s.29-.05.44-.08h.08a1.19,1.19,0,0,0,.42,0c.94,0,1.87,0,2.81,0a9.14,9.14,0,0,0,1.48,0c.71,0,1.42,0,2.13,0,.11,0,.24,0,.35.05a.41.41,0,0,0,.13.19c0,.07,0,.1-.07.15h0c-.13,0-.16.15-.16.27Z"/><path class="cls-11" d="M30.3,24.2a1.78,1.78,0,0,1-1.15-.6.13.13,0,0,1,.07-.08c.12,0,.22-.11.34-.11a.38.38,0,0,1,.25.08,1.88,1.88,0,0,0,1.75.17c.22,0,.34.17.51.26a1,1,0,0,1-.49.22c-.08.07-.2,0-.27.06h0A4.27,4.27,0,0,1,30.3,24.2Z"/><path class="cls-12" d="M11.86,7c.1,0,.23,0,.22-.15,0,.1.19.17.08.31a9.74,9.74,0,0,1-1.08,0H8.54c-.23,0-.46,0-.69,0a2.75,2.75,0,0,0-.41,0H4.9a4.33,4.33,0,0,1-.72,0,.18.18,0,0,1-.11-.1c0-.06,0-.09.08-.11a.65.65,0,0,1,.31,0h.17a2,2,0,0,1,.26-.06c.47-.08.94.07,1.41,0,1.48-.12,3,0,4.45,0a.75.75,0,0,1,.39.07h.06A1.47,1.47,0,0,1,11.86,7Z"/><path class="cls-13" d="M29.11,20.51l.06.18a.25.25,0,0,0,.14.08c.12,0,.13.09.06.17A1.89,1.89,0,0,0,29,22.2a.48.48,0,0,1-.1.33.29.29,0,0,1-.24-.29c0-.18,0-.36,0-.5s-.05,0,0,0,0,0,0,0a1.65,1.65,0,0,0,.15,1c.06.13.16.32,0,.48h0l0,0c0-.1,0-.21-.12-.29h0a3,3,0,0,1-.11-1.29A1.51,1.51,0,0,1,29.11,20.51Z"/><path class="cls-14" d="M11.09,7.11a3.2,3.2,0,0,1,1.07,0c-.1.12-.11.29-.22.39a1.75,1.75,0,0,1-.85-.06h0s0,0,0,0h0c-.09-.1-.2-.06-.31-.06H5.21c-.1,0-.22,0-.31-.06a0,0,0,0,1,0-.06c.3-.08.61,0,.91,0a.53.53,0,0,0,.28,0h.07a.66.66,0,0,0,.28,0c1.1,0,2.21,0,3.31,0h1.42a1.78,1.78,0,0,0,.46,0h-.35C11.21,7.22,11.1,7.24,11.09,7.11Z"/><path class="cls-15" d="M28.89,22.55c.19-.53,0-1.16.45-1.63.05-.06,0-.11,0-.12s-.13,0-.13-.11.19.08.28-.05a.28.28,0,0,1,.34-.05,1.75,1.75,0,0,0-.71,1.65,1.56,1.56,0,0,0,1,1.35,1.79,1.79,0,0,0,1.82-.2c.1-.07.17-.2.31-.2,0,.27-.24.37-.45.46s-.14,0-.2.05c-.23.19-.51.11-.76.11s-.81.09-1.07-.32c-.06-.11-.18.13-.2-.06a.7.7,0,0,1-.19-.15.56.56,0,0,1-.31-.52.18.18,0,0,0-.11-.16Z"/><path class="cls-16" d="M17.45,4l-.12-.06c.06-.35.14-.42.47-.42h7.67c.06,0,.15,0,.18,0s0,.14-.09.18a.66.66,0,0,1-.14,0,.16.16,0,0,1-.08-.06c-.08-.11-.21.08-.28,0a4.18,4.18,0,0,0-1,0c-1.79,0-3.57,0-5.36,0-.2,0-.4.05-.6,0s-.3-.1-.43,0S17.59,3.92,17.45,4Z"/><path class="cls-13" d="M21.39,20.53a.8.8,0,0,1,.47-.61,1.28,1.28,0,0,1,1,0c.12.05.21.11.12.26a.58.58,0,0,1-.12.1.31.31,0,0,1-.31,0,.42.42,0,0,0-.53.2h0c-.07.05-.09.14-.17.18a.2.2,0,0,1-.11,0s0,0,0,0-.09-.2-.13,0a.08.08,0,0,1-.1.06C21.38,20.65,21.43,20.58,21.39,20.53Z"/><path class="cls-17" d="M25.28,17.57c.22.08.13-.16.22-.22l.12.21c-.06.08-.15.06-.23.06H17.55c.07-.07.16,0,.23,0a.37.37,0,0,1,.21,0h7.08A.39.39,0,0,1,25.28,17.57Z"/><path class="cls-18" d="M18.54,23.92l.05.12a.38.38,0,0,1-.49,0,11.45,11.45,0,0,1,0-1.31c.14,0,.13.09.14.18a4.39,4.39,0,0,1,0,.81,5.89,5.89,0,0,0,0-.84.18.18,0,0,1,.13-.21l.16-.05a.08.08,0,0,1,0,.11v.05A4.43,4.43,0,0,1,18.54,23.92Z"/><path class="cls-19" d="M15.92,20.42c-.13,0-.26,0-.18-.2a.82.82,0,0,0,0-.35c0-.11,0-.21.12-.24s.08-.07.06-.14.05-.19.16-.23a.18.18,0,0,1,.2,0c.07.06,0,.14,0,.18s0,.13,0,.2,0,.19,0,.29A1.9,1.9,0,0,1,15.92,20.42Z"/><path class="cls-20" d="M31.58,23.7a1.49,1.49,0,0,0,.65-.51c.19-.19.29,0,.41.1s0,.16,0,.22a1.27,1.27,0,0,1-.53.41C31.85,24,31.78,23.7,31.58,23.7Z"/><path class="cls-21" d="M9.78,17.13c.09.09.09.32.32.19.05,0,.06.05.06.09s0,.18-.05.27-.08.09-.12.09a.21.21,0,0,0-.21.2s0,0,0,.06l-.12.08c-.14-.18-.33-.34-.17-.6C9.59,17.42,9.6,17.2,9.78,17.13Z"/><path class="cls-22" d="M23.53,14s0,0,0,0-.09-.17-.18,0,.11.1.07.2-.17-.15-.11-.27.06-.13,0-.17-.07,0-.11.07-.27.1-.26-.06-.26-.46-.09-.73c.05-.07,0-.17-.1-.23s0-.11,0-.14a2.32,2.32,0,0,1,.34.59s0,0-.05,0,0,0,.05,0A3,3,0,0,1,23.53,14Z"/><path class="cls-23" d="M15.58,7.82a.79.79,0,0,1-.54.55c-.07-.06-.13,0-.2,0a.08.08,0,0,1-.05-.05c0-.05,0-.1,0-.14h0A.71.71,0,0,0,15,7.92a.86.86,0,0,1,.22-.38c.1-.12.18-.1.24,0a.43.43,0,0,1,0,.16C15.39,7.92,15.52,7.81,15.58,7.82Z"/><path class="cls-24" d="M4,6.07c0-.08-.14-.15,0-.22s0-.16,0-.23,0-.17.16-.12a.44.44,0,0,1,.09.18c0,.23.06.47-.22.6L4,6.31C4,6.36,4,6.36,4,6.37s0,0,.06,0a.23.23,0,0,1,0,.18c0,.09,0,.19-.06.26a.11.11,0,0,1-.11,0l-.05-.06A.78.78,0,0,0,3.7,6.5c-.06,0-.05-.06-.06-.11a.3.3,0,0,1-.06-.22C3.68,6,3.87,6.09,4,6.07Z"/><path class="cls-25" d="M22.71,8.42l.16-.11s0,0,0,.07c-.26.52-.56,1-.87,1.52h0a.05.05,0,0,1,0-.05c0-.12.19-.17.16-.32a.11.11,0,0,1,0-.11c0-.09.15-.16.08-.28s0-.27.15-.27,0,0,0,0C22.38,8.62,22.54,8.52,22.71,8.42Z"/><path class="cls-26" d="M13.23,23.87a.45.45,0,0,0,.14-.24c.18.12,0,.24,0,.37s.23-.17.34,0c-.09.13,0,.3-.11.44a.79.79,0,0,1-.19.31,2,2,0,0,1-.3-.53v-.12A.84.84,0,0,0,13.23,23.87Z"/><path class="cls-27" d="M10.64,15.43l.07,0a2.84,2.84,0,0,1,.16.57c0,.28-.24.08-.34.17-.06-.07-.14,0-.2,0s.05-.14,0-.21Z"/><path class="cls-28" d="M11.48,14c.11.15.38.18.28.47,0,.05.22,0,.1.13a.28.28,0,0,1-.35,0c-.1-.07-.25,0-.32-.1A3.92,3.92,0,0,1,11.48,14Z"/><path class="cls-29" d="M10.71,20c.21-.09.18-.35.36-.49,0,.22,0,.42.06.62,0,0,0,.09-.05.09-.23,0-.1.09-.05.18s.23.19.23.36a.08.08,0,0,1-.11,0A4.42,4.42,0,0,1,10.71,20Z"/><path class="cls-30" d="M20.35,23.39c-.15.12-.2-.06-.25-.11-.21-.21-.4-.44-.59-.67-.08-.08-.13-.16-.29-.09s-.25-.12-.37-.27c.3.17.3.17.31-.14C19.54,22.55,20,22.93,20.35,23.39Z"/><path class="cls-31" d="M11.31,21.08s.09-.14.11,0a1.51,1.51,0,0,0,.25.42c.05-.11,0-.24.16-.31a1.57,1.57,0,0,1,0,.86A6.73,6.73,0,0,1,11.31,21.08Z"/><path class="cls-32" d="M15.42,7.6c-.05-.12-.13-.11-.22-.06a6.41,6.41,0,0,1,.57-1c.12-.06.13,0,.14.11s0,.17-.11.16-.06.19-.11.28a.13.13,0,0,0-.11,0c0,.08-.11.16,0,.24a.12.12,0,0,1,0,.2l-.06.05C15.5,7.71,15.46,7.67,15.42,7.6Z"/><path class="cls-33" d="M18.38,22.66c-.16.29,0,.59,0,.88,0,.11,0,.33-.06.32s-.07-.21-.08-.34.1-.56-.1-.8v-.06c.12,0,.12-.17.2-.24S18.37,22.58,18.38,22.66Z"/><path class="cls-34" d="M9,12.26a4.74,4.74,0,0,0,.1-.49c0-.3,0-.3.36-.26-.12.15-.12.35-.26.49s.05.14.08.22,0,0,0,0Z"/><path class="cls-35" d="M10.33,15.93c.09.07,0,.14,0,.21l-.55,1c-.11.13-.14.33-.34.38Z"/><path class="cls-36" d="M24,6.29a.43.43,0,0,0-.26.17s-.07-.07-.05-.09.21-.21.07-.31-.12.15-.23.18,0-.1.34-.55a2.59,2.59,0,0,1,.16.59v0Z"/><path class="cls-37" d="M22.87,8.38V8.31c0-.08-.06-.18.07-.23S23,8,23,7.93s-.15-.2-.06-.33-.06-.22.08-.3c.1.11,0,.41.32.31A4.29,4.29,0,0,1,22.87,8.38Z"/><path class="cls-38" d="M2.55,4.48a.12.12,0,0,1,.11,0c.14.08.18.23.26.35a.82.82,0,0,0,.12.2c.09,0,.1.12.16.17a1.11,1.11,0,0,1,.12.43v.11A6.62,6.62,0,0,1,2.55,4.48Z"/><path class="cls-13" d="M21.66,21.57c-.06,0-.06,0-.06-.09s0-.18,0-.28,0-.19.16-.2a.91.91,0,0,1,.26.13h0a.65.65,0,0,1,.08.27.34.34,0,0,1-.1.16A.22.22,0,0,1,21.66,21.57Z"/><path class="cls-39" d="M11.09,7.49a2.71,2.71,0,0,1,.85.06l-.07.12s-.08,0-.12,0-.12.15-.21.19l0,0c0-.23-.08-.3-.31-.23S11.11,7.56,11.09,7.49Z"/><path class="cls-40" d="M24.46,5.63V5.52c-.1-.07-.1-.15,0-.24s.23-.51.46-.69h.16A6,6,0,0,1,24.46,5.63Z"/><path class="cls-41" d="M2.93,9a3.75,3.75,0,0,1,.44-.72c.1,0,.07-.25.24-.2a.27.27,0,0,1,0,.23l-.25.47a.24.24,0,0,1-.1,0c-.17,0-.18.25-.36.23,0,0,0,0,0,0S2.93,9,2.93,9Z"/><path class="cls-42" d="M22.32,12l-.55-.87a2.43,2.43,0,0,1-.2-.25.78.78,0,0,1-.05-.14.14.14,0,0,1,0-.11s.05,0,.07,0A12.3,12.3,0,0,1,22.38,12S22.34,12,22.32,12Z"/><path class="cls-13" d="M23.15,20.08c.1,0,.14.12.21.18s0,.06,0,.09l-.09,0s0,0,0,.08.07.15,0,.23-.17,0-.24-.06l-.15-.15c0-.06-.12-.12,0-.21A.48.48,0,0,1,23.15,20.08Z"/><path class="cls-43" d="M14.05,9.63c0,.19-.23.28-.16.49a.5.5,0,0,1-.05.13l0,.06-.06.12a.72.72,0,0,1-.11.19.17.17,0,0,1-.14,0,.05.05,0,0,1,0-.06,7,7,0,0,1,.6-1.07A.07.07,0,0,1,14.05,9.63Z"/><path class="cls-44" d="M.91,12.53l.6-1,0,0a.21.21,0,0,1,0,.19c-.1.2-.3.36-.23.62s-.11.27-.28.3a.18.18,0,0,1-.12,0S.88,12.56.91,12.53Z"/><path class="cls-45" d="M19.4,23.11a1.79,1.79,0,0,1,.52.44c.14.24.43.36.59.6a.2.2,0,0,1-.21-.07Z"/><path class="cls-46" d="M15.91,6.67c-.05,0-.07-.11-.14-.11a.7.7,0,0,1,.2-.33c.23,0,.25.21.06.56C15.94,6.8,16,6.68,15.91,6.67Z"/><path class="cls-47" d="M12.24,12.8c.12.08.4.09.11.31,0,0,.07.14,0,.19-.12-.18-.16,0-.22,0l-.22,0,.11-.22C12.11,13,12.12,12.86,12.24,12.8Z"/><path class="cls-48" d="M16.19,19.94a.58.58,0,0,1,0-.29,5.83,5.83,0,0,0,.66-1.1c0-.06,0-.08.05-.11h.1A13.86,13.86,0,0,1,16.19,19.94Z"/><path class="cls-49" d="M22.92,20.14c0-.11,0-.19-.12-.23a.8.8,0,0,0-.59,0,.8.8,0,0,1-.34,0,1,1,0,0,1,1.26.11C23.07,20.08,23,20.17,22.92,20.14Z"/><path class="cls-50" d="M17,4.42v.11a.77.77,0,0,1-.49.78v0A3.78,3.78,0,0,1,17,4.42Z"/><path class="cls-49" d="M22.87,20.31c-.09.06,0,.12,0,.18a.63.63,0,0,0-.86,0,.36.36,0,0,1,.5-.26.31.31,0,0,0,.31,0C22.92,20.19,22.9,20.24,22.87,20.31Z"/><path class="cls-2" d="M21.61,10.61h-.06a.06.06,0,0,1-.07,0,.24.24,0,0,1,.06-.29A.66.66,0,0,0,21.7,10c0-.17.14-.18.28-.14h0Z"/><path class="cls-51" d="M25.12,16.7a.44.44,0,0,1-.54.18s0-.05,0-.06a.13.13,0,0,1,.14-.1.28.28,0,0,0,.32-.19Z"/><path class="cls-52" d="M10.38,10.23a1.42,1.42,0,0,1,0-.68c.16,0,.11.29.31.19Z"/><path class="cls-53" d="M10.11,18.28c0,.16-.21.31-.06.49,0,0,0,0-.07,0-.11-.21-.3-.37-.33-.62a.14.14,0,0,1,.11,0C9.83,18.31,10,18.16,10.11,18.28Z"/><path class="cls-54" d="M.91,12.53v.06a.14.14,0,0,1,0,.14A.71.71,0,0,1,.75,13l-.07,0-.16.27a.12.12,0,0,1-.05.11c-.07.08-.1.19-.21.22A10.91,10.91,0,0,1,.91,12.53Z"/><path class="cls-55" d="M13,11.49c-.09,0,0,.26-.19.15a9.41,9.41,0,0,1,.63-1.05s0,0,0,0,0,.22-.07.32A1.19,1.19,0,0,1,13,11.49Z"/><path class="cls-56" d="M2,10.66a5.83,5.83,0,0,1,.55-.93l0,0a.19.19,0,0,1,0,.07,2.52,2.52,0,0,1-.17.41,1.87,1.87,0,0,1-.27.4s-.08.11-.15.09a.06.06,0,0,1,0-.05Z"/><path class="cls-57" d="M19.15,21.51s0-.09,0-.09a2.25,2.25,0,0,0,.62-.61s.07,0,.11,0a0,0,0,0,1,.07,0A4.71,4.71,0,0,1,19.15,21.51Z"/><path class="cls-58" d="M2,10.66v.07a.27.27,0,0,1-.05.38.65.65,0,0,0-.16.17.58.58,0,0,1-.14.17.14.14,0,0,1-.13.05h0A5.32,5.32,0,0,1,2,10.66Z"/><path class="cls-15" d="M29.22,23.54l-.07.06a.89.89,0,0,1-.32-.44h0c.21-.13.35,0,.43.29A.21.21,0,0,1,29.22,23.54Z"/><path class="cls-59" d="M8.24,13c.28-.1.21.23.35.28l-.06.1s0,.13-.11.13-.14-.18-.21-.29S8.14,13.08,8.24,13Z"/><path class="cls-60" d="M.74,1.35V1.14c0-.07.1-.11.1-.19A.8.8,0,0,1,.87.8C.91.75.93.67,1,.7a1.26,1.26,0,0,1-.1.66s0,0,0,.07a.13.13,0,0,1-.12,0Z"/><path class="cls-61" d="M23,20.64c.08,0,.16.1.24,0a3.23,3.23,0,0,1,.06-.33l.05,0c.11,0,.2.13.17.24a.54.54,0,0,1-.35.31C23.09,20.85,23.06,20.71,23,20.64Z"/><path class="cls-62" d="M.78,1.42H.9c.14.07.16.22.23.34s.25.28.1.48A4.7,4.7,0,0,1,.78,1.42Z"/><path class="cls-63" d="M12.19,22.44l-.06.06a.92.92,0,0,1-.21-.39c.05,0,.07-.19.16,0s.18.18.16.32S12.21,22.43,12.19,22.44Z"/><path class="cls-64" d="M10.71,9.52a.18.18,0,0,0-.07-.15c-.09-.07-.13-.18,0-.24s.19,0,.22.12a.67.67,0,0,0,.06.12.11.11,0,0,1-.06.1S10.77,9.55,10.71,9.52Z"/><path class="cls-65" d="M19.93,20.81h-.07a1.82,1.82,0,0,1,.72-.6A4.7,4.7,0,0,1,19.93,20.81Z"/><path class="cls-66" d="M23.09,22.83a4.06,4.06,0,0,1,0,.6c-.06.22-.16.22-.32.21a.7.7,0,0,0,.27-.81S23.06,22.81,23.09,22.83Z"/><path class="cls-67" d="M12.24,12.8c-.05.13-.09.27-.27.28l.48-.79C12.52,12.52,12.29,12.62,12.24,12.8Z"/><path class="cls-48" d="M17.12,18.17c.06-.12.13-.24.18-.37a.17.17,0,0,1,.22-.11,5.16,5.16,0,0,1-.4.63l-.06,0C17,18.22,17,18.17,17.12,18.17Z"/><path class="cls-68" d="M8.41,13.51l.12-.11a1.52,1.52,0,0,1-.41.69S8,14.08,8,14s0-.12.07-.16S8.21,13.54,8.41,13.51Z"/><path class="cls-69" d="M18.6,19.89v1.33h-.06c0-.31,0-.62,0-.93,0-.11,0-.22-.05-.31s0-.08.05-.1Z"/><path class="cls-70" d="M23.16,22.11a.8.8,0,0,1-.61-.5A2.09,2.09,0,0,1,23.16,22.11Z"/><path class="cls-71" d="M14.27,23.27c0-.34.21-.54.4-.77A2.82,2.82,0,0,1,14.27,23.27Z"/><path class="cls-72" d="M28.56,21.55a6.25,6.25,0,0,0,.11,1.29A1.86,1.86,0,0,1,28.56,21.55Z"/><path class="cls-73" d="M3.75,7.6A1.31,1.31,0,0,1,4,7.15c.17,0,.19.13.19.26a.13.13,0,0,1-.06,0c-.11,0-.16,0-.21.13a.12.12,0,0,1-.1,0H3.78Z"/><path class="cls-74" d="M2.93,9v.05c.06.09,0,.17,0,.26l-.06.09a2.24,2.24,0,0,0-.13.27c0,.05-.1.09-.17.05v0A3.64,3.64,0,0,1,2.93,9Z"/><path class="cls-75" d="M4.21,7.43A.53.53,0,0,0,4,7.15V7.06s0,0,.06,0l0,0,.17.14a.34.34,0,0,1,.13.35s0,.06-.08.08S4.21,7.54,4.21,7.43Z"/><path class="cls-76" d="M22.32,22c0,.1.09.09.14.13s.19.08.08.2a3.32,3.32,0,0,1-.55-.44.14.14,0,0,1,.15,0A.38.38,0,0,1,22.32,22Z"/><path class="cls-77" d="M3.59,8.09c-.09.06-.08.22-.22.22a3.24,3.24,0,0,1,.38-.71h0c.09.13,0,.23,0,.33S3.64,8.06,3.59,8.09Z"/><path class="cls-78" d="M10,18.78h.07l.33.5a.12.12,0,0,1,0,.18Z"/><path class="cls-79" d="M21.61,21.18c0,.1.13.21,0,.3a.68.68,0,0,1-.21-.41s0-.1.07-.12S21.57,21.1,21.61,21.18Z"/><path class="cls-80" d="M10.37,19.45v-.18c.09,0,.11.07.17.11s0,0,0,0a0,0,0,0,1,0,0c-.06.14.13.26,0,.4A1.19,1.19,0,0,1,10.37,19.45Z"/><path class="cls-79" d="M22.16,21.84H22a1.22,1.22,0,0,1-.33-.27.27.27,0,0,0,.28-.06C22,21.62,22.21,21.65,22.16,21.84Z"/><path class="cls-79" d="M22,21.13a.27.27,0,0,1-.28-.11.09.09,0,0,1,0-.06.62.62,0,0,1,0-.27.1.1,0,0,1,0-.05h.11c0,.12,0,.27.11.38Z"/><path class="cls-81" d="M21.94,21c-.17-.09-.16-.23-.11-.38a.27.27,0,0,1,.17-.16A.64.64,0,0,0,21.94,21Z"/><path class="cls-82" d="M21.45,21c0,.05,0,.09-.06.11a.72.72,0,0,1,0-.54c.07,0,.05.1.06.16A.19.19,0,0,1,21.45,21Z"/><path class="cls-83" d="M3.59,6.18a.3.3,0,0,1,.05.21,1.37,1.37,0,0,1-.27-.49c.08,0,.22,0,.17.17A.14.14,0,0,1,3.59,6.18Z"/><path class="cls-84" d="M30.3,24.2h1A1.92,1.92,0,0,1,30.3,24.2Z"/><path class="cls-1" d="M13.61,24.42c.05-.15-.17-.36.11-.44h0s0,.08.07.11A.72.72,0,0,1,13.61,24.42Z"/><path class="cls-79" d="M22.05,21.4a.44.44,0,0,1-.05-.28l.27.28c0,.05,0,.07-.05.09A.14.14,0,0,1,22.05,21.4Z"/><path class="cls-4" d="M1.23,2.24a.48.48,0,0,0-.16-.44c.1-.1.1-.1.18,0a.49.49,0,0,1,.13.36.2.2,0,0,1-.09.15Z"/><path class="cls-47" d="M13.79,24.09a.11.11,0,0,1-.07-.11l.17-.33h0a.12.12,0,0,1,.12.07C14,23.88,13.83,24,13.79,24.09Z"/><path class="cls-85" d="M8,.15V0c.27,0,.24.24.32.39a.27.27,0,0,1-.16-.2C8.17.13,8.12.1,8,.15Z"/><path class="cls-66" d="M22.75,23.64a.53.53,0,0,1-.65.06A1.31,1.31,0,0,0,22.75,23.64Z"/><path class="cls-86" d="M18.54,19.88l-.05.1H18.1C18.2,19.74,18.39,19.9,18.54,19.88Z"/><path class="cls-87" d="M4.09,7.05H4a.4.4,0,0,1-.12-.22H4c.06,0,.1,0,.13.06a.09.09,0,0,1,0,.11Z"/><path class="cls-2" d="M25.24,4.21c0-.24,0-.29.16-.27C25.4,4.06,25.29,4.12,25.24,4.21Z"/><path class="cls-88" d="M24.13,23.93c0,.11.14.12.16.21s-.19.05-.25,0S24.06,24,24.13,23.93Z"/><path class="cls-89" d="M18.1,24a.56.56,0,0,0,.49,0v.09a1.35,1.35,0,0,1-.4,0C18.12,24.15,18.08,24.11,18.1,24Z"/><path class="cls-90" d="M17.16,4.14c0,.22,0,.28-.15.28A.51.51,0,0,1,17.16,4.14Z"/><path class="cls-61" d="M22.87,20.31s0-.09-.06-.11a.12.12,0,0,1,.11-.06c.08,0,.12-.11.21-.11s0,0,0,0Z"/><path class="cls-91" d="M14.82,8.2v.17a.26.26,0,0,1-.11.16l-.11.05A.86.86,0,0,1,14.82,8.2Z"/><path class="cls-70" d="M22.21,21.46l.06-.06a.65.65,0,0,1,.28.21h-.12C22.35,21.58,22.21,21.62,22.21,21.46Z"/><path class="cls-92" d="M1.29,2.29s0-.09.05-.11a.11.11,0,0,1,.08,0c.12.09.06.17,0,.25a0,0,0,0,1-.07,0C1.29,2.38,1.29,2.33,1.29,2.29Z"/><path class="cls-93" d="M1.79,3.11v.05a.44.44,0,0,1-.18-.32l.13.1C1.85,3,1.82,3,1.79,3.11Z"/><path class="cls-94" d="M14.05,9.63V9.52l0-.06c.06.06.15.12.07.22S14.1,9.64,14.05,9.63Z"/><path class="cls-95" d="M11.8,6.39c-.17,0-.2-.12-.15-.27A.56.56,0,0,1,11.8,6.39Z"/><path class="cls-96" d="M25.44,3.66s.1,0,.12.06,0,.2-.16.22l0-.17A.08.08,0,0,1,25.44,3.66Z"/><path class="cls-97" d="M24.3,15.26s0,.09,0,.06-.2-.11-.06-.22Z"/><path class="cls-98" d="M9.78,18.17H9.65l0-.05c0-.07,0-.16.11-.1S9.83,18.09,9.78,18.17Z"/><path class="cls-99" d="M19.19,20.84a.34.34,0,0,1-.26.24A.74.74,0,0,1,19.19,20.84Z"/><path class="cls-99" d="M18.93,21.08c0,.12-.07.23-.22.21A.5.5,0,0,1,18.93,21.08Z"/><path class="cls-100" d="M15.16,21.74c-.09-.06-.07-.15-.05-.23s.07.08.1.13A.1.1,0,0,1,15.16,21.74Z"/><path class="cls-101" d="M22.32,12h.06s.1.09.11.16,0,.12-.09,0A1.19,1.19,0,0,1,22.32,12Z"/><path class="cls-102" d="M29.28,20.42h-.1a.29.29,0,0,1,.19-.18l.07.07A1.53,1.53,0,0,0,29.28,20.42Z"/><path class="cls-85" d="M8.58.81A.31.31,0,0,1,8.41.54.38.38,0,0,1,8.58.81Z"/><path class="cls-91" d="M15,7.92a.26.26,0,0,1-.16.28A.53.53,0,0,1,15,7.92Z"/><path class="cls-103" d="M1.34,2.4H1.4a.18.18,0,0,1,.13.15.08.08,0,0,1,0,.07v0C1.4,2.61,1.38,2.5,1.34,2.4Z"/><path class="cls-104" d="M24.57,15.76a.3.3,0,0,1-.16-.29A.47.47,0,0,1,24.57,15.76Z"/><path class="cls-90" d="M17.27,4l.07.19h-.18C17.16,4.06,17.22,4,17.27,4Z"/><path class="cls-105" d="M3.7,6.5a.26.26,0,0,1,.16.28Z"/><path class="cls-106" d="M10.71,9.52l.12,0a.32.32,0,0,1-.12.2C10.72,9.62,10.65,9.57,10.71,9.52Z"/><path class="cls-107" d="M23.09,22.83H23l-.1-.17C23,22.66,23.08,22.72,23.09,22.83Z"/><path class="cls-108" d="M32.67,20.69a.27.27,0,0,1-.16-.21A.23.23,0,0,1,32.67,20.69Z"/><path class="cls-72" d="M28.66,22.83a.26.26,0,0,1,.12.29A.5.5,0,0,1,28.66,22.83Z"/><path class="cls-109" d="M20.75,23.8a.25.25,0,0,1-.19-.19A.32.32,0,0,1,20.75,23.8Z"/><path class="cls-110" d="M11.15,20.8h.11c0,.06.08.12,0,.17Z"/><path class="cls-111" d="M23.8,6.78a.18.18,0,0,1,.11-.22A.28.28,0,0,1,23.8,6.78Z"/><path class="cls-29" d="M10.61,19.87c.11,0,.16.06.1.17A.3.3,0,0,1,10.61,19.87Z"/><path class="cls-112" d="M11.75,7.71s.05-.13.12,0a.1.1,0,0,1-.11.11Z"/><path class="cls-84" d="M31.31,24.2c.07-.1.18-.05.27-.06A.37.37,0,0,1,31.31,24.2Z"/><path class="cls-113" d="M13.34,10.94l.11-.31.16,0h.05c.2.06.42,0,.62.06a.62.62,0,0,0,.19,0h6.15a.83.83,0,0,0,.27,0,1,1,0,0,1,.67.05.13.13,0,0,1,.05.11c0,.06-.12,0-.16.06s-.19,0-.15.15,0,.09-.07.12,0,0,0,0h0c0-.16,0-.2-.19-.2H17.75c-.86,0-1.72,0-2.58,0a3.45,3.45,0,0,0-1.06.07,2.46,2.46,0,0,1-.66,0S13.37,11,13.34,10.94Z"/><path class="cls-114" d="M25.28,17.57h-7.5c.08-.09.18-.05.28-.05H25C25.09,17.52,25.2,17.48,25.28,17.57Z"/><path class="cls-115" d="M24.55,17.45H18.18v0h6.38Z"/><path class="cls-116" d="M19.9,11.14a5.82,5.82,0,0,1-2,0A8.7,8.7,0,0,1,19.9,11.14Z"/><path class="cls-116" d="M16,11.15a1.31,1.31,0,0,1,.62-.07h.94c.06,0,.14,0,.15.05s-.08.1-.14.1-.25,0-.37,0A6,6,0,0,1,16,11.15Z"/><path class="cls-116" d="M16,11.18c-.36-.09-.7.09-1.06.07-.2,0-.41-.18-.62,0,0,0-.09,0-.1-.06s0-.09.11-.09c.33,0,.65,0,1,0S15.81,11,16,11.18Z"/><path class="cls-117" d="M21.45,10.89c0-.15.11,0,.16-.06a.39.39,0,0,1,.16.28c0,.06-.24,0-.05.16s0,.12,0,.16-.2.06-.3.05-.05-.1-.05-.16S21.64,11.07,21.45,10.89Z"/><path class="cls-116" d="M21.23,11.11v.05a1.91,1.91,0,0,1-.75.06c-.2,0-.39.09-.57-.06.11-.17.28-.08.42-.08A3.88,3.88,0,0,1,21.23,11.11Z"/><path class="cls-47" d="M13.72,23.59a.46.46,0,0,0-.13-.28s-.11,0-.07-.11a.15.15,0,0,1,.14-.07c.36,0,.45,0,.23.52h0Z"/><path class="cls-118" d="M9.78,18.17,9.72,18h0s0,0,.06-.05,0-.2.14-.2.15.1.19.19a.38.38,0,0,1,0,.33C10,18.21,9.78,18.54,9.78,18.17Z"/><path class="cls-119" d="M12.19,22.44l.05-.05c.13,0,.13-.13.16-.21s.12-.18.22-.13a.2.2,0,0,1,0,.24,1,1,0,0,1-.31.26C12.23,22.63,12.26,22.47,12.19,22.44Z"/><path class="cls-120" d="M13.34,10.94s.07-.06.11,0-.06.22,0,.35,0,0-.07,0a.11.11,0,0,0-.15.11c0,.2-.11.08-.19.07Z"/><path class="cls-121" d="M16.68,18.61l-.16.15c0-.17,0-.31.05-.45s0-.16.08-.17a.14.14,0,0,1,.14.13.19.19,0,0,0,.11.12C16.9,18.54,16.74,18.53,16.68,18.61Z"/><path class="cls-122" d="M13.1,23.16c.07,0,.24.29.22.35s-.05.08-.09,0a1.31,1.31,0,0,1-.27-.31C12.92,23.16,13,23.16,13.1,23.16Z"/><path class="cls-98" d="M10.11,18c-.14-.12-.14-.12-.39.06,0-.3.21-.28.39-.33S10.15,17.86,10.11,18Z"/><path class="cls-123" d="M12.08,13.35c0-.08,0-.19.13-.19s.09.07.09.14S12.15,13.33,12.08,13.35Z"/><path class="cls-124" d="M16.68,18.61c0-.14.17-.13.22-.22l.05.05-.05.11A.35.35,0,0,1,16.68,18.61Z"/><path class="cls-125" d="M17.12,18.17a.11.11,0,0,0-.06.11c-.09,0-.12-.12-.14-.23S17.06,18.13,17.12,18.17Z"/><path class="cls-126" d="M10.55,19.43v-.05c0-.05,0-.14.14-.14S10.62,19.39,10.55,19.43Z"/><path class="cls-47" d="M13.72,23.59c0,.06,0,.13,0,.18s-.06,0-.06,0S13.67,23.62,13.72,23.59Z"/><path class="cls-127" d="M13.23,23.87c0,.09,0,.17-.11.21A.29.29,0,0,1,13.23,23.87Z"/><path class="cls-128" d="M14.11,10.5h7.23c.05,0,.22.05,0,.16-.91.05-1.82,0-2.73,0h-4a4.43,4.43,0,0,1-.63,0C13.88,10.55,14.07,10.55,14.11,10.5Z"/><path class="cls-129" d="M16.52,5.31A1.26,1.26,0,0,0,17,4.53c.31.07.17.28.11.42a1.24,1.24,0,0,0-.2.47c0,.06-.08.18-.12.18-.28,0-.27.22-.34.37s-.08.14-.16.1,0-.09,0-.15S16.62,5.57,16.52,5.31Z"/><path class="cls-130" d="M21.44,10.61l-.1-.11c.08-.13.09-.31.24-.4s.08-.07,0-.11c-.25-.17,0-.42-.11-.62s0-.18.11-.17.1.09.1.17-.05.42.23.47l0,.05c-.05,0-.15,0-.15,0-.06.25-.3.42-.33.69Z"/><path class="cls-131" d="M22.71,8.42c-.05.05,0,.15-.13.16s-.16.13-.2.24.05.18-.12.09-.06.14-.05.22-.08.11-.16.06A2.23,2.23,0,0,1,22,8.45a.72.72,0,0,1,.19.32.22.22,0,0,0,.18-.19C22.38,8.34,22.51,8.31,22.71,8.42Z"/><path class="cls-132" d="M24.9,4.59c-.14.24-.16.55-.44.71a.08.08,0,0,1-.11,0,.46.46,0,0,0,.11-.37.49.49,0,0,1,.24-.4C24.77,4.46,24.87,4.44,24.9,4.59Z"/><path class="cls-133" d="M14.71,8.53a.16.16,0,0,1,.11-.16h0c.14.05,0,.11,0,.16.05.26-.18.4-.27.6-.08,0-.07-.11-.11-.16s.14-.23.24-.32S14.76,8.56,14.71,8.53Z"/><path class="cls-134" d="M22.92,7.6a.43.43,0,0,0,.12.23c.06.07,0,.09-.06.1s-.16,0-.19-.1a2.62,2.62,0,0,1,0-.57C22.92,7.37,22.82,7.53,22.92,7.6Z"/><path class="cls-135" d="M21.23,10.12c-.08.21-.25.11-.39.11s-.25,0-.31.16l-.09-.27Z"/><path class="cls-136" d="M14.19,10.12h.68c.06,0,.11,0,.1.1s-.08,0-.11,0C14.66,10.18,14.43,10.34,14.19,10.12Z"/><path class="cls-137" d="M15.64,7.6c0-.06,0-.13-.07-.16-.26-.1-.1-.19,0-.28.16.07.11.25.19.37S15.7,7.59,15.64,7.6Z"/><path class="cls-138" d="M13.72,10.39a.12.12,0,0,1,.06-.11s.07.06.09,0,0,0,0,0l-.05,0a.15.15,0,0,1,.11-.16c.32,0,.14.23.11.38C13.8,10.62,13.74,10.6,13.72,10.39Z"/><path class="cls-139" d="M15.42,7.6l.16.05v.17l-.15.2A.36.36,0,0,1,15.42,7.6Z"/><path class="cls-140" d="M17.71,10.27l-.44.09C17.35,10.13,17.35,10.13,17.71,10.27Z"/><path class="cls-141" d="M13.72,10.39c0,.19.16.13.28.11h.11l-.11.1a.37.37,0,0,1-.39,0v0A.31.31,0,0,1,13.72,10.39Z"/><path class="cls-142" d="M23.64,6.69c0,.15-.11.17-.12.28s0,.14-.11.08,0-.12,0-.16A2,2,0,0,1,23.64,6.69Z"/><path class="cls-143" d="M22.05,9.19l.16-.06c.13.16,0,.22-.11.28A.15.15,0,0,1,22,9.35Z"/><path class="cls-144" d="M23.22,7.47a.2.2,0,0,1,0-.28.06.06,0,0,1,.09,0C23.34,7.3,23.25,7.37,23.22,7.47Z"/><path class="cls-145" d="M15.69,7.11c0-.11-.16-.28.11-.28A.3.3,0,0,1,15.69,7.11Z"/><path class="cls-146" d="M24.35,4.67c-.06,0-.05-.06-.05-.1s0-.09.09-.08a.06.06,0,0,1,.05.1S24.41,4.67,24.35,4.67Z"/><path class="cls-147" d="M21.23,10.12c0-.06-.09-.13,0-.18a.06.06,0,0,1,.08,0c0,.09,0,.13-.08.14Z"/><path class="cls-148" d="M24.35,5.3h.11a.2.2,0,0,0,0,.22C24.28,5.51,24.29,5.42,24.35,5.3Z"/><path class="cls-149" d="M17.23,5c0-.13,0-.21,0-.31A.25.25,0,0,1,17.23,5Z"/><path class="cls-150" d="M14.87,8.53s.06-.11,0-.16.11-.11.17,0S15,8.51,14.87,8.53Z"/><path class="cls-151" d="M22,9.35c.05,0,.09,0,.11.06v.11C21.9,9.57,22,9.41,22,9.35Z"/><path class="cls-152" d="M14.49,9l.11.16C14.44,9.16,14.47,9.06,14.49,9Z"/><path class="cls-153" d="M11.14,7H4.85c0-.08.06-.1.1-.1a1.75,1.75,0,0,1,.72,0h.77c.08-.07.19-.05.29-.05H10.8c.1,0,.21,0,.29.05Z"/><path class="cls-154" d="M7.75.15c.08,0,.17,0,.23.06L7.92.32c-.06,0-.11,0-.17,0-.21,0-.11.26-.16.37s-.26.29-.31.51a.68.68,0,0,1,0-.66c.11-.16,0-.17-.12-.22A.12.12,0,0,1,7.21.18C7.39.15,7.58.23,7.75.15Z"/><path class="cls-155" d="M11.09,6.94H6.44V6.89a.29.29,0,0,1,.18,0h4.29a.28.28,0,0,1,.18,0Z"/><path class="cls-156" d="M11.09,6.89H6.44c.07-.09.17-.06.25-.06h4.15C10.93,6.83,11,6.8,11.09,6.89Z"/><path class="cls-157" d="M6.88,2.18l0-.11a.55.55,0,0,1,.27-.39l0-.11s.2,0,0,.12-.1.21-.14.32a.23.23,0,0,1-.06.22,4.11,4.11,0,0,0-.39.54.28.28,0,0,1-.26.17v0A3.49,3.49,0,0,1,6.88,2.18Z"/><path class="cls-24" d="M4.91,5.57c-.18.32-.36.64-.55.95a.39.39,0,0,0-.06.2.06.06,0,0,1-.07,0,.23.23,0,0,1-.1-.12.3.3,0,0,1,0-.26c.06-.08.19,0,.23-.12s.06-.13.1-.19c.14-.23.21-.5.46-.64a.12.12,0,0,1,0,.1A.09.09,0,0,1,4.91,5.57Z"/><path class="cls-158" d="M5.89,4c0,.44-.4.7-.5,1.09h-.1a.13.13,0,0,1,0-.11.44.44,0,0,1,.1-.22h0c.11-.18.17-.37.29-.55a.75.75,0,0,1,.07-.12C5.75,4,5.8,4,5.89,4Z"/><path class="cls-159" d="M10.86,5.23c0-.22-.54-.23-.29-.62A1.15,1.15,0,0,1,10.86,5.23Z"/><path class="cls-160" d="M7.81,1.54c0,.07,0,.21-.15.21s-.16-.13-.16-.22.11-.14.19-.15S7.8,1.45,7.81,1.54Z"/><path class="cls-161" d="M9.26,2.08c.1.17,0,.34.06.49s0,.08-.09.08a.07.07,0,0,1-.08-.08A1,1,0,0,1,9.26,2.08Z"/><path class="cls-162" d="M5.29,5v.11a2.65,2.65,0,0,1-.18.42c0,.12-.12.08-.2.07V5.52C5,5.33,5,5.07,5.29,5Z"/><path class="cls-163" d="M10.06,4.1c.29,0,.36.05.35.36Z"/><path class="cls-155" d="M5.67,6.94A2.53,2.53,0,0,0,4.85,7H4.63V6.94h0c.1,0,.17-.12.27-.05a2,2,0,0,1,.77,0Z"/><path class="cls-164" d="M9.45,2.73l.09.07c0,.11.19.14.15.29s0,0,0,0A.69.69,0,0,1,9.45,2.73Z"/><path class="cls-165" d="M4.25,6.72h0c0,.1,0,.23.16.28H4.13V6.88a0,0,0,0,1,0,0A.16.16,0,0,1,4.25,6.72Z"/><path class="cls-166" d="M7.09,2.23c0-.07,0-.16.06-.22s.11.15.07.24S7.13,2.28,7.09,2.23Z"/><path class="cls-167" d="M5.89,4l-.16.12a.3.3,0,0,1,.11-.39H6l0,.11c0,.06,0,.12-.06.16Z"/><path class="cls-156" d="M5.67,6.89H4.9A1.13,1.13,0,0,1,5.67,6.89Z"/><path class="cls-168" d="M8.05.77a.24.24,0,0,1,.12-.3s.15.09.09.13S8.07.64,8.05.77Z"/><path class="cls-169" d="M11.86,7H11.2A.84.84,0,0,1,11.86,7Z"/><path class="cls-170" d="M6.23,4.48c-.07,0-.12,0-.11-.1s0-.09.08-.08.08.07.09.12S6.26,4.47,6.23,4.48Z"/><path class="cls-171" d="M7.75.31c.06,0,.12-.06.17,0a.27.27,0,0,1-.11.21C7.73.48,7.76.39,7.75.31Z"/><path class="cls-172" d="M8.81,2.33V2C9,2.16,8.85,2.25,8.81,2.33Z"/><path class="cls-173" d="M6.07,3.76c.07,0,.14-.07.19,0a.07.07,0,0,1,0,.11C6.14,3.9,6.11,3.82,6.07,3.76Z"/><path class="cls-174" d="M11.23,5.69a.08.08,0,0,1-.06.08c-.06,0-.07,0-.07-.09s0-.08.05-.08S11.21,5.65,11.23,5.69Z"/><path class="cls-175" d="M11.67,6.58s0,0,0,0-.07-.06-.08-.1,0,0,0,0S11.65,6.53,11.67,6.58Z"/><path class="cls-176" d="M8,1.34s0,0-.08,0-.06-.05,0-.09,0-.08.07,0S8,1.32,8,1.34Z"/><path class="cls-177" d="M10,3.48c0,.1,0,.18,0,.19s-.09,0-.09-.06S9.94,3.57,10,3.48Z"/><path class="cls-169" d="M9.05,1.87s0,.06-.05,0l-.07-.07.05,0Z"/><path class="cls-178" d="M5.89,4c0-.06,0-.12.06-.16S6,4,5.89,4Z"/><path class="cls-179" d="M8.57,1.25c0,.05,0,.08-.05.06a.26.26,0,0,1,0-.09,0,0,0,0,1,0,0Z"/><path class="cls-173" d="M10.44,5.14s0,.07,0,.07-.07,0-.06,0,0,0,0,0S10.41,5.13,10.44,5.14Z"/><path class="cls-169" d="M11.17,6.65s0,0,0,.06,0,.08,0,.08l-.05,0S11.12,6.67,11.17,6.65Z"/><path class="cls-180" d="M4.63,6.94l-.15-.08c.09,0,.15-.05.21,0l-.06.08Z"/><path class="cls-169" d="M9.66,4.41l0,0,0,0a0,0,0,0,1,0,0S9.66,4.37,9.66,4.41Z"/><path class="cls-181" d="M7.2,2.88l0,0s0,0,0-.06l0,0S7.19,2.84,7.2,2.88Z"/><path class="cls-182" d="M8.82,1.41s0,0,0,0a.59.59,0,0,1,0,.08l-.05-.06S8.78,1.42,8.82,1.41Z"/><path class="cls-183" d="M6.44,3.61s0,.07,0,.07,0,0,0-.05a.15.15,0,0,1,0-.07Z"/><path class="cls-184" d="M11.09,7.44v0H5v0Z"/><path class="cls-185" d="M7.09,12c.15,0,.17.1.17.22a1.06,1.06,0,0,1,.23.16c0-.05,0-.13.1-.16s.2,0,.23.07-.12.13-.18.2.05.19.09.28.1.25,0,.31-.18-.09-.24-.19a.52.52,0,0,0-.17-.27,1.2,1.2,0,0,1-.18-.31A.27.27,0,0,1,7.09,12Z"/><path class="cls-186" d="M5.23,8.37H5.4a.17.17,0,0,1,0,.18l-.07.12s-.07.09,0,.09.06-.18.19-.11,0,.23.08.32v.16s-.11,0-.09.09,0,.14-.11.15a.27.27,0,0,1-.15-.1.88.88,0,0,1-.12-.15.53.53,0,0,1,0-.25,1,1,0,0,0,0-.3A.22.22,0,0,1,5.23,8.37Z"/><path class="cls-187" d="M7.48,12.91c.07.05.08.16.2.19.13-.2-.18-.38,0-.57.11,0,.16.05.22.11s.07.18.11.27L8,13a1.3,1.3,0,0,1-.08.17.49.49,0,0,1-.18.11l-.13,0,0,0c-.06-.06-.07-.15-.11-.21L7.42,13v0A.12.12,0,0,1,7.48,12.91Z"/><path class="cls-188" d="M7.09,11.71c0,.11.06.23,0,.32s-.15-.09-.21-.15a1.16,1.16,0,0,1-.21-.67s0-.05,0-.06.27-.05.38.06a.2.2,0,0,1,0,.29s-.08.07,0,.12A.15.15,0,0,1,7.09,11.71Z"/><path class="cls-189" d="M4.41,7.6a.35.35,0,0,0-.16-.33c.1-.2.27-.09.41-.08a.05.05,0,0,1,0,.08l0,.06c-.09.14.09.17.11.27a.34.34,0,0,1,0,.22.1.1,0,0,1,0,.16c-.13.08-.12-.1-.21-.11S4.44,7.71,4.41,7.6Z"/><path class="cls-190" d="M4.21,7.43l.15.22c.14.07.13.22.21.34a1.84,1.84,0,0,0,.32.54.16.16,0,0,1,.09.2s0,0-.06,0a.18.18,0,0,1-.1,0,.88.88,0,0,1-.22-.25.14.14,0,0,1,0-.06.4.4,0,0,0-.09-.21A1.28,1.28,0,0,0,4.38,8l-.07-.08A.76.76,0,0,1,4.2,7.8c0-.12-.14-.23-.06-.37Z"/><path class="cls-191" d="M7.09,11.71l0-.06a.12.12,0,0,1,0-.16c0-.2,0-.33-.23-.26s-.1-.06-.15-.07,0-.14.11-.16c.32-.11.47.05.43.49a.39.39,0,0,1-.11.22Z"/><path class="cls-192" d="M6.38,10.83v.06a.31.31,0,0,1,.13.27.14.14,0,0,1-.08.07c-.2-.1-.22-.33-.36-.48l-.4-.69a.19.19,0,0,1,0-.08l0,0c.1-.08.15,0,.21.06a.13.13,0,0,1,.06.16.14.14,0,0,0,.1.11.45.45,0,0,1,.17.39.15.15,0,0,0,.16.16Z"/><path class="cls-193" d="M5.67,9.9v0h0c-.06.06-.11,0-.17,0s-.1-.16-.17-.22l0-.06a2,2,0,0,1-.2-.47.09.09,0,0,1,0-.07c.06,0,.09,0,.13,0a1.79,1.79,0,0,1,.13.14A1.65,1.65,0,0,1,5.67,9.9Z"/><path class="cls-194" d="M7.92,13.19c0-.08,0-.16.11-.17s.14,0,.21,0,0,.15,0,.22,0,.25-.2.24-.09-.16-.14-.23S7.9,13.21,7.92,13.19Z"/><path class="cls-195" d="M6.49,11.16l-.11-.27c.14,0,.3-.07.39.11l-.11.16h0C6.6,11.24,6.54,11.3,6.49,11.16Z"/><path class="cls-196" d="M6.22,10.67a1.36,1.36,0,0,1-.17-.39c.12-.1.19.05.28.06h0C6.32,10.46,6.37,10.6,6.22,10.67Z"/><path class="cls-197" d="M5,8.75l-.08-.22c.14,0,.18-.22.34-.16l-.05.21a2.86,2.86,0,0,0-.07.28.16.16,0,0,1,0,.07C5,8.91,5,8.83,5,8.75Z"/><path class="cls-198" d="M6.88,11.87,7,12h0a.87.87,0,0,0,.06.32.09.09,0,0,1-.06,0A.16.16,0,0,1,7,12.32a.86.86,0,0,1-.16-.38A.1.1,0,0,1,6.88,11.87Z"/><path class="cls-199" d="M4.74,7.6c-.06-.08-.38-.06-.11-.27C4.79,7.37,4.91,7.43,4.74,7.6Z"/><path class="cls-200" d="M5.67,9.9l-.34-.58a.06.06,0,0,1,0-.08l.11.11a.27.27,0,0,1,.14.14.39.39,0,0,0,.08.14Z"/><path class="cls-201" d="M7.59,12.26l0,.34c-.08-.18-.25-.19-.28-.34Z"/><path class="cls-202" d="M8,12.91c-.13-.05-.11-.17-.11-.27s0-.12.07-.12.06.05.08.09A.35.35,0,0,1,8,12.91Z"/><path class="cls-203" d="M9,12.26a.79.79,0,0,1-.11.35C8.73,12.32,8.73,12.32,9,12.26Z"/><path class="cls-204" d="M5.56,9.52l-.11-.17c.18-.07,0-.17,0-.26s.12.08.19,0v.22C5.61,9.39,5.63,9.48,5.56,9.52Z"/><path class="cls-205" d="M6.33,10.34c0-.09-.07-.14-.12-.2S6.14,10,6.27,10s.1.09.06.17.22.15,0,.22Z"/><path class="cls-206" d="M6,10.17,5.89,10c0-.11.09-.15.16-.07S6,10.11,6,10.17Z"/><path class="cls-207" d="M4.57,8c-.12-.09-.14-.23-.21-.34l0-.05c.13.05.1.19.17.27Z"/><path class="cls-208" d="M5.67,9c-.2-.06-.07-.22-.11-.33l0,0,0,0C5.77,8.67,5.63,8.84,5.67,9Z"/><path class="cls-209" d="M5.4,8.59V8.37c.17,0,.17.1.16.22h0S5.45,8.72,5.4,8.59Z"/><path class="cls-210" d="M6.33,10.12,6.27,10c.07,0,.15-.08.19,0S6.42,10.11,6.33,10.12Z"/><path class="cls-211" d="M7.09,11.71c0-.09,0-.2.11-.22C7.32,11.64,7.22,11.68,7.09,11.71Z"/><path class="cls-212" d="M5.56,9.52c0-.08,0-.16.11-.17a.45.45,0,0,1,0,.28A.1.1,0,0,1,5.56,9.52Z"/><path class="cls-213" d="M6.38,10.83v-.27c.06.1.1.19.23.19l-.23.08Z"/><path class="cls-214" d="M4.79,8V7.82c.15,0,.14.13.07.21S4.8,8,4.79,8Z"/><path class="cls-215" d="M4.68,7.27v0c0-.08.16,0,.22-.12H5c.06.07,0,.12-.06.16v.05Z"/><path class="cls-216" d="M11.25,8.47s-.08,0-.08-.05.06-.07.1-.08.06,0,.06,0S11.29,8.46,11.25,8.47Z"/><path class="cls-217" d="M7.15.31c.09,0,.21-.07.26.06s-.09.12-.15.16H7.2c-.68-.05-1.37,0-2.06,0-1.31,0-2.62,0-3.92,0A.65.65,0,0,1,.88.43C.72.34.79.29.92.25c2,0,4,0,6,0A.32.32,0,0,1,7.15.31Z"/><path class="cls-218" d="M.8.31a.8.8,0,0,0,.54.15c1.05,0,2.1,0,3.16,0,.78,0,1.56,0,2.35,0A.53.53,0,0,1,7.2.53a1,1,0,0,1-.54,0,.4.4,0,0,1-.24,0H.7C.64.56.58.58.52.53A.33.33,0,0,0,.58.31l0,0A.17.17,0,0,1,.8.31Z"/><path class="cls-219" d="M.52.53c.25-.15.49,0,.74,0h5.4c-.09.1-.21.06-.31.06H1C1,.65.92.74.81.74s0,.1-.05.15A.17.17,0,0,1,.77,1a.2.2,0,0,1-.08.12C.59.91.31.79.52.53Z"/><path class="cls-220" d="M4.41,6.29c-.07.11-.18.07-.27,0s-.09,0-.11,0a.67.67,0,0,0,.22-.61.88.88,0,0,1,0-.17s-.05,0,0,0l0,0c-.17.05,0,.25-.16.33a.4.4,0,0,1,.39-.6c.17,0,.37-.13.48.1a0,0,0,0,1,0,.06l-.43.66c-.16-.1,0-.25-.08-.36C4.45,5.9,4.27,6.1,4.41,6.29Z"/><path class="cls-221" d="M5.84,3.71l-.11.39-.06.1a.1.1,0,0,1-.16,0c-.11,0-.14.09-.18.16s0,.29-.13.38A.63.63,0,0,0,5,5.11c-.18-.32.14-.5.1-.76s.27-.42.5-.53a.76.76,0,0,1,.24-.23h0Z"/><path class="cls-222" d="M6.6,2.45s-.07.12-.12,0a.21.21,0,0,1,0-.28.59.59,0,0,0,.07-.69c0-.06,0-.11,0-.11s.28-.07.44,0c-.28.2-.16.53-.31.77C6.78,2.31,6.72,2.39,6.6,2.45Z"/><path class="cls-223" d="M2.44,3.55c-.21-.1-.17-.35-.32-.49s0-.13.11-.1a1,1,0,0,1,.37.65c0,.11-.05.15-.16.1A.1.1,0,0,1,2.44,3.55Z"/><path class="cls-224" d="M3.32,5.68a.46.46,0,0,1-.12-.43,1,1,0,0,1,0-.17s0-.07.06-.07.08,0,.08.09,0,.35.19.47,0,.11,0,.16S3.38,5.72,3.32,5.68Z"/><path class="cls-225" d="M2.88,4.91l-.22-.38c.07,0,.15-.1.22,0s.14,0,.22,0,.11-.08.17,0,0,.11,0,.16L3.1,5C3.05,4.86,3,4.93,2.88,4.91Z"/><path class="cls-221" d="M6.05,2.94c.16,0,.27,0,.17.17a1,1,0,0,1-.39.49h0a.36.36,0,0,1,0-.36c0-.09.12-.1.16-.17A.69.69,0,0,1,6.05,2.94Z"/><path class="cls-226" d="M1.4,2.18H1.34c-.05-.08,0-.18-.06-.26s-.05-.23-.21-.12L.9,1.42V1.36a.94.94,0,0,1,.49.49A.23.23,0,0,1,1.5,2,.16.16,0,0,1,1.4,2.18Z"/><path class="cls-227" d="M5.83,3.22V3.6c-.09.07-.14.2-.27.22s-.3.12-.45,0c.09-.14.24-.07.37-.1s.28,0,.17-.24,0-.17.08-.24a.06.06,0,0,1,.1,0Z"/><path class="cls-223" d="M2.38,3.71c0,.18.22.17.32.26-.16.17-.29.24-.38-.05a.43.43,0,0,0-.21-.21h0c0-.13,0-.19.16-.11A.17.17,0,0,1,2.38,3.71Z"/><path class="cls-228" d="M1.62,1.79c0-.09,0-.17-.09-.21s-.12-.05-.11-.13a.1.1,0,0,1,.1-.08c.08,0,.09.06.13.1a.68.68,0,0,1,.08.71l0,0A.25.25,0,0,1,1.63,2,.52.52,0,0,1,1.62,1.79Z"/><path class="cls-229" d="M6.6,2.45l.11-.27h.17a2.17,2.17,0,0,1-.44.71C6.36,2.7,6.63,2.63,6.6,2.45Z"/><path class="cls-230" d="M1.62,1.79c.09.08,0,.19,0,.28s-.16,0-.22-.06L1.4,1.85c.06-.05,0-.16.05-.18S1.56,1.76,1.62,1.79Z"/><path class="cls-231" d="M4.9,5.41V5.35c.14-.2.21-.46.44-.6l0,.22c-.18.15-.2.41-.39.55Z"/><path class="cls-232" d="M1.51,2.62V2.56c0-.05.07-.08.08-.13a.15.15,0,0,0,0-.07c0-.06-.12-.12-.05-.19a.17.17,0,0,1,.2,0h0a.44.44,0,0,1,0,.42C1.64,2.78,1.6,2.72,1.51,2.62Z"/><path class="cls-233" d="M3.59,6.18a.11.11,0,0,1,0-.11c.07,0,.1-.06.11-.13s.11-.09.18-.1,0,.08.06.12.06.11.14.11C3.89,6.14,3.71,6,3.59,6.18Z"/><path class="cls-234" d="M7.2,1.68l-.27.39c-.12-.21.06-.33.16-.47S7.15,1.67,7.2,1.68Z"/><path class="cls-235" d="M5.51,4.2h.16a1.62,1.62,0,0,1-.33.55C5.34,4.55,5.49,4.4,5.51,4.2Z"/><path class="cls-236" d="M.74.92a.31.31,0,0,1-.1-.3C.78.73.9.66,1,.59V.7L.91.81A.39.39,0,0,1,.74.92Z"/><path class="cls-237" d="M2.88,4.91c.09,0,.19-.16.22.06L3,5.08C2.93,5.08,2.88,5,2.88,4.91Z"/><path class="cls-238" d="M3.1,4.53s0,.15-.13.14-.09-.07-.09-.14S3,4.43,3.1,4.53Z"/><path class="cls-239" d="M1.79,3.11c0-.06,0-.13-.06-.17s0-.07,0-.07.12.06.14.11S2,3.16,1.79,3.11Z"/><path class="cls-240" d="M6.05,2.94l0,.17c-.07.05-.12,0-.17,0s0,0,0-.07S6,3,6.05,2.94Z"/><path class="cls-241" d="M5.83,3v0a.26.26,0,0,1,0,.17h0c0-.08-.09-.15,0-.23S5.79,3,5.83,3Z"/><path class="cls-242" d="M2.38,3.71c-.07,0-.1,0-.11-.11s.11-.05.17-.05v.16Z"/><path class="cls-243" d="M1.93,3,2,3s0,0,0,.07,0,0-.05,0Z"/><path class="cls-244" d="M18.25,20a1,1,0,0,1,0,.73A1.29,1.29,0,0,1,18.25,20Z"/><path class="cls-245" d="M18.54,23.92V22.77A2.48,2.48,0,0,1,18.54,23.92Z"/><path class="cls-246" d="M18.54,22.72v-.27A.2.2,0,0,1,18.54,22.72Z"/><path class="cls-247" d="M22.21,21.46l.22.16c-.05.06.05.07,0,.11s.15.11.08.2-.15,0-.23,0a.16.16,0,0,1-.16-.11c0-.14-.25-.15-.22-.33l.11-.11Z"/><path class="cls-248" d="M23.33,23a.11.11,0,0,1,.11.1c0,.07,0,.09-.1.1s-.08,0-.08-.09S23.26,23,23.33,23Z"/><path class="cls-249" d="M23,22.4c0,.05,0,.07,0,.06a.16.16,0,0,1-.07-.07s0-.05,0,0S23,22.39,23,22.4Z"/><path class="cls-250" d="M2.88,9.35l.06-.27c.16,0,.11-.31.32-.28A.18.18,0,0,1,3.31,9a.44.44,0,0,0,0,.47,2.84,2.84,0,0,1,0-.41.8.8,0,0,1,.05-.21.34.34,0,0,0,0-.1c-.06-.21,0-.31.22-.33a.41.41,0,0,1,.26-.09c.37.16.51.41.39.76.21-.13.36,0,.53.07s.13.42.2.63a1.41,1.41,0,0,1,0,.2c0,.12-.09.25,0,.39.12-.11,0-.32.18-.39s.07,0,.08.05.12.13.17,0a.1.1,0,0,1,.09,0c.19.18.17.46.32.66v.08a1.6,1.6,0,0,0,0,.23,2.44,2.44,0,0,1,0,.27c0,.07-.09.17,0,.22s.12,0,.18,0a.18.18,0,0,1,.12.12c0,.08.08,0,.12,0l.17-.11c.09,0,.13.05.19.09l0,.07c0,.19.2.32.19.51a.2.2,0,0,1-.17.14s-.12,0-.09,0,.09.39.25.53a.12.12,0,0,1,0,.1c-.06.06-.13,0-.2.05s-.07,0-.07,0,0,.06.08.07.09-.12.17-.14.11-.15.22-.12.1.09.08.17,0,.07,0,.08.06,0,.09,0a.2.2,0,0,1,.13,0,.13.13,0,0,1,.06.13.53.53,0,0,1-.12.43c-.07.07-.12.21.1.18s.12,0,.12.09,0,.11-.12.11l-1.5,0-2.33,0c-.63,0-1.26,0-1.89,0a2.49,2.49,0,0,1-.72,0c-.16,0,0-.07,0-.11a.26.26,0,0,0,0-.33v-.11l0,0C1,13.17,1,13.08,1,13a.26.26,0,0,1,.25,0c.08,0,.18.08.23-.05a.17.17,0,0,0-.05-.22c-.18-.08-.14-.24-.15-.38s-.13,0-.1-.09.12-.4.32-.51a.09.09,0,0,1,0,.06.62.62,0,0,1,0,.33c.08-.08.05-.2.15-.24s.05.13.06.19-.06.23,0,.34c0-.1,0-.21,0-.33a1.24,1.24,0,0,0,0-.27c0-.18,0-.39.33-.37-.15-.06-.21.07-.31.09a.14.14,0,0,1-.13-.08l.11-.16a1.44,1.44,0,0,1,.42-.18c.16.07.19-.06.24-.16s0-.17-.11-.19a.55.55,0,0,1-.17-.13c.13-.1.14-.29.27-.38s.14-.05.19,0-.06.13,0,.22c0-.1.09-.17,0-.26s.1-.28,0-.43v0l.15-.07c.1,0,.16.06.21.14a.15.15,0,0,0,.18.08c.14-.07,0-.15,0-.22A.91.91,0,0,0,2.88,9.35Z"/><path class="cls-250" d="M.8,14.06c-.22,0-.44.11-.64,0,0-.09.12-.06.18-.07,1.43-.08,2.86,0,4.29,0H7.47A.22.22,0,0,1,7.7,14a6.55,6.55,0,0,1-1,0H1.06C1,14,.88,14,.8,14.06Z"/><path class="cls-251" d="M3.26,14h2.9s0,0,0,0,0,0,0,0H3.26s0,0,0,0Z"/><path class="cls-251" d="M3.26,14v.05H.8C.88,14,1,14,1.08,14Z"/><path class="cls-252" d="M1.23,13c-.07,0-.14,0-.21,0s0,.17-.11.22h0c-.13.07-.21,0-.22-.11s0-.07,0-.11l.21-.27c.08,0,.14,0,.22,0S1.35,12.86,1.23,13Z"/><path class="cls-253" d="M6.16,14.06V14a8.45,8.45,0,0,0,1.33,0,.58.58,0,0,1,.21,0h.21v0H7.7a.34.34,0,0,1-.28,0Z"/><path class="cls-254" d="M.47,13.46a.12.12,0,0,1,.05-.11c.19.05.09.2.1.31s-.05,0-.08,0a.05.05,0,0,1-.07,0Z"/><path class="cls-255" d="M7.81,13.73l-.06-.22,0,0a.09.09,0,0,1,.11,0c.09.1.21.19.18.35s-.05.06-.1,0-.08-.1-.15-.12Z"/><path class="cls-256" d="M.91,13.35c.16.11.17.22,0,.33Z"/><path class="cls-257" d="M7.37,13l-.06-.12a.19.19,0,0,1-.14-.24l0-.05a.29.29,0,0,1,.13.08.46.46,0,0,1,.09.32H7.37Z"/><path class="cls-258" d="M7.56,13.6c-.09-.06-.15-.11-.12-.2a.06.06,0,0,1,.07,0C7.59,13.42,7.6,13.5,7.56,13.6Z"/><path class="cls-259" d="M8,13.85,8,13.79c.09,0,.12,0,.1.11L8,14Z"/><path class="cls-260" d="M7.64,13.34c0-.1.06-.07.11,0s0,0,0,.06a.2.2,0,0,1,0,.15h0Z"/><path class="cls-261" d="M.69,13c.06,0,.14,0,.12.1s-.08,0-.12,0v-.05A.13.13,0,0,0,.69,13Z"/><path class="cls-257" d="M7.48,13.09a.27.27,0,0,1,.11.21A.18.18,0,0,1,7.48,13.09Z"/><path class="cls-262" d="M7.81,13.73a.13.13,0,0,1-.13.08s0,0,0-.07.1,0,.14,0Z"/><path class="cls-250" d="M7.42,14.06H7.7A.19.19,0,0,1,7.42,14.06Z"/><path class="cls-263" d="M29.28,20.42a.16.16,0,0,1,.16-.11C29.45,20.44,29.34,20.39,29.28,20.42Z"/><path class="cls-264" d="M7.75.15c-.17.16-.37,0-.55.05a.59.59,0,0,1-.37.06H1a.66.66,0,0,0-.37,0h0C.45.25.26.39.19.15Z"/><path class="cls-236" d="M.69,1.08A.13.13,0,0,1,.74,1C.8,1,.85.93.9,1s-.05.16-.16.17Z"/><path class="cls-265" d="M18.1,3.6c.09-.08.19-.05.29-.05h6.39c.09,0,.2,0,.28.05H22.87a9.14,9.14,0,0,1-1.48,0c-.16.11-.31,0-.47,0H18.49a.65.65,0,0,1-.39,0Z"/><path class="cls-2" d="M21.39,3.6h1.48a4.21,4.21,0,0,1-1.12,0C21.63,3.66,21.5,3.7,21.39,3.6Z"/><path class="cls-2" d="M17.45,4a.87.87,0,0,1,.22-.33C17.66,3.81,17.71,4,17.45,4Z"/><path class="cls-2" d="M18.1,3.6h.39A.32.32,0,0,1,18.1,3.6Z"/><path class="cls-266" d="M25.44,3.66v.11s-.09,0-.12,0,0-.09,0-.14Z"/><path class="cls-267" d="M30.6,24.05c.28,0,.55,0,.82,0A1.43,1.43,0,0,1,30.6,24.05Z"/><path class="cls-267" d="M29.22,23.54v-.11c.05-.06.09-.14.17-.17s.12.1.16.17S29.37,23.62,29.22,23.54Z"/><path class="cls-268" d="M4.9,7.27,5,7.11H6.88c.18.13.4,0,.6.08,0,0,0,0,0-.08a.68.68,0,0,1,.37,0,.76.76,0,0,0,.61,0h2.63c.14.11.3,0,.44,0s.23,0,.33.06c-.12.09-.26,0-.38,0s-.23,0-.33.05a3.14,3.14,0,0,0-.75,0c-.49,0-1,0-1.48,0a22.76,22.76,0,0,1-2.48,0,.34.34,0,0,1-.28,0h0a.66.66,0,0,1-.28,0A2.43,2.43,0,0,1,4.9,7.27Z"/><path class="cls-269" d="M4.91,7.1c0,.11-.13.12-.22.12s-.31-.06-.44,0-.08-.11-.11-.17Z"/><path class="cls-215" d="M7.48,7.1s.08.1,0,.11c-.21,0-.43,0-.64,0V7.1Z"/><path class="cls-215" d="M8.46,7.1l0,.08c-.21,0-.43.14-.63,0A2.51,2.51,0,0,1,8.46,7.1Z"/><path class="cls-270" d="M29.39,23.26c0,.11-.1.13-.17.17s0-.15,0-.14c-.22.05-.17-.08-.09-.22-.11.05-.17.1-.24.08a.69.69,0,0,0-.09-.55,1.56,1.56,0,0,1-.05-1c0,.32-.06.67.18.95H29a.44.44,0,0,1,.16.17A.64.64,0,0,0,29.39,23.26Z"/><path class="cls-271" d="M11.15,7.32c0-.08,0-.11.08-.11h.63c0,.13-.12.1-.2.1Z"/><path class="cls-272" d="M5.83,7.27a.66.66,0,0,1,.28,0A.19.19,0,0,1,5.83,7.27Z"/><path class="cls-272" d="M6.16,7.27h.28A.19.19,0,0,1,6.16,7.27Z"/><path class="cls-13" d="M29.11,22.72a.38.38,0,0,1-.16-.17A.16.16,0,0,1,29.11,22.72Z"/><path class="cls-273" d="M21.45,21v-.27c.09-.08.06-.22.21-.32-.08.14,0,.18.06.27v.05c-.09.09,0,.18,0,.27V21l-.11.16Z"/><path class="cls-274" d="M32.2,23.73c-.05,0-.12.08-.16,0s0-.09.09-.08S32.17,23.71,32.2,23.73Z"/><path class="cls-275" d="M23.1,13.23s0,.1,0,.1-.1-.09-.15-.14.11.05.17,0Z"/><path class="cls-276" d="M4,6.29a.13.13,0,0,1,.11,0,.41.41,0,0,0,.05.27s0,0-.06,0a.08.08,0,0,1-.1,0V6.39s0-.07,0-.11Z"/><path class="cls-277" d="M4,6.28v.11c-.07,0-.1.12-.21.07C3.88,6.38,3.8,6.18,4,6.28Z"/><path class="cls-105" d="M4,6.61h.11a.2.2,0,0,1,0,.22v0L4,6.83C4.05,6.76,4,6.69,4,6.61Z"/><path class="cls-4" d="M4.19,5.52V5.37a.27.27,0,0,1,.06.31C4.18,5.64,4.19,5.58,4.19,5.52Z"/><path class="cls-278" d="M13.54,24.33c0,.06,0,.16-.12.16s-.09-.09-.11-.14.08-.06.12-.08S13.53,24.26,13.54,24.33Z"/><path class="cls-279" d="M3.86,8.31c-.07.09-.18,0-.27.06V8.09c0-.06,0-.12.05-.16s.19.08.23.19A.25.25,0,0,1,3.86,8.31Z"/><path class="cls-280" d="M3.26,9V8.8h.11a.17.17,0,0,1,0,.17A.08.08,0,0,1,3.26,9Z"/><path class="cls-199" d="M13.61,10.63l.39,0h7.55v.1H20.9a.41.41,0,0,1-.22,0H14.43a.37.37,0,0,1-.21,0C14,10.67,13.79,10.83,13.61,10.63Z"/><path class="cls-281" d="M23.31,20.31a.22.22,0,0,1-.06.33c-.14,0-.08-.1-.05-.17s0-.08.05-.11Z"/><path class="cls-61" d="M23.25,20.36c0,.05,0,.09-.05.11s-.15,0-.13-.09S23.19,20.38,23.25,20.36Z"/><path class="cls-7" d="M1.23,13c0-.12.09-.3-.16-.27S1,12.66,1,12.58a.34.34,0,0,0,.28-.27c.05.18.21.3.28.46S1.53,13.09,1.23,13Z"/><path class="cls-282" d="M1.51,11.76V11.5l.1-.07a.12.12,0,0,1,.11.06C1.74,11.65,1.73,11.79,1.51,11.76Z"/><path class="cls-283" d="M1,12.58c0,.06,0,.13.06.17s-.11.17-.17,0v-.16Z"/><path class="cls-284" d="M2.17,11.11a.6.6,0,0,1-.44.16c.06-.2.37-.27.27-.54l.11-.12c.08,0,.16,0,.16.11v0a.9.9,0,0,1-.09.32Z"/><path class="cls-285" d="M2.55,9.79c.1,0,.13.06.08.14s0,.2-.08.3h0c-.06,0-.11.08-.17,0A3.34,3.34,0,0,1,2.55,9.79Z"/><path class="cls-286" d="M8.13,13.9a.18.18,0,0,0-.1-.11c0-.14-.18-.19-.17-.33s0-.06,0-.07.07.06.12.07.12-.17.21-.22.11.18.17.27C8.27,13.61,8.28,13.81,8.13,13.9Z"/><path class="cls-287" d="M.9,1C.85,1,.8,1.06.74,1v0C.75.81.83.81.91.81Z"/><path class="cls-288" d="M4.14,7.43l.11.39c-.1.12,0,.37-.23.39a2.25,2.25,0,0,1-.24-.46c0-.09.13-.07.14-.15C4,7.31,4,7.31,4.14,7.43Z"/><path class="cls-289" d="M3.81,7.71c.06.17.24.29.22.49.07,0,.16.09.08.17s-.13,0-.17,0-.1-.11-.13-.17a.28.28,0,0,0-.17-.22.44.44,0,0,0,.12-.32.06.06,0,0,1,.06,0A.08.08,0,0,1,3.81,7.71Z"/><path class="cls-290" d="M3.81,7.71v-.1h.1a.06.06,0,0,1,0,.1C3.9,7.76,3.85,7.73,3.81,7.71Z"/><path class="cls-291" d="M3.1,10c-.1.1-.18.05-.21,0s-.12-.15-.18-.22a.37.37,0,0,1,.11-.28A.51.51,0,0,1,3.1,10Z"/><path class="cls-292" d="M3.1,10a1.68,1.68,0,0,0-.28-.55l.06-.05c.29,0,.26.33.37.51S3.17,10,3.1,10Z"/><path class="cls-13" d="M21.72,21c-.09,0,0-.16-.11-.19a0,0,0,0,1,0-.09c0-.06.09,0,.14,0Z"/><path class="cls-4" d="M1.73,2.18c-.06,0-.13,0-.18,0s.14.09.12.19,0,0,0,.05a.16.16,0,0,1-.16.11L1.4,2.4c0-.08.1-.15,0-.22L1.45,2c.07,0,.11.19.22.06C1.72,2.09,1.73,2.13,1.73,2.18Z"/><path class="cls-206" d="M14.22,10.72H20.9c-.08.09-.19,0-.29,0H14.5C14.4,10.77,14.3,10.81,14.22,10.72Z"/><path class="cls-293" d="M13.78,10.28c.07,0,.14-.14.21,0a.11.11,0,0,1-.07.15c-.11,0-.13-.05-.14-.14Z"/><path class="cls-294" d="M.58.31C.65.16.79.21.91.21H7.2l0,.11H.58Z"/><path class="cls-295" d="M4.41,6.29a.15.15,0,0,1-.13-.18,2,2,0,0,1,.16-.57l0,.53Z"/><path class="cls-296" d="M4.14,6.83V6.61h.05l.06.11A.17.17,0,0,1,4.14,6.83Z"/><path class="cls-297" d="M7.44,13l-.13-.31a0,0,0,0,1,0-.07c.16,0,.16.15.17.27Z"/><path class="cls-298" d="M7.31,12.64v.07l-.1-.08a.22.22,0,0,1-.12-.26h.06Z"/><path class="cls-299" d="M5.07,8.85c0-.1-.07-.23.11-.27a.19.19,0,0,1,0,.28A.07.07,0,0,1,5.07,8.85Z"/><path class="cls-300" d="M5.07,8.85h.11a.49.49,0,0,1,.06.27s0,0,0,0l0,0-.1-.07C5,9.06,5,9,5.07,8.9Z"/><path class="cls-1" d="M5.4,8.59c0,.06.11,0,.16,0v.05l-.16.22c-.11,0,0-.16-.11-.22S5.35,8.59,5.4,8.59Z"/><path class="cls-199" d="M5.29,8.64c.12,0,0,.15.11.22C5.17,8.88,5.34,8.7,5.29,8.64Z"/><path class="cls-301" d="M5.23,9.18a.07.07,0,0,1,0,0,.1.1,0,0,1,.1.11v.08Z"/><path class="cls-286" d="M7.75,13.35v0c0-.13.12-.06.17-.11v.05s0,0,0,0v0S7.82,13.39,7.75,13.35Z"/><path class="cls-302" d="M6.88,11.87l-.06.06a.78.78,0,0,1-.27-.45h0c-.06-.08-.14-.15-.12-.26l.06-.07c0,.08.11,0,.17,0A2,2,0,0,0,6.88,11.87Z"/><path class="cls-303" d="M7,11.49v.16c-.07,0-.14,0-.14-.09S7,11.5,7,11.49Z"/><path class="cls-304" d="M3.81,8.15c.06,0,.13,0,.16.12s.06.12.1.08,0-.09,0-.15.11-.17.11-.28,0-.15.11-.1l.11.11s0,.08,0,.05a.31.31,0,0,1,.11.22.23.23,0,0,1-.11.08,0,0,0,0,0,0,0l0,0c0,.06.16,0,.19.08v.06c0,.08,0,.14,0,.2l0,.05,0-.05a.09.09,0,0,1,.07,0c0,.11.06.24.11.35a.09.09,0,0,1,0,.07c-.08,0-.13,0-.19,0a.15.15,0,0,0-.23,0c-.08.13-.14.05-.19,0s0-.09,0-.14a.18.18,0,0,0,0-.3,2.36,2.36,0,0,0-.3-.34Z"/><path class="cls-305" d="M4.74,9.13V9.08a.6.6,0,0,0,.16-.33H5l.1.15.06.21v.08c-.11.25,0,.38.22.49h0c0,.16,0,.31-.22.28-.11.13,0,.35-.18.47-.18-.14-.1-.31,0-.48s.08-.14,0-.21S4.93,9.3,4.74,9.13Z"/><path class="cls-306" d="M4.9,8.75c.13.2,0,.28-.16.33-.14-.1-.11-.25-.11-.38a.17.17,0,0,1,.22,0Z"/><path class="cls-307" d="M4.63,8.42c-.06-.07-.18.12-.22-.05a.13.13,0,0,1,0-.11c0-.07.1-.06.16-.06A.19.19,0,0,1,4.63,8.42Z"/><path class="cls-305" d="M4.85,8.69H4.58l0-.21Z"/><path class="cls-307" d="M4.41,8s0,.17-.07.13,0-.12,0-.18Z"/><path class="cls-308" d="M5.73,10.61A1.44,1.44,0,0,1,5.45,10a.1.1,0,0,1,.06,0l.15,0,0,.06c0,.17.22.28.19.48S5.82,10.63,5.73,10.61Z"/><path class="cls-309" d="M6.43,11.23l.12.26c-.09,0-.11-.08-.17-.11a.65.65,0,0,1-.3-.63l0,0Z"/><path class="cls-309" d="M5.84,10.5c0-.19-.2-.3-.16-.49a4.63,4.63,0,0,1,.43.71h0C5.91,10.77,5.88,10.63,5.84,10.5Z"/><path class="cls-310" d="M5.51,9.9l-.06,0s0,0,0,0,0,.25-.13.24S5.18,10,5.12,10c.19,0,.15-.19.22-.28S5.43,9.84,5.51,9.9Z"/><path class="cls-311" d="M5.34,9.68c-.37-.12-.41-.21-.22-.49Z"/><path class="cls-312" d="M7.91,13.3v-.06c.14,0,.09.13.11.22s-.1,0-.12-.06A.07.07,0,0,1,7.91,13.3Z"/><path class="cls-313" d="M6.55,11.48l.27.45c0,.13.16.23.18.37l0,0a.12.12,0,0,1-.12-.06c0-.07-.12-.13-.08-.22S6.5,11.71,6.55,11.48Z"/><path class="cls-314" d="M7.09,12.37l.12.26v0c-.23,0-.27-.09-.22-.34H7Z"/><path class="cls-24" d="M4.57,5.32a.14.14,0,0,1-.17,0C4.46,5.28,4.52,5.31,4.57,5.32Z"/><path class="cls-4" d="M5.78,3.22c0-.06,0-.13,0-.17L6,3.11c0,.1-.12.06-.17.11Z"/><path class="cls-287" d="M1.67,2.45s-.11,0-.13,0,0,0,0,0l.12,0Z"/><path class="cls-315" d="M1.51,11.76c.16,0,.14-.18.22-.27L2,11.3c.05,0,.12-.08.15,0s0,.18-.08.16c-.25-.06-.22.14-.28.26l-.11.11c0,.08,0,.17,0,.23s-.08.19-.18.13,0-.11,0-.17S1.5,11.86,1.51,11.76Z"/><path class="cls-316" d="M5.84,10.5c.11,0,.11.22.26.23a1.45,1.45,0,0,0,.28.65c0,.11-.08.11-.16.11s-.13-.18-.2-.25A.57.57,0,0,1,5.9,11a.35.35,0,0,0-.12-.25s0-.06,0-.09v-.06Z"/><path class="cls-317" d="M7,12.31c0,.15,0,.29.22.34,0,.11.07.18.11.26L7.2,13A.12.12,0,0,1,7,12.91c0-.29-.17-.09-.27-.05h0v-.11a.61.61,0,0,1,0-.44.11.11,0,0,1,.14-.06Z"/><path class="cls-318" d="M6.77,12.31c-.06.15.11.29,0,.44H6.69A1.23,1.23,0,0,1,6.48,12l.12.14C6.66,12.2,6.79,12.18,6.77,12.31Z"/><path class="cls-41" d="M3.26,9h.11a1.7,1.7,0,0,1-.06.67C3.33,9.41,3,9.21,3.26,9Z"/><path class="cls-319" d="M2.27,10.72c.07,0,.14-.06.2,0s0,.12,0,.18a1.57,1.57,0,0,1-.09.23c-.07.09-.16.14-.2,0h0c0-.13.06-.26.1-.39Z"/><path class="cls-320" d="M6.05,11.21a.37.37,0,0,1,.17.28c0,.15-.08.21-.18,0L6,11.38l0-.06a.14.14,0,0,1,0-.07A.11.11,0,0,1,6.05,11.21Z"/><path class="cls-321" d="M1.78,12.09a.17.17,0,0,1,0,.2c0,.08,0,.25-.07.24s-.05-.19-.05-.29a.47.47,0,0,1,.06-.15S1.76,12.07,1.78,12.09Z"/><path class="cls-322" d="M2.55,10.23c.05,0,.05.09.07.14a.18.18,0,0,1-.1.22s-.09,0-.1,0,0-.15.05-.22.08-.07.08-.13Z"/><path class="cls-323" d="M6.6,13c-.06.07-.12.08-.16,0s-.05-.13,0-.19.11,0,.14,0A.1.1,0,0,1,6.6,13Z"/><path class="cls-324" d="M.91,13.24a.64.64,0,0,1,0-.24c0-.12.08-.05.1,0s.12.07,0,.15S1,13.3.91,13.24Z"/><path class="cls-325" d="M6.77,12.31c0-.07-.18,0-.17-.16L6.77,12c0,.07.11.12.11.21Z"/><path class="cls-326" d="M5.78,11.43s-.1.08-.14,0,0-.15,0-.23a.11.11,0,0,1,.12,0,.19.19,0,0,1,0,.16A.18.18,0,0,1,5.78,11.43Z"/><path class="cls-327" d="M7,12.91,7.2,13c0,.15-.13.13-.22.06S7,12.93,7,12.91Z"/><path class="cls-328" d="M2.6,11.4s0,.06-.07.07-.08,0-.08-.07,0-.12.07-.12S2.6,11.32,2.6,11.4Z"/><path class="cls-329" d="M5.78,11.21H5.67v-.32a.08.08,0,0,1,.12,0,.3.3,0,0,1,0,.26A.18.18,0,0,1,5.78,11.21Z"/><path class="cls-317" d="M6.6,13v-.16a.14.14,0,0,1,.17,0h0C6.71,13.1,6.71,13.1,6.6,13Z"/><path class="cls-330" d="M4.9,9.74A.11.11,0,0,1,5,9.86C5,9.94,5,10,4.9,10Z"/><path class="cls-331" d="M5.78,11.43v0c0-.06.08-.12.16-.06v.06C5.92,11.49,5.87,11.52,5.78,11.43Z"/><path class="cls-332" d="M1.78,12.09H1.73c0-.08,0-.16-.06-.22a.1.1,0,0,1,.11-.11Z"/><path class="cls-333" d="M5.78,10.89H5.67a.35.35,0,0,1,.06-.22l0,.05A.12.12,0,0,1,5.78,10.89Z"/><path class="cls-334" d="M7.91,13.3v.1l0,.06-.1,0v-.16Z"/><path class="cls-215" d="M5.44,7.19a.17.17,0,0,1,.19,0A.18.18,0,0,1,5.44,7.19Z"/><path class="cls-250" d="M2.27,10.72a.55.55,0,0,1-.1.39A.54.54,0,0,1,2.27,10.72Z"/><path class="cls-305" d="M4.58,8.7s0,.11-.06.12a.13.13,0,0,1-.07-.05c0-.07.07-.07.13-.08Z"/><path class="cls-335" d="M4.36,8.26s0,.06,0,.11-.11,0-.13,0S4.32,8.27,4.36,8.26Z"/><path class="cls-326" d="M5.78,10.89v-.17c.18,0,.16.15.16.27s0,.14-.1.18a0,0,0,0,1-.06,0Z"/><path class="cls-336" d="M5.83,11.16c0-.08,0-.16.11-.17l.11.22-.1.06C5.85,11.29,5.82,11.25,5.83,11.16Z"/><path class="cls-250" d="M5.83,11.16a.22.22,0,0,0,.12.11v.05l-.16.06v-.22Z"/><path class="cls-337" d="M28.14,24c-.3-.6-.58-1.21-.87-1.82a7.28,7.28,0,0,0-.46-1c-.17-.39-.35-.78-.53-1.16,0-.08-.06-.16-.17-.16S26,20,26,20a.61.61,0,0,0-.07.14c-.53,1.12-1.06,2.24-1.58,3.36a1,1,0,0,0-.17.41c-.07.17.11.14.16.21s.29.08.37-.11c.15-.35.31-.68.46-1a.3.3,0,0,0,.1-.19.62.62,0,0,1,.3,0H27a10.9,10.9,0,0,1,.49,1,.49.49,0,0,0,.58.34C28.18,24.15,28.19,24.11,28.14,24Zm-1.68-1.72c-.3,0-.6,0-.9,0h0c-.07-.2.15-.34.13-.53,0,0,0,0,0,0s0-.16.11-.22a1.3,1.3,0,0,0,.22-.46c.05-.09.09-.05.13,0a1.54,1.54,0,0,1,.08.19c.12.26.23.51.35.76S26.71,22.28,26.46,22.26Zm.24.4h0Z"/></g></g></svg>