<svg xmlns="http://www.w3.org/2000/svg" xmlns:xlink="http://www.w3.org/1999/xlink" viewBox="0 0 182.98 175.19"><defs><style>.cls-1{fill:none;}.cls-2{clip-path:url(#clip-path);}.cls-3{fill:#c06;}.cls-4{fill:#222221;opacity:0.2;}.cls-11,.cls-5{fill:#fff;}.cls-5{opacity:0.15;}.cls-6{fill:#ea399a;}.cls-7{fill:#6cc;}.cls-8{fill:#abefed;}.cls-9{fill:#f66;}.cls-10{fill:#f99595;}</style><clipPath id="clip-path" transform="translate(-48.87 -108.96)"><rect class="cls-1" width="187.31" height="318.39"/></clipPath></defs><title>DESAsset 5</title><g id="Layer_2" data-name="Layer 2"><g id="ev_pages" data-name="ev pages"><g class="cls-2"><path class="cls-3" d="M163.73,214.47a29,29,0,0,1-5.8-5.35c-3.25-11.08-4.93-27.43-4.18-43.42,5.85,5.42,9.56,2.94,9.55,3-3.89-3.47-6.84-9.06-8.75-14.09A196.23,196.23,0,0,1,164.83,109s3,7.45,8,17.53a27.76,27.76,0,0,1-1.63,3.86,5.61,5.61,0,0,0,3.18-.78,321.2,321.2,0,0,0,21.75,36.05A36.37,36.37,0,0,1,195,176.94s3.22-.35,5.57-4.88c4.88,6.95,9.21,12.94,11.7,17.6,4.84,9,3.63,18.46,1,26.89-2.19-2.75-4.57-2.65-4.58-2.65A37.34,37.34,0,0,1,210.06,225a74.92,74.92,0,0,1-5.73,10.49,48.29,48.29,0,0,1-15.43.56c1.12-5.33-1.26-7.62-1.27-7.63a32.17,32.17,0,0,1-4,6.62,33.9,33.9,0,0,1-23.43-19.55A5.07,5.07,0,0,0,163.73,214.47Z" transform="translate(-48.87 -108.96)"/><path class="cls-4" d="M172.82,126.49a27.76,27.76,0,0,1-1.63,3.86,5.61,5.61,0,0,0,3.18-.78,321.2,321.2,0,0,0,21.75,36.05A36.37,36.37,0,0,1,195,176.94s3.22-.35,5.57-4.88c4.88,6.95,9.21,12.94,11.7,17.6,4.84,9,3.63,18.46,1,26.89-2.19-2.75-4.57-2.65-4.58-2.65A37.37,37.37,0,0,1,210.06,225a75.12,75.12,0,0,1-5.73,10.48A241.79,241.79,0,0,1,164.83,109S167.82,116.41,172.82,126.49Z" transform="translate(-48.87 -108.96)"/><path class="cls-5" d="M156.94,138.22q5.58,2.67,11.22,5.05,4.53-4.16,9.19-8c2.45,4.53,5.17,9.26,8.05,14q-6.77,6.3-13.2,13.23-8.52-2.77-17-6.2c-.23-.55-.45-1.09-.65-1.62C155.15,148.85,156,143.32,156.94,138.22Z" transform="translate(-48.87 -108.96)"/><path class="cls-5" d="M153.62,176.62a256.5,256.5,0,0,0,25.09,7.24h0a253.16,253.16,0,0,1,16.41-19.69c.33.49.67,1,1,1.45A36.37,36.37,0,0,1,195,176.94s3.22-.35,5.57-4.88c1.87,2.65,3.65,5.17,5.28,7.52a249.33,249.33,0,0,0-18.19,26.12h0a259.45,259.45,0,0,1-32-6.24A146.22,146.22,0,0,1,153.62,176.62Z" transform="translate(-48.87 -108.96)"/><path class="cls-5" d="M196.8,223.2l.08.13a230.52,230.52,0,0,1,16-32.52,27.72,27.72,0,0,1,2.7,10.72q-3.17,6.09-6,12.47a3.58,3.58,0,0,0-.81-.1c.12.38.23.78.33,1.18-2.45,5.58-4.71,11.34-6.76,17.24l-.08-.13q-6.66-.57-13.4-1.55a5.53,5.53,0,0,0-1.2-2.26c-.28.65-.61,1.3-1,1.94q-9.24-1.41-18.57-3.58a33.4,33.4,0,0,1-7.95-11.28A245.22,245.22,0,0,0,196.8,223.2Z" transform="translate(-48.87 -108.96)"/><path class="cls-6" d="M167.46,138.91a239.47,239.47,0,0,0,46,105,3.06,3.06,0,0,1-.21,4.25h0a2.92,2.92,0,0,1-4.1-1A242.52,242.52,0,0,1,167.46,138.91Z" transform="translate(-48.87 -108.96)"/><path class="cls-7" d="M178.28,280.42a32.34,32.34,0,0,1-8,3.29c-12.66-1.44-29.8-7.16-44.83-15.89,8.14-2.5,7.56-7.08,7.6-7-5.22,1.79-12.06,1.6-17.82.62A152.05,152.05,0,0,1,79,226.51a178.8,178.8,0,0,0,20,3.7,31.63,31.63,0,0,1,2.58,3.58,5.54,5.54,0,0,0,1-3.17,183.29,183.29,0,0,0,43.33-.78,40.24,40.24,0,0,1,9.85,6.08s1.1-3.09-2-7.24c8.5-1.37,15.76-2.94,21-3.42,10.22-.95,18.52,3.53,25.7,8.87-3.44,1.17-4.25,3.47-4.25,3.48A42.8,42.8,0,0,1,207.51,240a82,82,0,0,1,8.28,8.82A46.23,46.23,0,0,1,210.51,264c-4.95-2.77-8.16-1.27-8.19-1.26a32.11,32.11,0,0,1,5.07,6.09,37.07,37.07,0,0,1-29.71,15.29A4.84,4.84,0,0,0,178.28,280.42Z" transform="translate(-48.87 -108.96)"/><path class="cls-4" d="M99,230.21a31.63,31.63,0,0,1,2.58,3.58,5.54,5.54,0,0,0,1-3.17,183.29,183.29,0,0,0,43.33-.78,40.24,40.24,0,0,1,9.85,6.08s1.1-3.09-2-7.24c8.5-1.37,15.76-2.94,21-3.42,10.22-.95,18.52,3.53,25.7,8.87-3.44,1.17-4.25,3.47-4.25,3.48A42.8,42.8,0,0,1,207.51,240a82,82,0,0,1,8.28,8.82A166.89,166.89,0,0,1,79,226.51,178.8,178.8,0,0,0,99,230.21Z" transform="translate(-48.87 -108.96)"/><path class="cls-5" d="M101.11,250.46q5.48-3.32,10.59-7-1.45-6.16-2.46-12.32c5.35.35,11,.47,16.68.3a180.15,180.15,0,0,0,5.6,18.3,184.42,184.42,0,0,1-14.39,11.9l-1.87-.28A152.45,152.45,0,0,1,101.11,250.46Z" transform="translate(-48.87 -108.96)"/><path class="cls-5" d="M136,273.29a185.33,185.33,0,0,0,18.88-19.41h0a176,176,0,0,1-10.75-23.8l1.77-.24a40.24,40.24,0,0,1,9.85,6.08s1.1-3.09-2-7.24c3.24-.53,6.31-1.07,9.15-1.58a171.54,171.54,0,0,0,17,27.45h0a190,190,0,0,1-20.32,27.16A127.54,127.54,0,0,1,136,273.29Z" transform="translate(-48.87 -108.96)"/><path class="cls-5" d="M200.77,252.22l.16,0a155.8,155.8,0,0,1-24.81-27,29.73,29.73,0,0,1,11,1.54q4.49,5.24,9.56,10.15a4,4,0,0,0-.4.74l1.26.09a155.62,155.62,0,0,0,14.39,12.16l-.16,0q-3.06,6.28-6.69,12.46a6.58,6.58,0,0,0-2.76.41c.54.49,1.06,1,1.57,1.57a186.41,186.41,0,0,1-11.27,16.53,37.31,37.31,0,0,1-14.92,3.28A182.76,182.76,0,0,0,200.77,252.22Z" transform="translate(-48.87 -108.96)"/><path class="cls-8" d="M107.34,241.75a165.31,165.31,0,0,0,120.17.53c1.77-.68,3.66-.09,4.2,1.35h0c.54,1.44-.54,3.18-2.41,3.81A167.85,167.85,0,0,1,107.34,241.75Z" transform="translate(-48.87 -108.96)"/><path class="cls-9" d="M162.29,252.52a30.45,30.45,0,0,1-8.09-1.5c-9.22-7.88-19.92-21.44-27.82-36.18,8,1.87,9.88-2.26,9.89-2.22-5.23-1.08-10.78-4.59-15.08-8.19a172.33,172.33,0,0,1-13.74-46.69s6.17,5.54,15.5,12.27a30.53,30.53,0,0,1,.46,4.29,5.54,5.54,0,0,0,2.41-2.25A231.57,231.57,0,0,0,163,192.91a38.27,38.27,0,0,1,5,10.34s2.56-2,2.17-7.17c7.82,3.37,14.69,6,19.32,8.59,9,4.91,13.22,13.39,15.94,21.88-3.41-1-5.34.42-5.35.43a39.63,39.63,0,0,1,7.55,8.43,82.09,82.09,0,0,1,1.47,12,47.28,47.28,0,0,1-12.63,9.36c-2.27-5.09-5.63-5.67-5.65-5.67a32.8,32.8,0,0,1,.54,7.86,35,35,0,0,1-31.58-3.65A5,5,0,0,0,162.29,252.52Z" transform="translate(-48.87 -108.96)"/><path class="cls-4" d="M123,170a29.11,29.11,0,0,1,.46,4.29,5.54,5.54,0,0,0,2.41-2.25A231.57,231.57,0,0,0,163,192.91a38.27,38.27,0,0,1,5,10.34s2.56-2,2.17-7.17c7.82,3.37,14.69,6,19.32,8.59,9,4.91,13.23,13.39,15.94,21.88-3.41-1-5.34.42-5.35.43a39.87,39.87,0,0,1,7.55,8.43,82.09,82.09,0,0,1,1.47,12,196.39,196.39,0,0,1-101.66-89.67S113.62,163.28,123,170Z" transform="translate(-48.87 -108.96)"/><path class="cls-5" d="M114.83,188.4q6.27-.3,12.4-1,1.85-6,4-11.75c4.39,2.86,9.14,5.71,14,8.4-1.79,6-3.33,12.14-4.61,18.41q-8.83,1.91-18,3.07c-.48-.37-1-.75-1.41-1.14A171.61,171.61,0,0,1,114.83,188.4Z" transform="translate(-48.87 -108.96)"/><path class="cls-5" d="M132.18,224.68a211.78,211.78,0,0,0,25.61-6.76h0a208.21,208.21,0,0,1,3.56-25.74l1.61.72a38.27,38.27,0,0,1,5,10.34s2.56-2,2.17-7.17c3,1.29,5.83,2.48,8.47,3.59a205.52,205.52,0,0,0-1,32.19h0a215.39,215.39,0,0,1-30.9,11.89A137.18,137.18,0,0,1,132.18,224.68Z" transform="translate(-48.87 -108.96)"/><path class="cls-5" d="M195.5,241.54l.14.07a188,188,0,0,1-5-36.28,28.54,28.54,0,0,1,8.17,7.46q.75,6.87,2.06,13.81a3.62,3.62,0,0,0-.74.38c.33.25.64.51,1,.79q1.77,9.07,4.49,18.22l-.15-.06q-5.92,3.36-12.19,6.39a5.83,5.83,0,0,0-2.37-1.22,22,22,0,0,1,.34,2.18q-8.65,4-17.91,7.38a35.16,35.16,0,0,1-13.46-5.34A204.57,204.57,0,0,0,195.5,241.54Z" transform="translate(-48.87 -108.96)"/><path class="cls-10" d="M124.41,183.86A193.77,193.77,0,0,0,221.87,249a3.11,3.11,0,0,1,2.44,3.59h0c-.41,1.48-2.23,2.24-4,1.64A196.8,196.8,0,0,1,124.41,183.86Z" transform="translate(-48.87 -108.96)"/><path class="cls-11" d="M148.71,169.32s-7.52-16,1.92-36.77-6.25-21.26-12.71-4.75S138.45,163.51,148.71,169.32Z" transform="translate(-48.87 -108.96)"/><path class="cls-3" d="M131.26,142.73s-6.94-12.74-21.45-17.45-13.45,6.22-2.31,8.45S125.16,138.8,131.26,142.73Z" transform="translate(-48.87 -108.96)"/><path class="cls-7" d="M132.52,157.19s-20.3-11.06-33.49,0-19.49-6.9-2.46-13.1S132.52,157.19,132.52,157.19Z" transform="translate(-48.87 -108.96)"/><path class="cls-7" d="M123.41,220.74s-12-5.31-14.39-22.32-16.39-15-13.21.73C100.1,220.39,123.41,220.74,123.41,220.74Z" transform="translate(-48.87 -108.96)"/><path class="cls-11" d="M91.75,204.94s-5.15-6.51-2.49-18.16c1.72-7.52-7.59-4.36-6.89,5.69C82.88,199.87,91.75,204.94,91.75,204.94Z" transform="translate(-48.87 -108.96)"/><path class="cls-11" d="M79.28,232.42s-8.85-5.27-22.53.22c-8.82,3.54-6.7-8.74,5.64-9.71C71.48,222.22,79.28,232.42,79.28,232.42Z" transform="translate(-48.87 -108.96)"/><path class="cls-9" d="M109.38,223.06S89.63,222,85.14,208.39s-13.83-4-5.68,7.44C88.82,229,109.38,223.06,109.38,223.06Z" transform="translate(-48.87 -108.96)"/><path class="cls-3" d="M86.23,242.84s-18.54-7-28,3.6-14.24-2-2.29-9.13C69.71,229.08,86.23,242.84,86.23,242.84Z" transform="translate(-48.87 -108.96)"/></g></g></g></svg>