<svg xmlns="http://www.w3.org/2000/svg" xmlns:xlink="http://www.w3.org/1999/xlink" viewBox="0 0 832.98 269.24"><defs><style>.cls-1{fill:none;}.cls-2{clip-path:url(#clip-path);}.cls-3{fill:#c06;}.cls-4{fill:#222221;opacity:0.2;}.cls-11,.cls-5{fill:#fff;}.cls-5{opacity:0.15;}.cls-6{fill:#ea399a;}.cls-7{fill:#6cc;}.cls-8{fill:#abefed;}.cls-9{fill:#f66;}.cls-10{fill:#f99595;}</style><clipPath id="clip-path" transform="translate(0 -48.71)"><rect class="cls-1" x="67.44" width="721" height="318.39"/></clipPath></defs><title>vectorsAsset 19</title><g id="Layer_2" data-name="Layer 2"><g id="ev_pages" data-name="ev pages"><g class="cls-2"><path class="cls-3" d="M764.86,214.47a29,29,0,0,1-5.8-5.35c-3.25-11.08-4.93-27.43-4.18-43.42,5.85,5.42,9.56,2.94,9.55,3-3.88-3.47-6.84-9.06-8.75-14.09A196.23,196.23,0,0,1,766,109s3,7.45,8,17.53a27.76,27.76,0,0,1-1.63,3.86,5.61,5.61,0,0,0,3.18-.78,321.2,321.2,0,0,0,21.75,36.05,36.37,36.37,0,0,1-1.09,11.32s3.22-.35,5.57-4.88c4.88,6.95,9.21,12.94,11.7,17.6,4.84,9,3.63,18.46,1,26.89-2.19-2.75-4.57-2.65-4.58-2.65A37.34,37.34,0,0,1,811.19,225a74.92,74.92,0,0,1-5.73,10.49A48.29,48.29,0,0,1,790,236c1.12-5.33-1.26-7.62-1.27-7.63a32.17,32.17,0,0,1-4,6.62,33.92,33.92,0,0,1-23.43-19.55A5.07,5.07,0,0,0,764.86,214.47Z" transform="translate(0 -48.71)"/><path class="cls-4" d="M774,126.49a27.76,27.76,0,0,1-1.63,3.86,5.61,5.61,0,0,0,3.18-.78,321.2,321.2,0,0,0,21.75,36.05,36.37,36.37,0,0,1-1.09,11.32s3.22-.35,5.57-4.88c4.88,6.95,9.21,12.94,11.7,17.6,4.84,9,3.63,18.46,1,26.89-2.19-2.75-4.57-2.65-4.58-2.65A37.37,37.37,0,0,1,811.19,225a75.12,75.12,0,0,1-5.73,10.48A241.79,241.79,0,0,1,766,109S769,116.41,774,126.49Z" transform="translate(0 -48.71)"/><path class="cls-5" d="M758.07,138.22q5.58,2.67,11.22,5.05,4.53-4.16,9.19-8c2.45,4.53,5.17,9.26,8,14q-6.76,6.3-13.2,13.23-8.52-2.77-17-6.2c-.23-.55-.45-1.09-.65-1.62C756.28,148.85,757.1,143.32,758.07,138.22Z" transform="translate(0 -48.71)"/><path class="cls-5" d="M754.75,176.62a256.5,256.5,0,0,0,25.09,7.24h0a253.16,253.16,0,0,1,16.41-19.69c.33.49.67,1,1,1.45a36.37,36.37,0,0,1-1.09,11.32s3.22-.35,5.57-4.88c1.87,2.65,3.65,5.17,5.28,7.52a249.33,249.33,0,0,0-18.19,26.12h0a259.45,259.45,0,0,1-31.95-6.24A146.22,146.22,0,0,1,754.75,176.62Z" transform="translate(0 -48.71)"/><path class="cls-5" d="M797.93,223.2l.08.13a230.52,230.52,0,0,1,16-32.52,27.72,27.72,0,0,1,2.7,10.72q-3.16,6.09-6,12.47a3.58,3.58,0,0,0-.81-.1c.12.38.23.78.33,1.18-2.45,5.58-4.7,11.34-6.76,17.24l-.08-.13q-6.66-.57-13.4-1.55a5.53,5.53,0,0,0-1.2-2.26c-.28.65-.61,1.3-1,1.94q-9.24-1.41-18.57-3.58a33.24,33.24,0,0,1-7.94-11.28A244.83,244.83,0,0,0,797.93,223.2Z" transform="translate(0 -48.71)"/><path class="cls-6" d="M768.59,138.91a239.47,239.47,0,0,0,46,105,3.06,3.06,0,0,1-.21,4.25h0a2.92,2.92,0,0,1-4.1-1A242.52,242.52,0,0,1,768.59,138.91Z" transform="translate(0 -48.71)"/><path class="cls-7" d="M779.41,280.42a32.34,32.34,0,0,1-8,3.29c-12.66-1.44-29.8-7.16-44.83-15.89,8.15-2.5,7.56-7.08,7.6-7-5.22,1.79-12.06,1.6-17.82.62a152.29,152.29,0,0,1-36.26-34.9,178.8,178.8,0,0,0,20,3.7,31.63,31.63,0,0,1,2.58,3.58,5.54,5.54,0,0,0,1-3.17,183.29,183.29,0,0,0,43.33-.78,40.24,40.24,0,0,1,9.85,6.08s1.11-3.09-2-7.24c8.5-1.37,15.76-2.94,21.05-3.42,10.21-.95,18.51,3.53,25.69,8.87-3.44,1.17-4.25,3.47-4.25,3.48A42.8,42.8,0,0,1,808.64,240a82,82,0,0,1,8.28,8.82A46.23,46.23,0,0,1,811.64,264c-4.95-2.77-8.16-1.27-8.19-1.26a32.11,32.11,0,0,1,5.07,6.09,37.07,37.07,0,0,1-29.71,15.29A4.84,4.84,0,0,0,779.41,280.42Z" transform="translate(0 -48.71)"/><path class="cls-4" d="M700.12,230.21a31.63,31.63,0,0,1,2.58,3.58,5.54,5.54,0,0,0,1-3.17,183.29,183.29,0,0,0,43.33-.78,40.24,40.24,0,0,1,9.85,6.08s1.11-3.09-2-7.24c8.5-1.37,15.76-2.94,21.05-3.42,10.21-.95,18.51,3.53,25.69,8.87-3.44,1.17-4.25,3.47-4.25,3.48A42.8,42.8,0,0,1,808.64,240a82,82,0,0,1,8.28,8.82,166.89,166.89,0,0,1-136.81-22.34A178.8,178.8,0,0,0,700.12,230.21Z" transform="translate(0 -48.71)"/><path class="cls-5" d="M702.24,250.46q5.47-3.32,10.59-7-1.46-6.16-2.46-12.32c5.35.35,11,.47,16.68.3a180.15,180.15,0,0,0,5.6,18.3,184.42,184.42,0,0,1-14.39,11.9l-1.87-.28A152.45,152.45,0,0,1,702.24,250.46Z" transform="translate(0 -48.71)"/><path class="cls-5" d="M737.13,273.29A185.33,185.33,0,0,0,756,253.88h0a176,176,0,0,1-10.75-23.8l1.77-.24a40.24,40.24,0,0,1,9.85,6.08s1.11-3.09-2-7.24c3.24-.53,6.31-1.07,9.15-1.58a171.54,171.54,0,0,0,17,27.45h0a190,190,0,0,1-20.32,27.16A127.8,127.8,0,0,1,737.13,273.29Z" transform="translate(0 -48.71)"/><path class="cls-5" d="M801.9,252.22l.16,0a155.8,155.8,0,0,1-24.81-27,29.73,29.73,0,0,1,11,1.54q4.49,5.24,9.56,10.15a4,4,0,0,0-.4.74l1.26.09a155.62,155.62,0,0,0,14.39,12.16l-.16,0q-3.06,6.28-6.69,12.46a6.58,6.58,0,0,0-2.76.41c.55.49,1.06,1,1.57,1.57a186.41,186.41,0,0,1-11.27,16.53,37.31,37.31,0,0,1-14.92,3.28A182.76,182.76,0,0,0,801.9,252.22Z" transform="translate(0 -48.71)"/><path class="cls-8" d="M708.47,241.75a165.31,165.31,0,0,0,120.17.53c1.77-.68,3.66-.09,4.2,1.35h0c.55,1.44-.54,3.18-2.4,3.81A167.87,167.87,0,0,1,708.47,241.75Z" transform="translate(0 -48.71)"/><path class="cls-9" d="M763.42,252.52a30.45,30.45,0,0,1-8.09-1.5c-9.22-7.88-19.92-21.44-27.82-36.18,8,1.87,9.88-2.26,9.89-2.22-5.23-1.08-10.78-4.59-15.08-8.19a172.33,172.33,0,0,1-13.74-46.69s6.17,5.54,15.5,12.27a29.11,29.11,0,0,1,.46,4.29,5.48,5.48,0,0,0,2.41-2.25,232,232,0,0,0,37.15,20.86,38.27,38.27,0,0,1,5,10.34s2.56-2,2.17-7.17c7.82,3.37,14.69,6,19.32,8.59,9,4.91,13.23,13.39,15.94,21.88-3.41-1-5.34.42-5.35.43a39.63,39.63,0,0,1,7.55,8.43,82.09,82.09,0,0,1,1.47,12,47.28,47.28,0,0,1-12.63,9.36c-2.27-5.09-5.63-5.67-5.65-5.67a32.8,32.8,0,0,1,.54,7.86,35,35,0,0,1-31.58-3.65A5,5,0,0,0,763.42,252.52Z" transform="translate(0 -48.71)"/><path class="cls-4" d="M724.08,170a29.11,29.11,0,0,1,.46,4.29,5.48,5.48,0,0,0,2.41-2.25,232,232,0,0,0,37.15,20.86,38.27,38.27,0,0,1,5,10.34s2.56-2,2.17-7.17c7.82,3.37,14.69,6,19.32,8.59,9,4.91,13.23,13.39,15.94,21.88-3.41-1-5.34.42-5.35.43a39.87,39.87,0,0,1,7.55,8.43,82.09,82.09,0,0,1,1.47,12,196.39,196.39,0,0,1-101.66-89.67S714.75,163.28,724.08,170Z" transform="translate(0 -48.71)"/><path class="cls-5" d="M716,188.4q6.27-.3,12.4-1,1.85-6,4-11.75c4.39,2.86,9.14,5.71,14,8.4-1.79,6-3.33,12.14-4.6,18.41q-8.85,1.91-18,3.07c-.48-.37-1-.75-1.41-1.14A171.61,171.61,0,0,1,716,188.4Z" transform="translate(0 -48.71)"/><path class="cls-5" d="M733.31,224.68a211.78,211.78,0,0,0,25.61-6.76h0a208.21,208.21,0,0,1,3.56-25.74l1.61.72a38.27,38.27,0,0,1,5,10.34s2.56-2,2.17-7.17c3,1.29,5.83,2.48,8.47,3.59a206.75,206.75,0,0,0-1,32.19h0a214.94,214.94,0,0,1-30.9,11.89A137.18,137.18,0,0,1,733.31,224.68Z" transform="translate(0 -48.71)"/><path class="cls-5" d="M796.63,241.54l.14.07a188,188,0,0,1-5-36.28,28.54,28.54,0,0,1,8.17,7.46q.75,6.87,2.06,13.81a3.62,3.62,0,0,0-.74.38c.33.25.64.51,1,.79q1.77,9.07,4.49,18.22l-.15-.06q-5.92,3.36-12.19,6.39A5.83,5.83,0,0,0,792,251.1c.15.71.26,1.44.35,2.18q-8.67,4-17.92,7.38a35.05,35.05,0,0,1-13.45-5.34A204.77,204.77,0,0,0,796.63,241.54Z" transform="translate(0 -48.71)"/><path class="cls-10" d="M725.54,183.86A193.76,193.76,0,0,0,823,249a3.13,3.13,0,0,1,2.44,3.59h0a3,3,0,0,1-4,1.64A196.8,196.8,0,0,1,725.54,183.86Z" transform="translate(0 -48.71)"/><path class="cls-3" d="M104.7,210.86a45.19,45.19,0,0,0,8.91-8.21c5-17,7.57-42.17,6.42-66.74-9,8.33-14.69,4.52-14.68,4.58,6-5.32,10.52-13.92,13.44-21.65A301.3,301.3,0,0,0,103,48.71S98.41,60.16,90.73,75.65a42.66,42.66,0,0,0,2.5,5.94,8.66,8.66,0,0,1-4.89-1.21,494.38,494.38,0,0,1-33.43,55.41c-.2,5.76.06,11.94,1.69,17.39,0,0-5-.53-8.57-7.5-7.5,10.69-14.15,19.89-18,27-7.44,13.9-5.58,28.38-1.57,41.32,3.36-4.21,7-4.06,7-4.06-1.62,5.08-2,11.12-2,17a117.24,117.24,0,0,0,8.8,16.12A74.22,74.22,0,0,0,66,244c-1.72-8.19,1.94-11.7,1.95-11.72a49.31,49.31,0,0,0,6.23,10.17c13.35-3.34,28.2-12.09,36-30C106.49,212.54,104.7,210.86,104.7,210.86Z" transform="translate(0 -48.71)"/><path class="cls-4" d="M90.73,75.65a42.66,42.66,0,0,0,2.5,5.94,8.66,8.66,0,0,1-4.89-1.21,492.88,492.88,0,0,1-33.43,55.41c-.2,5.75.06,11.94,1.69,17.39,0,0-5-.53-8.57-7.5-7.5,10.69-14.15,19.89-18,27-7.44,13.9-5.58,28.38-1.57,41.32,3.36-4.21,7-4.06,7-4.06-1.62,5.08-2,11.12-2,17a117.24,117.24,0,0,0,8.8,16.12A371.48,371.48,0,0,0,103,48.71S98.41,60.16,90.73,75.65Z" transform="translate(0 -48.71)"/><path class="cls-5" d="M115.13,93.68q-8.58,4.11-17.24,7.76-7-6.37-14.13-12.34c-3.76,7-7.94,14.23-12.38,21.45q10.41,9.69,20.29,20.33,13.1-4.26,26.12-9.53c.34-.83.68-1.66,1-2.48C117.88,110,116.61,101.52,115.13,93.68Z" transform="translate(0 -48.71)"/><path class="cls-5" d="M120.23,152.7a394.88,394.88,0,0,1-38.56,11.12h0a387.17,387.17,0,0,0-25.22-30.26l-1.54,2.22c-.2,5.76.06,11.94,1.69,17.39,0,0-5-.53-8.57-7.5-2.87,4.08-5.6,7.95-8.11,11.56a383.56,383.56,0,0,1,28,40.14h0A399.82,399.82,0,0,0,117,187.78,226.5,226.5,0,0,0,120.23,152.7Z" transform="translate(0 -48.71)"/><path class="cls-5" d="M53.87,224.28l-.12.2a354.68,354.68,0,0,0-24.56-50A42.65,42.65,0,0,0,25,191q4.88,9.36,9.24,19.16a6,6,0,0,1,1.24-.15c-.19.59-.36,1.19-.51,1.81q5.64,12.87,10.39,26.5l.12-.2q10.24-.9,20.59-2.38A8.53,8.53,0,0,1,68,232.24c.44,1,.94,2,1.48,3Q83.65,233,98,229.73a51.36,51.36,0,0,0,12.21-17.34A377.64,377.64,0,0,1,53.87,224.28Z" transform="translate(0 -48.71)"/><path class="cls-6" d="M99,94.74A368.11,368.11,0,0,1,28.21,256.11c-1.65,2.15-1.52,5.09.32,6.53h0c1.84,1.45,4.71.77,6.3-1.51A372.59,372.59,0,0,0,99,94.74Z" transform="translate(0 -48.71)"/><path class="cls-7" d="M82.34,312.21a48.81,48.81,0,0,0,12.27,5.05c19.45-2.2,45.8-11,68.89-24.41C151,289,151.89,282,151.82,282c8,2.76,18.54,2.46,27.4,1a234.11,234.11,0,0,0,55.72-53.63,272.56,272.56,0,0,1-30.76,5.68,48.62,48.62,0,0,0-4,5.5,8.28,8.28,0,0,1-1.56-4.86c-20.29,2.28-45.25,1.79-66.59-1.2-5.31,2.47-10.83,5.47-15.14,9.34,0,0-1.7-4.76,3-11.13-13.06-2.11-24.22-4.51-32.34-5.26-15.71-1.46-28.46,5.43-39.49,13.63,5.28,1.81,6.53,5.34,6.54,5.36-5.51.21-11.52,1.82-17.28,3.71A128.28,128.28,0,0,0,24.68,263.7,71.17,71.17,0,0,0,32.8,287c7.6-4.26,12.54-1.95,12.58-1.94a49.55,49.55,0,0,0-7.79,9.36A57,57,0,0,0,83.25,318C81.44,314.54,82.34,312.21,82.34,312.21Z" transform="translate(0 -48.71)"/><path class="cls-4" d="M204.18,235.05a48.62,48.62,0,0,0-4,5.5,8.28,8.28,0,0,1-1.56-4.86c-20.29,2.28-45.25,1.79-66.59-1.2-5.31,2.47-10.83,5.47-15.14,9.34,0,0-1.7-4.76,3-11.13-13.06-2.11-24.22-4.51-32.34-5.26-15.71-1.46-28.46,5.43-39.49,13.63,5.28,1.81,6.53,5.34,6.54,5.36-5.51.21-11.52,1.82-17.28,3.71A128.28,128.28,0,0,0,24.68,263.7a256.49,256.49,0,0,0,210.26-34.33A272.56,272.56,0,0,1,204.18,235.05Z" transform="translate(0 -48.71)"/><path class="cls-5" d="M200.92,266.18q-8.4-5.12-16.27-10.69,2.23-9.48,3.78-18.93c-8.22.54-16.9.71-25.63.46a277.9,277.9,0,0,1-8.6,28.12,279.57,279.57,0,0,0,22.11,18.29c1-.13,1.93-.27,2.87-.43A234.23,234.23,0,0,0,200.92,266.18Z" transform="translate(0 -48.71)"/><path class="cls-5" d="M147.31,301.26a284.71,284.71,0,0,1-29-29.83h0a269.64,269.64,0,0,0,16.52-36.58l-2.72-.36c-5.31,2.47-10.83,5.47-15.14,9.34,0,0-1.7-4.76,3-11.13-5-.81-9.7-1.65-14.07-2.43a264.29,264.29,0,0,1-26.06,42.19h0a292,292,0,0,0,31.24,41.74A195.84,195.84,0,0,0,147.31,301.26Z" transform="translate(0 -48.71)"/><path class="cls-5" d="M47.76,268.88l-.24-.05a239.52,239.52,0,0,0,38.13-41.5,45.54,45.54,0,0,0-16.9,2.36q-6.89,8-14.69,15.6a6.67,6.67,0,0,1,.62,1.14c-.64,0-1.29.07-1.94.13a243.37,243.37,0,0,1-22.12,18.69l.25.06q4.69,9.66,10.28,19.16a10.06,10.06,0,0,1,4.23.62c-.83.76-1.63,1.57-2.41,2.42a287.31,287.31,0,0,0,17.33,25.4,57.34,57.34,0,0,0,22.93,5A280.79,280.79,0,0,1,47.76,268.88Z" transform="translate(0 -48.71)"/><path class="cls-8" d="M191.36,252.79a254.13,254.13,0,0,1-184.68.82c-2.72-1.05-5.63-.15-6.47,2.06h0c-.83,2.21.84,4.89,3.71,5.85A258,258,0,0,0,191.36,252.79Z" transform="translate(0 -48.71)"/><path class="cls-9" d="M106.91,269.33a46,46,0,0,0,12.42-2.3c14.18-12.11,30.62-32.95,42.76-55.6-12.28,2.88-15.18-3.48-15.2-3.4,8-1.67,16.57-7.06,23.18-12.59a264.64,264.64,0,0,0,21.11-71.76c0-.07-9.48,8.52-23.82,18.86a45.58,45.58,0,0,0-.71,6.59,8.53,8.53,0,0,1-3.7-3.46,355.74,355.74,0,0,1-57.09,32.06c-3.17,4.87-6.21,10.33-7.74,15.89,0,0-3.94-3.11-3.34-11-12,5.17-22.58,9.29-29.69,13.2-13.78,7.54-20.33,20.57-24.49,33.62,5.23-1.56,8.2.64,8.21.65-4.27,3.31-8.14,8.08-11.6,13A123.42,123.42,0,0,0,35,261.48a71.77,71.77,0,0,0,19.41,14.39C57.86,268,63,267.16,63,267.15a50.14,50.14,0,0,0-.82,12.09c13.29,4.78,31.31,5.69,48.53-5.61C107.47,271.76,106.91,269.33,106.91,269.33Z" transform="translate(0 -48.71)"/><path class="cls-4" d="M167.36,142.54a45.58,45.58,0,0,0-.71,6.59,8.53,8.53,0,0,1-3.7-3.46,355.74,355.74,0,0,1-57.09,32.06c-3.18,4.87-6.21,10.33-7.74,15.89,0,0-3.94-3.11-3.34-11-12,5.17-22.58,9.29-29.69,13.2-13.78,7.54-20.33,20.57-24.49,33.62,5.23-1.56,8.2.64,8.21.65-4.27,3.31-8.14,8.08-11.6,13A123.42,123.42,0,0,0,35,261.48a301.77,301.77,0,0,0,156.22-137.8C191.16,123.61,181.7,132.2,167.36,142.54Z" transform="translate(0 -48.71)"/><path class="cls-5" d="M179.84,170.79q-9.63-.43-19.05-1.45-2.85-9.19-6.17-18.07c-6.75,4.4-14.05,8.79-21.56,12.92q4.13,13.81,7.08,28.3,13.59,2.92,27.73,4.71c.74-.58,1.47-1.16,2.17-1.74A262.26,262.26,0,0,0,179.84,170.79Z" transform="translate(0 -48.71)"/><path class="cls-5" d="M153.18,226.55a325.82,325.82,0,0,1-39.36-10.38h0a321.16,321.16,0,0,0-5.48-39.56l-2.47,1.12c-3.17,4.87-6.21,10.33-7.74,15.89,0,0-3.94-3.11-3.34-11-4.59,2-9,3.79-13,5.51a315.42,315.42,0,0,1,1.52,49.47h0a331,331,0,0,0,47.49,18.28A211.49,211.49,0,0,0,153.18,226.55Z" transform="translate(0 -48.71)"/><path class="cls-5" d="M55.87,252.47l-.22.1a289.61,289.61,0,0,0,7.75-55.76,44.13,44.13,0,0,0-12.56,11.47q-1.16,10.54-3.16,21.22a5.64,5.64,0,0,1,1.13.58c-.5.39-1,.79-1.47,1.22q-2.72,13.95-6.9,28l.23-.09q9.11,5.18,18.73,9.81A9.25,9.25,0,0,1,63,267.15c-.23,1.09-.39,2.21-.53,3.35Q75.83,276.72,90,281.84a53.71,53.71,0,0,0,20.68-8.2A315.57,315.57,0,0,1,55.87,252.47Z" transform="translate(0 -48.71)"/><path class="cls-10" d="M165.12,163.82A297.88,297.88,0,0,1,15.33,263.89c-2.68.77-4.38,3.24-3.75,5.51h0c.64,2.28,3.45,3.44,6.18,2.52A302.38,302.38,0,0,0,165.12,163.82Z" transform="translate(0 -48.71)"/><path class="cls-11" d="M749.84,169.32s-7.52-16,1.92-36.77-6.25-21.26-12.71-4.75S739.58,163.51,749.84,169.32Z" transform="translate(0 -48.71)"/><path class="cls-3" d="M732.39,142.73s-6.94-12.74-21.45-17.45-13.45,6.22-2.31,8.45S726.29,138.8,732.39,142.73Z" transform="translate(0 -48.71)"/><path class="cls-7" d="M733.65,157.19s-20.3-11.06-33.49,0-19.49-6.9-2.46-13.1S733.65,157.19,733.65,157.19Z" transform="translate(0 -48.71)"/><path class="cls-7" d="M724.55,220.74s-12-5.31-14.4-22.32-16.39-15-13.21.73C701.23,220.39,724.55,220.74,724.55,220.74Z" transform="translate(0 -48.71)"/><path class="cls-11" d="M692.88,204.94s-5.15-6.51-2.49-18.16c1.72-7.52-7.59-4.36-6.89,5.69C684,199.87,692.88,204.94,692.88,204.94Z" transform="translate(0 -48.71)"/><path class="cls-11" d="M680.41,232.42s-8.85-5.27-22.53.22c-8.82,3.54-6.7-8.74,5.64-9.71C672.61,222.22,680.41,232.42,680.41,232.42Z" transform="translate(0 -48.71)"/><path class="cls-9" d="M710.51,223.06s-19.75-1.11-24.24-14.67-13.83-4-5.68,7.44C690,229,710.51,223.06,710.51,223.06Z" transform="translate(0 -48.71)"/><path class="cls-3" d="M687.36,242.84s-18.54-7-28,3.6-14.23-2-2.29-9.13C670.84,229.08,687.36,242.84,687.36,242.84Z" transform="translate(0 -48.71)"/><path class="cls-11" d="M127.78,141.47s11.55-24.64-3-56.5,9.6-32.67,19.52-7.3S143.55,132.55,127.78,141.47Z" transform="translate(0 -48.71)"/><path class="cls-3" d="M154.6,100.61s10.66-19.58,33-26.81,20.68,9.55,3.56,13S164,94.57,154.6,100.61Z" transform="translate(0 -48.71)"/><path class="cls-7" d="M152.66,122.83s31.19-17,51.46,0,30-10.6,3.79-20.12S152.66,122.83,152.66,122.83Z" transform="translate(0 -48.71)"/><path class="cls-7" d="M166.65,220.5s18.38-8.16,22.13-34.3,25.18-23.1,20.29,1.12C202.49,220,166.65,220.5,166.65,220.5Z" transform="translate(0 -48.71)"/><path class="cls-11" d="M215.31,196.22s7.91-10,3.82-27.91c-2.63-11.55,11.68-6.7,10.6,8.74C228.94,188.42,215.31,196.22,215.31,196.22Z" transform="translate(0 -48.71)"/><path class="cls-11" d="M234.47,238.45s13.61-8.1,34.63.34c13.56,5.44,10.3-13.43-8.67-14.92C246.46,222.77,234.47,238.45,234.47,238.45Z" transform="translate(0 -48.71)"/><path class="cls-9" d="M188.22,224.06s30.35-1.71,37.25-22.55,21.25-6.09,8.74,11.44C219.81,233.13,188.22,224.06,188.22,224.06Z" transform="translate(0 -48.71)"/><path class="cls-3" d="M223.79,254.46s28.49-10.77,43,5.54,21.87-3.05,3.51-14C249.18,233.32,223.79,254.46,223.79,254.46Z" transform="translate(0 -48.71)"/></g></g></g></svg>