<svg xmlns="http://www.w3.org/2000/svg" viewBox="0 0 134.37 168"><defs><style>.cls-1{fill:#ebebeb;}.cls-2{fill:#650032;}.cls-3{fill:#407bff;}.cls-11,.cls-4{opacity:0.5;}.cls-5,.cls-7,.cls-9{fill:#fff;}.cls-5,.cls-8{opacity:0.6;}.cls-6{fill:#263238;}.cls-12,.cls-7{opacity:0.2;}.cls-10{fill:#f9bbb2;}.cls-12{isolation:isolate;}.cls-13{fill:#ed847e;}.cls-14{fill:#2e353a;}.cls-15{fill:#de5753;}.cls-16{opacity:0.8;}</style></defs><title>vectorsAsset 14</title><g id="Layer_2" data-name="Layer 2"><g id="ev_pages" data-name="ev pages"><rect class="cls-1" x="114.26" y="158.24" width="5.01" height="0.14"/><ellipse id="_Path_" data-name="&lt;Path&gt;" class="cls-2" cx="67.18" cy="161.48" rx="67.18" ry="6.53"/><path class="cls-3" d="M57.69,94.25c0-4.59,6.63-8.31,14.82-8.31s14.82,3.72,14.82,8.31Z"/><path class="cls-3" d="M57.69,94.25c0-4.59,6.63-8.31,14.82-8.31s14.82,3.72,14.82,8.31Z"/><g class="cls-4"><path class="cls-3" d="M57.69,94.25c0-4.59,6.63-8.31,14.82-8.31s14.82,3.72,14.82,8.31Z"/><path d="M57.69,94.25c0-4.59,6.63-8.31,14.82-8.31s14.82,3.72,14.82,8.31Z"/></g><rect class="cls-3" x="56.53" y="94.25" width="31.69" height="9.58"/><rect class="cls-5" x="56.53" y="94.25" width="31.69" height="9.58"/><polygon class="cls-6" points="57.41 103.83 57.41 150.46 58.81 150.46 60.02 103.83 57.41 103.83"/><polygon class="cls-6" points="87.25 103.83 87.25 150.46 85.85 150.46 84.64 103.83 87.25 103.83"/><polygon class="cls-6" points="79.85 103.83 79.85 150.46 78.45 150.46 77.24 103.83 79.85 103.83"/><polygon class="cls-6" points="67.78 103.83 67.78 150.46 66.66 150.46 65.45 103.83 67.78 103.83"/><polygon class="cls-7" points="79.85 103.83 79.85 150.46 78.45 150.46 77.24 103.83 79.85 103.83"/><polygon class="cls-7" points="67.78 103.83 67.78 150.46 66.66 150.46 65.45 103.83 67.78 103.83"/><path class="cls-3" d="M71.83,144.63a103.42,103.42,0,0,1-13.06-.73c-5.36-.72-6.08-1.67-6.08-2.49s.72-1.77,6.08-2.49a103.42,103.42,0,0,1,13.06-.73,103.19,103.19,0,0,1,13.06.73c5.37.72,6.09,1.66,6.09,2.49s-.72,1.77-6.09,2.49A103.19,103.19,0,0,1,71.83,144.63ZM54.6,141.41c1.43.75,7.8,1.7,17.23,1.7s15.81-1,17.23-1.7c-1.42-.75-7.79-1.7-17.23-1.7S56,140.66,54.6,141.41Z"/><g class="cls-8"><path class="cls-9" d="M71.72,144.63a103.42,103.42,0,0,1-13.06-.73c-5.36-.72-6.09-1.67-6.09-2.49s.73-1.77,6.09-2.49a103.42,103.42,0,0,1,13.06-.73,103.19,103.19,0,0,1,13.06.73c5.37.72,6.09,1.66,6.09,2.49s-.72,1.77-6.09,2.49A103.19,103.19,0,0,1,71.72,144.63Zm-17.23-3.22c1.43.75,7.8,1.7,17.23,1.7s15.81-1,17.23-1.7c-1.42-.75-7.79-1.7-17.23-1.7S55.91,140.66,54.49,141.41Z"/></g><path class="cls-6" d="M70.45,39.69a.87.87,0,0,0-.08.1h-.11Z"/><path class="cls-6" d="M81.74,48.82l0,0h0Z"/><path class="cls-6" d="M63.79,8.58a1.77,1.77,0,0,0-.45.84.75.75,0,0,0,.37.81.92.92,0,0,0,.92-.25,4.92,4.92,0,0,0,1.29-3s-1,.52-1.08.59A7.17,7.17,0,0,0,63.79,8.58Z"/><path class="cls-3" d="M69.15,69a25.75,25.75,0,0,0-.66,12.72c1.79,8.18,22,9.33,30.65,10.53-3.92,14.56-12.81,44.59-12.81,44.59l6.19.86s17.46-32,20.3-46.46c2.6-13.19-27.65-20-27.65-20Z"/><path class="cls-6" d="M92.8,137.86a16.32,16.32,0,0,0,7.58,4.19c1,.28.86,2.64-1.52,2.44s-5.84-.67-7.56-.81c-2.8-.24-3.87-.19-6.09-.34a1,1,0,0,1-.91-1.09l.73-5h0a.4.4,0,0,1,.45-.34l6.37.53A1.64,1.64,0,0,1,92.8,137.86Z"/><path class="cls-3" d="M93.88,141.55c.26-.32.17-1.15,0-1.86,0-.17-.07-.34-.11-.49-.08-.34-.16-.6-.18-.67a.13.13,0,0,0-.11-.09.14.14,0,0,0-.1,0,.08.08,0,0,1,0,0v0h0a8.07,8.07,0,0,0-.46,1.52h0a1.94,1.94,0,0,0,.08,1.28.67.67,0,0,0,.55.33A.38.38,0,0,0,93.88,141.55Zm-.69-.33a2.21,2.21,0,0,1,0-1.49h0c.06-.24.14-.51.24-.8a3.74,3.74,0,0,1,.12.45,6.27,6.27,0,0,1,.19,1.78.39.39,0,0,1-.08.21.15.15,0,0,1-.15.06A.49.49,0,0,1,93.19,141.22Z"/><path class="cls-3" d="M95.42,140.27a.84.84,0,0,0-.07-.71,2.31,2.31,0,0,0-1-.81,4.92,4.92,0,0,0-.8-.31.15.15,0,0,0-.13,0s0,0,0,0a.08.08,0,0,1,0,0v0h0v0a3.37,3.37,0,0,0,.31.72,3.72,3.72,0,0,0,.22.38c.34.51.76.95,1.1,1C95.13,140.64,95.32,140.6,95.42,140.27Zm-1.53-1.15a2.48,2.48,0,0,1-.17-.38,3.12,3.12,0,0,1,.43.15h0a2.72,2.72,0,0,1,1,.78.57.57,0,0,1,0,.44h0v.07c-.07.21-.16.21-.18.2C94.73,140.39,94.2,139.74,93.89,139.12Z"/><path class="cls-3" d="M60.35,71.27s-30.25,6.82-27.66,20C35.53,105.72,53,137.74,53,137.74l6.19-.86s-8.89-30-12.81-44.59C55,91.09,75.24,89.94,77,81.76A25.64,25.64,0,0,0,76.36,69Z"/><path class="cls-6" d="M53.67,137.42l6.37-.53a.4.4,0,0,1,.45.34h0l.73,5a1,1,0,0,1-.91,1.09c-2.22.15-3.29.1-6.09.34-1.72.14-5.18.61-7.56.81s-2.51-2.16-1.52-2.44a16.32,16.32,0,0,0,7.58-4.19A1.61,1.61,0,0,1,53.67,137.42Z"/><path class="cls-6" d="M77.91,35.63a3.91,3.91,0,0,1,7.57-2v.07c.59,2.07,1.23,4.26,1.91,6.39s1.42,4.24,2.21,6.3a61.37,61.37,0,0,0,2.62,5.93A28.36,28.36,0,0,0,93.76,55a11.58,11.58,0,0,0,1.66,2l-.31-.23a2,2,0,0,0-.91-.34h-.13a2,2,0,0,0,.64-.08,13.44,13.44,0,0,0,2-.68c1.44-.6,3-1.34,4.48-2.12s3-1.62,4.54-2.45,3-1.72,4.56-2.55h0a2,2,0,0,1,2.34.35c.75.77,1.67,2,.89,2.78-1.32,1.27-3.59,2.42-5,3.57s-2.82,2.26-4.31,3.32a46.9,46.9,0,0,1-4.74,3,21,21,0,0,1-2.86,1.28,8.75,8.75,0,0,1-2,.47,5.86,5.86,0,0,1-1.45,0,4.85,4.85,0,0,1-2.14-.77l-.21-.15-.09-.08a18.71,18.71,0,0,1-3-3.13A31.85,31.85,0,0,1,85.71,56a53.22,53.22,0,0,1-3.29-6.64c-1-2.24-1.77-4.5-2.52-6.77-.37-1.14-.72-2.27-1.06-3.43s-.64-2.28-.94-3.52Z"/><path class="cls-9" d="M111.84,51.86l1.74-.16s-.69-3.45-2-4.64a10.46,10.46,0,0,0-1.74,2.13A2.9,2.9,0,0,0,111.84,51.86Z"/><path class="cls-10" d="M111.93,47.65a1.43,1.43,0,0,0-.45,1.85l.52,1a1.44,1.44,0,0,0,1.24.78l4.54.19,2.73-2.84a1.18,1.18,0,0,0,.16-1.41l-.94-1.56a1.16,1.16,0,0,0-1.46-.46l-2,.86A16,16,0,0,0,111.93,47.65Z"/><path class="cls-6" d="M80.81,29.79a94.1,94.1,0,0,0-21.87,0h-.1a3.55,3.55,0,0,0-2.91,4.08c2,11.9,4,24.08,3.87,37.05l25.33.24c2.4-18.72,1.22-31.13.31-36.88A5.44,5.44,0,0,0,80.81,29.79Z"/><path class="cls-3" d="M33.77,65.33c-2-7.69-3.72-30,25.17-22.45,2.46.65,4.91,1.26,7.21.17L68.46,42c5.53-2.48,11.75-.56,13.11,4.63l3,11.61c1.36,5.2-3.11,9.91-9.16,10.47l-2.54.19c-2.53.17-4.37,1.91-6.19,3.68C45.27,93.34,35.81,73.15,33.77,65.33Z"/><path class="cls-5" d="M33.77,65.33c-2-7.69-3.72-30,25.17-22.45,2.46.65,4.91,1.26,7.21.17L68.46,42c5.53-2.48,11.75-.56,13.11,4.63l3,11.61c1.36,5.2-3.11,9.91-9.16,10.47l-2.54.19c-2.53.17-4.37,1.91-6.19,3.68C45.27,93.34,35.81,73.15,33.77,65.33Z"/><path class="cls-11" d="M62.05,60.39,62.77,63a5.63,5.63,0,0,0,7.87,3.54,26.91,26.91,0,0,0,5-3.07,34.07,34.07,0,0,0,7.75-8.62Z"/><path class="cls-6" d="M73.16,55.18a4.71,4.71,0,1,1-5.75-3.36A4.71,4.71,0,0,1,73.16,55.18Z"/><rect class="cls-3" x="72.4" y="46.28" width="46.58" height="6.05" transform="translate(-9.37 25.86) rotate(-14.68)"/><polygon class="cls-3" points="119.1 46.84 117.39 40.3 129.32 36.32 131.46 44.45 119.1 46.84"/><polygon class="cls-7" points="119.1 46.84 117.39 40.3 129.32 36.32 131.46 44.45 119.1 46.84"/><rect class="cls-9" x="48.54" y="55.54" width="3.75" height="11.59" transform="translate(-13.9 14.78) rotate(-14.68)"/><rect class="cls-9" x="48.27" y="50.3" width="70.59" height="0.29" transform="matrix(0.97, -0.25, 0.25, 0.97, -10.07, 22.87)"/><rect class="cls-9" x="48.62" y="51.64" width="70.59" height="0.29" transform="translate(-10.39 22.98) rotate(-14.69)"/><rect class="cls-9" x="48.98" y="52.99" width="70.59" height="0.29" transform="translate(-10.71 23.09) rotate(-14.68)"/><rect class="cls-9" x="49.33" y="54.33" width="70.59" height="0.29" transform="translate(-11.05 23.24) rotate(-14.69)"/><path class="cls-9" d="M127.83,38.85a.55.55,0,0,1-.39.67.56.56,0,0,1-.68-.39.55.55,0,0,1,1.07-.28Z"/><path class="cls-9" d="M129,43.23a.54.54,0,0,1-.39.67.55.55,0,1,1,.39-.67Z"/><path class="cls-9" d="M121.24,40.57a.55.55,0,1,1-.67-.39A.54.54,0,0,1,121.24,40.57Z"/><path class="cls-9" d="M122.25,44.42a.56.56,0,0,1-.39.68.55.55,0,1,1,.39-.68Z"/><path class="cls-6" d="M56,30.88a3.91,3.91,0,0,1,4.17,6.61l0,0c-3,2-6,4.05-8.86,6.18a68.25,68.25,0,0,0-8,6.75c-.29.29-.55.58-.82.88l-.38.44a2.29,2.29,0,0,0,.37-1,3,3,0,0,0-.09-.95,2.39,2.39,0,0,0-.29-.68,1,1,0,0,0-.35-.37c-.05,0,.15.18.42.31a12.74,12.74,0,0,0,2.1.83c.8.26,1.63.5,2.49.73,3.42.88,7.08,1.59,10.67,2.32l0,0a1.95,1.95,0,0,1-.28,3.86,70.21,70.21,0,0,1-11.51-.25c-1-.11-2-.25-3-.44a18.83,18.83,0,0,1-3.21-.88,8.17,8.17,0,0,1-2-1.06,5.38,5.38,0,0,1-1.3-1.39,3.56,3.56,0,0,1-.34-.6,4,4,0,0,1-.26-.73,4.43,4.43,0,0,1-.11-1.62,5,5,0,0,1,.93-2.3l.49-.66c.32-.42.65-.85,1-1.24a46.51,46.51,0,0,1,4.21-4.33C43.47,40,45,38.7,46.48,37.52s3-2.34,4.63-3.44,3.12-2.15,4.82-3.18Z"/><path class="cls-10" d="M65.56,29.32a.87.87,0,0,0,0,1.09c1,1.08,3.54,3.28,8.48,3.28,3.36,0,3.75-1.19,3.41-2.26a3.13,3.13,0,0,0-2-2c-2.45-.94-2.89-2.8-2.69-4.81A11.76,11.76,0,0,1,73.07,23L68.89,19.5l-3.06-2.56C66.63,20.4,67.51,26.54,65.56,29.32Z"/><path class="cls-3" d="M75.52,34.23a4.68,4.68,0,0,1-1.78-.55,9.3,9.3,0,0,1-2.65,1,3.33,3.33,0,0,1,1.76-2.07,3.51,3.51,0,0,1,.93.87,1.93,1.93,0,0,1,.43-.87S75.48,33.12,75.52,34.23Z"/><path class="cls-9" d="M65.64,28.24a8.19,8.19,0,0,0-2.27.7c-.38,5.33,7.79,7.38,7.79,7.38a7.85,7.85,0,0,1,1.69-3.73C67.39,31.44,65.64,28.24,65.64,28.24Z"/><path class="cls-9" d="M74,28.53a11.46,11.46,0,0,1,2.17.45c4.08,3.5-.11,7.34-.11,7.34a8.7,8.7,0,0,0-1.8-3.73C76.67,30.73,74,28.53,74,28.53Z"/><path class="cls-12" d="M68.91,19.48a7.77,7.77,0,0,0,0,1.6c.2,1.59,2.28,3.24,3.84,3.55A12,12,0,0,1,73.07,23Z"/><path class="cls-10" d="M64.66,8.24a6.59,6.59,0,0,1,8.2-4.44c5.15,1.39,7,8.63,6.57,13.19a6.5,6.5,0,0,1-10.54,4.69c-2.89-2.23-3.26-5.15-4.33-10A6.64,6.64,0,0,1,64.66,8.24Z"/><path class="cls-10" d="M64.46,13.31c1.27-.32,2.64,1.15,3.19,2.27s.19,2.51-1.2,2.26a4.44,4.44,0,0,1-2.68-1.66C63,15.08,63.18,13.63,64.46,13.31Z"/><path class="cls-6" d="M73.31,11.33c.27-.06.54.24.6.64s-.11.76-.37.79-.53-.27-.59-.67S73.05,11.4,73.31,11.33Z"/><path class="cls-6" d="M77.88,10.73c.26,0,.53.27.59.67s-.11.72-.37.78-.52-.23-.59-.64S77.61,10.76,77.88,10.73Z"/><path class="cls-13" d="M76.41,15A2,2,0,0,0,78,14.57a12.63,12.63,0,0,1-1.92-2.87Z"/><path class="cls-6" d="M71.37,9.7a1.8,1.8,0,0,1,1.57-.64.24.24,0,0,0,.27-.2.23.23,0,0,0-.2-.27,2.26,2.26,0,0,0-2,.79h0a.24.24,0,0,0,0,.34.23.23,0,0,0,.1,0A.24.24,0,0,0,71.37,9.7Z"/><path class="cls-6" d="M79.26,9.43a.24.24,0,0,0,0-.33,2.46,2.46,0,0,0-2.13-.56h0a.25.25,0,0,0-.17.3.24.24,0,0,0,.3.16,2,2,0,0,1,1.7.46.25.25,0,0,0,.22,0A.25.25,0,0,0,79.26,9.43Z"/><path class="cls-10" d="M58,52.4l-2.82,1.51c-1.19,2.07,3,4,3,4l2.33,2.15a1.92,1.92,0,0,0,2.24.28l.61-.34h0a1.92,1.92,0,0,0,.7-2.62l-1.78-3.09Z"/><path class="cls-9" d="M54.85,56.63l1.59.73s1.38-3.75,1-5.56A12.26,12.26,0,0,0,54.67,53,3.2,3.2,0,0,0,54.85,56.63Z"/><path class="cls-6" d="M66.52,2.14c2.11-1,4.55-.89,6.86-.63a13,13,0,0,0,3.29.12A3.69,3.69,0,0,0,79.4,0c.76,2.08.59,4.66-1,6.17a6.45,6.45,0,0,1-4.58,1.39c-1.63,0-3.25-.38-4.88-.37-2,0-5.21,2.78-5.63,0C63,5.08,64.69,3,66.52,2.14Z"/><path class="cls-6" d="M68.9,8.2a.49.49,0,0,0-.64-.47l-3.87.46c-.79.24-1.25,1.3-1.49,2.09a14.34,14.34,0,0,0-.66,3,6.35,6.35,0,0,0,1,4.26,7.38,7.38,0,0,1,1.25,1.82c.24.71-.11,1.69-.86,1.73,3.9,1.95,3.21-1.57,3.32-3.26a2.5,2.5,0,0,1-2.65-2,2.92,2.92,0,0,1,.82-2.44.94.94,0,0,1,1.27-.17c-.08,1.61.82,3.33,1.58,4.74l.85-1.35c-1-1.44-2.47-4-.7-4.77C68.89,11.6,68.89,9.4,68.9,8.2Z"/><path class="cls-14" d="M77,16.5A22.31,22.31,0,0,0,76.88,19c-.12,0-.24.05-.37.06-1.66.23-2.51-.34-3-1a3.45,3.45,0,0,1-.45-1.88,6.64,6.64,0,0,0,3.36.38C76.8,16.54,77,16.5,77,16.5Z"/><path class="cls-9" d="M76.46,16.57l0,.37a.46.46,0,0,1-.41.42A4.24,4.24,0,0,1,73.29,17a.41.41,0,0,1-.18-.32,2.9,2.9,0,0,1,0-.51A6.64,6.64,0,0,0,76.46,16.57Z"/><path class="cls-15" d="M76.51,19.1c-1.66.23-2.51-.34-3-1a4.5,4.5,0,0,1,1.9.19A2.16,2.16,0,0,1,76.51,19.1Z"/><polygon class="cls-3" points="84.67 136.71 94.38 138.41 95.82 135.51 84.27 133.5 84.67 136.71"/><polygon class="cls-5" points="84.67 136.71 94.38 138.41 95.82 135.51 84.27 133.5 84.67 136.71"/><path class="cls-3" d="M51.83,139.25c.26-.35.49-.69.6-.86a.58.58,0,0,0,.07-.11s0,0,0,0h0a.25.25,0,0,0,0-.12.16.16,0,0,0-.11-.05h0a.07.07,0,0,0-.06,0l-.34.09c-.75.21-1.74.57-2,1.11l-.05.06a.81.81,0,0,0,.11.78.52.52,0,0,0,.43.24C50.87,140.35,51.41,139.79,51.83,139.25Zm-1.37.83a.21.21,0,0,1-.19-.11.54.54,0,0,1-.08-.52c.15-.36.82-.75,1.87-1C51.59,139.19,50.87,140.09,50.46,140.08Z"/><path class="cls-3" d="M52.91,140.6a3.38,3.38,0,0,0-.31-2.15h0a2.16,2.16,0,0,0-.09-.2h0l0-.08a.12.12,0,0,0-.09-.09h0a.07.07,0,0,0-.06,0l-.06,0-.07.16,0,.06a4.39,4.39,0,0,0-.31.91,2.27,2.27,0,0,0,0,1.65.5.5,0,0,0,.6.16A.76.76,0,0,0,52.91,140.6Zm-.53.17c-.17.07-.24,0-.28-.05-.26-.33-.06-1.51.25-2.18a3.23,3.23,0,0,1,.32,2s0,0,0,0A.39.39,0,0,1,52.38,140.77Z"/><polygon class="cls-3" points="51.23 138.38 61.02 137.24 61.58 134.05 49.94 135.41 51.23 138.38"/><polygon class="cls-5" points="51.23 138.38 61.02 137.24 61.58 134.05 49.94 135.41 51.23 138.38"/><circle class="cls-3" cx="91.65" cy="19.47" r="6.58" transform="translate(13.07 70.51) rotate(-45)"/><circle class="cls-5" cx="91.65" cy="19.47" r="6.58" transform="translate(13.07 70.51) rotate(-45)"/><path class="cls-6" d="M91.65,26.65a7.16,7.16,0,1,1,7.16-7.15A7.16,7.16,0,0,1,91.65,26.65Zm0-13.16a6,6,0,1,0,6,6A6,6,0,0,0,91.65,13.49Z"/><path class="cls-6" d="M99,20.61a3.14,3.14,0,1,1-3.14-3.14A3.15,3.15,0,0,1,99,20.61Z"/><path class="cls-6" d="M95.84,31.38a3.53,3.53,0,0,1-2.92-1.55l1-.66h0a2.35,2.35,0,0,0,2,1h0a2.34,2.34,0,0,0,2-1,.59.59,0,0,1,.8-.16.58.58,0,0,1,.15.8,3.52,3.52,0,0,1-2.91,1.57Z"/><path class="cls-3" d="M92.9,21.31l5.88.05-.6,11.51-.12.07a4,4,0,0,1-4.45,0l-.11-.07Z"/><path class="cls-11" d="M92.9,21.31l5.88.05-.6,11.51-.12.07a4,4,0,0,1-4.45,0l-.11-.07Z"/><rect class="cls-3" x="92.71" y="20.63" width="6.28" height="0.98"/><rect class="cls-3" x="92.71" y="20.63" width="6.28" height="0.98"/><rect class="cls-3" x="92.71" y="20.63" width="6.28" height="0.98"/><g class="cls-16"><rect class="cls-7" x="92.71" y="20.63" width="6.28" height="0.98"/></g><path class="cls-3" d="M96.82,25.35a1.25,1.25,0,1,1-.19-1.76A1.24,1.24,0,0,1,96.82,25.35Z"/><path class="cls-5" d="M97,24.08a1.27,1.27,0,0,1-1.9,1.52.83.83,0,0,1-.29-.3,1.27,1.27,0,0,1,1.51-1.9A1.17,1.17,0,0,1,97,24.08Z"/><path class="cls-3" d="M96.38,24a.27.27,0,0,1-.53,0,.27.27,0,1,1,.53,0Z"/><path class="cls-6" d="M95.69,39H95a3.89,3.89,0,0,1-3-1.41,4,4,0,0,1-.88-2.47V26.06h1.16v9.07a2.72,2.72,0,0,0,.62,1.73,2.68,2.68,0,0,0,2.1,1h.74Z"/><path class="cls-6" d="M90.12,157.25a.61.61,0,0,1-.42-.17.58.58,0,0,1,0-.82l5.54-5.36V33.63a.58.58,0,0,1,.58-.58.57.57,0,0,1,.57.58V151.15a.57.57,0,0,1-.17.41l-5.72,5.53A.57.57,0,0,1,90.12,157.25Z"/><path class="cls-6" d="M101,157.25a.56.56,0,0,1-.42-.18l-4.13-4.45v3.63a.57.57,0,0,1-.57.57.58.58,0,0,1-.58-.57v-5.1a.59.59,0,0,1,.37-.54.57.57,0,0,1,.63.15l5.12,5.53a.57.57,0,0,1,0,.81A.58.58,0,0,1,101,157.25Z"/></g></g></svg>