<svg xmlns="http://www.w3.org/2000/svg" xmlns:xlink="http://www.w3.org/1999/xlink" viewBox="0 0 165.9 165.06"><defs><style>.cls-1{mask:url(#mask);filter:url(#luminosity-noclip-2);}.cls-2{mix-blend-mode:multiply;fill:url(#linear-gradient);}.cls-3{fill:url(#linear-gradient-2);}.cls-4{fill:url(#linear-gradient-3);}.cls-5{fill:url(#linear-gradient-4);}.cls-6{fill:url(#linear-gradient-5);}.cls-7{fill:url(#linear-gradient-6);}.cls-8{mask:url(#mask-2);}.cls-9{opacity:0.71;fill:url(#linear-gradient-7);}.cls-10{fill:url(#linear-gradient-8);}.cls-11,.cls-15{fill:#fff;}.cls-11{opacity:0.53;}.cls-12{fill:url(#linear-gradient-9);}.cls-13{fill:url(#linear-gradient-10);}.cls-14{fill:url(#linear-gradient-11);}.cls-16{fill:url(#linear-gradient-12);}.cls-17{fill:url(#_55);}.cls-18{fill:url(#linear-gradient-13);}.cls-19{fill:url(#linear-gradient-14);}.cls-20{fill:url(#linear-gradient-15);}.cls-21{fill:url(#linear-gradient-16);}.cls-22{fill:url(#linear-gradient-17);}.cls-23{fill:url(#linear-gradient-18);}.cls-24{fill:url(#_109);}.cls-25{fill:url(#linear-gradient-19);}.cls-26{fill:url(#linear-gradient-20);}.cls-27{fill:url(#linear-gradient-21);}.cls-28{fill:url(#linear-gradient-22);}.cls-29{fill:url(#linear-gradient-23);}.cls-30{fill:url(#linear-gradient-24);}.cls-31{fill:url(#_109-2);}.cls-32{fill:url(#linear-gradient-25);}.cls-33{fill:url(#linear-gradient-26);}.cls-34{fill:url(#linear-gradient-27);}.cls-35{fill:url(#linear-gradient-28);}.cls-36{fill:url(#linear-gradient-29);}.cls-37{fill:url(#linear-gradient-30);}.cls-38{fill:url(#linear-gradient-31);}.cls-39{fill:url(#linear-gradient-32);}.cls-40{fill:url(#linear-gradient-33);}.cls-41{fill:url(#linear-gradient-34);}.cls-42{fill:url(#linear-gradient-35);}.cls-43{fill:url(#linear-gradient-36);}.cls-44{fill:url(#linear-gradient-37);}.cls-45{fill:url(#linear-gradient-38);}.cls-46{fill:url(#_104);}.cls-47{fill:url(#linear-gradient-39);}.cls-48{fill:url(#linear-gradient-40);}.cls-49{fill:url(#linear-gradient-41);}.cls-50{fill:url(#linear-gradient-42);}.cls-51{fill:url(#linear-gradient-43);}.cls-52{fill:url(#linear-gradient-44);}.cls-53{fill:url(#linear-gradient-45);}.cls-54{fill:url(#linear-gradient-46);}.cls-55{fill:url(#linear-gradient-47);}.cls-56{fill:url(#linear-gradient-48);}.cls-57{fill:url(#linear-gradient-49);}.cls-58{fill:url(#linear-gradient-50);}.cls-59{fill:url(#linear-gradient-51);}.cls-60{filter:url(#luminosity-noclip);}</style><filter id="luminosity-noclip" x="33.38" y="-10723.13" width="90.89" height="32766" filterUnits="userSpaceOnUse" color-interpolation-filters="sRGB"><feFlood flood-color="#fff" result="bg"/><feBlend in="SourceGraphic" in2="bg"/></filter><mask id="mask" x="33.38" y="-10723.13" width="90.89" height="32766" maskUnits="userSpaceOnUse"><g class="cls-60"/></mask><linearGradient id="linear-gradient" x1="78.91" y1="60.09" x2="-13.84" y2="250.73" gradientUnits="userSpaceOnUse"><stop offset="0" stop-color="#fff"/><stop offset="1"/></linearGradient><linearGradient id="linear-gradient-2" x1="-1471.65" y1="120.75" x2="-1500.24" y2="283.79" gradientTransform="translate(1513)" gradientUnits="userSpaceOnUse"><stop offset="0" stop-color="#2b3582"/><stop offset="1" stop-color="#150e42"/></linearGradient><linearGradient id="linear-gradient-3" x1="-1411.17" y1="131.36" x2="-1439.76" y2="294.4" xlink:href="#linear-gradient-2"/><linearGradient id="linear-gradient-4" x1="-1440.24" y1="126.26" x2="-1468.83" y2="289.3" xlink:href="#linear-gradient-2"/><linearGradient id="linear-gradient-5" x1="83.95" y1="21.13" x2="50.72" y2="233.62" gradientTransform="matrix(1, 0, 0, 1, 0, 0)" xlink:href="#linear-gradient-2"/><linearGradient id="linear-gradient-6" x1="128.02" y1="-44.74" x2="-22.05" y2="267.53" gradientUnits="userSpaceOnUse"><stop offset="0" stop-color="#53d8ff"/><stop offset="1" stop-color="#3840f7"/></linearGradient><filter id="luminosity-noclip-2" x="33.38" y="9.33" width="90.89" height="102.14" filterUnits="userSpaceOnUse" color-interpolation-filters="sRGB"><feFlood flood-color="#fff" result="bg"/><feBlend in="SourceGraphic" in2="bg"/></filter><mask id="mask-2" x="33.38" y="9.33" width="90.89" height="102.14" maskUnits="userSpaceOnUse"><g class="cls-1"><path class="cls-2" d="M37.21,10.91l68.32-1.58a3.93,3.93,0,0,1,4,3.31l14.72,92.44a3.93,3.93,0,0,1-3.79,4.54l-75.67,1.85a3.92,3.92,0,0,1-4-3.62l-7.36-92.7A3.93,3.93,0,0,1,37.21,10.91Z"/></g></mask><linearGradient id="linear-gradient-7" x1="78.91" y1="60.09" x2="-13.84" y2="250.73" gradientUnits="userSpaceOnUse"><stop offset="0" stop-color="#fff"/><stop offset="1" stop-color="#fff"/></linearGradient><linearGradient id="linear-gradient-8" x1="72.81" y1="5.16" x2="80.5" y2="91.07" gradientUnits="userSpaceOnUse"><stop offset="0" stop-color="#fdf53f"/><stop offset="1" stop-color="#d93c65"/></linearGradient><linearGradient id="linear-gradient-9" x1="6237.9" y1="108.71" x2="6248.14" y2="108.71" gradientTransform="matrix(-1, 0, 0, 1, 6397.54, 0)" gradientUnits="userSpaceOnUse"><stop offset="0" stop-color="#f9b776"/><stop offset="1" stop-color="#f47960"/></linearGradient><linearGradient id="linear-gradient-10" x1="188.8" y1="265.77" x2="214.97" y2="296.8" gradientTransform="translate(-73.32 -236.83) rotate(4.7)" xlink:href="#linear-gradient-8"/><linearGradient id="linear-gradient-11" x1="5450.23" y1="259.24" x2="5411.57" y2="302.93" gradientTransform="matrix(-1, -0.08, -0.08, 1, 5537.9, 224.29)" gradientUnits="userSpaceOnUse"><stop offset="0" stop-color="#cb236d"/><stop offset="1" stop-color="#4c246d"/></linearGradient><linearGradient id="linear-gradient-12" x1="164.02" y1="91.22" x2="195.7" y2="74.01" gradientTransform="matrix(1, 0, 0, 1, 0, 0)" xlink:href="#linear-gradient-2"/><linearGradient id="_55" x1="5408.34" y1="292.66" x2="5425.61" y2="292.66" gradientTransform="matrix(-1, -0.08, -0.08, 1, 5537.9, 224.29)" gradientUnits="userSpaceOnUse"><stop offset="0" stop-color="#18459f"/><stop offset="0.99" stop-color="#2874b5"/></linearGradient><linearGradient id="linear-gradient-13" x1="6248.19" y1="161.35" x2="6255.87" y2="161.35" gradientTransform="matrix(-1, 0, 0, 1, 6397.54, 0)" xlink:href="#linear-gradient-2"/><linearGradient id="linear-gradient-14" x1="6267.4" y1="152.3" x2="6239.49" y2="174.22" gradientTransform="matrix(-1, 0, 0, 1, 6397.54, 0)" xlink:href="#linear-gradient-6"/><linearGradient id="linear-gradient-15" x1="6250.33" y1="152.62" x2="6248.86" y2="165.41" xlink:href="#linear-gradient-9"/><linearGradient id="linear-gradient-16" x1="6272.36" y1="158.62" x2="6244.45" y2="180.54" gradientTransform="matrix(-1, 0, 0, 1, 6397.54, 0)" xlink:href="#linear-gradient-6"/><linearGradient id="linear-gradient-17" x1="6259.88" y1="161.56" x2="6270.92" y2="161.56" gradientTransform="matrix(-1, 0, 0, 1, 6397.54, 0)" xlink:href="#linear-gradient-2"/><linearGradient id="linear-gradient-18" x1="6262.26" y1="153.99" x2="6260.8" y2="166.78" xlink:href="#linear-gradient-9"/><linearGradient id="_109" x1="6279.68" y1="95.5" x2="6232.8" y2="168.24" gradientTransform="matrix(-1, 0, 0, 1, 6397.54, 0)" gradientUnits="userSpaceOnUse"><stop offset="0.1" stop-color="#cb236d"/><stop offset="0.94" stop-color="#4c246d"/></linearGradient><linearGradient id="linear-gradient-19" x1="5483.38" y1="78.98" x2="5475.32" y2="157.88" gradientTransform="matrix(-1, 0, 0, 1, 5629.77, 0)" xlink:href="#linear-gradient-8"/><linearGradient id="linear-gradient-20" x1="6253.56" y1="69.86" x2="6247.97" y2="94.05" xlink:href="#linear-gradient-9"/><linearGradient id="linear-gradient-21" x1="5351.46" y1="1565.09" x2="5341.53" y2="1578.22" gradientTransform="matrix(-0.69, -0.73, -0.73, 0.69, 4952.34, 2888.87)" xlink:href="#linear-gradient-9"/><linearGradient id="linear-gradient-22" x1="5343.88" y1="1568.24" x2="5355.74" y2="1568.24" gradientTransform="matrix(-0.69, -0.73, -0.73, 0.69, 4952.34, 2888.87)" xlink:href="#linear-gradient-2"/><linearGradient id="linear-gradient-23" x1="5336.92" y1="1575.49" x2="5344.88" y2="1567.32" gradientTransform="matrix(-0.69, -0.73, -0.73, 0.69, 4952.34, 2888.87)" xlink:href="#linear-gradient-9"/><linearGradient id="linear-gradient-24" x1="6248.85" y1="75.41" x2="6237.27" y2="96.69" gradientTransform="matrix(-1, 0, 0, 1, 6397.54, 0)" xlink:href="#linear-gradient-8"/><linearGradient id="_109-2" x1="146.44" y1="76.1" x2="147.13" y2="111.69" gradientTransform="matrix(1, 0, 0, 1, 0, 0)" xlink:href="#_109"/><linearGradient id="linear-gradient-25" x1="5128.96" y1="748.98" x2="5120.91" y2="827.88" gradientTransform="matrix(-0.97, -0.26, -0.26, 0.97, 5276.62, 677.93)" xlink:href="#linear-gradient-8"/><linearGradient id="linear-gradient-26" x1="5140.35" y1="752.57" x2="5149.29" y2="752.57" gradientTransform="matrix(-0.97, -0.26, -0.26, 0.97, 5276.62, 677.93)" xlink:href="#linear-gradient-9"/><linearGradient id="linear-gradient-27" x1="3824.74" y1="1979.3" x2="3734.83" y2="1958.83" gradientTransform="matrix(0.08, 1, -1, 0.08, 1705.36, -3792.78)" xlink:href="#linear-gradient-8"/><linearGradient id="linear-gradient-28" x1="3767.61" y1="1955.06" x2="3841.64" y2="2060.3" gradientTransform="matrix(0.08, 1, -1, 0.08, 1705.36, -3792.78)" xlink:href="#linear-gradient-8"/><linearGradient id="linear-gradient-29" x1="3048.94" y1="2315.46" x2="3128.76" y2="2428.93" gradientTransform="translate(1408.88 3787.18) rotate(-148.14)" xlink:href="#linear-gradient-8"/><linearGradient id="linear-gradient-30" x1="2313.42" y1="1859" x2="2310.14" y2="1876.66" gradientTransform="translate(2968.74 571.25) rotate(150.29)" xlink:href="#linear-gradient-8"/><linearGradient id="linear-gradient-31" x1="3785.96" y1="1998.73" x2="3767.57" y2="2003.95" gradientTransform="translate(3965.66 1743.56) rotate(174.59)" xlink:href="#linear-gradient-8"/><linearGradient id="linear-gradient-32" x1="2321.54" y1="1878.31" x2="2340.66" y2="1855.55" gradientTransform="translate(2966.69 596.46) rotate(150.29)" xlink:href="#linear-gradient-11"/><linearGradient id="linear-gradient-33" x1="3800.15" y1="2003.48" x2="3778.81" y2="2021.83" gradientTransform="translate(3972.55 1769.8) rotate(174.59)" xlink:href="#linear-gradient-8"/><linearGradient id="linear-gradient-34" x1="2325.56" y1="1892.34" x2="2322.83" y2="1924.93" gradientTransform="translate(2973.53 622.66) rotate(150.29)" xlink:href="#linear-gradient-11"/><linearGradient id="linear-gradient-35" x1="3165.49" y1="1660.05" x2="3167.04" y2="1695.29" gradientTransform="matrix(-0.99, 0.1, -0.1, -0.99, 3326.73, 1490.12)" xlink:href="#linear-gradient-8"/><linearGradient id="linear-gradient-36" x1="3167.5" y1="1677.19" x2="3160.38" y2="1694.3" gradientTransform="translate(3326.5 1490.19) rotate(174.23)" xlink:href="#linear-gradient-8"/><linearGradient id="linear-gradient-37" x1="2394.81" y1="1932.31" x2="2367.68" y2="1922.66" gradientTransform="matrix(-0.87, 0.5, -0.5, -0.87, 3001.9, 650.24)" gradientUnits="userSpaceOnUse"><stop offset="0" stop-color="#b37cff"/><stop offset="1" stop-color="#f895e7"/></linearGradient><linearGradient id="linear-gradient-38" x1="2365.25" y1="1916.22" x2="2366.53" y2="1916.22" gradientTransform="translate(3001.67 650.29) rotate(150.29)" xlink:href="#linear-gradient-37"/><linearGradient id="_104" x1="3824.01" y1="1992.38" x2="3818.43" y2="2009.26" gradientTransform="translate(4018.13 1786.65) rotate(174.59)" xlink:href="#linear-gradient-8"/><linearGradient id="linear-gradient-39" x1="3809.86" y1="1994.05" x2="3829.94" y2="2009.27" gradientTransform="translate(4018.01 1786.68) rotate(174.59)" xlink:href="#linear-gradient-8"/><linearGradient id="linear-gradient-40" x1="3745.15" y1="1982.17" x2="3794.13" y2="1910.26" gradientTransform="matrix(0.08, 1, -1, 0.08, 1705.36, -3792.78)" xlink:href="#linear-gradient-8"/><linearGradient id="linear-gradient-41" x1="3753.32" y1="1987.73" x2="3802.29" y2="1915.82" gradientTransform="matrix(0.08, 1, -1, 0.08, 1705.36, -3792.78)" xlink:href="#linear-gradient-8"/><linearGradient id="linear-gradient-42" x1="3761.4" y1="1993.24" x2="3810.38" y2="1921.33" gradientTransform="matrix(0.08, 1, -1, 0.08, 1705.36, -3792.78)" xlink:href="#linear-gradient-8"/><linearGradient id="linear-gradient-43" x1="3763.32" y1="1994.54" x2="3812.3" y2="1922.63" gradientTransform="matrix(0.08, 1, -1, 0.08, 1705.36, -3792.78)" xlink:href="#linear-gradient-8"/><linearGradient id="linear-gradient-44" x1="114.6" y1="378.3" x2="194.09" y2="392.79" gradientTransform="translate(-57.53 -253.28) rotate(5.79)" gradientUnits="userSpaceOnUse"><stop offset="0" stop-color="#d9e021"/><stop offset="0.99" stop-color="#df7640"/></linearGradient><linearGradient id="linear-gradient-45" x1="194.03" y1="376.12" x2="213.06" y2="396.23" gradientTransform="translate(-57.53 -253.28) rotate(5.79)" gradientUnits="userSpaceOnUse"><stop offset="0.01" stop-color="#2874b5"/><stop offset="1" stop-color="#de813d"/></linearGradient><linearGradient id="linear-gradient-46" x1="68.85" y1="152.9" x2="89.16" y2="118.38" gradientTransform="matrix(1, 0, 0, 1, 0, 0)" xlink:href="#linear-gradient-11"/><linearGradient id="linear-gradient-47" x1="150.62" y1="384.39" x2="131.77" y2="410.76" gradientTransform="translate(438.98 2.62) rotate(90)" xlink:href="#linear-gradient-6"/><linearGradient id="linear-gradient-48" x1="144.38" y1="385.75" x2="136.43" y2="398.34" gradientTransform="translate(434.08 7.04) rotate(90)" xlink:href="#linear-gradient-2"/><linearGradient id="linear-gradient-49" x1="31.99" y1="172.42" x2="59.2" y2="129.36" gradientTransform="matrix(1, 0, 0, 1, 0, 0)" xlink:href="#linear-gradient-11"/><linearGradient id="linear-gradient-50" x1="147.48" y1="384.1" x2="136.36" y2="401.7" gradientTransform="translate(-57.53 -253.28) rotate(5.79)" xlink:href="#linear-gradient-6"/><linearGradient id="linear-gradient-51" x1="142.55" y1="389.85" x2="133.5" y2="387.48" gradientTransform="translate(-57.53 -253.28) rotate(5.79)" xlink:href="#linear-gradient-6"/></defs><title>vectorsAsset 12</title><g id="Layer_2" data-name="Layer 2"><g id="ev_pages" data-name="ev pages"><path class="cls-3" d="M39.15,159.07h-.29a2.47,2.47,0,0,1-2.17-2.74l15.5-134.9A2.47,2.47,0,0,1,57.1,22L41.6,156.88A2.48,2.48,0,0,1,39.15,159.07Z"/><path class="cls-4" d="M124.36,159.07a2.47,2.47,0,0,1-2.41-1.93L91.7,22.25a2.47,2.47,0,1,1,4.82-1.08l30.25,134.89a2.47,2.47,0,0,1-2.41,3Z"/><path class="cls-5" d="M73.28,159.07a2.47,2.47,0,0,1-2.47-2.47V90a2.47,2.47,0,0,1,4.94,0V156.6A2.47,2.47,0,0,1,73.28,159.07Z"/><path class="cls-6" d="M23.86,6.61,32.54,116A4.37,4.37,0,0,0,37,120l90.68-2.22a4.36,4.36,0,0,0,4.21-5l-17.36-109A4.36,4.36,0,0,0,110.12,0l-82,1.9A4.36,4.36,0,0,0,23.86,6.61Z"/><path class="cls-7" d="M31.45,4.91l76-1.76a4.37,4.37,0,0,1,4.42,3.68l16.38,102.9a4.36,4.36,0,0,1-4.21,5l-84.23,2.06a4.36,4.36,0,0,1-4.46-4L27.19,9.62A4.37,4.37,0,0,1,31.45,4.91Z"/><g class="cls-8"><path class="cls-9" d="M37.21,10.91l68.32-1.58a3.93,3.93,0,0,1,4,3.31l14.72,92.44a3.93,3.93,0,0,1-3.79,4.54l-75.67,1.85a3.92,3.92,0,0,1-4-3.62l-7.36-92.7A3.93,3.93,0,0,1,37.21,10.91Z"/></g><path class="cls-10" d="M89.66,101.44s-36,1.19-41.95-21.16c-4.79-18,9.56.25,26.25,11.32a1.23,1.23,0,0,0,1.45-2C63.29,80,45.85,64.41,48.76,55.94c4.39-12.78,5.72-5.8,17.44,8.8s17.52,14,11.12,3.24S52.88,47.76,54,40.42s7.79-17.26,10.15-22,25.19,7.9,25.14,17.35S82.46,59.38,86.11,67s7-7.64,8.15-16.15,3.26-13.5,9.5-4.75.84,21.81-5.34,29.35S91,89.47,94.29,86,107,71.09,107.76,65.58,121.57,81.23,89.66,101.44Z"/><path class="cls-11" d="M88.11,100.21a.32.32,0,0,1-.19-.27c-1.4-27.55-16.15-61.75-16.3-62.09a.32.32,0,0,1,.58-.26c.15.35,15,34.65,16.36,62.31a.32.32,0,0,1-.3.34A.33.33,0,0,1,88.11,100.21Z"/><path class="cls-12" d="M156,103.44a15.72,15.72,0,0,0,3.69,2.69,30.7,30.7,0,0,1-6.73,6l-.84,1.86-2.67-3.19A14.51,14.51,0,0,0,156,103.44Z"/><path class="cls-13" d="M108.87,62.2s7-13.44-4.92-20.1-16.4,1-26.28-5.46C77.67,36.64,82.87,61.8,108.87,62.2Z"/><path class="cls-14" d="M96.79,38.42c.54,0,3.62-.74,4.39,1s-.67,2.79-4.71,2.9-4.69,2.84-1.46,5,1.22,4.44-2.53,3-3.8-.14-2.36,2.16S88.2,56.67,85,53.93a32.25,32.25,0,0,1-9.92-17.57,1.14,1.14,0,0,1,1.6-1.23C79.45,36.43,85.59,38.43,96.79,38.42Z"/><path class="cls-15" d="M107.87,58.13a10.88,10.88,0,0,0,.7-2.11,12.61,12.61,0,0,0,.29-2.22,13,13,0,0,0-.13-2.24,11,11,0,0,0-.58-2.19,12.55,12.55,0,0,0-2.33-3.89,18.08,18.08,0,0,0-3.41-3h0a.53.53,0,0,0-.6.87l0,0A17.15,17.15,0,0,1,105.23,46a11.74,11.74,0,0,1,2.43,3.55,9.92,9.92,0,0,1,.67,2.06,11.29,11.29,0,0,1,.26,2.17,11.63,11.63,0,0,1-.15,2.2A10.64,10.64,0,0,1,107.87,58.13Z"/><path class="cls-16" d="M123.86,74.46c23.23,23,36.88,44.4,41.86,52.9a1.31,1.31,0,0,1-1.75,1.82c-25.41-13.8-39.91-32.2-47.85-46.07A16,16,0,0,1,123.86,74.46Z"/><path class="cls-17" d="M109.34,61.07c5.2,4.47,10,9,14.52,13.39a16,16,0,0,0-7.74,8.65c-6.6-11.55-8.66-20-8.66-20A1.89,1.89,0,0,1,109.34,61.07Z"/><path class="cls-18" d="M141.68,164.09a1.09,1.09,0,0,1,0-.18c.87-3.42,5.16-5.56,5.16-5.56l1.7.14a11.79,11.79,0,0,1,.69,5.69.14.14,0,0,1,0,.07A39.85,39.85,0,0,1,141.68,164.09Z"/><path class="cls-19" d="M149.22,164.25a.71.71,0,0,1-.54.54,23,23,0,0,1-6.49-.09.61.61,0,0,1-.51-.61A39.85,39.85,0,0,0,149.22,164.25Z"/><path class="cls-20" d="M149.23,156l-.72,3.47a.58.58,0,0,1-.48.47,5.36,5.36,0,0,1-1.12,0,.71.71,0,0,1-.56-.84l.5-3.08Z"/><path class="cls-21" d="M134.32,164.22a10.6,10.6,0,0,0,3.35-.48c0,.18,0,.37,0,.57a.37.37,0,0,1-.35.38L127,164.62a.47.47,0,0,1-.38-.68C128,164.05,131.41,164.3,134.32,164.22Z"/><path class="cls-22" d="M126.62,163.94a.2.2,0,0,1,0-.08,13.15,13.15,0,0,1,7.81-4.91l2.2-.06a10.54,10.54,0,0,1,1,4.85,10.6,10.6,0,0,1-3.35.48C131.41,164.3,128,164.05,126.62,163.94Z"/><path class="cls-23" d="M137.08,155.55c0,.17-.33,2.66-.45,3.62a.48.48,0,0,1-.4.44,5.17,5.17,0,0,1-1.51,0,.64.64,0,0,1-.49-.65V155Z"/><path class="cls-24" d="M138.84,110.12a195.81,195.81,0,0,0-5.21,45.49,1,1,0,0,0,.78,1,11.08,11.08,0,0,0,2.46.28.92.92,0,0,0,.87-.76c.74-4.36,5-28.91,7.44-32.89,0,0,1.59,21.86,1.08,33.21a.55.55,0,0,0,.48.56,9.14,9.14,0,0,0,2,0,.71.71,0,0,0,.64-.61c.53-3.69,3.58-25.64,3.45-41.46,0-.89-2.36-4.77-2.36-4.77Z"/><path class="cls-25" d="M131.47,85.74a22.1,22.1,0,0,0,2.24-3.42,16,16,0,0,0,1.8-5.37c6,1,15,2.22,18.87,2.7a5.16,5.16,0,0,1,3.25,1.74c3.29,3.81,10.51,14.23,2,24.74a15.72,15.72,0,0,1-3.69-2.69c.94-2.65,1-6-.95-10.19-.07.32-.15.65-.25,1a60.66,60.66,0,0,0-2.86,17.42.54.54,0,0,1-.34.51c-3.57,1.43-10.45.58-12.76.23a.77.77,0,0,1-.65-.88c1.13-8.21-4.69-21.72-6.22-25.11A2.69,2.69,0,0,0,131.47,85.74Z"/><path class="cls-26" d="M148.21,71.75l.68,7s-4,1.19-6.84-.84l2-6.4Z"/><path class="cls-27" d="M143.61,63.73c-.09.08-4,7.8-4,7.8L144,73.67l4.81-6.75S145.21,62.22,143.61,63.73Z"/><path class="cls-28" d="M146.88,67.11a.68.68,0,0,1-.06.62l-2.22,3.7a.44.44,0,0,1-.12.15,1.16,1.16,0,0,1-1.86,0,6.32,6.32,0,0,0-1.76-1.9.72.72,0,0,0-1,.32,26.45,26.45,0,0,0-1.51,3.6.7.7,0,0,0,.41.87,20.07,20.07,0,0,0,4.26,1.24.69.69,0,0,0,.67-.28c.68-.94,2.6-3.54,3.25-4.19s1.73-.38,2.24-.23a.69.69,0,0,0,.56-.08,1.56,1.56,0,0,0,.59-2.38.71.71,0,0,1,.22-1,1.57,1.57,0,0,0,.6-2.23,2.2,2.2,0,0,0-2.39-1.17.74.74,0,0,1-.78-.43.44.44,0,0,0-.36-.29.68.68,0,0,1-.56-.81,1.82,1.82,0,0,0-1-2.09c-1.92-1.05-3.6.67-4,2.12s1.72,2.48,3.07,2.65C146.12,65.46,146.66,66.54,146.88,67.11Z"/><path class="cls-29" d="M146.15,72.59s.85-2.5,1.94-2.41,2,1.18.6,2.41C147,74.11,146.15,72.59,146.15,72.59Z"/><path class="cls-30" d="M155.36,92.6a22.14,22.14,0,0,0,.91-8.75l-.39.05a22.06,22.06,0,0,1-.89,8.56Z"/><path class="cls-31" d="M145.37,122.68a.19.19,0,0,0,.19-.15c.44-1.69,3.73-3.56,3.77-3.57a.21.21,0,0,0,.07-.28.19.19,0,0,0-.27-.07c-.14.08-3.47,2-3.95,3.82a.2.2,0,0,0,.14.25Z"/><path class="cls-32" d="M115.89,79.75c6.91,3,12.82-.29,17.06-2.11,5.59-2.41,8.71.32,8.71.32l-7.44,8.09c-9.21,5-16.34,1.41-20.49-2.1A9.39,9.39,0,0,1,115.89,79.75Z"/><path class="cls-33" d="M109.82,70.18l1.78,4.87c1.81,2.72,2.07,3.73,4.29,4.7a9.39,9.39,0,0,0-2.16,4.2,19,19,0,0,1-3.36-7.3C107.18,70.94,109.82,70.18,109.82,70.18Z"/><path class="cls-34" d="M25.94,160.12c8.61-2.11,14.83-8.88,19.7-15.1,3.65-4.66,7-9.49,10.21-14.43A54.17,54.17,0,0,0,62,118.1a13.64,13.64,0,0,0,.56-7.12c-1-4.37-4-6.31-9-6.57-2.79-.15-7.77.86-8.67-2.13-.79-2.61.65-5.39,1.28-7.92a9.79,9.79,0,0,0,.4-2.62c-.11-2.91-2.95-5.3-6.1-6.11-6.54-1.69-13.41,4-17.68,7.77a77.51,77.51,0,0,0-12.55,15C4.2,117.5,0,128,0,138.61c0,6.4,1.82,13.28,7.47,17.62A22.46,22.46,0,0,0,25.94,160.12Zm24-47c.78-3.08,3.26-5.2,5.54-4.74s3.51,3.31,2.74,6.39-3.26,5.19-5.54,4.74S49.14,116.21,49.91,113.14Z"/><path class="cls-35" d="M26.74,160.62c8.53-2.08,14.69-8.79,19.52-15,3.62-4.62,7-9.41,10.12-14.3A53.87,53.87,0,0,0,62.49,119a13.37,13.37,0,0,0,.55-7c-1-4.32-4-6.25-8.92-6.51-2.77-.14-7.7.85-8.6-2.11-.78-2.58.65-5.34,1.27-7.85a9.2,9.2,0,0,0,.4-2.59c-.1-2.88-2.92-5.25-6-6.06-6.47-1.67-13.28,3.92-17.52,7.7a76.83,76.83,0,0,0-12.43,14.91c-6,9-10.12,19.37-10.16,29.89,0,6.35,1.8,13.16,7.4,17.47A22.23,22.23,0,0,0,26.74,160.62Zm23.75-46.55c.77-3,3.23-5.15,5.49-4.7s3.48,3.29,2.71,6.34-3.22,5.14-5.49,4.69S49.73,117.11,50.49,114.07Z"/><ellipse class="cls-36" cx="34.69" cy="94.76" rx="4.76" ry="5.37" transform="translate(-60.33 128.73) rotate(-89.56)"/><ellipse class="cls-37" cx="34.88" cy="94.3" rx="3.73" ry="4.21" transform="translate(-59.68 128.46) rotate(-89.56)"/><ellipse class="cls-38" cx="21.15" cy="105.87" rx="4.76" ry="5.37" transform="translate(-84.88 126.21) rotate(-89.56)"/><ellipse class="cls-39" cx="21.15" cy="105.87" rx="4.38" ry="4.94" transform="translate(-84.88 126.21) rotate(-89.56)"/><ellipse class="cls-40" cx="11.37" cy="122.46" rx="4.76" ry="5.37" transform="translate(-111.17 132.89) rotate(-89.56)"/><ellipse class="cls-41" cx="11.37" cy="122.42" rx="4.07" ry="4.59" transform="translate(-111.13 132.85) rotate(-89.56)"/><ellipse class="cls-42" cx="7.44" cy="136.87" rx="4.76" ry="5.37" transform="translate(-129.49 143.26) rotate(-89.56)"/><ellipse class="cls-43" cx="7.29" cy="136.79" rx="3.94" ry="4.45" transform="translate(-129.55 143.03) rotate(-89.56)"/><ellipse class="cls-44" cx="11.67" cy="150.5" rx="4.76" ry="5.37" transform="translate(-138.91 161.01) rotate(-89.56)"/><ellipse class="cls-45" cx="11.52" cy="150.41" rx="4.38" ry="4.94" transform="translate(-138.98 160.78) rotate(-89.56)"/><ellipse class="cls-46" cx="25.67" cy="153.86" rx="4.76" ry="5.37" transform="translate(-128.38 178.35) rotate(-89.56)"/><ellipse class="cls-47" cx="25.59" cy="153.81" rx="4.3" ry="4.86" transform="translate(-128.42 178.22) rotate(-89.56)"/><path class="cls-48" d="M46.64,109l-6.39-5.43a2.86,2.86,0,0,0-3.71.07L35.05,105a2.18,2.18,0,0,0,.58,3.62l7.88,4a2.87,2.87,0,0,0,3.15-.35h0A2.13,2.13,0,0,0,46.64,109Z"/><path class="cls-49" d="M42.52,114.41l-8.75-2.94a2.91,2.91,0,0,0-3.36,1.06l-1.7,2.63c-1,1.59.22,3.58,2.29,3.65l10.46.31a2.78,2.78,0,0,0,2.65-1.53h0A2.37,2.37,0,0,0,42.52,114.41Z"/><path class="cls-50" d="M44,122.94a1.81,1.81,0,0,0-1.82-1c-4.42.61-8.87,1.12-13.28,1.79a10.18,10.18,0,0,0-1.83.34c.07,2.41-.13,4.89.11,7.28a1.66,1.66,0,0,0,2.57,1.19c2.38-1.29,4.59-2.81,6.88-4.23s4.9-3,7.35-4.51C44.41,123.55,44.2,123.29,44,122.94Z"/><path class="cls-51" d="M45.55,125.89c-2.64,2.23-10,8.06-13.76,11a1.8,1.8,0,0,0,.3,3.07l6.24,3.42a2.31,2.31,0,0,0,3-.71L50,128.58a1.82,1.82,0,0,0-1.07-2.68l-1-.39A2.35,2.35,0,0,0,45.55,125.89Z"/><path class="cls-52" d="M106.52,145.31a7.1,7.1,0,0,1,4.1,3.47,5,5,0,0,1,.53,1.38,4.46,4.46,0,0,1,.09,1c0,4-3.27,6.8-6.77,8.14-4.65,1.77-9.3,1.23-14.12,1.07s-9.87-.34-14.81-.55c-4.3-.18-8.6-.38-12.89-.66-2.49-.16-5-.31-7.46-.49a48.06,48.06,0,0,1-7.3-.64c1-2.08,1.29-5.21,1.51-7.54.17-1.75.24-3.5.3-5.25,0-.81-.29-3.92.37-4.34a1.73,1.73,0,0,1,1-.16c.7,0,1.53.24,2,.28,1.23.1,2.45.2,3.67.32,2.45.23,4.9.5,7.34.79,9.62,1.14,19.49,2.12,28.72,5.17.37.12,4.84,1.39,4.83,1.29-.2-1.09.77-2.05,1.74-2.59A9.11,9.11,0,0,1,106.52,145.31Z"/><path class="cls-53" d="M111,153.3a5.14,5.14,0,0,1-1.45,2.37,1.24,1.24,0,0,0,.2-.49,9.78,9.78,0,0,0-.06-4.24,6.24,6.24,0,0,0-3.36-4.06,7,7,0,0,0-3.25-1A4.15,4.15,0,0,0,100,147c-.61.64-1,2-.3,2.66s2.35.88,3,.14c.09-.09.2-.2.32-.16a.63.63,0,0,1-.13.58,2.87,2.87,0,0,1-1.67,1.05,3.05,3.05,0,0,1-2.83-.41,2.69,2.69,0,0,1-.87-2.14,4.69,4.69,0,0,1,4.44-4.2,11.47,11.47,0,0,1,4.31.5c2.28.64,4.39,1.91,4.85,4.38l.16.84A5.29,5.29,0,0,1,111,153.3Z"/><path class="cls-54" d="M78.8,147.15a12.83,12.83,0,0,0-1-3.31c-4.56-.71-9.16-1.21-13.71-1.75l-1.47-.17c.16.56.33,1.13.52,1.72,1.34,4.45,0,9.35-.82,13.94a13.52,13.52,0,0,1-.38,1.49l.76.05c4.29.28,8.59.48,12.89.66l2,.08A27.74,27.74,0,0,0,78.8,147.15Z"/><ellipse class="cls-55" cx="49.16" cy="149.36" rx="8.77" ry="1.5" transform="translate(-104.4 183.2) rotate(-84.21)"/><ellipse class="cls-56" cx="44.26" cy="148.86" rx="3.09" ry="0.61" transform="translate(-108.3 177.88) rotate(-84.21)"/><path class="cls-57" d="M39.55,145.07a8.57,8.57,0,0,0-1.62.35c-2.11.69-4.24,1.83-5.23,3.81a14.21,14.21,0,0,0-.9,3c-.49,1.9-.53,3.82-2.46,4.64-2.27,1-4.66,1.71-7,2.56a3.43,3.43,0,0,0-1.85,3.71c.48,2.06,2.66,1.68,4.25,1.67,3.75,0,7.5-.07,11.24.15a23.12,23.12,0,0,0,2.76.05c1.24-.07,2.45-.35,3.68-.5,3-.36,6.1.06,9.15.18a6.49,6.49,0,0,0,4-.78c.35-.24.68-.66.51-1.05a.92.92,0,0,0-.38-.4c-2.83-2-6.64-1.62-10-2.45a5.78,5.78,0,0,1-2.31-1,7.22,7.22,0,0,1-1.94-3.93,4.82,4.82,0,0,1-.23-2c.41-2.55,3.22-1.15,4.55-2.52.92-1,.64-3.13-.28-4C44.11,145.16,41.65,144.8,39.55,145.07Z"/><path class="cls-58" d="M48.7,146.21l-4-.41a9,9,0,0,1-.62,6.14l3.84.39A8.93,8.93,0,0,0,48.7,146.21Z"/><path class="cls-59" d="M44.57,145.78a8.14,8.14,0,0,1-.62,6.15l1.32.14a10.32,10.32,0,0,0,.62-6.16Z"/></g></g></svg>