<svg xmlns="http://www.w3.org/2000/svg" viewBox="0 0 165.25 187.07"><defs><style>.cls-1{isolation:isolate;}.cls-2{fill:#b06800;opacity:0.4;}.cls-3{fill:#945850;}.cls-4{fill:#662f2b;}.cls-5{fill:#7c433d;}.cls-6{fill:#140b06;}.cls-7{fill:#3b2416;}.cls-8{fill:#28160d;}.cls-9{fill:#6fbbdd;}.cls-10{fill:#668c44;}.cls-11{fill:#719b51;}.cls-12{fill:#90ba6a;}.cls-13{fill:#f4977a;}.cls-14,.cls-42{fill:#fff;}.cls-15{fill:#e5876a;}.cls-16{fill:#ffa686;}.cls-17{fill:#34313a;}.cls-18{fill:#27242d;}.cls-19{fill:#9d9d9e;}.cls-20{fill:#b6b6b7;}.cls-21{fill:#8c1e1e;}.cls-22{fill:#a83636;}.cls-23{fill:#720f0f;}.cls-24{fill:#a3d8de;}.cls-25{fill:#70bdc1;}.cls-26{fill:#e5e5e5;}.cls-27{fill:#3781aa;}.cls-28{fill:#4690c1;}.cls-29{fill:#eaa907;}.cls-30{fill:#237396;}.cls-31{fill:#8ecced;}.cls-32{fill:#5b5a60;}.cls-33{fill:#76747c;}.cls-34{fill:#debc79;}.cls-35{fill:#c1984b;}.cls-36{fill:#f7ce03;opacity:0.7;mix-blend-mode:screen;}.cls-37{fill:#414d63;}.cls-38{fill:#51617c;}.cls-39{fill:#242328;}.cls-40{fill:#151319;}.cls-41{fill:#f2a700;}.cls-42{opacity:0.2;}.cls-43{fill:#682923;}</style></defs><title>vectorsAsset 5</title><g class="cls-1"><g id="Layer_2" data-name="Layer 2"><g id="ev_pages" data-name="ev pages"><path class="cls-2" d="M4.11,181.14H44.3c.38-1.18,2.54-2.08,5.15-2.08h73.62c2.61,0,4.77.9,5.15,2.08h27.55c2.27,0,4.11.86,4.11,1.92S158,185,155.77,185h-8.3a.81.81,0,0,1,.09.37c0,.94-1.63,1.71-3.64,1.71h-85c-2,0-3.64-.77-3.64-1.71a1,1,0,0,1,.09-.37H4.11C1.84,185,0,184.13,0,183.06S1.84,181.14,4.11,181.14Z"/><path class="cls-3" d="M67.53,91.88c-.24,3.94.31,7.87,4.52,9.57h0c4.2,1.7,10.47.54,10.71-3.4.55-9,6-22,11-28.69,2.81-3.77-.79-8.12-5-9.82h0a13,13,0,0,0-6.69-.5c-12.22,2.64-16.6,4.29-16.6,4.29C59.79,71.33,68.12,82.22,67.53,91.88Z"/><path class="cls-3" d="M88.14,76.05,52,80.63c9.16-18.85,10.22-19.69,28.12-21.8a15.92,15.92,0,0,1,7,.82c4.21,1.7,7.81,6.05,5,9.82A47.7,47.7,0,0,0,88.14,76.05Z"/><path class="cls-4" d="M88.66,58.81c.25,0,.61,1.84.69,2.49-1.32-.7-3.56-1.73-3.56-1.73l-.89-1.64Z"/><path class="cls-5" d="M51.21,95.46c-.24,3.94.31,7.87,4.51,9.57h0c4.21,1.7,10.48.54,10.72-3.4.55-9,6-22,11-28.68,2.81-3.77-.79-8.12-5-9.83h0a8.93,8.93,0,0,0-10.72,3.4C56,74.52,51.79,85.8,51.21,95.46Z"/><polygon class="cls-6" points="41.36 166.3 30.73 166.3 30.14 160.11 41.36 160.11 41.36 166.3"/><path class="cls-7" d="M32.49,163.09a5.5,5.5,0,0,0,2.92,4.55c0,3.05-3.2,3.15-3.2,8.56h0c-.06,3.6-.64,5.72-3.62,5.72H22.91V158.46H33.57C34.34,158.46,32.49,159.67,32.49,163.09Z"/><path class="cls-8" d="M26.64,158.46v16.76A2.34,2.34,0,0,0,29,177.56h3.18c-.21,2.77-1,4.36-3.57,4.36H22.91V158.46h3.73Z"/><path class="cls-9" d="M22.5,157.18h1.2a1.56,1.56,0,0,1,1.56,1.56v22.9a1.56,1.56,0,0,1-1.56,1.57H22.5Z"/><path class="cls-10" d="M110,70.87c31.4,27,40.22-21,40.22-21l7.43,1v2c-2.55,10.17-16.36,55-55.33,24.57C96.21,72.76,104.86,66.49,110,70.87Z"/><path class="cls-11" d="M110,70.87c31.4,27,40.22-21,40.22-21l7.39,1v1.64l-3.23-.25S144.5,107,100.43,72.73C101.56,69.78,106.55,67.94,110,70.87Z"/><path class="cls-12" d="M108.9,72.39a6.35,6.35,0,0,0-8.44.27c1.18-2.91,6.11-4.69,9.49-1.79,15.45,13.27,25.43,8.4,31.59,0C135.49,80.15,125.26,86.44,108.9,72.39Z"/><path class="cls-11" d="M99.06,62.37c-8.76-.47-34.79,6.31-33.4,56.3h21S82.9,96.25,101.55,88.54C115.52,82.7,111.46,63,99.06,62.37Z"/><path class="cls-13" d="M142.48,69.54C148,60.66,149,49.68,149,49.68l8.82,3.23a57.05,57.05,0,0,1-10,22.45A49.86,49.86,0,0,1,142.48,69.54Z"/><path class="cls-12" d="M100.47,63.72c-8.11-.45-31.22,5.53-34.8,47.47C66.94,68,90.75,61.93,99.06,62.37a11.17,11.17,0,0,1,8.41,4.52A10.48,10.48,0,0,0,100.47,63.72Z"/><path class="cls-12" d="M86,118.67a42.1,42.1,0,0,1,.35-5.5,32.16,32.16,0,0,0,.29,5.5Z"/><path class="cls-10" d="M99.3,84.22c7,0,11-4.09,11-10.49.77,5.62-1.77,11.87-8.8,14.81-18.65,7.71-14.92,30.13-14.92,30.13H73.25s-1.52-26.63,9.11-42C84.77,73.13,93.51,84.22,99.3,84.22Z"/><path class="cls-14" d="M93.39,69.79c1.22,3.86,5.26,7,9,7s5.84-3.13,4.62-7-5.26-7-9-7S92.17,65.93,93.39,69.79Zm4.76-6.68A8.61,8.61,0,0,1,105.73,69c1,3.23-.71,5.85-3.87,5.85A8.63,8.63,0,0,1,94.27,69C93.25,65.73,95,63.11,98.15,63.11Z"/><rect class="cls-15" x="93.54" y="55.17" width="18.43" height="9.34" transform="translate(3.81 125.79) rotate(-63.9)"/><rect class="cls-16" x="100.47" y="19.65" width="29.78" height="46.64" rx="12.98"/><path class="cls-15" d="M106.22,21.85a10.21,10.21,0,0,0-.1,1.52v.44a12.9,12.9,0,0,0-1.85,6.69V51.17a13,13,0,0,0,13,13h3.82a12.78,12.78,0,0,0,4.35-.75,12.9,12.9,0,0,1-8.15,2.88h-3.82c-7.17,0-13-4.92-13-12.08V32.63A13,13,0,0,1,106.22,21.85Z"/><path class="cls-14" d="M120.29,57h2.51a8.54,8.54,0,0,0,6.82-3.37c-.5,4-3.45,7.11-7,7.11H120.5c-3.58,0-6.53-3.09-7-7.11A8.54,8.54,0,0,0,120.29,57Z"/><path class="cls-15" d="M125,49.31a2.18,2.18,0,0,1-2,2.25h-.59a2.17,2.17,0,0,1-2-2.25Z"/><path class="cls-17" d="M130.8,32.31h-20c-2.91,0-4.92-2.92-4.92-2.92S108,33.49,108,35c0,4.28.44,11.48-3.08,11.48-2.18,0,1.08-6.83-2.29-6.83-1.46,0-2.1,1.09-2.1,3.82V54C97.83,51.25,88,31.4,99.92,23.75c2.46-12.3,20-15.94,28.88-7,4.91,5,8.08,6.57,8.08,6.57S139,32.31,130.8,32.31Z"/><path class="cls-17" d="M112.25,39.69a1,1,0,0,0,1,1h6.8a1,1,0,0,0,1-1h0a1,1,0,0,0-1-1h-6.8a1,1,0,0,0-1,1Z"/><path class="cls-17" d="M124,39.69a1,1,0,0,0,1,1h4.85a1,1,0,0,0,1-1h0a1,1,0,0,0-1-1H125a1,1,0,0,0-1,1Z"/><path class="cls-17" d="M114,43.29a.38.38,0,0,0,.38.38h4.48a.38.38,0,0,0,.38-.38h0a.38.38,0,0,0-.38-.38h-4.48a.38.38,0,0,0-.38.38Z"/><path class="cls-17" d="M126.65,43.66a.93.93,0,1,0,.93-.93A.93.93,0,0,0,126.65,43.66Z"/><path class="cls-18" d="M108.82,26.28h19.94c4.34,0,5.79-2.17,6.19-4.21a17.38,17.38,0,0,0,1.93,1.23s2.12,9-6.08,9h-20c-2.91,0-4.92-2.92-4.92-2.92S105.9,26.28,108.82,26.28Z"/><path class="cls-18" d="M100.56,47.65V54c-1.66-1.67-6-9.69-6.38-17.43A20.58,20.58,0,0,0,100.56,47.65Z"/><path class="cls-18" d="M104.2,43.66h0c3.51,0,2-5,2-8.71,0-1.33-.32-5.56-.32-5.56S108,33.49,108,35c0,4.28.44,11.48-3.08,11.48C104,46.52,104.08,45.16,104.2,43.66Z"/><path class="cls-16" d="M99.77,47.5a2.73,2.73,0,0,0,2.73,2.73h0a2.73,2.73,0,0,0,2.73-2.73V41.85a2.74,2.74,0,0,0-2.73-2.74h0a2.74,2.74,0,0,0-2.73,2.74Z"/><path class="cls-16" d="M150.19,52.06a3.7,3.7,0,0,0,3.89,3.47h0a3.71,3.71,0,0,0,3.9-3.47V44.78c0-1.92-1.75-1.86-3.9-1.86h0c-2.15,0-3.89-.06-3.89,1.86Z"/><path class="cls-19" d="M127.24,45.2c-.43,1-.42,1.88.07,1.88h16.76c.49,0,.5-.88.07-1.88l-4.3-10a.66.66,0,0,0-.55-.4h-7.2a.66.66,0,0,0-.55.4Z"/><rect class="cls-18" x="121" y="38.61" width="25.8" height="17.09" rx="1.24"/><path class="cls-19" d="M127.57,53.14v2.61h-5.34A1.24,1.24,0,0,1,121,54.51v-1.4h6.57Z"/><path class="cls-19" d="M122.23,38.59h6.14v2.86H121V39.83A1.23,1.23,0,0,1,122.23,38.59Z"/><rect class="cls-17" x="125.93" y="38.61" width="25.8" height="17.09" rx="1.24"/><path class="cls-20" d="M125.93,41.43v-1.6a1.23,1.23,0,0,1,1.23-1.24h23.33a1.23,1.23,0,0,1,1.24,1.24v1.6Z"/><path class="cls-20" d="M151.73,53.11v1.4a1.24,1.24,0,0,1-1.24,1.24H127.16a1.24,1.24,0,0,1-1.23-1.24v-1.4Z"/><path class="cls-20" d="M132.31,40.71l2.37-5.5a.66.66,0,0,1,.55-.4h7.19a.66.66,0,0,1,.56.4l2.37,5.5Z"/><path class="cls-21" d="M145.52,37.87a.74.74,0,0,0,.73.74h2.63a.74.74,0,0,0,.74-.74h0a.74.74,0,0,0-.74-.73h-2.63a.73.73,0,0,0-.73.73Z"/><path class="cls-22" d="M147.08,37.87c0,.41.18.74.41.74H149c.23,0,.41-.33.41-.74h0c0-.4-.18-.73-.41-.73h-1.46c-.23,0-.41.33-.41.73Z"/><path class="cls-23" d="M146.25,37.14h.13a.83.83,0,0,0-.4.73.85.85,0,0,0,.4.74h-.13a.74.74,0,0,1,0-1.47Z"/><path class="cls-24" d="M135.65,38a.55.55,0,0,0,.6.46h5.11c.33,0,.61-.21.61-.46V35.89c0-.25-.28-.45-.61-.45h-5.11c-.33,0-.6.2-.6.45Z"/><path class="cls-25" d="M142,38.07l-2.63-2.63h2c.33,0,.61.2.61.45V38S142,38,142,38.07Z"/><path class="cls-25" d="M135.65,36.09v-.2c0-.25.27-.45.6-.45h.29l3,3H138Z"/><path class="cls-16" d="M144.69,35.6a1.6,1.6,0,0,0,1.6,1.59h4.26a1.6,1.6,0,0,0,1.6-1.59h0a1.6,1.6,0,0,0-1.6-1.59h-4.26a1.6,1.6,0,0,0-1.6,1.59Z"/><path class="cls-16" d="M155,44.67c1.62,0,2.5-1.22,2-2.49l-1.45-4a2.07,2.07,0,0,0-1.94-1h0c-.88,0-1.59.4-1.59,1v4A2.81,2.81,0,0,0,155,44.67Z"/><path class="cls-16" d="M149.42,34.54a1.5,1.5,0,0,0,0,2.13l3,3a2.07,2.07,0,0,0,2.62.19h0a1.48,1.48,0,0,0,.11-2.36l-3.37-3.07a1.7,1.7,0,0,0-2.32.1Z"/><path class="cls-16" d="M152.18,40a1.59,1.59,0,0,0,0,2.25l3,3a1.59,1.59,0,0,0,2.25,0h0a1.59,1.59,0,0,0,0-2.26l-3-3a1.59,1.59,0,0,0-2.26,0Z"/><path class="cls-13" d="M153.33,43v6.38a3.69,3.69,0,0,0,3.89,3.46,4.32,4.32,0,0,0,.73-.06,4.33,4.33,0,0,1-3.86,3.39,4.14,4.14,0,0,1-3.86-4V44.87C150.23,43.2,151.56,43,153.33,43Z"/><path class="cls-16" d="M154.32,40a1.59,1.59,0,0,0-2.26,0l-3,3a1.61,1.61,0,0,0,0,2.26h0a1.59,1.59,0,0,0,2.25,0l3-3a1.59,1.59,0,0,0,0-2.25Z"/><path class="cls-16" d="M152.18,43.55a1.61,1.61,0,0,0,0,2.26l3,3a1.59,1.59,0,0,0,2.25,0h0a1.58,1.58,0,0,0,0-2.25l-3-3a1.61,1.61,0,0,0-2.26,0Z"/><path class="cls-16" d="M154.32,43.55a1.61,1.61,0,0,0-2.26,0l-3,3a1.59,1.59,0,0,0,0,2.25h0a1.59,1.59,0,0,0,2.25,0l3-3a1.61,1.61,0,0,0,0-2.26Z"/><path class="cls-16" d="M152.18,47.1a1.59,1.59,0,0,0,0,2.25l3,3a1.59,1.59,0,0,0,2.25,0h0a1.58,1.58,0,0,0,0-2.25l-3-3a1.61,1.61,0,0,0-2.26,0Z"/><path class="cls-16" d="M154.32,47.1a1.61,1.61,0,0,0-2.26,0l-3,3a1.59,1.59,0,0,0,0,2.25h0a1.59,1.59,0,0,0,2.25,0l3-3a1.59,1.59,0,0,0,0-2.25Z"/><path class="cls-18" d="M147.38,47.1c0-4.64,1.23-8.41-3.4-8.47H138.9a8.47,8.47,0,0,0,0,16.94h5.29C148.82,55.51,147.38,51.74,147.38,47.1Z"/><path class="cls-19" d="M140.7,38.63h1.6a8.47,8.47,0,0,0,0,16.94h-1.6a8.47,8.47,0,0,1,0-16.94Z"/><path class="cls-16" d="M131.79,48.52a1.68,1.68,0,0,1,2.24.81l1.73,3.7,2.81,2.26a1.7,1.7,0,0,1,.29.31h4.54l2.53-1.76-.3-1.62a1.28,1.28,0,0,1,.81-1.48L146,49.05a1.29,1.29,0,0,1,.81-1.63,1.3,1.3,0,0,1,1.63.82l.55,1.92a1.32,1.32,0,0,1,.06.39,1.36,1.36,0,0,1,.06.36v2.83a1.31,1.31,0,0,1-.5,1.41l-.11.07-.2,2a1.28,1.28,0,0,1-.64,1.35l-.84.46-.7,2.12s0,0,0,0c-.27,1-2.22,3.88-3.59,4.36a16.51,16.51,0,0,1-6.09-.24c-1-.29-3.34-1.87-3.14-4.18l.44-2.8-.74-3.51a2.36,2.36,0,0,1-.23-.35L131,50.75A1.68,1.68,0,0,1,131.79,48.52Z"/><path class="cls-26" d="M152.55,47.1a8.47,8.47,0,0,0-8.47-8.47h-.21a8.47,8.47,0,1,0,8.68,8.47Z"/><path class="cls-18" d="M151.29,47.1a7.21,7.21,0,0,0-7.21-7.21h-.18a7.21,7.21,0,1,0,7.39,7.21Z"/><path class="cls-24" d="M147.5,47.1a5.29,5.29,0,0,0-5.29-5.29h-.13a5.29,5.29,0,1,0,5.42,5.29Z"/><path class="cls-25" d="M137.08,45.84a5.28,5.28,0,0,1,5-4h.13a5.29,5.29,0,0,1,3.24,1.11,4.58,4.58,0,0,1,.08.83,4.48,4.48,0,0,1-8.45,2.09Z"/><path class="cls-27" d="M40,159.83h14a23.39,23.39,0,0,0,23.36-23.36V123h8.88v13.49a32.25,32.25,0,0,1-32.24,32.24H40Z"/><polygon class="cls-6" points="128.1 164.38 128.1 175.01 121.91 175.6 121.91 164.38 128.1 164.38"/><path class="cls-28" d="M86.6,115.75v3.53a9.69,9.69,0,0,1-.09,1.33H97.2a32.24,32.24,0,0,1,32.24,32.24v12.64h-8.87V152.85A23.39,23.39,0,0,0,97.2,129.49H78.57a10.72,10.72,0,0,1-2.48.3,10.52,10.52,0,0,1-10.52-10.51v-3.53Z"/><rect class="cls-5" x="65.31" y="116.22" width="21.84" height="3.5"/><path class="cls-29" d="M81.34,116.87V119a1.28,1.28,0,0,0,1.26,1.3h3a1.28,1.28,0,0,0,1.26-1.3v-2.15a1.28,1.28,0,0,0-1.26-1.29h-3A1.27,1.27,0,0,0,81.34,116.87Zm.7,0a.57.57,0,0,1,.56-.57h3a.57.57,0,0,1,.56.57V119a.57.57,0,0,1-.56.58h-3A.57.57,0,0,1,82,119Z"/><path class="cls-29" d="M80.93,118c0,.26.16.48.36.48h3.07c.2,0,.36-.22.36-.48h0c0-.27-.16-.48-.36-.48H81.29c-.2,0-.36.21-.36.48Z"/><rect class="cls-27" x="75.64" y="115.87" width="1.69" height="4.91"/><rect class="cls-27" x="67.35" y="115.87" width="1.69" height="4.91"/><path class="cls-15" d="M101.22,39.42v7.64c0,1.52.77,2.52,3,2.52a2.21,2.21,0,0,1-.1.51,2.9,2.9,0,0,1-1.7.24,2.78,2.78,0,0,1-2.81-2.76v-5.7A2.71,2.71,0,0,1,101.22,39.42Z"/><path class="cls-30" d="M86.29,133.2v3.27a32.25,32.25,0,0,1-32.24,32.24H40v-3.28h14A32.24,32.24,0,0,0,86.29,133.2Z"/><path class="cls-7" d="M124.89,173.26a5.5,5.5,0,0,0,4.55-2.93c3.05,0,3.15,3.2,8.56,3.2h0c3.6.06,5.72.64,5.72,3.63v5.68H120.26V172.18C120.26,171.4,121.48,173.26,124.89,173.26Z"/><rect class="cls-9" x="39.47" y="159.18" width="4.36" height="9.8"/><path class="cls-27" d="M79,127.64h19.7c13.63,0,24.71,13.36,24.71,25.38v8.2h6.06v4.3h-8.87V152.88A23.35,23.35,0,0,0,97.2,129.56H78.57a10.71,10.71,0,0,1-2.48.25A10.51,10.51,0,0,1,65.71,121C67.09,125,72.5,127.64,79,127.64Z"/><rect class="cls-31" x="120.07" y="161.75" width="9.8" height="4.36"/><polygon class="cls-8" points="143.72 178.07 143.72 182.84 120.26 182.84 120.26 180.08 120.26 178.07 143.72 178.07"/><path class="cls-31" d="M119,183.24V182a1.56,1.56,0,0,1,1.56-1.56h22.91A1.56,1.56,0,0,1,145,182v1.2Z"/><ellipse class="cls-15" cx="100.21" cy="69.42" rx="5.39" ry="7.41" transform="translate(-18.7 96.28) rotate(-47.44)"/><rect class="cls-32" x="131.01" y="15.78" width="10.67" height="19.01" rx="2.33"/><rect class="cls-33" x="133.43" y="15.78" width="10.67" height="19.01" rx="2.33"/><path class="cls-34" d="M134.31,20.79c0,.34.38.61.83.61h7c.46,0,.83-.27.83-.61V17.93c0-.33-.37-.61-.83-.61h-7c-.45,0-.83.28-.83.61Z"/><path class="cls-35" d="M142.9,20.9l-3.58-3.58h2.77c.46,0,.83.28.83.61v2.86A.36.36,0,0,1,142.9,20.9Z"/><path class="cls-35" d="M134.31,18.21v-.28c0-.33.38-.61.83-.61h.39l4.08,4.08h-2.1Z"/><polygon class="cls-36" points="146.46 15 145.62 0 141.56 13.18 134.97 6.17 137.07 13.74 122.63 8.41 134.12 17.11 123.05 19.49 135.67 21.73 132.02 32.11 139.73 23.98 142.12 31.97 144.08 24.68 152.84 33.17 149.27 23.7 165.25 27.62 148.99 19.91 159.36 16.69 148.71 15.98 153.47 9.25 146.46 15"/><path class="cls-3" d="M82,92.47a26.73,26.73,0,0,0,6.49-7.94l2.07,2.08a29.88,29.88,0,0,1-6.61,7.21c-11.27,8.41-18.52,9.37-18.52,9.37l-.18-1.76S75,98,82,92.47Z"/><path class="cls-5" d="M86.28,65.35c1.32-.06,5.48-.18,7.85,5.83,3.22,8.19-4.45,19-10,23.18-11.27,8.41-18.52,9.37-18.52,9.37l-1.76-1.89s2.24-1.34,2.72-1.51c0,0-.22,1.23,0,1.15A61.17,61.17,0,0,0,82.15,93c4.81-3.82,10.59-12.59,8.64-20S83.21,67.38,81.42,68C83.47,66.69,86.28,65.35,86.28,65.35Z"/><path class="cls-5" d="M95.82,63.38a34.72,34.72,0,0,0-6.44.78l3.78-1.47A25.41,25.41,0,0,1,96.48,62Z"/><path class="cls-5" d="M96.53,91.33a25.23,25.23,0,0,0,9.79-6.9c3.31-3.71,5.45-12.58-1.53-18.13l.83-1.69C113.54,70.49,111,81,107,85.29c-6.27,6.82-12.44,9.41-14.91,10.23A22.1,22.1,0,0,1,96.53,91.33Z"/><path class="cls-17" d="M100.53,107.49c-.37.37,10.65-.6,10.65-.6a5.29,5.29,0,1,1,0,10.57c-.88,0-10.65-.6-10.65-.6Z"/><path class="cls-19" d="M115.26,112.17a5.28,5.28,0,0,0-4.62-5.24l.54,0a5.29,5.29,0,1,1,0,10.57l-.7,0A5.3,5.3,0,0,0,115.26,112.17Z"/><path class="cls-37" d="M109.3,111.31c.25.58.24,1.11,0,1.11H99.39c-.29,0-.3-.53,0-1.11l2.54-5.89a.39.39,0,0,1,.32-.23h4.24a.41.41,0,0,1,.33.23Z"/><rect class="cls-18" x="97.78" y="107.43" width="15.19" height="10.07" rx="0.73"/><path class="cls-37" d="M109.11,116v1.54h3.14a.73.73,0,0,0,.73-.73V116H109.1A0,0,0,0,1,109.11,116Z"/><path class="cls-37" d="M112.25,107.42h-3.61v1.68H113v-1A.73.73,0,0,0,112.25,107.42Z"/><rect class="cls-17" x="94.88" y="107.43" width="15.19" height="10.07" rx="0.73"/><path class="cls-38" d="M110.07,109.09v-1a.72.72,0,0,0-.73-.72H95.61a.72.72,0,0,0-.73.72v1Z"/><path class="cls-38" d="M94.88,116v.83a.73.73,0,0,0,.73.73h13.73a.73.73,0,0,0,.73-.73V116Z"/><path class="cls-38" d="M106.31,108.66l-1.39-3.24a.39.39,0,0,0-.33-.23h-4.23a.39.39,0,0,0-.33.23l-1.39,3.24Z"/><path class="cls-39" d="M103.46,107.06a.31.31,0,0,1-.34.26h-2.84a.31.31,0,0,1-.34-.26v-1.24a.31.31,0,0,1,.34-.26h2.84a.31.31,0,0,1,.34.26Z"/><path class="cls-40" d="M104.28,107.06a.31.31,0,0,1-.33.26H101.1a.31.31,0,0,1-.34-.26v-1.24a.31.31,0,0,1,.34-.26H104a.31.31,0,0,1,.33.26Z"/><path class="cls-41" d="M110.63,109.5v-.66a.29.29,0,0,1,.29-.29h1.33a.29.29,0,0,1,.29.29v.66h.28v-.66a.56.56,0,0,0-.57-.57h-1.33a.56.56,0,0,0-.57.57v.66Z"/><path class="cls-40" d="M103.41,107c.13,0,.23-.1.23-.21v-1c0-.1-.1-.18-.23-.2v-.31h.43c.23,0,.41.13.41.3V107c0,.17-.18.3-.41.3h-.43Z"/><path class="cls-17" d="M99.62,105.65V107c0,.17.18.3.4.3h3.39c.23,0,.41-.13.41-.3v-1.39c0-.17-.18-.3-.41-.3H100C99.8,105.35,99.62,105.48,99.62,105.65Zm.6.21c0-.12.13-.21.29-.21h2.42c.16,0,.29.09.29.21v1c0,.12-.13.21-.29.21h-2.42c-.16,0-.29-.09-.29-.21Z"/><rect class="cls-25" x="99" y="109.59" width="10.49" height="5.88"/><path class="cls-42" d="M105.47,109.59h1.45c.86.85,1.72,1.71,2.57,2.57v1.45Z"/><path class="cls-42" d="M99,110.29v-.7h2l5.88,5.87h-2.68C102.45,113.74,100.73,112,99,110.29Z"/><path class="cls-42" d="M99,113.28v-1.66l3.85,3.84h-1.67Z"/><path class="cls-38" d="M96.31,111.82c0,.31.19.56.42.56s.41-.25.41-.56-.18-.56-.41-.56S96.31,111.51,96.31,111.82Z"/><path class="cls-38" d="M97.3,112.77c0,.31.18.56.41.56s.42-.25.42-.56-.19-.56-.42-.56S97.3,112.46,97.3,112.77Z"/><path class="cls-38" d="M95.3,112.77c0,.31.18.56.41.56s.42-.25.42-.56-.19-.56-.42-.56S95.3,112.46,95.3,112.77Z"/><path class="cls-38" d="M96.31,113.69c0,.31.19.56.42.56s.41-.25.41-.56-.18-.56-.41-.56S96.31,113.38,96.31,113.69Z"/><path class="cls-43" d="M108.66,68.77a12.9,12.9,0,0,0-2.51-3.34,8.44,8.44,0,0,1,6.29,8.16v35.12h-1.73V73.59A6.7,6.7,0,0,0,108.66,68.77Z"/><path class="cls-43" d="M97.29,90.79v16.63H95.56V92C96.1,91.6,96.69,91.19,97.29,90.79Z"/><path class="cls-37" d="M89.76,141.3c.3.68.29,1.29-.05,1.29H78.27c-.34,0-.35-.61-.06-1.29l2.94-6.83a.47.47,0,0,1,.38-.27h4.91a.45.45,0,0,1,.38.27Z"/><rect class="cls-18" x="76.4" y="136.8" width="17.62" height="11.68" rx="0.84"/><path class="cls-37" d="M89.54,146.73v1.78h3.64a.84.84,0,0,0,.84-.85v-1H89.53A0,0,0,0,1,89.54,146.73Z"/><path class="cls-37" d="M93.18,136.79H89v2h5v-1.11A.83.83,0,0,0,93.18,136.79Z"/><rect class="cls-17" x="73.03" y="136.8" width="17.62" height="11.68" rx="0.84"/><path class="cls-38" d="M90.66,138.73v-1.1a.84.84,0,0,0-.85-.84H73.88a.84.84,0,0,0-.85.84v1.1Z"/><path class="cls-38" d="M73,146.7v1a.85.85,0,0,0,.85.85H89.81a.85.85,0,0,0,.85-.85v-1Z"/><path class="cls-38" d="M86.3,138.23l-1.62-3.76a.46.46,0,0,0-.38-.27H79.39a.46.46,0,0,0-.38.27l-1.62,3.76Z"/><path class="cls-24" d="M84,136.37c0,.17-.19.31-.42.31H80.12c-.23,0-.42-.14-.42-.31v-1.43c0-.17.19-.31.42-.31H83.6c.23,0,.42.14.42.31Z"/><path class="cls-25" d="M79.71,136.43l1.8-1.8H80.12c-.23,0-.42.14-.42.31v1.43A.13.13,0,0,0,79.71,136.43Z"/><path class="cls-25" d="M84,135.08v-.14c0-.17-.19-.31-.42-.31h-.19l-2,2.05h1.06Z"/><path class="cls-18" d="M76,142.6c0-3.17-.84-5.75,2.32-5.79h3.46a5.79,5.79,0,1,1,0,11.57H78.18C75,148.34,76,145.77,76,142.6Z"/><path class="cls-19" d="M80.57,136.81h-1.1a5.79,5.79,0,1,1,0,11.57h1.1a5.79,5.79,0,1,0,0-11.57Z"/><path class="cls-18" d="M71,142.54c0-3.9-1-7.08,2.86-7.13h4.27a7.13,7.13,0,0,1,0,14.26H73.67C69.78,149.62,71,146.44,71,142.54Z"/><path class="cls-19" d="M76.61,135.41H75.26a7.13,7.13,0,1,1,0,14.26h1.35a7.13,7.13,0,0,0,0-14.26Z"/><path class="cls-26" d="M66.64,142.54a7.13,7.13,0,0,1,7.12-7.13h.18a7.13,7.13,0,1,1-7.3,7.13Z"/><path class="cls-18" d="M67.7,142.54a6.06,6.06,0,0,1,6.06-6.06h.16a6.06,6.06,0,1,1-6.22,6.06Z"/><path class="cls-24" d="M70.89,142.54a4.45,4.45,0,0,1,4.45-4.45h.11a4.45,4.45,0,1,1-4.56,4.45Z"/><path class="cls-25" d="M79.66,141.49a4.46,4.46,0,0,0-4.21-3.4h-.11a4.4,4.4,0,0,0-2.73.94,4,4,0,0,0-.07.7,3.78,3.78,0,0,0,7.12,1.76Z"/><path class="cls-41" d="M91.3,139.21v-.77a.34.34,0,0,1,.34-.34h1.55a.34.34,0,0,1,.33.34v.77h.33v-.77a.66.66,0,0,0-.66-.66H91.64a.65.65,0,0,0-.66.66v.77Z"/><path class="cls-43" d="M77.88,75.51v59.9H76.11V75.51a8.62,8.62,0,0,1,17.23,0v62.87H91.57V75.51a6.85,6.85,0,1,0-13.69,0Z"/><path class="cls-11" d="M89.86,71.19c-3-5.65-13.72-.4-9.72,5.67,28.88,43.78,59.74-11.14,59.74-11.14l-6.48-3.27S108,106,89.86,71.19Z"/><path class="cls-10" d="M137.79,64.69l2.09,1.06s-28.08,50-55.73,16.57C110.4,106.71,130.87,74.53,137.79,64.69Z"/><path class="cls-12" d="M89.86,71.19c14.86,28.52,34.56,4.51,41.22-5.15l.27.27c-4.06,6.45-26.44,39.26-42.89,7.69-1.84-3.53-6.73-2.81-9.17-.3C79.79,69.24,87.45,66.57,89.86,71.19Z"/><path class="cls-5" d="M78.94,64.31c0-.09.08-2.57,1.53-3.79.49-.41,6.3-1.44,8.2-1.71a12.88,12.88,0,0,0-3.23-1.32s-6.76.83-7.72,1.59a5.85,5.85,0,0,0-1.64,3.08Z"/><path class="cls-43" d="M66.86,88c-1.78-.38-9.28-2.54-11.69-5.72C60.63,84.61,66.86,88,66.86,88Z"/><path class="cls-3" d="M66.86,88c-1.78-.38-9.28-2.54-11.69-5.72-1.31,3.86-7.37,21.07,5,19.8C64.09,101.71,66.86,88,66.86,88Z"/><path class="cls-16" d="M123.87,75a96.61,96.61,0,0,0,9.74-13.86l7.22,4a90,90,0,0,1-11.71,15.08Z"/><polygon class="cls-43" points="134.33 63.39 132.66 62.04 130.11 65.87 132.51 67.47 134.33 63.39"/><path class="cls-18" d="M135.9,71.15a4.33,4.33,0,1,0-4.33-4.33A4.34,4.34,0,0,0,135.9,71.15Z"/><path class="cls-17" d="M136.5,71.24a4.2,4.2,0,1,0-4.2-4.19A4.2,4.2,0,0,0,136.5,71.24Z"/><path class="cls-14" d="M132.92,67.05a3.58,3.58,0,1,0,3.58-3.58A3.58,3.58,0,0,0,132.92,67.05Z"/><rect class="cls-17" x="136.3" y="64.34" width="0.66" height="2.77"/><rect class="cls-17" x="134.37" y="68.34" width="3.56" height="0.39" transform="translate(29.62 177.56) rotate(-72.39)"/><path class="cls-17" d="M136.42,71.63c.86,1.25-.49,4.08-5.53,0-3.88-3.12-2.34-5.77-.73-5-.43.62-.58.86-.58.86s1.06,3.5,6.15,5Z"/><path class="cls-14" d="M132.89,72.9a.76.76,0,0,0,.76-.76.75.75,0,0,0-.26-.57,1.39,1.39,0,0,1,.67-.17,1.43,1.43,0,1,1-1.43,1.44A.82.82,0,0,0,132.89,72.9Z"/><path class="cls-14" d="M129.44,70a.75.75,0,0,0,1-.43.78.78,0,0,0,0-.62,1.37,1.37,0,0,1,.69.08,1.43,1.43,0,0,1,.81,1.86,1.43,1.43,0,0,1-2.67-1A.68.68,0,0,0,129.44,70Z"/></g></g></g></svg>