<svg xmlns="http://www.w3.org/2000/svg" xmlns:xlink="http://www.w3.org/1999/xlink" viewBox="0 0 166.44 176.89"><defs><style>.cls-1,.cls-4{fill:#0f4c81;}.cls-1,.cls-2,.cls-27,.cls-3,.cls-8{stroke:#263238;}.cls-1,.cls-2,.cls-27,.cls-28,.cls-3,.cls-8,.cls-9{stroke-linecap:round;stroke-linejoin:round;}.cls-1,.cls-2,.cls-3,.cls-8,.cls-9{stroke-width:0.67px;}.cls-10,.cls-18,.cls-2,.cls-5{fill:#fff;}.cls-16,.cls-3{fill:#263238;}.cls-5{opacity:0.5;}.cls-6{clip-path:url(#clip-path);}.cls-7{opacity:0.13;}.cls-27,.cls-28,.cls-8,.cls-9{fill:none;}.cls-28,.cls-9{stroke:#fff;}.cls-11{clip-path:url(#clip-path-2);}.cls-12{clip-path:url(#clip-path-3);}.cls-13{clip-path:url(#clip-path-4);}.cls-14{clip-path:url(#clip-path-5);}.cls-15{clip-path:url(#clip-path-6);}.cls-17{clip-path:url(#clip-path-7);}.cls-18{opacity:0.53;}.cls-19{opacity:0.14;}.cls-20{clip-path:url(#clip-path-8);}.cls-21{clip-path:url(#clip-path-9);}.cls-22{clip-path:url(#clip-path-10);}.cls-23{clip-path:url(#clip-path-11);}.cls-24{clip-path:url(#clip-path-12);}.cls-25{clip-path:url(#clip-path-13);}.cls-26{clip-path:url(#clip-path-14);}.cls-27{stroke-width:1.34px;}.cls-28{stroke-width:0.5px;}.cls-29{clip-path:url(#clip-path-15);}</style><clipPath id="clip-path"><path class="cls-1" d="M70.68,37.63s-17.5-2.08-29,6.9S20.26,91,20.49,109s6.91,26.94,23.72,34.3,48.11,4.61,65.61-.92,23.25-24.86,23-35.22S121.1,84.82,117.18,82.29s-15-7.83-20.49-16.12S83.11,39.93,70.68,37.63Z"/></clipPath><clipPath id="clip-path-2"><path class="cls-2" d="M70.06,39.47s-6.27,2-7.16,3.58-.23,12.54-.23,13.89.79-.79,1.46-2.36,3-3.91,3.8-3.69,1.23,1.12,1.23,2.57,1.8,3.48,3.36,4.59,3,2.24,3,2.24,3.24-4.7,4-5.93.68-3.81.79-4.7,2.13,2.46,2.57,1.57-1-1.68-2.57-4.15-1.12-5-3.47-6.82S71.85,39,70.06,39.47Z"/></clipPath><clipPath id="clip-path-3"><path class="cls-2" d="M55.23,84.86s-3.86-5.54-8.57-6-10.41,3.36-10.57,4.7-1.35,8.56-.51,9.57,4,1.85,10.24-.17S54.56,88.39,55.23,84.86Z"/></clipPath><clipPath id="clip-path-4"><path class="cls-2" d="M42.13,86.38s-6.3,2.5-6.55,7.38c-.13,2.71,4.37,3.87,9.07,3.87s11.42-5.88,15.78-8.4,14.44-8.4,15.62-8.9,5.2.84,6.88,1.34a22.45,22.45,0,0,0,4.87.51s2.35,3.69,3.53,3.69-2.52-5.54-3-6.71-8.74-3.87-9.74-3.87-24.52,5.88-28,7.22S42.13,86.38,42.13,86.38Z"/></clipPath><clipPath id="clip-path-5"><polygon class="cls-2" points="86.12 77.81 68.14 90.53 109.27 89.36 123.06 77.98 86.12 77.81"/></clipPath><clipPath id="clip-path-6"><path class="cls-2" d="M99.72,90.41s14.78-12.93,29.39-17.3S146.74,69.42,146.4,76s-7.38,40.8-12.09,49.53-10.57,24.68-10.41,27.7,5.88,11.93,10.92,15.12,4.53,7.05,1.34,7.72-6.88,1.85-17.8-5.2-15.45-17.13-14.77-19.65,7.72-5.88,10.57-10.91,7.56-23.85,7.9-32.41a50.83,50.83,0,0,1,3.35-15.79s-18.47,3.36-23.84,6.72Z"/></clipPath><clipPath id="clip-path-7"><path class="cls-3" d="M114.16,140.28a12.05,12.05,0,0,1-.71,1.1,17.24,17.24,0,0,1,9.45,3.93,31.07,31.07,0,0,1,2.29,2.22c3.22-4.32,6.84-18,10.92-23.58,10.56-14.5,10-41.44,10.29-48s-2.68-7.23-17.29-2.86-29.39,17.3-29.39,17.3l1.85,8.39c5.37-3.36,23.84-6.72,23.84-6.72a50.83,50.83,0,0,0-3.35,15.79C121.72,116.43,117,135.24,114.16,140.28Z"/></clipPath><clipPath id="clip-path-8"><path class="cls-2" d="M55.73,93.09s-5.37,3-7.22,6.38,6.1,9,14.5,8.62S86.8,98.63,86.8,98.63s.16,14.78,3,20.15,16,18.47,21.15,21.83,22.67,15.95,25.36,18,7.72,5.71,8.9,5.87,13.43-14.77,16.29-19.81,5.37-15.61,4.36-18-3-.33-5,1.35S140.36,142,138.68,142.79a18.87,18.87,0,0,1-2.85,1.18s-15.12-14.44-23.18-25.52-8.73-25.36-11.75-30.73S93.51,80,87,80.67A69.7,69.7,0,0,0,55.73,93.09Z"/></clipPath><clipPath id="clip-path-9"><path class="cls-3" d="M134.78,143c-3.55-3.46-16.87-21.34-22.13-31.61-7.7-15.06-8.53-20.19-11.55-25.56S93.51,80,87,80.67a77.41,77.41,0,0,0-32.64,10s-6,3.28-7.88,6.64S51.32,109.16,63,108.09c8.37-.76,23.79-9.46,23.79-9.46s.16,14.78,3,20.15,16,18.47,21.15,21.83c3.31,2.13,11.53,8,17.8,12.48A20.16,20.16,0,0,1,134.78,143Z"/></clipPath><clipPath id="clip-path-10"><path class="cls-2" d="M161.52,144.64c2.85-5,5.37-15.61,4.36-18-.58-1.36-1.5-1.25-2.57-.6.71,3.15,0,9.2-3.47,15.72-3.1,5.81-12.66,16.09-17.48,21.1a11.07,11.07,0,0,0,2.87,1.56C146.4,164.62,158.66,149.68,161.52,144.64Z"/></clipPath><clipPath id="clip-path-11"><path class="cls-2" d="M134.82,168.32a22.46,22.46,0,0,1-4.48-4,91.07,91.07,0,0,1-12.15-5.88c-4.36-2.69-3.35-4.37-5.87-6.88-1.93-1.94-5.74-2.19-7.41-2.2a4.63,4.63,0,0,0-1.32,1.86c-.68,2.52,3.86,12.59,14.77,19.65s14.61,5.87,17.8,5.2S139.86,171.51,134.82,168.32Z"/></clipPath><clipPath id="clip-path-12"><path class="cls-3" d="M135.66,169.49c-4.37-2.52-13.27-4.2-19-8.06s-4.19-7.22-8.39-9.9a4.27,4.27,0,0,0-4.72-.27c-.58,2.61,4,12.58,14.79,19.58s14.61,5.87,17.8,5.2c2.12-.45,3-2.3,2-4.43A9.23,9.23,0,0,0,135.66,169.49Z"/></clipPath><clipPath id="clip-path-13"><path class="cls-2" d="M68.26,30.77s.78,8.48,1.11,11.16,1.08,10.37,1.85,12.92,5,7,5.39,5.95,2.49-7.94,1.66-12.06S77.18,41.06,77.7,40a8.39,8.39,0,0,1,2.38-2.22,66.86,66.86,0,0,1-6.31-3.68C70.78,32.12,68.67,29.85,68.26,30.77Z"/></clipPath><clipPath id="clip-path-14"><path class="cls-2" d="M68,32S72.78,36,76.5,37.49s9.41,1.38,10.21-.55S85.3,19.75,83.39,15.73s-4-4.08-7.34-4.39-10.13,2.45-11.32,5.71.16,7.89,1.15,10.62A20.06,20.06,0,0,0,68,32Z"/></clipPath><clipPath id="clip-path-15"><path class="cls-2" d="M69.4,28s-2.17-3.13-4.46-1.87-.51,5.72.87,7.28,4-1.33,4.3-2.07"/></clipPath></defs><title>vectorsAsset 6</title><g id="Layer_2" data-name="Layer 2"><g id="ev_pages" data-name="ev pages"><ellipse class="cls-4" cx="77.2" cy="143.68" rx="77.2" ry="24.05"/><ellipse class="cls-5" cx="77.2" cy="143.68" rx="77.2" ry="24.05"/><path class="cls-4" d="M70.68,37.63s-17.5-2.08-29,6.9S20.26,91,20.49,109s6.91,26.94,23.72,34.3,48.11,4.61,65.61-.92,23.25-24.86,23-35.22S121.1,84.82,117.18,82.29s-15-7.83-20.49-16.12S83.11,39.93,70.68,37.63Z"/><g class="cls-6"><path class="cls-7" d="M113,141.15c-6.62-.89-14.46-2.69-20.4-6.29C80.09,127.24,77,112.92,72.48,107.54S59.94,102.62,56.36,96.8,58.6,48,48.3,45.3a23.59,23.59,0,0,0-6.43-.91l-.2.14C30.16,53.51,20.26,91,20.49,109s6.91,26.94,23.72,34.3,48.11,4.61,65.61-.92A30,30,0,0,0,113,141.15Z"/></g><path class="cls-8" d="M70.68,37.63s-17.5-2.08-29,6.9S20.26,91,20.49,109s6.91,26.94,23.72,34.3,48.11,4.61,65.61-.92,23.25-24.86,23-35.22S121.1,84.82,117.18,82.29s-15-7.83-20.49-16.12S83.11,39.93,70.68,37.63Z"/><path class="cls-3" d="M63.79,45.74s-11.42,2.18-13.43,4.2S40,83.52,40,83.52a12.43,12.43,0,0,1,7,.34c3.36,1.34,3.69,4.87,4,6.55a58.26,58.26,0,0,1,.5,6s33.94-3,41.16-4.71a145.86,145.86,0,0,1,18.21-2.45S92.34,47.42,89.48,45.91,74.71,44.23,73,44.57,63.79,45.74,63.79,45.74Z"/><line class="cls-9" x1="52.54" y1="84.53" x2="55.4" y2="61.19"/><line class="cls-9" x1="54.72" y1="67.4" x2="58.59" y2="62.36"/><path class="cls-9" d="M66.31,70.42S77.22,66.9,84.44,66.9"/><path class="cls-9" d="M76.61,60.8l-.73,5.59s1.85,0,2,.84a2.26,2.26,0,0,1-.68,1.68s5.21,2.86,5.88,6.22"/><path class="cls-10" d="M70.06,39.47s-6.27,2-7.16,3.58-.23,12.54-.23,13.89.79-.79,1.46-2.36,3-3.91,3.8-3.69,1.23,1.12,1.23,2.57,1.8,3.48,3.36,4.59,3,2.24,3,2.24,3.24-4.7,4-5.93.68-3.81.79-4.7,2.13,2.46,2.57,1.57-1-1.68-2.57-4.15-1.12-5-3.47-6.82S71.85,39,70.06,39.47Z"/><g class="cls-11"><path class="cls-4" d="M62.9,43.05c-.6,1.05-.5,6.28-.37,10.05,1.43-1.85,4.38-5.32,6.08-4.66,2.18.83,3,7,3,7l-1.46-16-.1,0S63.79,41.49,62.9,43.05Z"/><path class="cls-5" d="M62.9,43.05c-.6,1.05-.5,6.28-.37,10.05,1.43-1.85,4.38-5.32,6.08-4.66,2.18.83,3,7,3,7l-1.46-16-.1,0S63.79,41.49,62.9,43.05Z"/></g><path class="cls-8" d="M70.06,39.47s-6.27,2-7.16,3.58-.23,12.54-.23,13.89.79-.79,1.46-2.36,3-3.91,3.8-3.69,1.23,1.12,1.23,2.57,1.8,3.48,3.36,4.59,3,2.24,3,2.24,3.24-4.7,4-5.93.68-3.81.79-4.7,2.13,2.46,2.57,1.57-1-1.68-2.57-4.15-1.12-5-3.47-6.82S71.85,39,70.06,39.47Z"/><path class="cls-10" d="M55.23,84.86s-3.86-5.54-8.57-6-10.41,3.36-10.57,4.7-1.35,8.56-.51,9.57,4,1.85,10.24-.17S54.56,88.39,55.23,84.86Z"/><g class="cls-12"><path class="cls-4" d="M39.52,92.92s-1.34-3.85-.67-5.18,3.34-3.35,5-5.35-3.91,1.13-4.18,0c-.21-.92,3-2.74,4.19-3.42-3.91.75-7.65,3.47-7.78,4.55-.17,1.34-1.35,8.56-.51,9.57.44.52,1.5,1,3.28,1C39.27,93.44,39.52,92.92,39.52,92.92Z"/><path class="cls-5" d="M39.52,92.92s-1.34-3.85-.67-5.18,3.34-3.35,5-5.35-3.91,1.13-4.18,0c-.21-.92,3-2.74,4.19-3.42-3.91.75-7.65,3.47-7.78,4.55-.17,1.34-1.35,8.56-.51,9.57.44.52,1.5,1,3.28,1C39.27,93.44,39.52,92.92,39.52,92.92Z"/></g><path class="cls-8" d="M55.23,84.86s-3.86-5.54-8.57-6-10.41,3.36-10.57,4.7-1.35,8.56-.51,9.57,4,1.85,10.24-.17S54.56,88.39,55.23,84.86Z"/><path class="cls-10" d="M42.13,86.38s-6.3,2.5-6.55,7.38c-.13,2.71,4.37,3.87,9.07,3.87s11.42-5.88,15.78-8.4,14.44-8.4,15.62-8.9,5.2.84,6.88,1.34a22.45,22.45,0,0,0,4.87.51s2.35,3.69,3.53,3.69-2.52-5.54-3-6.71-8.74-3.87-9.74-3.87-24.52,5.88-28,7.22S42.13,86.38,42.13,86.38Z"/><g class="cls-13"><path class="cls-4" d="M55.3,85.68c9.6-4.8,23.27-10.39,23.27-10.39-1,0-24.52,5.88-28,7.22s-8.4,3.87-8.4,3.87-6.3,2.5-6.55,7.38c-.13,2.71,4.37,3.87,9.07,3.87s11.42-5.88,15.78-8.4l2.65-1.53C56.66,88.53,48.09,89.28,55.3,85.68Z"/><path class="cls-5" d="M55.3,85.68c9.6-4.8,23.27-10.39,23.27-10.39-1,0-24.52,5.88-28,7.22s-8.4,3.87-8.4,3.87-6.3,2.5-6.55,7.38c-.13,2.71,4.37,3.87,9.07,3.87s11.42-5.88,15.78-8.4l2.65-1.53C56.66,88.53,48.09,89.28,55.3,85.68Z"/></g><path class="cls-8" d="M42.13,86.38s-6.3,2.5-6.55,7.38c-.13,2.71,4.37,3.87,9.07,3.87s11.42-5.88,15.78-8.4,14.44-8.4,15.62-8.9,5.2.84,6.88,1.34a22.45,22.45,0,0,0,4.87.51s2.35,3.69,3.53,3.69-2.52-5.54-3-6.71-8.74-3.87-9.74-3.87-24.52,5.88-28,7.22S42.13,86.38,42.13,86.38Z"/><path class="cls-2" d="M91.24,49,86.12,77.81l36.94.17,5.5-27.29a1.69,1.69,0,0,0-1.61-2l-34-1A1.7,1.7,0,0,0,91.24,49Z"/><polygon class="cls-10" points="86.12 77.81 68.14 90.53 109.27 89.36 123.06 77.98 86.12 77.81"/><g class="cls-14"><polygon class="cls-4" points="86.12 77.81 68.14 90.53 109.27 89.36 123.06 77.98 86.12 77.81"/><polygon class="cls-5" points="86.12 77.81 68.14 90.53 109.27 89.36 123.06 77.98 86.12 77.81"/></g><polygon class="cls-8" points="86.12 77.81 68.14 90.53 109.27 89.36 123.06 77.98 86.12 77.81"/><path class="cls-10" d="M99.72,90.41s14.78-12.93,29.39-17.3S146.74,69.42,146.4,76s-7.38,40.8-12.09,49.53-10.57,24.68-10.41,27.7,5.88,11.93,10.92,15.12,4.53,7.05,1.34,7.72-6.88,1.85-17.8-5.2-15.45-17.13-14.77-19.65,7.72-5.88,10.57-10.91,7.56-23.85,7.9-32.41a50.83,50.83,0,0,1,3.35-15.79s-18.47,3.36-23.84,6.72Z"/><g class="cls-15"><path class="cls-4" d="M99.72,90.41s14.78-12.93,29.39-17.3S146.74,69.42,146.4,76s-7.38,40.8-12.09,49.53-10.57,24.68-10.41,27.7,5.88,11.93,10.92,15.12,4.53,7.05,1.34,7.72-6.88,1.85-17.8-5.2-15.45-17.13-14.77-19.65,7.72-5.88,10.57-10.91,7.56-23.85,7.9-32.41a50.83,50.83,0,0,1,3.35-15.79s-18.47,3.36-23.84,6.72Z"/><path class="cls-5" d="M99.72,90.41s14.78-12.93,29.39-17.3S146.74,69.42,146.4,76s-7.38,40.8-12.09,49.53-10.57,24.68-10.41,27.7,5.88,11.93,10.92,15.12,4.53,7.05,1.34,7.72-6.88,1.85-17.8-5.2-15.45-17.13-14.77-19.65,7.72-5.88,10.57-10.91,7.56-23.85,7.9-32.41a50.83,50.83,0,0,1,3.35-15.79s-18.47,3.36-23.84,6.72Z"/></g><path class="cls-8" d="M99.72,90.41s14.78-12.93,29.39-17.3S146.74,69.42,146.4,76s-7.38,40.8-12.09,49.53-10.57,24.68-10.41,27.7,5.88,11.93,10.92,15.12,4.53,7.05,1.34,7.72-6.88,1.85-17.8-5.2-15.45-17.13-14.77-19.65,7.72-5.88,10.57-10.91,7.56-23.85,7.9-32.41a50.83,50.83,0,0,1,3.35-15.79s-18.47,3.36-23.84,6.72Z"/><path class="cls-2" d="M114.16,140.28a12.05,12.05,0,0,1-.71,1.1,17.24,17.24,0,0,1,9.45,3.93,31.07,31.07,0,0,1,2.29,2.22,148.17,148.17,0,0,1,9.12-22c4.71-8.73,11.76-43,12.09-49.53s-2.68-7.23-17.29-2.86-29.39,17.3-29.39,17.3l1.85,8.39c5.37-3.36,23.84-6.72,23.84-6.72a50.83,50.83,0,0,0-3.35,15.79C121.72,116.43,117,135.24,114.16,140.28Z"/><path class="cls-16" d="M114.16,140.28a12.05,12.05,0,0,1-.71,1.1,17.24,17.24,0,0,1,9.45,3.93,31.07,31.07,0,0,1,2.29,2.22c3.22-4.32,6.84-18,10.92-23.58,10.56-14.5,10-41.44,10.29-48s-2.68-7.23-17.29-2.86-29.39,17.3-29.39,17.3l1.85,8.39c5.37-3.36,23.84-6.72,23.84-6.72a50.83,50.83,0,0,0-3.35,15.79C121.72,116.43,117,135.24,114.16,140.28Z"/><g class="cls-17"><path class="cls-18" d="M114.16,140.28a12.05,12.05,0,0,1-.71,1.1,17.24,17.24,0,0,1,9.45,3.93,31.07,31.07,0,0,1,2.29,2.22c3.22-4.32,6.84-18,10.92-23.58,10.56-14.5,10-41.44,10.29-48s-2.68-7.23-17.29-2.86-29.39,17.3-29.39,17.3l1.85,8.39c5.37-3.36,23.84-6.72,23.84-6.72a50.83,50.83,0,0,0-3.35,15.79C121.72,116.43,117,135.24,114.16,140.28Z"/><path class="cls-19" d="M139.31,75.08c-.27-2.39-26.24,8.61-37.19,13.35-1.52,1.21-2.4,2-2.4,2l1.85,8.39c5.37-3.36,23.84-6.72,23.84-6.72a50.83,50.83,0,0,0-3.35,15.79c-.34,8.56-5,27.37-7.9,32.41a12.05,12.05,0,0,1-.71,1.1,19.18,19.18,0,0,1,5.36,1.38c4.07-8.59,8.38-18.56,10.42-26.37C132.93,102.28,139.64,78.1,139.31,75.08Z"/><path class="cls-8" d="M125.41,92.08s5-10.24,9.41-14.44"/></g><path class="cls-8" d="M114.16,140.28a12.05,12.05,0,0,1-.71,1.1,17.24,17.24,0,0,1,9.45,3.93,31.07,31.07,0,0,1,2.29,2.22c3.22-4.32,6.84-18,10.92-23.58,10.56-14.5,10-41.44,10.29-48s-2.68-7.23-17.29-2.86-29.39,17.3-29.39,17.3l1.85,8.39c5.37-3.36,23.84-6.72,23.84-6.72a50.83,50.83,0,0,0-3.35,15.79C121.72,116.43,117,135.24,114.16,140.28Z"/><path class="cls-3" d="M77.59,103.93a57.62,57.62,0,0,0,15.88-3c7.6-2.76-6.21-7.82-11.51-5.06A7.87,7.87,0,0,0,77.59,103.93Z"/><path class="cls-10" d="M55.73,93.09s-5.37,3-7.22,6.38,6.1,9,14.5,8.62S86.8,98.63,86.8,98.63s.16,14.78,3,20.15,16,18.47,21.15,21.83,22.67,15.95,25.36,18,7.72,5.71,8.9,5.87,13.43-14.77,16.29-19.81,5.37-15.61,4.36-18-3-.33-5,1.35S140.36,142,138.68,142.79a18.87,18.87,0,0,1-2.85,1.18s-15.12-14.44-23.18-25.52-8.73-25.36-11.75-30.73S93.51,80,87,80.67A69.7,69.7,0,0,0,55.73,93.09Z"/><g class="cls-20"><path class="cls-4" d="M126.78,151.66c4.49,3.21,8.39,6.05,9.55,6.92,2.69,2,7.72,5.71,8.9,5.87.42.06,2.23-1.78,4.52-4.41l-19.23-12.37Z"/><path class="cls-5" d="M126.78,151.66c4.49,3.21,8.39,6.05,9.55,6.92,2.69,2,7.72,5.71,8.9,5.87.42.06,2.23-1.78,4.52-4.41l-19.23-12.37Z"/></g><path class="cls-8" d="M55.73,93.09s-5.37,3-7.22,6.38,6.1,9,14.5,8.62S86.8,98.63,86.8,98.63s.16,14.78,3,20.15,16,18.47,21.15,21.83,22.67,15.95,25.36,18,7.72,5.71,8.9,5.87,13.43-14.77,16.29-19.81,5.37-15.61,4.36-18-3-.33-5,1.35S140.36,142,138.68,142.79a18.87,18.87,0,0,1-2.85,1.18s-15.12-14.44-23.18-25.52-8.73-25.36-11.75-30.73S93.51,80,87,80.67A69.7,69.7,0,0,0,55.73,93.09Z"/><path class="cls-16" d="M134.78,143c-3.55-3.46-16.87-21.34-22.13-31.61-7.7-15.06-8.53-20.19-11.55-25.56S93.51,80,87,80.67a77.41,77.41,0,0,0-32.64,10s-6,3.28-7.88,6.64S51.32,109.16,63,108.09c8.37-.76,23.79-9.46,23.79-9.46s.16,14.78,3,20.15,16,18.47,21.15,21.83c3.31,2.13,11.53,8,17.8,12.48A20.16,20.16,0,0,1,134.78,143Z"/><g class="cls-21"><path class="cls-18" d="M134.78,143c-3.55-3.46-16.87-21.34-22.13-31.61-7.7-15.06-8.53-20.19-11.55-25.56S93.51,80,87,80.67a77.41,77.41,0,0,0-32.64,10s-6,3.28-7.88,6.64S51.32,109.16,63,108.09c8.37-.76,23.79-9.46,23.79-9.46s.16,14.78,3,20.15,16,18.47,21.15,21.83c3.31,2.13,11.53,8,17.8,12.48A20.16,20.16,0,0,1,134.78,143Z"/><path class="cls-19" d="M101,119.07c-5-12.76-2-38.28-16.12-34.92C74.62,86.59,55.79,95.28,46.32,99.81c1.12,3.86,7.3,9.14,16.69,8.28,8.37-.76,23.79-9.46,23.79-9.46s.16,14.78,3,20.15,16,18.47,21.15,21.83c3.31,2.13,11.53,8,17.8,12.48a23.74,23.74,0,0,1,2.34-5.63C118.61,138.22,103.83,126.2,101,119.07Z"/><line class="cls-8" x1="86.8" y1="98.63" x2="86.29" y2="89.9"/></g><path class="cls-8" d="M134.78,143c-3.55-3.46-16.87-21.34-22.13-31.61-7.7-15.06-8.53-20.19-11.55-25.56S93.51,80,87,80.67a77.41,77.41,0,0,0-32.64,10s-6,3.28-7.88,6.64S51.32,109.16,63,108.09c8.37-.76,23.79-9.46,23.79-9.46s.16,14.78,3,20.15,16,18.47,21.15,21.83c3.31,2.13,11.53,8,17.8,12.48A20.16,20.16,0,0,1,134.78,143Z"/><path class="cls-3" d="M136.33,158.58c2.69,2,7.72,5.71,8.9,5.87s13.43-14.77,16.29-19.81,5.37-15.61,4.36-18-3-.33-5,1.35S140.36,142,138.68,142.79c-.44.22-.84.41-1.2.56-.49.92-1.07,2.35-.65,3.31.67,1.51,3.53,3.52,3.53,3.52l-5.08,7.62Z"/><path class="cls-10" d="M161.52,144.64c2.85-5,5.37-15.61,4.36-18-.58-1.36-1.5-1.25-2.57-.6.71,3.15,0,9.2-3.47,15.72-3.1,5.81-12.66,16.09-17.48,21.1a11.07,11.07,0,0,0,2.87,1.56C146.4,164.62,158.66,149.68,161.52,144.64Z"/><g class="cls-22"><path class="cls-4" d="M145.4,164.41l.14-.08.05,0a2.39,2.39,0,0,0,.22-.16.27.27,0,0,0,.08-.07l.2-.16.11-.1.26-.24.16-.15c.07-.07.15-.14.22-.22L147,163l.19-.19.48-.5.07-.08.3-.33.12-.12c.35-.39.73-.8,1.11-1.24l0,0,.41-.46h0l-2.93-1.88c-1.67,1.81-3.22,3.45-4.46,4.73h0l.45.3.07,0,.41.26h0c.23.15.44.27.65.39l.18.1.19.1.21.11.15.07a1.89,1.89,0,0,0,.21.09l.1,0,.24.06a.22.22,0,0,0,.13,0Z"/><path class="cls-5" d="M145.4,164.41l.14-.08.05,0a2.39,2.39,0,0,0,.22-.16.27.27,0,0,0,.08-.07l.2-.16.11-.1.26-.24.16-.15c.07-.07.15-.14.22-.22L147,163l.19-.19.48-.5.07-.08.3-.33.12-.12c.35-.39.73-.8,1.11-1.24l0,0,.41-.46h0l-2.93-1.88c-1.67,1.81-3.22,3.45-4.46,4.73h0l.45.3.07,0,.41.26h0c.23.15.44.27.65.39l.18.1.19.1.21.11.15.07a1.89,1.89,0,0,0,.21.09l.1,0,.24.06a.22.22,0,0,0,.13,0Z"/></g><path class="cls-8" d="M161.52,144.64c2.85-5,5.37-15.61,4.36-18-.58-1.36-1.5-1.25-2.57-.6.71,3.15,0,9.2-3.47,15.72-3.1,5.81-12.66,16.09-17.48,21.1a11.07,11.07,0,0,0,2.87,1.56C146.4,164.62,158.66,149.68,161.52,144.64Z"/><path class="cls-3" d="M134.82,168.32c-5-3.19-10.75-12.09-10.92-15.12a5.77,5.77,0,0,1,.08-1,4.84,4.84,0,0,0-2.76,1,65.58,65.58,0,0,0-6.55-5.2,13.65,13.65,0,0,0-6-1.8c-2.44,2-4.7,3.62-5.06,5-.68,2.52,3.86,12.59,14.77,19.65s14.61,5.87,17.8,5.2S139.86,171.51,134.82,168.32Z"/><path class="cls-10" d="M134.82,168.32a22.46,22.46,0,0,1-4.48-4,91.07,91.07,0,0,1-12.15-5.88c-4.36-2.69-3.35-4.37-5.87-6.88-1.93-1.94-5.74-2.19-7.41-2.2a4.63,4.63,0,0,0-1.32,1.86c-.68,2.52,3.86,12.59,14.77,19.65s14.61,5.87,17.8,5.2S139.86,171.51,134.82,168.32Z"/><g class="cls-23"><path class="cls-4" d="M134.82,168.32a22.46,22.46,0,0,1-4.48-4,91.07,91.07,0,0,1-12.15-5.88c-4.36-2.69-3.35-4.37-5.87-6.88-1.93-1.94-5.74-2.19-7.41-2.2a4.63,4.63,0,0,0-1.32,1.86c-.68,2.52,3.86,12.59,14.77,19.65s14.61,5.87,17.8,5.2S139.86,171.51,134.82,168.32Z"/><path class="cls-5" d="M134.82,168.32a22.46,22.46,0,0,1-4.48-4,91.07,91.07,0,0,1-12.15-5.88c-4.36-2.69-3.35-4.37-5.87-6.88-1.93-1.94-5.74-2.19-7.41-2.2a4.63,4.63,0,0,0-1.32,1.86c-.68,2.52,3.86,12.59,14.77,19.65s14.61,5.87,17.8,5.2S139.86,171.51,134.82,168.32Z"/></g><path class="cls-8" d="M134.82,168.32a22.46,22.46,0,0,1-4.48-4,91.07,91.07,0,0,1-12.15-5.88c-4.36-2.69-3.35-4.37-5.87-6.88-1.93-1.94-5.74-2.19-7.41-2.2a4.63,4.63,0,0,0-1.32,1.86c-.68,2.52,3.86,12.59,14.77,19.65s14.61,5.87,17.8,5.2S139.86,171.51,134.82,168.32Z"/><path class="cls-16" d="M135.66,169.49c-4.37-2.52-13.27-4.2-19-8.06s-4.19-7.22-8.39-9.9a4.27,4.27,0,0,0-4.72-.27c-.58,2.61,4,12.58,14.79,19.58s14.61,5.87,17.8,5.2c2.12-.45,3-2.3,2-4.43A9.23,9.23,0,0,0,135.66,169.49Z"/><g class="cls-24"><path class="cls-18" d="M135.66,169.49c-4.37-2.52-13.27-4.2-19-8.06s-4.19-7.22-8.39-9.9a4.27,4.27,0,0,0-4.72-.27c-.58,2.61,4,12.58,14.79,19.58s14.61,5.87,17.8,5.2c2.12-.45,3-2.3,2-4.43A9.23,9.23,0,0,0,135.66,169.49Z"/></g><path class="cls-8" d="M135.66,169.49c-4.37-2.52-13.27-4.2-19-8.06s-4.19-7.22-8.39-9.9a4.27,4.27,0,0,0-4.72-.27c-.58,2.61,4,12.58,14.79,19.58s14.61,5.87,17.8,5.2c2.12-.45,3-2.3,2-4.43A9.23,9.23,0,0,0,135.66,169.49Z"/><path class="cls-2" d="M52,137.37s3.22-3.91,3.68-.92S55.44,145,53.14,147s-3.46-1.15-3.46-1.15l1.38-1.84s1.16,2.3,2.08-1.38-1.85-3.22-1.85-3.22Z"/><path class="cls-2" d="M49.52,152.11c-1.91,1.41-8.12,1.41-10,0-4-3-3.34-17.43-3.34-17.43h16.7S53.55,149.12,49.52,152.11Z"/><path class="cls-8" d="M38,131.85c0-1.82,1.68-1.82,1.68-3.64S38,126.4,38,124.58s1.68-1.82,1.68-3.64S38,119.12,38,117.3s1.68-1.82,1.68-3.64"/><path class="cls-8" d="M43.73,131.85c0-1.38,1.68-1.38,1.68-2.76s-1.68-1.38-1.68-2.76,1.68-1.38,1.68-2.77-1.68-1.38-1.68-2.76,1.68-1.38,1.68-2.76"/><path class="cls-8" d="M50.08,131.85c0-1.82,1.68-1.82,1.68-3.64s-1.68-1.81-1.68-3.63,1.68-1.82,1.68-3.64-1.68-1.82-1.68-3.64,1.68-1.82,1.68-3.64"/><path class="cls-2" d="M52.85,134.68c0,.42-3.74.76-8.35.76s-8.35-.34-8.35-.76,3.73-.76,8.35-.76S52.85,134.26,52.85,134.68Z"/><path class="cls-10" d="M68.26,30.77s.78,8.48,1.11,11.16,1.08,10.37,1.85,12.92,5,7,5.39,5.95,2.49-7.94,1.66-12.06S77.18,41.06,77.7,40a8.39,8.39,0,0,1,2.38-2.22,66.86,66.86,0,0,1-6.31-3.68C70.78,32.12,68.67,29.85,68.26,30.77Z"/><g class="cls-25"><path class="cls-4" d="M79,38.2l-.69-1.31c-1.23-.67-2.95-1.66-4.58-2.76-3-2-5.1-4.28-5.51-3.36,0,0,.78,8.48,1.11,11.16s1.08,10.37,1.85,12.92a8.71,8.71,0,0,0,1.08,2.09c-.81-5.06.07-14.21.07-14.21Z"/><path class="cls-5" d="M79,38.2l-.69-1.31c-1.23-.67-2.95-1.66-4.58-2.76-3-2-5.1-4.28-5.51-3.36,0,0,.78,8.48,1.11,11.16s1.08,10.37,1.85,12.92a8.71,8.71,0,0,0,1.08,2.09c-.81-5.06.07-14.21.07-14.21Z"/></g><path class="cls-8" d="M68.26,30.77s.78,8.48,1.11,11.16,1.08,10.37,1.85,12.92,5,7,5.39,5.95,2.49-7.94,1.66-12.06S77.18,41.06,77.7,40a8.39,8.39,0,0,1,2.38-2.22,66.86,66.86,0,0,1-6.31-3.68C70.78,32.12,68.67,29.85,68.26,30.77Z"/><path class="cls-10" d="M68,32S72.78,36,76.5,37.49s9.41,1.38,10.21-.55S85.3,19.75,83.39,15.73s-4-4.08-7.34-4.39-10.13,2.45-11.32,5.71.16,7.89,1.15,10.62A20.06,20.06,0,0,0,68,32Z"/><g class="cls-26"><path class="cls-4" d="M76.64,31.8c-1.72-5.09-2.14-13.07-2.14-15.2,0-1.65,4.29-3.45,6.25-4.19-1.29-.8-2.78-.9-4.7-1.07-3.37-.31-10.13,2.45-11.32,5.71s.16,7.89,1.15,10.62A20.06,20.06,0,0,0,68,32S72.78,36,76.5,37.49a15.4,15.4,0,0,0,8,.77C81.89,37.26,77.78,35.19,76.64,31.8Z"/><path class="cls-5" d="M76.64,31.8c-1.72-5.09-2.14-13.07-2.14-15.2,0-1.65,4.29-3.45,6.25-4.19-1.29-.8-2.78-.9-4.7-1.07-3.37-.31-10.13,2.45-11.32,5.71s.16,7.89,1.15,10.62A20.06,20.06,0,0,0,68,32S72.78,36,76.5,37.49a15.4,15.4,0,0,0,8,.77C81.89,37.26,77.78,35.19,76.64,31.8Z"/></g><path class="cls-8" d="M68,32S72.78,36,76.5,37.49s9.41,1.38,10.21-.55S85.3,19.75,83.39,15.73s-4-4.08-7.34-4.39-10.13,2.45-11.32,5.71.16,7.89,1.15,10.62A20.06,20.06,0,0,0,68,32Z"/><path class="cls-8" d="M83.75,22c.08,1.93-1.14,3.55-2.71,3.62s-2.91-1.46-3-3.4,1.13-3.55,2.71-3.61S83.67,20.07,83.75,22Z"/><path class="cls-8" d="M87.55,21.27c.08,1.93-.55,3.53-1.39,3.56s-1.6-1.51-1.67-3.44.54-3.53,1.39-3.57S87.47,19.33,87.55,21.27Z"/><path class="cls-2" d="M84,21.3s5.54,1.06,5,2.4-4.28,2.78-4.28,2.78"/><path class="cls-8" d="M83.61,20.69s.07-.69.93-.25"/><line class="cls-8" x1="77.9" y1="22.54" x2="67.81" y2="26.51"/><path class="cls-27" d="M78,19.28a2.56,2.56,0,0,1,2.51-1.52"/><line class="cls-27" x1="84.75" y1="17.81" x2="83.2" y2="18.39"/><path class="cls-8" d="M80,29.07a3.61,3.61,0,0,1,3.16.66"/><path class="cls-16" d="M81.26,22.37c.09.67,0,1.25-.28,1.28s-.52-.49-.61-1.16,0-1.25.28-1.28S81.17,21.7,81.26,22.37Z"/><path class="cls-3" d="M68.76,26.54S68.08,27.88,70,28s3.18-.86,2.26-2S70,23.71,71.36,22.2s4.13-2.8,2.6-4.49-7.17-.16-5.76-1.53,7.93-2.8,10.86-2.62,8.4-2.08,9.6-5.05S88.18.05,84.24.35s-6.86,3.78-8.61,4-5.33-1.69-8.33,0-3.1,6.55-3.37,7.15-4.33,1.48-5,5.6a11,11,0,0,0,2.85,9.25c1.68,1.83,2.44,2.53,2.44,2.53Z"/><path class="cls-28" d="M60.21,19.1a3.13,3.13,0,0,0,.43,1.78"/><path class="cls-28" d="M77.33,8.47S75.87,5.26,79.6,5.26s4.28,4.67.41,6.41-12.29,2.14-16.83,4.14a5.91,5.91,0,0,0-2.31,1.64"/><path class="cls-28" d="M70.57,19.84c-1.34.48-3.08,1.16-4.85,2-3.74,1.73-2.94,3.47-2.94,3.47"/><path class="cls-28" d="M73.06,19l-.88.28"/><path class="cls-10" d="M69.4,28s-2.17-3.13-4.46-1.87-.51,5.72.87,7.28,4-1.33,4.3-2.07"/><g class="cls-29"><path class="cls-4" d="M69.4,28s-2.17-3.13-4.46-1.87-.51,5.72.87,7.28,4-1.33,4.3-2.07"/><path class="cls-5" d="M69.4,28s-2.17-3.13-4.46-1.87-.51,5.72.87,7.28,4-1.33,4.3-2.07"/></g><path class="cls-8" d="M69.4,28s-2.17-3.13-4.46-1.87-.51,5.72.87,7.28,4-1.33,4.3-2.07"/></g></g></svg>